<svg width="76" height="108" viewBox="0 0 76 108" fill="none" xmlns="http://www.w3.org/2000/svg">
<path d="M12.3417 93.7578C12.1517 93.564 11.9717 93.3606 11.7817 93.1572C11.9717 93.3606 12.1517 93.5544 12.3417 93.7578Z" fill="#DD0979"/>
<path d="M75.3317 63.1204V63.4497C75.3222 67.0167 74.8791 70.5701 74.0117 74.0367C72.2819 80.9177 68.8985 87.3057 64.1371 92.6802C59.3756 98.0547 53.3708 102.264 46.6117 104.965C43.7494 106.112 40.7741 106.975 37.7317 107.541L37.4517 107.493L37.2417 107.444H37.1117L36.8517 107.386L36.6017 107.338H36.4217H36.2617L35.9817 107.27L35.4617 107.154L35.1817 107.086L34.3417 106.873L34.1117 106.815C33.3517 106.601 32.6017 106.379 31.8617 106.137L31.6617 106.078L31.3217 105.962L31.1517 105.904L30.7917 105.778L30.5217 105.681L30.3617 105.623L30.2117 105.575L29.9817 105.488L29.7717 105.41L29.0817 105.139L28.8817 105.061L28.6217 104.965L28.3517 104.858L28.1217 104.751H28.0217L27.8417 104.674L27.6317 104.587L27.4617 104.509L27.3017 104.441L27.0417 104.325L26.8017 104.219H26.7517L26.5417 104.122L26.3317 104.025L26.1417 103.938L25.9717 103.86L25.8417 103.793L25.6717 103.705L25.4617 103.608L25.3317 103.541L25.2117 103.483L25.0117 103.386L24.7917 103.269H24.7317L24.5017 103.153L24.2917 103.047L23.9717 102.872L23.8017 102.775L23.0117 102.34L22.8217 102.223L22.6717 102.136L22.4717 102.02L22.2817 101.904L22.1217 101.817C20.8884 101.067 19.7017 100.273 18.5617 99.4337L18.4117 99.3175L18.2917 99.2303L18.1117 99.0947L17.9017 98.9397L17.7517 98.8235L17.6217 98.7169L17.4017 98.5523L17.1317 98.3392L16.9817 98.2133L16.9117 98.1649L16.7717 98.0486L16.6117 97.913L16.4117 97.758L16.2217 97.603L16.0617 97.4578L15.8017 97.235L15.6017 97.0606L15.3917 96.8863L15.0817 96.4601L14.8917 96.2954C14.8317 96.2373 14.7617 96.1792 14.7017 96.1114L14.5217 95.9467L14.3417 95.7917L14.0817 95.4915L13.8917 95.3074L13.7017 95.1234L13.5017 94.9297L13.3317 94.7553L13.2517 94.6875L13.0817 94.5229L12.8917 94.3291L12.6617 94.0967L12.5117 93.9417L12.3217 93.7383C12.1317 93.5446 11.9517 93.3412 11.7617 93.1377L11.3717 92.7116L11.0417 92.3241C10.6817 91.9076 10.3317 91.4911 9.98173 91.0649L9.81169 90.8518L9.66172 90.6581L9.22172 90.106L9.10173 89.9413L8.97172 89.767L8.85173 89.612L8.55168 89.1955L8.46171 89.0696L8.33171 88.8952L8.2017 88.7015C8.15943 88.6538 8.12257 88.6018 8.09172 88.5465C8.09172 88.4884 8.0017 88.4206 7.9517 88.3528L7.84172 88.1978L7.72172 88.0235V87.9654C7.6794 87.9142 7.64256 87.859 7.61174 87.8007V87.7426L7.52171 87.6069C7.48155 87.5543 7.44483 87.4993 7.41172 87.4423C7.37145 87.3864 7.33467 87.3282 7.30168 87.268C7.22922 87.1682 7.1625 87.0648 7.10173 86.958L7.00169 86.8127L6.92173 86.6868C6.88874 86.6266 6.85196 86.5683 6.81169 86.5124C6.81169 86.4349 6.72173 86.3574 6.67173 86.2799L6.53172 86.0475L6.41172 85.8538V85.7956L6.29173 85.6019L6.17173 85.3791C6.11915 85.3018 6.07235 85.2208 6.03172 85.137L5.8917 84.8948C5.8917 84.8367 5.82173 84.7786 5.79173 84.7108L5.73173 84.6043L5.50169 84.1877C5.36169 83.9262 5.23173 83.6744 5.10173 83.4129C5.10173 83.3354 5.01172 83.2482 4.97172 83.1707C4.93172 83.0932 4.80172 82.8317 4.72172 82.667L4.4517 82.1052L4.36174 81.9115L4.1417 81.4466C4.0717 81.2722 3.99173 81.0979 3.92173 80.9332C3.85173 80.7685 3.84169 80.7589 3.81169 80.6717C3.78169 80.5845 3.6917 80.4102 3.6417 80.2746L3.56169 80.0808L3.3217 79.4803C3.3217 79.4222 3.27168 79.3544 3.24168 79.2866L3.17173 79.1025L3.0717 78.8313L2.97172 78.5698L2.91172 78.4051L2.8217 78.1436L2.73173 77.9014C2.70956 77.8257 2.68283 77.7513 2.65171 77.6786C2.65472 77.627 2.65472 77.5753 2.65171 77.5237L2.59172 77.33L2.53172 77.1653L2.41172 76.7682L2.35173 76.5938C2.35173 76.5357 2.35173 76.4873 2.35173 76.4388L2.08171 76.1192L1.96171 75.7027C1.96171 75.6543 1.96172 75.6058 1.91172 75.5477C1.91619 75.4897 1.91619 75.4314 1.91172 75.3734L1.85173 75.1603L1.7617 74.8116C1.73377 74.7354 1.71039 74.6578 1.69169 74.5791C1.6881 74.5081 1.6881 74.437 1.69169 74.366L1.60173 74.0367L1.5117 73.6589C1.50811 73.5879 1.50811 73.5168 1.5117 73.4458V73.3102C1.5117 73.2618 1.5117 73.2134 1.5117 73.1649C1.51636 73.1069 1.51636 73.0486 1.5117 72.9906C1.51635 72.9584 1.51635 72.9259 1.5117 72.8937C1.50089 72.8215 1.48419 72.7503 1.46171 72.6806C1.46738 72.6 1.46738 72.5191 1.46171 72.4385C1.46171 72.361 1.46171 72.2932 1.46171 72.2157V72.1285C1.46171 72.051 1.46172 71.9832 1.41172 71.9057V71.8476C1.41172 71.7701 1.41172 71.7023 1.41172 71.6345C1.41172 71.5667 1.41172 71.5667 1.41172 71.528C1.41172 71.4892 1.41172 71.4505 1.41172 71.4118C1.41172 71.373 1.41172 71.2471 1.41172 71.1599C1.40694 71.0663 1.40694 70.9726 1.41172 70.879V70.8306C1.38942 70.7282 1.37274 70.6247 1.36174 70.5206L1.30168 70.1525C1.30168 70.0654 1.30169 69.9685 1.25169 69.8716C1.25169 69.7845 1.25169 69.6973 1.25169 69.6101C1.25169 69.5229 1.25169 69.5423 1.25169 69.5036V69.2905V69.213C1.24618 69.113 1.24618 69.0127 1.25169 68.9127C1.25169 68.8062 1.25169 68.6996 1.25169 68.5834C1.25169 68.4768 1.25169 68.3606 1.25169 68.2541V67.9635C1.25169 67.9635 1.25169 67.8957 1.25169 67.8569V67.6051V67.3145V66.9948C1.25169 66.8786 1.25169 66.7721 1.25169 66.6559C1.25169 66.5396 1.25169 66.4427 1.25169 66.3362V66.2878C1.25169 66.1909 1.25169 66.1037 1.25169 66.0069C1.25169 65.91 1.25169 66.0069 1.25169 65.9488C1.25169 65.8906 1.25169 65.7647 1.25169 65.6678C1.25169 65.5613 1.25169 65.4548 1.25169 65.3482C1.25169 65.2417 1.25169 65.1448 1.25169 65.048V64.9898C1.25169 64.7671 1.25169 64.5443 1.25169 64.3215V63.3529C1.28582 50.6052 4.77598 38.0898 11.3729 27.0593C17.9698 16.0287 27.4421 6.86992 38.8417 0.499512C49.9996 6.98529 59.2282 16.1657 65.6244 27.1423C72.0207 38.119 75.3655 50.516 75.3317 63.1204Z" fill="#DD0979"/>
<path d="M12.3417 93.7578C12.1517 93.564 11.9717 93.3606 11.7817 93.1572C11.9717 93.3606 12.1517 93.5544 12.3417 93.7578Z" fill="#DD0979"/>
<path d="M47.2018 78.5212H29.6918C29.6655 78.5225 29.6397 78.5287 29.6159 78.5396C29.5922 78.5505 29.5709 78.5659 29.5532 78.5848C29.5356 78.6037 29.5219 78.6257 29.5131 78.6497C29.5043 78.6737 29.5004 78.6992 29.5017 78.7246V83.868C29.4989 83.9204 29.5171 83.9718 29.5525 84.0115C29.5879 84.0512 29.6378 84.0761 29.6918 84.0811H47.2018C47.2293 84.0798 47.2564 84.0733 47.2814 84.0619C47.3064 84.0506 47.3288 84.0345 47.3474 84.0147C47.366 83.9949 47.3804 83.9718 47.3897 83.9466C47.399 83.9214 47.4031 83.8947 47.4018 83.868V78.7731C47.4031 78.7468 47.3989 78.7206 47.3895 78.696C47.3801 78.6713 47.3656 78.6488 47.3468 78.6298C47.3281 78.6108 47.3056 78.5956 47.2807 78.5853C47.2557 78.5749 47.2289 78.5696 47.2018 78.5697" fill="white"/>
<path d="M47.2018 67.6726H29.6918C29.6655 67.6738 29.6397 67.6801 29.6159 67.691C29.5922 67.7019 29.5709 67.7172 29.5532 67.7361C29.5356 67.755 29.5219 67.7771 29.5131 67.8011C29.5043 67.8251 29.5004 67.8506 29.5017 67.876V72.9709C29.4989 73.0233 29.5171 73.0748 29.5525 73.1145C29.5879 73.1542 29.6378 73.1791 29.6918 73.184H47.2018C47.2293 73.1828 47.2564 73.1763 47.2814 73.1649C47.3064 73.1535 47.3288 73.1375 47.3474 73.1177C47.366 73.0979 47.3804 73.0747 47.3897 73.0495C47.399 73.0243 47.4031 72.9976 47.4018 72.9709V67.876C47.4031 67.8498 47.3989 67.8235 47.3895 67.7989C47.3801 67.7743 47.3656 67.7518 47.3468 67.7327C47.3281 67.7137 47.3056 67.6986 47.2807 67.6882C47.2557 67.6779 47.2289 67.6726 47.2018 67.6726Z" fill="white"/>
<path d="M47.2817 60.2729L38.8717 52.1365C38.8586 52.1221 38.8425 52.1105 38.8243 52.1026C38.8062 52.0947 38.7866 52.0906 38.7667 52.0906C38.7469 52.0906 38.7272 52.0947 38.7091 52.1026C38.691 52.1105 38.6749 52.1221 38.6617 52.1365L30.2617 60.2729C30.243 60.293 30.2304 60.3179 30.2255 60.3446C30.2205 60.3713 30.2235 60.3989 30.2339 60.4241C30.2443 60.4493 30.2618 60.4712 30.2844 60.4873C30.307 60.5033 30.3338 60.5129 30.3618 60.515H47.1718C47.2006 60.5147 47.2286 60.5063 47.2526 60.4909C47.2767 60.4755 47.2957 60.4538 47.3073 60.4282C47.3189 60.4027 47.3226 60.3745 47.3181 60.3469C47.3135 60.3194 47.3009 60.2937 47.2817 60.2729Z" fill="white"/>
<path d="M54.8521 84.0912L63.252 75.9451C63.2667 75.9333 63.2785 75.9185 63.2866 75.9018C63.2947 75.885 63.299 75.8668 63.299 75.8483C63.299 75.8298 63.2947 75.8115 63.2866 75.7948C63.2785 75.778 63.2667 75.7632 63.252 75.7514L54.8521 67.6054C54.8306 67.5868 54.804 67.5745 54.7756 67.5702C54.7471 67.5658 54.718 67.5694 54.6916 67.5807C54.6652 67.5919 54.6428 67.6103 54.6269 67.6335C54.611 67.6568 54.6024 67.684 54.6021 67.7119V83.9943C54.6042 84.0214 54.6141 84.0473 54.6307 84.0692C54.6473 84.0911 54.6698 84.1081 54.6959 84.1182C54.7219 84.1283 54.7504 84.1311 54.778 84.1263C54.8056 84.1215 54.8312 84.1094 54.8521 84.0912Z" fill="white"/>
<path d="M29.9418 91.7329L38.3518 99.8692C38.364 99.8835 38.3793 99.8949 38.3966 99.9028C38.4139 99.9106 38.4327 99.9147 38.4518 99.9147C38.4709 99.9147 38.4898 99.9106 38.507 99.9028C38.5243 99.8949 38.5396 99.8835 38.5518 99.8692L46.9618 91.7329C46.9806 91.7127 46.9931 91.6878 46.9981 91.6611C47.003 91.6344 47.0001 91.6069 46.9896 91.5816C46.9792 91.5564 46.9618 91.5345 46.9392 91.5185C46.9166 91.5024 46.8898 91.4928 46.8618 91.4907H30.0818C30.053 91.4911 30.0249 91.4994 30.0009 91.5148C29.9769 91.5302 29.9579 91.5519 29.9463 91.5775C29.9347 91.603 29.9309 91.6313 29.9355 91.6588C29.94 91.6864 29.9526 91.7121 29.9718 91.7329" fill="white"/>
<path d="M22.372 67.9153L13.962 76.0614C13.9374 76.088 13.9238 76.1225 13.9238 76.1582C13.9238 76.194 13.9374 76.2284 13.962 76.2551L22.372 84.4011C22.3935 84.4197 22.42 84.4319 22.4485 84.4363C22.4769 84.4407 22.5061 84.437 22.5325 84.4258C22.5588 84.4146 22.5813 84.3962 22.5972 84.373C22.6131 84.3497 22.6217 84.3225 22.622 84.2946V68.0122C22.6199 67.9851 22.61 67.9591 22.5934 67.9372C22.5768 67.9153 22.5542 67.8984 22.5282 67.8883C22.5022 67.8782 22.4737 67.8754 22.4461 67.8802C22.4185 67.885 22.3928 67.8971 22.372 67.9153Z" fill="white"/>
<path d="M29.5819 41.2494V23.6594C29.3695 23.761 29.1488 23.8452 28.9219 23.9113C28.6019 24.0081 28.2619 24.1147 27.9219 24.2115L26.9219 24.5021L26.2319 24.7346V21.8772C26.4919 21.79 26.8119 21.6641 27.2319 21.5091C27.6519 21.3541 28.0219 21.1604 28.4519 20.9473C28.8819 20.7342 29.2819 20.4921 29.6619 20.2499C30.0029 20.0402 30.3125 19.7859 30.5819 19.4944H33.5819V41.2494H29.5819Z" fill="white"/>
<path d="M43.7217 41.5592C42.5733 41.6007 41.4372 41.318 40.4517 40.7456C39.5757 40.207 38.8807 39.4328 38.4517 38.5178C38.0017 37.4891 37.7802 36.3803 37.8016 35.2633V25.5771C37.7775 24.4335 37.9918 23.2969 38.4316 22.2354C38.8198 21.3166 39.4901 20.5355 40.3517 19.9979C41.3754 19.4704 42.5171 19.1946 43.6766 19.1946C44.8362 19.1946 45.978 19.4704 47.0017 19.9979C47.8596 20.537 48.5262 21.3179 48.9117 22.2354C49.3481 23.2976 49.559 24.4342 49.5317 25.5771V35.2633C49.554 36.3803 49.3325 37.4894 48.8817 38.5178C48.4724 39.4475 47.773 40.2299 46.8817 40.7553C45.9254 41.3012 44.8315 41.5796 43.7217 41.5592ZM43.7217 38.2369C43.9523 38.2534 44.1837 38.2172 44.3973 38.1314C44.6109 38.0457 44.8007 37.9126 44.9517 37.7429C45.227 37.3942 45.4091 36.9849 45.4817 36.5515C45.5601 36.1067 45.6002 35.6564 45.6017 35.2051V25.6643C45.5991 25.191 45.5623 24.7185 45.4916 24.2501C45.4388 23.8061 45.2626 23.3843 44.9817 23.0297C44.8262 22.8577 44.6311 22.7234 44.4123 22.6376C44.1935 22.5518 43.957 22.5169 43.7217 22.5357C43.4911 22.5192 43.2597 22.5553 43.0461 22.6411C42.8325 22.7269 42.6426 22.86 42.4916 23.0297C42.2125 23.3872 42.0303 23.8068 41.9617 24.2501C41.8828 24.7177 41.8427 25.1906 41.8417 25.6643V35.2051C41.8402 35.6574 41.8871 36.1086 41.9817 36.5515C42.0569 36.9876 42.2462 37.3978 42.5317 37.7429C42.677 37.9089 42.8601 38.0399 43.0666 38.1257C43.2731 38.2114 43.4974 38.2495 43.7217 38.2369Z" fill="white"/>
</svg>
