<svg width="77" height="108" viewBox="0 0 77 108" fill="none" xmlns="http://www.w3.org/2000/svg">
<path d="M13.0817 94.1828L12.5317 93.5823L13.0817 94.1828Z" fill="#F59D08"/>
<path d="M76.022 63.5351V63.8645C76.0003 74.2966 72.239 84.3976 65.3809 92.4413C58.5229 100.485 48.9938 105.972 38.422 107.965L38.152 107.907H37.942H37.802L37.552 107.859L37.292 107.801H37.122H36.962L36.682 107.743L36.162 107.617L35.872 107.549L35.032 107.336L34.812 107.278C34.052 107.074 33.302 106.852 32.552 106.609L32.362 106.542L32.012 106.425L31.852 106.377L31.482 106.241L31.212 106.154L31.082 105.931L30.932 105.873L30.692 105.786L30.482 105.709L29.792 105.447L29.602 105.37L29.342 105.263L29.082 105.156L28.842 105.06L28.742 105.011L28.562 104.943L28.352 104.846L28.182 104.769L28.022 104.701L27.762 104.585L27.532 104.478H27.472L27.262 104.391L27.052 104.285L26.862 104.198L26.702 104.11L26.562 104.052L26.392 103.965L26.192 103.868L26.052 103.8L25.942 103.742L25.732 103.636L25.512 103.52H25.452L25.232 103.403L25.012 103.287L24.702 103.122L24.522 103.025L23.732 102.58L23.542 102.473L23.392 102.386L23.202 102.27L23.002 102.154L22.842 102.057C21.622 101.321 20.4353 100.526 19.282 99.6741L19.132 99.5675L19.012 99.4804L18.832 99.3448L18.622 99.1801L18.472 99.0735C18.4334 99.033 18.3897 98.9972 18.342 98.967L18.132 98.8024L17.852 98.5795L17.702 98.4633L17.642 98.4052L17.502 98.2987L17.332 98.1533L17.142 97.9984L16.952 97.8337L16.782 97.6884L16.522 97.4754L16.322 97.301L16.122 97.117L15.932 96.9523L15.752 96.7876L15.552 96.6133L15.372 96.4486L15.202 96.2839L15.032 96.129L14.852 95.9546L14.662 95.7609L14.462 95.5769L14.292 95.4025L14.222 95.325C14.1729 95.2823 14.1261 95.237 14.082 95.1894L13.882 94.9957L13.662 94.7632L13.502 94.5985C13.4439 94.5294 13.3804 94.4646 13.312 94.4048L12.762 93.8043L12.372 93.3684C12.252 93.2425 12.142 93.1166 12.032 92.981C11.672 92.5742 11.3387 92.1577 11.032 91.7315L10.862 91.5184L10.702 91.3246C10.562 91.1406 10.412 90.9566 10.272 90.7629L10.142 90.5982L10.012 90.4238C9.96973 90.3761 9.93287 90.3242 9.90202 90.2689L9.592 89.862L9.50201 89.7361C9.50201 89.6683 9.412 89.6102 9.372 89.5521L9.24201 89.3681L9.13201 89.2131L9.00201 89.0193L8.89201 88.8644L8.77201 88.6803V88.6319C8.77201 88.5738 8.70201 88.5156 8.66201 88.4672V88.3995L8.57201 88.2735L8.46201 88.0992C8.42902 88.039 8.39229 87.9807 8.35201 87.9248L8.15202 87.6149L8.062 87.4696C8.03161 87.4265 8.00486 87.3812 7.982 87.3339C7.94173 87.278 7.90499 87.2198 7.872 87.1596L7.72201 86.9271C7.72201 86.8497 7.63201 86.7722 7.58201 86.6947C7.54918 86.6281 7.51245 86.5634 7.47201 86.501V86.4331L7.35201 86.2394L7.22201 86.0166L7.08201 85.7842L6.95201 85.542L6.84201 85.358L6.78201 85.2418L6.55201 84.8253C6.42201 84.5734 6.28201 84.3215 6.15201 84.06L6.02201 83.8082L5.77201 83.3045L5.50201 82.7427C5.50201 82.6846 5.502 82.6168 5.422 82.5587L5.21201 82.0841C5.13201 81.9194 5.06201 81.745 4.98201 81.5707L4.87201 81.3092C4.81201 81.1833 4.76201 81.0476 4.70201 80.912L4.62201 80.7183L4.38201 80.1275L4.31201 79.9241L4.24201 79.74C4.24201 79.6529 4.17201 79.5657 4.13201 79.4688C4.09201 79.3719 4.07201 79.2944 4.03201 79.2073C4.02758 79.1525 4.02758 79.0974 4.03201 79.0426C4.03201 78.9554 3.96201 78.8682 3.93201 78.7811L3.85201 78.5486C3.82086 78.4726 3.79416 78.395 3.77201 78.3162C3.76774 78.2678 3.76774 78.2192 3.77201 78.1709C3.77201 78.1031 3.77201 78.045 3.70201 77.9772V77.8125C3.70201 77.6768 3.61201 77.551 3.57201 77.4154L3.51201 77.2313C3.51502 77.1797 3.51502 77.128 3.51201 77.0764L3.45201 76.8826L3.33201 76.4661C3.33201 76.4177 3.33201 76.3692 3.33201 76.3208C3.32754 76.2628 3.32754 76.2045 3.33201 76.1465L3.27201 75.9334C3.27201 75.8172 3.202 75.7009 3.172 75.575L3.11201 75.3425L3.05201 75.1294C3.0195 75.0211 2.9928 74.9111 2.97201 74.8001C2.97201 74.6742 2.90201 74.5482 2.87201 74.4223C2.87665 74.3513 2.87665 74.2802 2.87201 74.2092V74.0736V73.938C2.86735 73.88 2.86735 73.8217 2.87201 73.7637C2.8673 73.7283 2.8673 73.6925 2.87201 73.6571C2.86632 73.5862 2.86632 73.515 2.87201 73.4441C2.86729 73.3634 2.86729 73.2826 2.87201 73.2019C2.87201 73.1341 2.87201 73.0566 2.87201 72.9888V72.9016C2.87201 72.8241 2.87201 72.7466 2.87201 72.6691V72.611C2.87201 72.5432 2.87201 72.4754 2.87201 72.3979C2.87201 72.3204 2.87201 72.3302 2.87201 72.3011V72.1752C2.87201 72.0977 2.87201 72.0105 2.87201 71.933C2.87201 71.8362 2.87201 71.7393 2.87201 71.6521V71.6037C2.87201 71.4971 2.87201 71.3906 2.87201 71.2937L2.81201 70.9256C2.81201 70.8288 2.81201 70.7319 2.81201 70.6447V70.3832C2.81201 70.3832 2.81201 70.3057 2.81201 70.267V70.0539V69.9861C2.81201 69.8892 2.81201 69.7827 2.81201 69.6858C2.81201 69.5793 2.81201 69.4727 2.81201 69.3662C2.81201 69.2499 2.81201 69.1434 2.81201 69.0272V68.7462C2.81695 68.7109 2.81695 68.6751 2.81201 68.6397C2.81201 68.5525 2.81201 68.4653 2.81201 68.3782C2.81201 68.2813 2.81201 68.1845 2.81201 68.0876C2.81201 67.981 2.81201 67.8648 2.81201 67.7583V67.4289C2.81201 67.3127 2.81201 67.2061 2.81201 67.0996C2.81201 67.0124 2.81201 66.9156 2.81201 66.8284V66.2182C2.81201 66.131 2.81201 66.0341 2.81201 65.9469C2.81201 65.8404 2.81201 65.7242 2.81201 65.6176C2.81201 65.5111 2.81201 65.4239 2.81201 65.3174C2.81201 65.0946 2.81201 64.8718 2.81201 64.649C2.81201 64.4262 2.81201 64.4262 2.81201 64.3197V63.632C2.8499 50.8864 6.34175 38.3738 12.9384 27.3454C19.535 16.317 29.0052 7.15941 40.402 0.78833C51.4187 7.38706 60.4874 16.6318 66.7285 27.6258C72.9695 38.6198 76.1709 50.9896 76.022 63.5351Z" fill="#F59D08"/>
<path d="M13.0817 94.1828L12.5317 93.5823L13.0817 94.1828Z" fill="#F59D08"/>
<path d="M16.4317 78.9272H25.8217C25.8827 78.9272 25.9412 78.9038 25.9843 78.862C26.0275 78.8202 26.0517 78.7636 26.0517 78.7045C26.0527 78.6776 26.0479 78.6507 26.0375 78.6257C26.0272 78.6007 26.0116 78.578 25.9917 78.5592L21.3217 72.7475C21.3015 72.7227 21.2757 72.7028 21.2461 72.6893C21.2166 72.6759 21.1843 72.6692 21.1517 72.67C21.0964 72.6727 21.0437 72.6932 21.0017 72.7281V72.7766L16.4417 78.5883L16.3717 78.6657C16.3572 78.7065 16.3572 78.7508 16.3717 78.7916C16.3717 78.8507 16.3959 78.9074 16.4391 78.9492C16.4822 78.991 16.5407 79.0144 16.6017 79.0144" fill="white"/>
<path d="M25.7916 79.7795H16.3816C16.3505 79.7795 16.3198 79.7856 16.2912 79.7974C16.2626 79.8092 16.2368 79.8265 16.2153 79.8482C16.1938 79.8699 16.1771 79.8956 16.1661 79.9238C16.1552 79.9519 16.1502 79.9819 16.1516 80.012V87.141C16.1516 87.2001 16.1758 87.2568 16.2189 87.2985C16.2621 87.3403 16.3206 87.3638 16.3816 87.3638H19.3816V82.8791C19.3816 82.82 19.4058 82.7633 19.4489 82.7216C19.4921 82.6798 19.5506 82.6563 19.6116 82.6563H22.4216C22.4826 82.6563 22.5411 82.6798 22.5842 82.7216C22.6274 82.7633 22.6516 82.82 22.6516 82.8791V87.3638H25.7616C25.8226 87.3638 25.8811 87.3403 25.9242 87.2985C25.9673 87.2568 25.9916 87.2001 25.9916 87.141V80.012C25.9929 79.9819 25.988 79.9519 25.977 79.9238C25.9661 79.8956 25.9493 79.8699 25.9278 79.8482C25.9064 79.8265 25.8805 79.8092 25.852 79.7974C25.8234 79.7856 25.7926 79.7795 25.7616 79.7795" fill="white"/>
<path d="M57.4817 80.8054C57.4818 80.8342 57.4758 80.8627 57.4641 80.8892C57.4524 80.9157 57.4353 80.9397 57.4138 80.9596C57.3923 80.9796 57.3669 80.995 57.339 81.0052C57.3111 81.0153 57.2815 81.0198 57.2517 81.0185H54.4717C54.442 81.0198 54.4123 81.0153 54.3845 81.0052C54.3566 80.995 54.3312 80.9796 54.3097 80.9596C54.2882 80.9397 54.2711 80.9157 54.2594 80.8892C54.2477 80.8627 54.2417 80.8342 54.2417 80.8054V79.1684C54.2417 79.1396 54.2477 79.1111 54.2594 79.0846C54.2711 79.0581 54.2882 79.0342 54.3097 79.0143C54.3312 78.9943 54.3566 78.9788 54.3845 78.9687C54.4123 78.9586 54.442 78.9541 54.4717 78.9554H57.2517C57.2815 78.9541 57.3111 78.9586 57.339 78.9687C57.3669 78.9788 57.3923 78.9943 57.4138 79.0143C57.4353 79.0342 57.4524 79.0581 57.4641 79.0846C57.4758 79.1111 57.4818 79.1396 57.4817 79.1684V80.8054ZM57.4817 83.8372C57.4818 83.866 57.4758 83.8945 57.4641 83.921C57.4524 83.9475 57.4353 83.9714 57.4138 83.9914C57.3923 84.0113 57.3669 84.0268 57.339 84.0369C57.3111 84.0471 57.2815 84.0515 57.2517 84.0502H54.4717C54.442 84.0515 54.4123 84.0471 54.3845 84.0369C54.3566 84.0268 54.3312 84.0113 54.3097 83.9914C54.2882 83.9714 54.2711 83.9475 54.2594 83.921C54.2477 83.8945 54.2417 83.866 54.2417 83.8372V82.2002C54.2417 82.1411 54.266 82.0844 54.3091 82.0427C54.3522 82.0009 54.4107 81.9774 54.4717 81.9774H57.2517C57.3127 81.9774 57.3712 82.0009 57.4144 82.0427C57.4575 82.0844 57.4817 82.1411 57.4817 82.2002V83.8372ZM53.2217 80.8054C53.2217 80.8619 53.1986 80.9161 53.1573 80.9561C53.116 80.9961 53.0601 81.0185 53.0017 81.0185H50.2117C50.1524 81.0186 50.0954 80.9964 50.0525 80.9567C50.0097 80.917 49.9843 80.8628 49.9817 80.8054V79.1684C49.9843 79.1111 50.0097 79.0569 50.0525 79.0172C50.0954 78.9775 50.1524 78.9553 50.2117 78.9554H53.0017C53.0601 78.9554 53.116 78.9778 53.1573 79.0178C53.1986 79.0577 53.2217 79.1119 53.2217 79.1684V80.8054ZM53.2217 83.8372C53.2217 83.8937 53.1986 83.9479 53.1573 83.9879C53.116 84.0278 53.0601 84.0502 53.0017 84.0502H50.2117C50.1524 84.0503 50.0954 84.0282 50.0525 83.9885C50.0097 83.9488 49.9843 83.8946 49.9817 83.8372V82.2002C49.9817 82.1411 50.006 82.0844 50.0491 82.0427C50.0922 82.0009 50.1507 81.9774 50.2117 81.9774H53.0017C53.0315 81.9774 53.0609 81.9832 53.0883 81.9945C53.1157 82.0058 53.1404 82.0224 53.1609 82.0432C53.1815 82.0641 53.1975 82.0887 53.208 82.1157C53.2184 82.1427 53.2231 82.1714 53.2217 82.2002V83.8372ZM58.3217 77.8899H49.0117C48.982 77.8886 48.9523 77.8931 48.9245 77.9032C48.8966 77.9134 48.8712 77.9288 48.8497 77.9488C48.8282 77.9687 48.8111 77.9926 48.7994 78.0191C48.7877 78.0456 48.7817 78.0742 48.7817 78.103V87.2079C48.7817 87.267 48.806 87.3237 48.8491 87.3655C48.8922 87.4073 48.9507 87.4307 49.0117 87.4307H58.3217C58.3827 87.4307 58.4412 87.4073 58.4844 87.3655C58.5275 87.3237 58.5517 87.267 58.5517 87.2079V78.103C58.5518 78.0742 58.5458 78.0456 58.5341 78.0191C58.5224 77.9926 58.5053 77.9687 58.4838 77.9488C58.4623 77.9288 58.4369 77.9134 58.409 77.9032C58.3812 77.8931 58.3515 77.8886 58.3217 77.8899Z" fill="white"/>
<path d="M35.3418 63.2161C35.3395 63.2462 35.3261 63.2745 35.304 63.2958C35.282 63.3171 35.2528 63.3301 35.2218 63.3323H33.1318C33.0999 63.3323 33.0694 63.3201 33.0469 63.2983C33.0244 63.2765 33.0118 63.2469 33.0118 63.2161V60.9592C33.0118 60.944 33.0149 60.9288 33.0209 60.9147C33.0269 60.9006 33.0358 60.8878 33.0469 60.877C33.0581 60.8663 33.0713 60.8576 33.0858 60.8518C33.1004 60.846 33.116 60.843 33.1318 60.843H35.2218C35.2375 60.843 35.2531 60.846 35.2677 60.8518C35.2823 60.8576 35.2955 60.8663 35.3066 60.877C35.3178 60.8878 35.3266 60.9006 35.3326 60.9147C35.3387 60.9288 35.3418 60.944 35.3418 60.9592V63.2161ZM35.3418 68.3885C35.3395 68.4186 35.3261 68.4468 35.304 68.4682C35.282 68.4895 35.2528 68.5025 35.2218 68.5047H33.1318C33.0999 68.5047 33.0694 68.4925 33.0469 68.4707C33.0244 68.4489 33.0118 68.4193 33.0118 68.3885V66.1316C33.0118 66.1008 33.0244 66.0712 33.0469 66.0494C33.0694 66.0276 33.0999 66.0154 33.1318 66.0154H35.2218C35.2528 66.0176 35.282 66.0306 35.304 66.0519C35.3261 66.0732 35.3395 66.1015 35.3418 66.1316V68.3885ZM35.3418 73.5609C35.3418 73.5917 35.3291 73.6213 35.3066 73.6431C35.2841 73.6649 35.2536 73.6771 35.2218 73.6771H33.1318C33.0999 73.6771 33.0694 73.6649 33.0469 73.6431C33.0244 73.6213 33.0118 73.5917 33.0118 73.5609V71.304C33.0118 71.2732 33.0244 71.2436 33.0469 71.2218C33.0694 71.2 33.0999 71.1878 33.1318 71.1878H35.2218C35.2528 71.19 35.282 71.203 35.304 71.2243C35.3261 71.2457 35.3395 71.2739 35.3418 71.304V73.5609ZM35.3418 78.7333C35.3418 78.7641 35.3291 78.7937 35.3066 78.8155C35.2841 78.8373 35.2536 78.8495 35.2218 78.8495H33.1318C33.0999 78.8495 33.0694 78.8373 33.0469 78.8155C33.0244 78.7937 33.0118 78.7641 33.0118 78.7333V76.4861C33.0118 76.4552 33.0244 76.4257 33.0469 76.4039C33.0694 76.3821 33.0999 76.3698 33.1318 76.3698H35.2218C35.2536 76.3698 35.2841 76.3821 35.3066 76.4039C35.3291 76.4257 35.3418 76.4552 35.3418 76.4861V78.7333ZM35.3418 83.9057C35.3418 83.9365 35.3291 83.9661 35.3066 83.9879C35.2841 84.0097 35.2536 84.0219 35.2218 84.0219H33.1318C33.0999 84.0219 33.0694 84.0097 33.0469 83.9879C33.0244 83.9661 33.0118 83.9365 33.0118 83.9057V81.6585C33.0118 81.6277 33.0244 81.5981 33.0469 81.5763C33.0694 81.5545 33.0999 81.5423 33.1318 81.5423H35.2218C35.2536 81.5423 35.2841 81.5545 35.3066 81.5763C35.3291 81.5981 35.3418 81.6277 35.3418 81.6585V83.9057ZM31.2418 63.2161C31.2418 63.2469 31.2291 63.2765 31.2066 63.2983C31.1841 63.3201 31.1536 63.3323 31.1218 63.3323H29.0818C29.0499 63.3323 29.0194 63.3201 28.9969 63.2983C28.9744 63.2765 28.9618 63.2469 28.9618 63.2161V60.9592C28.9618 60.9284 28.9744 60.8988 28.9969 60.877C29.0194 60.8553 29.0499 60.843 29.0818 60.843H31.0818C31.1136 60.843 31.1441 60.8553 31.1666 60.877C31.1891 60.8988 31.2018 60.9284 31.2018 60.9592L31.2418 63.2161ZM31.2418 68.3885C31.2418 68.4193 31.2291 68.4489 31.2066 68.4707C31.1841 68.4925 31.1536 68.5047 31.1218 68.5047H29.0818C29.0499 68.5047 29.0194 68.4925 28.9969 68.4707C28.9744 68.4489 28.9618 68.4193 28.9618 68.3885V66.1316C28.9618 66.1008 28.9744 66.0712 28.9969 66.0494C29.0194 66.0276 29.0499 66.0154 29.0818 66.0154H31.0818C31.1136 66.0154 31.1441 66.0276 31.1666 66.0494C31.1891 66.0712 31.2018 66.1008 31.2018 66.1316L31.2418 68.3885ZM31.2418 73.5609C31.2418 73.5917 31.2291 73.6213 31.2066 73.6431C31.1841 73.6649 31.1536 73.6771 31.1218 73.6771H29.0818C29.0499 73.6771 29.0194 73.6649 28.9969 73.6431C28.9744 73.6213 28.9618 73.5917 28.9618 73.5609V71.304C28.9618 71.2732 28.9744 71.2436 28.9969 71.2218C29.0194 71.2 29.0499 71.1878 29.0818 71.1878H31.0818C31.1136 71.1878 31.1441 71.2 31.1666 71.2218C31.1891 71.2436 31.2018 71.2732 31.2018 71.304L31.2418 73.5609ZM31.2418 78.7333C31.2418 78.7485 31.2387 78.7637 31.2326 78.7778C31.2266 78.7919 31.2178 78.8047 31.2066 78.8155C31.1955 78.8263 31.1823 78.8348 31.1677 78.8407C31.1531 78.8465 31.1375 78.8495 31.1218 78.8495H29.0818C29.066 78.8495 29.0504 78.8465 29.0358 78.8407C29.0213 78.8348 29.0081 78.8263 28.9969 78.8155C28.9858 78.8047 28.9769 78.7919 28.9709 78.7778C28.9649 78.7637 28.9618 78.7485 28.9618 78.7333V76.4861C28.9618 76.4552 28.9744 76.4257 28.9969 76.4039C29.0194 76.3821 29.0499 76.3698 29.0818 76.3698H31.0818C31.1136 76.3698 31.1441 76.3821 31.1666 76.4039C31.1891 76.4257 31.2018 76.4552 31.2018 76.4861L31.2418 78.7333ZM31.2418 83.9057C31.2418 83.9365 31.2291 83.9661 31.2066 83.9879C31.1841 84.0097 31.1536 84.0219 31.1218 84.0219H29.0818C29.0499 84.0219 29.0194 84.0097 28.9969 83.9879C28.9744 83.9661 28.9618 83.9365 28.9618 83.9057V81.6585C28.9618 81.6277 28.9744 81.5981 28.9969 81.5763C29.0194 81.5545 29.0499 81.5423 29.0818 81.5423H31.0818C31.1136 81.5423 31.1441 81.5545 31.1666 81.5763C31.1891 81.5981 31.2018 81.6277 31.2018 81.6585L31.2418 83.9057ZM36.6718 56.7845H27.5518C27.522 56.7845 27.4926 56.7903 27.4652 56.8016C27.4378 56.8129 27.4131 56.8295 27.3926 56.8503C27.372 56.8711 27.356 56.8957 27.3456 56.9227C27.3351 56.9497 27.3304 56.9785 27.3318 57.0073V87.1796C27.3318 87.2076 27.3375 87.2353 27.3485 87.2611C27.3596 87.287 27.3758 87.3105 27.3962 87.3303C27.4166 87.3501 27.4409 87.3658 27.4676 87.3765C27.4943 87.3872 27.5229 87.3927 27.5518 87.3927H36.6718C36.7007 87.3927 36.7293 87.3872 36.756 87.3765C36.7827 87.3658 36.8069 87.3501 36.8273 87.3303C36.8478 87.3105 36.864 87.287 36.875 87.2611C36.8861 87.2353 36.8918 87.2076 36.8918 87.1796V56.9588C36.8931 56.9301 36.8884 56.9013 36.878 56.8743C36.8675 56.8473 36.8515 56.8227 36.831 56.8019C36.8104 56.7811 36.7857 56.7645 36.7583 56.7532C36.731 56.7419 36.7015 56.7361 36.6718 56.7361" fill="white"/>
<path d="M58.352 74.9751H48.982C48.8771 74.9751 48.792 75.0575 48.792 75.1591V76.9704C48.792 77.0721 48.8771 77.1545 48.982 77.1545H58.352C58.4569 77.1545 58.542 77.0721 58.542 76.9704V75.1591C58.542 75.0575 58.4569 74.9751 58.352 74.9751Z" fill="white"/>
<path d="M46.6418 71.653C46.6432 71.6818 46.6385 71.7105 46.6281 71.7375C46.6176 71.7645 46.6016 71.7892 46.5811 71.81C46.5605 71.8308 46.5358 71.8473 46.5084 71.8587C46.481 71.87 46.4516 71.8758 46.4218 71.8758H43.7018C43.6721 71.8758 43.6426 71.87 43.6153 71.8587C43.5879 71.8473 43.5632 71.8308 43.5426 71.81C43.5221 71.7892 43.5061 71.7645 43.4956 71.7375C43.4852 71.7105 43.4805 71.6818 43.4818 71.653V70.0063C43.4818 69.9783 43.4875 69.9506 43.4986 69.9248C43.5097 69.8989 43.5259 69.8755 43.5463 69.8557C43.5667 69.8359 43.591 69.8202 43.6177 69.8095C43.6444 69.7987 43.673 69.7933 43.7018 69.7933H46.4218C46.4507 69.7933 46.4794 69.7987 46.506 69.8095C46.5327 69.8202 46.557 69.8359 46.5774 69.8557C46.5978 69.8755 46.6141 69.8989 46.6251 69.9248C46.6362 69.9506 46.6418 69.9783 46.6418 70.0063V71.653ZM46.6418 74.7041C46.6418 74.7606 46.6187 74.8149 46.5774 74.8548C46.5361 74.8948 46.4802 74.9172 46.4218 74.9172H43.7018C43.6435 74.9172 43.5875 74.8948 43.5463 74.8548C43.505 74.8149 43.4818 74.7606 43.4818 74.7041V73.0575C43.4805 73.0287 43.4852 72.9999 43.4956 72.9729C43.5061 72.946 43.5221 72.9213 43.5426 72.9005C43.5632 72.8797 43.5879 72.8631 43.6153 72.8518C43.6426 72.8405 43.6721 72.8347 43.7018 72.8347H46.4218C46.4516 72.8347 46.481 72.8405 46.5084 72.8518C46.5358 72.8631 46.5605 72.8797 46.5811 72.9005C46.6016 72.9213 46.6176 72.946 46.6281 72.9729C46.6385 72.9999 46.6432 73.0287 46.6418 73.0575V74.7041ZM46.6418 77.7456C46.6418 77.8021 46.6187 77.8563 46.5774 77.8962C46.5361 77.9362 46.4802 77.9587 46.4218 77.9587H43.7018C43.6435 77.9587 43.5875 77.9362 43.5463 77.8962C43.505 77.8563 43.4818 77.8021 43.4818 77.7456V76.0989C43.4818 76.0424 43.505 75.9882 43.5463 75.9482C43.5875 75.9083 43.6435 75.8858 43.7018 75.8858H46.4218C46.4802 75.8858 46.5361 75.9083 46.5774 75.9482C46.6187 75.9882 46.6418 76.0424 46.6418 76.0989V77.7456ZM46.6418 80.787C46.6432 80.8158 46.6385 80.8446 46.6281 80.8715C46.6176 80.8985 46.6016 80.9232 46.5811 80.944C46.5605 80.9648 46.5358 80.9814 46.5084 80.9927C46.481 81.004 46.4516 81.0098 46.4218 81.0098H43.7018C43.6721 81.0098 43.6426 81.004 43.6153 80.9927C43.5879 80.9814 43.5632 80.9648 43.5426 80.944C43.5221 80.9232 43.5061 80.8985 43.4956 80.8715C43.4852 80.8446 43.4805 80.8158 43.4818 80.787V79.1404C43.4818 79.0839 43.505 79.0297 43.5463 78.9897C43.5875 78.9497 43.6435 78.9273 43.7018 78.9273H46.4218C46.4802 78.9273 46.5361 78.9497 46.5774 78.9897C46.6187 79.0297 46.6418 79.0839 46.6418 79.1404V80.787ZM46.6418 83.8382C46.6418 83.8947 46.6187 83.9489 46.5774 83.9888C46.5361 84.0288 46.4802 84.0512 46.4218 84.0512H43.7018C43.6435 84.0512 43.5875 84.0288 43.5463 83.9888C43.505 83.9489 43.4818 83.8947 43.4818 83.8382V82.1818C43.4818 82.1253 43.505 82.0711 43.5463 82.0312C43.5875 81.9912 43.6435 81.9687 43.7018 81.9687H46.4218C46.4802 81.9687 46.5361 81.9912 46.5774 82.0312C46.6187 82.0711 46.6418 82.1253 46.6418 82.1818V83.8382ZM42.5018 71.0621V74.6944C42.5019 74.7233 42.4959 74.7518 42.4842 74.7783C42.4725 74.8048 42.4554 74.8287 42.4339 74.8486C42.4124 74.8685 42.387 74.8841 42.3591 74.8942C42.3313 74.9043 42.3016 74.9088 42.2719 74.9075H39.5618C39.5321 74.9088 39.5024 74.9043 39.4746 74.8942C39.4467 74.8841 39.4213 74.8685 39.3998 74.8486C39.3783 74.8287 39.3612 74.8048 39.3495 74.7783C39.3378 74.7518 39.3318 74.7233 39.3318 74.6944V74.2392C39.3262 74.2137 39.3262 74.1872 39.3318 74.1617C39.6818 73.6871 41.2419 71.8176 41.9019 71.033L41.9718 70.9556C41.9956 70.9267 42.0262 70.9037 42.061 70.8886C42.0958 70.8734 42.1338 70.8665 42.1718 70.8684C42.2294 70.8706 42.2847 70.8907 42.3297 70.9255C42.3747 70.9604 42.407 71.0082 42.4218 71.0621H42.5018ZM42.5018 77.7359C42.5018 77.7639 42.4962 77.7916 42.4851 77.8174C42.4741 77.8433 42.4578 77.8668 42.4374 77.8866C42.417 77.9064 42.3927 77.9221 42.366 77.9328C42.3394 77.9435 42.3107 77.949 42.2818 77.949H39.5618C39.533 77.949 39.5044 77.9435 39.4777 77.9328C39.451 77.9221 39.4267 77.9064 39.4063 77.8866C39.3859 77.8668 39.3697 77.8433 39.3586 77.8174C39.3475 77.7916 39.3418 77.7639 39.3418 77.7359V76.0892C39.3418 76.0327 39.365 75.9785 39.4063 75.9385C39.4475 75.8986 39.5035 75.8761 39.5618 75.8761H42.2818C42.3402 75.8761 42.3962 75.8986 42.4374 75.9385C42.4787 75.9785 42.5018 76.0327 42.5018 76.0892V77.7359ZM42.5018 80.7774C42.5032 80.8061 42.4985 80.8349 42.4881 80.8618C42.4776 80.8888 42.4616 80.9135 42.4411 80.9343C42.4205 80.9551 42.3958 80.9717 42.3684 80.983C42.341 80.9943 42.3116 81.0001 42.2818 81.0001H39.5618C39.5321 81.0001 39.5026 80.9943 39.4753 80.983C39.4479 80.9717 39.4232 80.9551 39.4026 80.9343C39.3821 80.9135 39.3661 80.8888 39.3556 80.8618C39.3452 80.8349 39.3405 80.8061 39.3418 80.7774V79.1307C39.3418 79.0742 39.365 79.02 39.4063 78.98C39.4475 78.94 39.5035 78.9176 39.5618 78.9176H42.2818C42.3402 78.9176 42.3962 78.94 42.4374 78.98C42.4787 79.02 42.5018 79.0742 42.5018 79.1307V80.7774ZM42.5018 83.8285C42.5018 83.885 42.4787 83.9392 42.4374 83.9792C42.3962 84.0191 42.3402 84.0416 42.2818 84.0416H39.5618C39.5035 84.0416 39.4475 84.0191 39.4063 83.9792C39.365 83.9392 39.3418 83.885 39.3418 83.8285V82.1721C39.3418 82.1156 39.365 82.0614 39.4063 82.0215C39.4475 81.9815 39.5035 81.959 39.5618 81.959H42.2818C42.3402 81.959 42.3962 81.9815 42.4374 82.0215C42.4787 82.0614 42.5018 82.1156 42.5018 82.1721V83.8285ZM43.9218 68.4081L43.9818 68.3306C44.5918 67.5654 45.6319 66.3353 46.1319 65.7348L46.2018 65.6573C46.227 65.63 46.2578 65.6081 46.2923 65.5931C46.3267 65.5781 46.3641 65.5703 46.4019 65.5701C46.4601 65.5716 46.5159 65.5928 46.5597 65.6299C46.6035 65.6671 46.6326 65.7178 46.6418 65.7735V68.5534C46.642 68.617 46.6174 68.6783 46.5729 68.725C46.5284 68.7717 46.4673 68.8004 46.4019 68.8052H44.0818C44.0164 68.8004 43.9553 68.7717 43.9108 68.725C43.8663 68.6783 43.8416 68.617 43.8418 68.5534C43.8395 68.5272 43.8428 68.5008 43.8514 68.4758C43.86 68.4508 43.8738 68.4278 43.8918 68.4081M47.6618 62.4318C47.6472 62.3831 47.6171 62.34 47.5759 62.3087C47.5346 62.2774 47.4842 62.2595 47.4319 62.2574C47.3891 62.2475 47.3446 62.2475 47.3018 62.2574L47.2218 62.3446L38.2719 73.3577H38.2218C38.1786 73.4064 38.1539 73.4679 38.1519 73.5321V87.0927C38.1519 87.1492 38.175 87.2034 38.2163 87.2434C38.2575 87.2833 38.3135 87.3058 38.3718 87.3058H47.4818C47.5402 87.3058 47.5961 87.2833 47.6374 87.2434C47.6787 87.2034 47.7018 87.1492 47.7018 87.0927V62.5286C47.7075 62.4999 47.7075 62.4702 47.7018 62.4414" fill="white"/>
<path d="M30.1417 45.4618V27.9105C29.9302 28.0139 29.7092 28.0982 29.4817 28.1624C29.1717 28.2592 28.8217 28.3561 28.4817 28.4529C28.1417 28.5498 27.7617 28.6563 27.4817 28.7532L26.7817 28.976V26.1379C27.0417 26.0508 27.3717 25.9248 27.7817 25.7602C28.1917 25.5955 28.5817 25.4115 29.0017 25.1984C29.4208 24.9868 29.828 24.754 30.2217 24.501C30.5573 24.2918 30.8633 24.0411 31.1317 23.7551H34.1317V45.4618H30.1417Z" fill="white"/>
<path d="M40.9916 45.4618V27.9105C40.7792 28.0121 40.5584 28.0963 40.3316 28.1624L39.3316 28.4529C38.9516 28.5498 38.6016 28.6563 38.3316 28.7532L37.6416 28.976V26.1379C37.9016 26.0508 38.2216 25.9248 38.6416 25.7602C39.0616 25.5955 39.4316 25.4115 39.8516 25.1984C40.2719 24.989 40.6792 24.7561 41.0716 24.501C41.4091 24.2944 41.7154 24.0434 41.9816 23.7551H45.0316V45.4618H40.9916Z" fill="white"/>
</svg>
