<svg width="77" height="108" viewBox="0 0 77 108" fill="none" xmlns="http://www.w3.org/2000/svg">
<path d="M13.1318 94.1828L12.5718 93.5823L13.1318 94.1828Z" fill="#D28D0E"/>
<path d="M76.082 63.5351V63.8645C76.0786 67.4317 75.6355 70.9859 74.762 74.4514C74.2104 76.6736 73.4781 78.8501 72.572 80.9604C69.6356 87.8377 64.9863 93.9034 59.0394 98.6157C53.0925 103.328 46.0332 106.54 38.492 107.965L38.212 107.907H38.0021H37.862L37.612 107.859L37.352 107.801H37.172H37.012L36.732 107.743L36.212 107.617L35.932 107.549L35.082 107.336L34.862 107.278C34.102 107.074 33.352 106.852 32.602 106.609L32.412 106.542L32.072 106.425L31.902 106.377L31.5321 106.241L31.262 106.154L31.112 106.096L30.962 106.038L30.732 105.951L30.512 105.873L29.822 105.612L29.632 105.534L29.382 105.428L29.112 105.321L28.872 105.224L28.772 105.176L28.592 105.108L28.382 105.011L28.212 104.934L28.062 104.866L27.792 104.75L27.562 104.643H27.5021L27.292 104.556L27.092 104.449L26.892 104.362L26.7221 104.275L26.582 104.217L26.412 104.13L26.212 104.033L26.082 103.965L25.962 103.907L25.762 103.8L25.5321 103.684H25.4721L25.2521 103.568L25.042 103.452L24.7221 103.287L24.542 103.19L23.762 102.745L23.562 102.638L23.422 102.551L23.2221 102.435L23.022 102.318L22.872 102.222C21.6454 101.485 20.4554 100.691 19.302 99.8388L19.152 99.7322L19.042 99.6451L18.852 99.5094L18.642 99.3448L18.5021 99.2382L18.362 99.1317L18.152 98.967L17.882 98.7442L17.732 98.628L17.662 98.5699L17.522 98.4633L17.352 98.318L17.162 98.163L16.9721 97.9984L16.802 97.8531L16.542 97.64L16.342 97.4657L16.142 97.2816L15.952 97.117L15.772 96.9523L15.572 96.7779L15.402 96.6133L15.232 96.4486L15.0621 96.2936L14.882 96.1193L14.682 95.9255L14.492 95.7415L14.3121 95.5672L14.242 95.4897L14.102 95.3541L13.912 95.1604L13.682 94.9279L13.522 94.7632L13.342 94.5695L12.7821 93.969L12.392 93.5331C12.282 93.4072 12.162 93.2812 12.052 93.1456C11.692 92.7388 11.3421 92.3223 11.0021 91.8961L10.832 91.683L10.672 91.4893C10.532 91.3053 10.382 91.1212 10.242 90.9275L10.112 90.7629L9.98203 90.5885L9.87205 90.4335L9.56205 90.0267L9.47205 89.9008C9.43456 89.8358 9.39105 89.7742 9.34205 89.7168C9.30216 89.6532 9.25876 89.5918 9.21204 89.5327L9.10203 89.3777L8.97205 89.184L8.86204 89.029L8.74204 88.845V88.7966C8.71122 88.7382 8.67435 88.6831 8.63203 88.6319V88.5641L8.54203 88.4382L8.43205 88.2638L8.31205 88.0895C8.25205 87.9829 8.18204 87.8861 8.11204 87.7795L8.02204 87.6342L7.94202 87.4986L7.83204 87.3242C7.78204 87.2468 7.73202 87.1693 7.69202 87.0918L7.54203 86.8593L7.42204 86.6656V86.5978C7.38159 86.5353 7.34488 86.4707 7.31205 86.4041L7.18205 86.1813C7.18205 86.1038 7.09203 86.0263 7.04203 85.9488L6.91203 85.7067L6.80204 85.5226L6.74204 85.4064C6.67204 85.2708 6.59204 85.1352 6.52204 84.9899C6.45204 84.8446 6.24204 84.4863 6.11204 84.2247L5.99204 83.9729C5.90204 83.8082 5.82204 83.6435 5.74204 83.4692C5.64198 83.2866 5.55186 83.0991 5.47205 82.9074L5.38203 82.7233L5.17204 82.2487C5.09204 82.0841 5.02202 81.9097 4.94202 81.7354C4.86203 81.561 4.87204 81.561 4.83204 81.4738L4.66203 81.0767L4.58204 80.883C4.50204 80.6893 4.42203 80.4956 4.35203 80.2922C4.32101 80.226 4.29431 80.1581 4.27204 80.0887L4.20203 79.9047C4.20203 79.8175 4.13205 79.7303 4.09205 79.6335L4.00205 79.372L3.94202 79.2073L3.84205 78.9458C3.8199 78.8669 3.79318 78.7893 3.76203 78.7133C3.76203 78.6358 3.76205 78.5583 3.68205 78.4808C3.60205 78.4033 3.68203 78.384 3.63203 78.3355C3.61317 78.2695 3.58981 78.2048 3.56205 78.1418C3.55003 78.0857 3.53328 78.0306 3.51203 77.9772C3.51203 77.8416 3.42203 77.7156 3.38203 77.58L3.32203 77.396C3.32203 77.396 3.32203 77.2991 3.32203 77.241L3.26203 77.0473C3.21203 76.9117 3.17203 76.7761 3.13203 76.6308C3.09203 76.4855 3.13203 76.5339 3.13203 76.4855C3.11075 76.4287 3.09404 76.3704 3.08204 76.3111L3.02204 76.098C3.02204 75.9818 2.95204 75.8656 2.92204 75.7397L2.86204 75.5072L2.80204 75.2941C2.80204 75.1875 2.75205 75.081 2.72205 74.9648C2.69205 74.8486 2.65205 74.7129 2.62205 74.587C2.61016 74.515 2.59344 74.4438 2.57203 74.3739V74.2383V74.1027C2.57203 74.0446 2.57203 73.9865 2.57203 73.9284C2.56732 73.893 2.56732 73.8571 2.57203 73.8218C2.57203 73.754 2.57204 73.6862 2.52204 73.6087C2.51732 73.5281 2.51732 73.4472 2.52204 73.3666C2.52204 73.2987 2.52205 73.2212 2.47205 73.1534V73.0663C2.47205 72.9888 2.47205 72.9113 2.47205 72.8338V72.7757C2.4664 72.7048 2.4664 72.6335 2.47205 72.5626C2.4674 72.5305 2.4674 72.4979 2.47205 72.4657V72.3398C2.47205 72.2623 2.47205 72.1752 2.47205 72.0977C2.47205 72.0008 2.47205 71.904 2.47205 71.8168V71.7683C2.46105 71.6642 2.44434 71.5607 2.42204 71.4584L2.36204 71.0903C2.36204 70.9935 2.36204 70.8966 2.36204 70.8094C2.35719 70.7223 2.35719 70.635 2.36204 70.5479C2.36204 70.5479 2.36204 70.4704 2.36204 70.4316V70.2186V70.1507C2.36204 70.0539 2.36204 69.9473 2.36204 69.8505C2.36204 69.7439 2.36204 69.6374 2.36204 69.5308V69.1918C2.35719 69.0983 2.35719 69.0045 2.36204 68.9109C2.36698 68.8756 2.36698 68.8397 2.36204 68.8044C2.367 68.7172 2.367 68.63 2.36204 68.5429V68.2522V67.9229V67.5936C2.36204 67.4774 2.36204 67.3708 2.36204 67.2643C2.36204 67.1771 2.36204 67.0802 2.36204 66.9931V66.2182C2.36204 66.131 2.36204 66.0341 2.36204 65.9469C2.36204 65.8404 2.36204 65.7242 2.36204 65.6176C2.36204 65.5111 2.36204 65.4239 2.36204 65.3174C2.36204 65.0946 2.36204 64.8718 2.36204 64.649C2.36204 64.4262 2.36204 64.4262 2.36204 64.3197V63.632C2.39994 50.8852 5.89286 38.3716 12.4914 27.343C19.0899 16.3143 28.5627 7.15744 39.962 0.78833C51.0722 7.32708 60.2408 16.546 66.5719 27.5442C72.9029 38.5423 76.1797 50.9432 76.082 63.5351Z" fill="#D28D0E"/>
<path d="M13.1318 94.1828L12.5718 93.5823L13.1318 94.1828Z" fill="#D28D0E"/>
<path d="M59.0018 62.9447C57.6059 61.9383 56.0162 61.2124 54.3263 60.8099C52.6364 60.4073 50.8805 60.3362 49.1618 60.6007H48.9718C46.9718 61.0463 43.8918 61.7921 40.2418 66.1702L40.1818 66.2477V66.3058C40.1429 66.3525 40.1217 66.4106 40.1218 66.4705C40.1058 66.5177 40.1058 66.5686 40.1218 66.6158L40.2018 66.7514C40.6618 67.4972 41.2018 68.4465 41.7218 69.3279C41.7463 69.3772 41.7846 69.4187 41.8323 69.4479C41.8801 69.477 41.9354 69.4925 41.9918 69.4926C42.0328 69.4939 42.0735 69.4868 42.1114 69.4718C42.1494 69.4568 42.1836 69.4341 42.2118 69.4054L42.2818 69.3182C45.5118 64.9885 48.0618 64.388 49.7818 63.9908H49.9918C52.3782 63.6995 54.7892 64.3024 56.7318 65.6762C58.6418 67.1388 59.6118 69.4635 59.6118 72.5921C59.6118 77.842 56.9818 79.8955 54.7718 80.6994C52.5519 81.4073 50.1348 81.251 48.0318 80.2635L47.8818 80.1957C46.0018 79.4015 43.1918 77.7548 40.5518 72.6115C35.2118 62.2279 30.7518 61.2497 27.7918 60.6104H27.6418C25.9476 60.3468 24.2158 60.4178 22.5506 60.8189C20.8854 61.2201 19.3212 61.9431 17.9518 62.9447C16.0318 64.4267 13.7518 67.3035 13.7518 72.6309C13.5932 75.3748 14.4632 78.0819 16.2018 80.2538C17.6149 81.9421 19.4884 83.2128 21.6096 83.9217C23.7307 84.6305 26.0146 84.7491 28.2018 84.2639C29.9139 83.91 31.5208 83.1848 32.9018 82.1427L34.5818 83.615C34.6324 83.6635 34.7006 83.6906 34.7718 83.6906C34.843 83.6906 34.9112 83.6635 34.9618 83.615C35.0074 83.5677 35.0325 83.5053 35.0318 83.4406L36.2418 76.2147V76.1275C36.241 76.0911 36.2327 76.0551 36.2172 76.0218C36.2017 75.9886 36.1795 75.9586 36.1518 75.9339C36.1037 75.8962 36.0437 75.8756 35.9818 75.8757H35.8418L28.7018 77.8129H28.5718C28.5185 77.8254 28.47 77.8523 28.4318 77.8904C28.3811 77.941 28.3527 78.0088 28.3527 78.0793C28.3527 78.1498 28.3811 78.2176 28.4318 78.2682L28.5218 78.3457L30.1218 79.7405C29.325 80.26 28.4319 80.6251 27.4918 80.8157C25.9858 81.1779 24.4051 81.124 22.9292 80.66C21.4532 80.196 20.1411 79.3405 19.1418 78.1907V78.1423C17.8732 76.5838 17.2589 74.6189 17.4218 72.6406C17.4218 69.5023 18.3718 67.1776 20.2618 65.7149C22.1643 64.3627 24.5318 63.773 26.8718 64.0684H27.0318C29.4518 64.6011 32.7718 65.3275 37.3418 74.2194C39.7118 78.83 42.6818 81.8424 46.4218 83.4309C48.1938 84.2697 50.1396 84.7069 52.1118 84.7095C53.4763 84.7174 54.8312 84.4877 56.1118 84.0315C58.2818 83.2469 63.3218 80.5735 63.3218 72.6309C63.3218 67.3325 61.0018 64.4461 59.0618 62.9447" fill="white"/>
<path d="M29.8317 45.4618V27.9105C29.6164 28.0134 29.3922 28.0977 29.1617 28.1624L28.1617 28.4529C27.7817 28.5498 27.4317 28.6563 27.1617 28.7532L26.4717 28.976V26.1379C26.7317 26.0508 27.0517 25.9248 27.4717 25.7602C27.8917 25.5955 28.2617 25.4115 28.6817 25.1984C29.1019 24.989 29.5093 24.7561 29.9017 24.501C30.2392 24.2944 30.5455 24.0434 30.8117 23.7551H33.8617V45.4618H29.8317Z" fill="white"/>
<path d="M37.6816 45.4616V42.7495L43.1916 34.526C43.6016 33.9157 43.9816 33.3345 44.3416 32.7824C44.6943 32.2414 44.9892 31.667 45.2216 31.068C45.4577 30.4479 45.5762 29.7917 45.5716 29.1308C45.6107 28.5088 45.4613 27.8893 45.1416 27.3485C44.9942 27.1396 44.793 26.9717 44.558 26.8612C44.323 26.7508 44.0623 26.7017 43.8016 26.7189C43.5575 26.7052 43.313 26.7393 43.0828 26.8192C42.8525 26.8991 42.6413 27.0231 42.4616 27.1839C42.1193 27.5296 41.8867 27.9633 41.7916 28.4334C41.6682 28.9871 41.6079 29.5523 41.6116 30.1187V31.0873H37.7716V30.1187C37.7486 28.9535 37.9486 27.7942 38.3616 26.6996C38.7315 25.7633 39.3963 24.9636 40.2616 24.4136C41.304 23.8095 42.5085 23.5195 43.7216 23.5806C44.5116 23.5246 45.3048 23.6293 46.0505 23.8878C46.7962 24.1464 47.4779 24.5532 48.0516 25.082C49.0733 26.24 49.5929 27.736 49.5016 29.2567C49.5103 30.0831 49.3751 30.905 49.1016 31.6879C48.8373 32.4143 48.5024 33.1149 48.1016 33.7801C47.6816 34.4485 47.2116 35.1362 46.7216 35.853L42.1816 42.4686H48.9616V45.5294L37.6816 45.4616Z" fill="white"/>
</svg>
