<svg width="76" height="108" viewBox="0 0 76 108" fill="none" xmlns="http://www.w3.org/2000/svg">
<path d="M12.4516 94.1828C12.2616 93.9794 12.0816 93.776 11.8916 93.5823C12.0816 93.776 12.2616 93.9794 12.4516 94.1828Z" fill="#4A7634"/>
<path d="M75.4419 63.5358V63.8651C75.4205 67.4336 74.964 70.9872 74.0819 74.452C73.5257 76.673 72.7936 78.8492 71.8919 80.9611C68.9561 87.8405 64.3057 93.9079 58.3567 98.6205C52.4077 103.333 45.3456 106.544 37.8019 107.966L37.5219 107.908H37.3219H37.1819L36.9219 107.86L36.6719 107.801H36.5019H36.3319L36.0519 107.743L35.5419 107.617L35.2519 107.55L34.4119 107.337L34.1919 107.278C33.4319 107.075 32.6719 106.852 31.9319 106.61L31.7319 106.542L31.3919 106.426L31.2319 106.378L30.8619 106.242L30.5919 106.155L30.4419 106.097L30.2819 106.039L30.0519 105.951L29.8419 105.874L29.1519 105.612L28.9519 105.535L28.6919 105.428L28.4319 105.322L28.1919 105.225L28.0919 105.176L27.9119 105.109L27.7019 105.012L27.5319 104.934L27.3719 104.867L27.1119 104.75L26.8819 104.644H26.8219L26.6119 104.557L26.4019 104.45L26.2119 104.363L26.0519 104.276L25.9119 104.218L25.7419 104.13L25.5319 104.033L25.4019 103.966L25.2819 103.908L25.0819 103.801L24.8619 103.685H24.8019L24.5819 103.569L24.3619 103.452L24.0819 103.026L23.9019 102.929L23.1119 102.484L22.9219 102.377L22.7719 102.29L22.5719 102.174L22.3819 102.058L22.2219 101.961C21.0019 101.225 19.8153 100.43 18.6619 99.5779L18.5119 99.4714L18.3919 99.3842L18.2119 99.2485L18.0019 99.0839L17.8519 98.9774L17.7219 98.8708C17.653 98.8106 17.5795 98.7556 17.5019 98.7061L17.2319 98.4834L17.0819 98.3671L17.0119 98.309L16.8719 98.2025L16.7119 98.0572L16.5219 97.9022L16.3319 97.7375L16.1619 97.5922L15.9019 97.3791L15.7019 97.2048L15.4919 97.0207L15.3119 96.8561L15.1319 96.6914L14.9319 96.5171L14.7519 96.3524L14.5819 96.1877L14.4119 96.0328L14.2219 95.8584L14.0319 95.6647L13.8319 95.4807L13.6619 95.3063L13.5819 95.2288C13.5378 95.1812 13.491 95.136 13.4419 95.0932C13.3838 95.024 13.3203 94.9592 13.2519 94.8995L13.0219 94.667L12.8719 94.5024C12.8138 94.4332 12.7503 94.3684 12.6819 94.3086C12.4919 94.1052 12.3119 93.9018 12.1219 93.7081L11.7419 93.2722C11.6219 93.1463 11.5119 93.0204 11.4019 92.8848C11.0419 92.478 10.6919 92.0614 10.3419 91.6353C10.2909 91.5602 10.2341 91.489 10.1719 91.4222L10.0219 91.2284C9.87193 91.0444 9.73194 90.8604 9.59194 90.6666C9.54314 90.616 9.49959 90.5609 9.46194 90.502L9.33193 90.3276L9.21194 90.1726L8.91192 89.7658L8.82192 89.6399C8.82192 89.5721 8.73192 89.514 8.69192 89.4559L8.56194 89.2718L8.45193 89.1169C8.40193 89.0491 8.36194 88.9813 8.31194 88.9231C8.26194 88.865 8.24194 88.8166 8.21194 88.7682L8.09194 88.5842V88.5357L7.98193 88.371V88.3032L7.89193 88.1773C7.85166 88.1214 7.81494 88.0632 7.78194 88.003L7.67193 87.8286C7.60193 87.7221 7.53195 87.6252 7.47195 87.5186L7.38192 87.3734C7.35153 87.3303 7.32479 87.285 7.30193 87.2378C7.26166 87.1819 7.22491 87.1236 7.19192 87.0634L7.04192 86.831L6.90194 86.5984C6.86149 86.536 6.82475 86.4713 6.79192 86.4048V86.337L6.67193 86.1432C6.62273 86.0723 6.57926 85.9979 6.54192 85.9205L6.40194 85.688L6.26192 85.4458C6.26192 85.378 6.19192 85.3199 6.16192 85.2618L6.10192 85.1455L5.87194 84.729C5.74194 84.4772 5.60195 84.2254 5.47195 83.9638C5.47195 83.8767 5.38194 83.7992 5.34194 83.712C5.30194 83.6248 5.17194 83.3827 5.09194 83.2083L4.82192 82.6465L4.73193 82.4625C4.66193 82.2978 4.59192 82.1429 4.51192 81.9879C4.43192 81.8232 4.35194 81.6488 4.28194 81.4745L4.17193 81.213C4.11193 81.087 4.06194 80.9515 4.00194 80.8158C3.94194 80.6802 3.95193 80.6899 3.92193 80.6221L3.68194 80.0313C3.65967 79.9619 3.63293 79.894 3.60192 79.8278L3.53194 79.6438C3.53194 79.5566 3.46194 79.4695 3.43194 79.3726L3.33193 79.1111L3.27193 78.9464L3.18194 78.6849C3.1022 78.4524 3.10218 78.4524 3.02218 78.2199C3.01765 78.1716 3.01766 78.123 3.02193 78.0747C2.99418 78.0117 2.97079 77.9469 2.95193 77.8809C2.93067 77.8274 2.91396 77.7724 2.90194 77.7163C2.85194 77.5807 2.81193 77.4548 2.77193 77.3192L2.71194 77.1351C2.71194 77.1351 2.71192 77.0382 2.66192 76.9801L2.60192 76.7864L2.48193 76.3699C2.48193 76.3215 2.48194 76.2731 2.43194 76.2246C2.41993 76.1654 2.4032 76.1071 2.38192 76.0503L2.32192 75.8372L2.23193 75.4788C2.23193 75.4013 2.18192 75.3238 2.16192 75.2463C2.14192 75.1688 2.16193 75.101 2.11193 75.0332L2.02193 74.7039L1.93194 74.3261C1.93194 74.2583 1.93192 74.1809 1.88192 74.1131V73.9774V73.8418C1.87726 73.7838 1.87726 73.7255 1.88192 73.6675V73.5609C1.88192 73.4931 1.88192 73.4253 1.88192 73.3478L1.82192 73.1057C1.82192 73.0379 1.82192 72.9604 1.82192 72.8926V72.8054C1.82192 72.7279 1.82192 72.6504 1.82192 72.5729V72.5148C1.82582 72.4438 1.82582 72.3727 1.82192 72.3018C1.82657 72.2696 1.82657 72.237 1.82192 72.2049C1.82671 72.163 1.82671 72.1208 1.82192 72.0789C1.81712 71.9983 1.81712 71.9174 1.82192 71.8368C1.82192 71.7399 1.82193 71.6431 1.77193 71.5559V71.5075C1.77193 71.4009 1.77195 71.2944 1.72195 71.1975L1.66192 70.8294C1.66192 70.7326 1.66192 70.6357 1.66192 70.5485C1.66676 70.4614 1.66676 70.3741 1.66192 70.287C1.66192 70.287 1.66192 70.2095 1.66192 70.1708V69.9577V69.8899C1.66192 69.793 1.66192 69.6865 1.66192 69.5896C1.66192 69.483 1.66192 69.3765 1.66192 69.27C1.66192 69.1538 1.66192 69.0472 1.66192 68.9309V68.6501C1.66192 68.6501 1.66192 68.5823 1.66192 68.5435V68.282V67.9914V67.6621C1.66192 67.5555 1.66192 67.4393 1.66192 67.3328C1.66192 67.2262 1.66192 67.11 1.66192 67.0034C1.66192 66.9162 1.66192 66.8194 1.66192 66.7322V66.2188C1.65696 66.1285 1.65696 66.0379 1.66192 65.9476C1.66192 65.841 1.66192 65.7248 1.66192 65.6183C1.66192 65.5117 1.66192 65.4246 1.66192 65.318C1.66192 65.0952 1.66192 64.8725 1.66192 64.6497V63.6811C1.69779 50.9351 5.1888 38.4217 11.7856 27.393C18.3825 16.3643 27.8538 7.20699 39.2519 0.837402C50.3671 7.36431 59.5445 16.5721 65.8876 27.5614C72.2307 38.5507 75.5227 50.9458 75.4419 63.5358Z" fill="#4A7634"/>
<path d="M12.4516 94.1828C12.2616 93.9794 12.0816 93.776 11.8916 93.5823C12.0816 93.776 12.2616 93.9794 12.4516 94.1828Z" fill="#4A7634"/>
<path d="M51.322 75.0718C50.972 74.9749 49.532 73.0377 50.672 71.7591C50.862 71.5557 50.292 70.9358 50.452 70.9261C51.072 70.8777 51.402 71.2555 51.572 71.7979C51.572 72.04 51.572 72.2725 51.572 72.5243C51.5688 73.38 51.4784 74.2333 51.302 75.0718M47.762 81.3678C47.6219 81.3291 47.4848 81.2805 47.352 81.2225C46.652 80.8738 46.732 81.4259 46.352 81.3C45.972 81.1741 46.742 80.3992 45.702 81.0578C44.662 81.7165 44.942 80.961 44.492 79.8471C44.3503 79.3212 44.4075 78.7636 44.6533 78.2751C44.899 77.7865 45.3171 77.3993 45.832 77.1834C46.5952 76.9262 47.3775 76.7255 48.172 76.5828C49.722 76.2148 50.052 75.3236 50.332 75.8661L50.482 76.1566C50.6073 76.4111 50.6754 76.6884 50.682 76.9702C50.0135 78.6247 48.9911 80.1234 47.682 81.3678M38.582 84.9904C37.3561 84.989 36.1369 84.8161 34.962 84.477C34.8692 84.4069 34.803 84.3089 34.7741 84.1984C34.7451 84.0879 34.7549 83.9713 34.802 83.8668C35.0452 83.4206 35.4091 83.047 35.8548 82.7859C36.3005 82.5249 36.8111 82.3862 37.332 82.3848C39.422 82.1911 42.172 83.7021 42.602 83.46C43.032 83.2178 43.932 82.1039 45.222 82.1524C45.6363 82.1342 46.0469 82.2353 46.402 82.4429C44.1542 84.0997 41.4065 84.9947 38.582 84.9904ZM36.942 76.8734C36.762 77.1543 36.282 79.2562 35.942 79.0141C35.602 78.7719 36.072 76.5732 36.172 76.4085C36.682 75.5077 37.782 75.5561 36.932 76.8734M42.202 74.4035C42.0081 74.502 41.789 74.5444 41.5708 74.5255C41.3527 74.5066 41.1448 74.4272 40.972 74.2969C40.642 74.0548 41.172 73.6479 41.372 73.6382C41.802 73.6382 42.452 74.1807 42.202 74.4035ZM47.892 74.4035C47.752 74.355 47.622 74.2291 47.522 73.9191C47.4939 73.8638 47.4854 73.801 47.4978 73.7405C47.5102 73.6801 47.5428 73.6252 47.5905 73.5844C47.6383 73.5436 47.6986 73.5192 47.7621 73.5149C47.8257 73.5107 47.8888 73.5268 47.942 73.5608C48.212 73.6964 48.552 74.0741 48.552 74.2775C48.552 74.4809 48.032 74.4616 47.892 74.4035ZM48.432 74.7909C48.872 74.7909 49.522 75.343 49.262 75.5658C49.0662 75.6596 48.8472 75.6983 48.6299 75.6778C48.4125 75.6572 48.2054 75.5782 48.032 75.4496C47.712 75.2074 48.242 74.8006 48.432 74.7909ZM34.612 79.7792C34.4943 80.3687 34.2222 80.919 33.822 81.3775C33.3334 81.7892 32.7096 82.0192 32.062 82.0264C31.472 82.0264 31.392 80.4669 31.392 79.692C31.392 79.4208 31.002 80.2152 30.802 78.5976C30.672 77.5515 29.982 78.7041 29.932 78.0067C29.882 77.3093 29.542 77.4546 29.182 77.0381C28.822 76.6216 28.372 77.0381 27.862 77.2996C27.352 77.5611 27.572 77.6289 26.862 77.4158C26.1991 75.8821 25.8591 74.2355 25.862 72.5728C25.862 72.153 25.882 71.7365 25.922 71.3233L26.002 71.207C26.692 70.4321 26.672 70.2384 26.672 70.2384L27.432 69.9866C28.1489 70.1003 28.8547 70.272 29.542 70.4999C30.282 70.7711 31.462 71.3911 32.142 71.1198C32.642 70.9164 33.032 70.6646 32.982 70.2578C32.932 69.8509 32.522 69.6379 31.982 69.9769C31.792 70.1028 31.412 69.2214 31.102 69.2698C30.792 69.3182 31.482 70.2965 31.222 70.345C30.962 70.3934 30.442 69.3085 30.362 69.1342C30.282 68.9598 29.872 68.5336 29.512 68.863C28.752 69.5604 27.512 69.512 27.272 69.696C26.512 70.2384 26.272 69.5119 26.332 69.0664L26.422 68.7661C26.6315 68.6302 26.8718 68.5451 27.1224 68.5181C27.3731 68.4911 27.6268 68.523 27.862 68.6111C28.192 68.8339 28.432 68.6112 28.562 68.4271C28.6158 68.3535 28.6447 68.2655 28.6447 68.1753C28.6447 68.0851 28.6158 67.9971 28.562 67.9234C28.482 67.7491 28.732 67.6232 28.902 67.5747C29.2505 67.414 29.5849 67.2261 29.902 67.0129C30.5519 66.808 31.2521 66.808 31.902 67.0129C32.1134 67.1207 32.3564 67.1555 32.5909 67.1115C32.8255 67.0675 33.0375 66.9473 33.192 66.7708C33.4524 66.4666 33.7675 66.2106 34.122 66.0152C34.312 65.9281 33.662 65.3469 33.122 66.0152C32.582 66.6836 32.312 66.7127 32.062 66.7127C31.812 66.7127 30.332 66.3446 30.142 65.8893C29.952 65.4341 30.612 65.0951 31.142 64.8432C31.9434 64.6605 32.7599 64.547 33.582 64.5042C34.362 64.3395 35.362 63.9618 35.862 64.3008C36.362 64.6398 33.762 65.1919 34.612 65.6375C34.922 65.8022 36.292 64.882 36.762 64.6689C37.872 64.1168 35.692 63.9327 35.972 62.8091C36.302 61.5402 33.302 62.0246 31.802 62.1311C33.5342 61.0625 35.5049 60.4103 37.55 60.2287C39.595 60.0472 41.6553 60.3415 43.5592 61.0873C45.4631 61.8331 47.1554 63.0087 48.4952 64.5163C49.8351 66.0238 50.7837 67.8196 51.262 69.7541C51.2708 69.9496 51.2506 70.1453 51.202 70.3353C51.144 70.4778 51.0456 70.6016 50.9181 70.6923C50.7907 70.7831 50.6393 70.8372 50.4816 70.8483C50.3238 70.8594 50.166 70.8272 50.0263 70.7553C49.8866 70.6834 49.7707 70.5747 49.692 70.4418C49.562 70.2578 49.012 69.7541 49.032 70.6161C49.052 71.4782 49.892 71.5848 49.032 72.0885C48.6302 72.3689 48.163 72.5485 47.672 72.6115C47.4736 72.7791 47.3173 72.9884 47.2151 73.2234C47.1128 73.4584 47.0673 73.7129 47.082 73.9676C47.172 74.4422 48.342 75.7498 47.472 75.6917C46.6577 75.3147 45.9659 74.7284 45.472 73.9967C45.202 73.3089 44.912 72.6309 44.702 72.1175C44.6649 72.0021 44.5991 71.8973 44.5104 71.8124C44.4216 71.7275 44.3126 71.665 44.193 71.6306C44.0734 71.5961 43.9469 71.5907 43.8247 71.6148C43.7024 71.6389 43.5882 71.6918 43.492 71.7688C43.032 72.0691 43.622 72.3791 43.292 73.028C42.962 73.677 42.722 74.2485 42.242 73.7157C40.982 72.3209 39.152 73.0087 38.872 71.4492C38.722 70.6065 37.972 70.684 37.342 70.2093C36.712 69.7347 36.342 69.4732 36.262 69.8219C36.182 70.1706 38.262 71.7107 38.372 72.1175C38.592 72.7181 37.752 73.2508 37.142 73.3864C36.532 73.522 36.262 73.0571 35.662 72.4178C35.062 71.7785 34.802 71.3814 34.752 71.856C34.7638 72.2677 34.8716 72.6715 35.0673 73.0371C35.2629 73.4028 35.5415 73.7209 35.882 73.9676C36.412 74.2872 36.992 74.4325 36.822 74.9362C36.652 75.4399 36.822 75.159 36.232 75.7208C35.9844 75.8871 35.7915 76.1189 35.6762 76.3886C35.561 76.6582 35.5283 76.9543 35.582 77.2415C35.582 78.0164 35.412 78.0648 35.282 78.7138C35.152 79.3628 34.862 78.8009 34.612 79.7502M27.712 65.9862C27.7277 65.9575 27.7479 65.9313 27.772 65.9087C28.0577 65.6896 28.4079 65.5642 28.772 65.5503C29.092 65.4922 29.522 65.6569 29.572 65.8603C29.622 66.0637 28.762 66.4414 28.572 66.577C28.122 66.9742 27.422 67.7878 27.012 67.875C26.906 67.9155 26.788 67.9155 26.682 67.875C26.9564 67.2301 27.2911 66.6108 27.682 66.0249M28.342 64.7463C28.502 64.5139 29.062 63.8358 29.132 63.7777C29.3039 63.6305 29.5228 63.545 29.752 63.5356C29.952 63.5356 30.212 63.6034 30.242 63.7487C30.2488 64.0226 30.1906 64.2943 30.072 64.543C29.7033 64.8928 29.2171 65.1025 28.702 65.1338C28.402 65.1338 28.282 64.8626 28.342 64.7754M69.342 72.2047C65.7925 67.5714 61.1739 63.8062 55.8548 61.2094C50.5357 58.6127 44.6636 57.2563 38.7071 57.2488C32.7506 57.2413 26.8748 58.5827 21.5488 61.166C16.2227 63.7493 11.594 67.5029 8.03201 72.1272L7.79199 72.4565L8.03201 72.7955C11.5802 77.4305 16.1984 81.1975 21.5177 83.7955C26.8369 86.3934 32.7097 87.7504 38.6669 87.758C44.6241 87.7655 50.5005 86.4234 55.8268 83.8389C61.153 81.2544 65.7813 77.4991 69.342 72.873C69.4283 72.7677 69.5084 72.6577 69.582 72.5437C69.522 72.4469 69.442 72.3403 69.342 72.2047Z" fill="white"/>
<path d="M29.932 45.4618V27.9105C29.7196 28.0121 29.4989 28.0963 29.272 28.1624L28.272 28.4529C27.892 28.5498 27.552 28.6563 27.272 28.7532L26.582 28.976V26.1379C26.842 26.0508 27.162 25.9248 27.582 25.7602C28.002 25.5955 28.372 25.4115 28.802 25.1984C29.219 24.989 29.6231 24.7561 30.012 24.501C30.3506 24.2918 30.6598 24.0411 30.932 23.7551H33.932V45.4618H29.932Z" fill="white"/>
<path d="M43.6017 45.8099C42.4073 45.8618 41.222 45.5865 40.1818 45.0156C39.3266 44.4966 38.67 43.7211 38.3118 42.8072C37.9093 41.7538 37.7126 40.637 37.7317 39.5139V38.7293H41.6317V39.3977C41.6419 39.9836 41.7089 40.5674 41.8318 41.1412C41.902 41.5551 42.109 41.9358 42.4218 42.226C42.7722 42.489 43.2093 42.6198 43.6518 42.5941C44.1043 42.6249 44.5518 42.4862 44.9018 42.2067C45.2034 41.8866 45.3955 41.484 45.4517 41.054C45.5504 40.4551 45.5973 39.8492 45.5918 39.2427C45.6366 38.3485 45.4546 37.4572 45.0618 36.6468C44.8474 36.3277 44.5491 36.0697 44.1976 35.8994C43.846 35.7291 43.4539 35.6528 43.0618 35.6782C42.9692 35.6618 42.8743 35.6618 42.7818 35.6782H42.3618V32.7046H42.9718C43.3592 32.7412 43.7501 32.6892 44.1131 32.5529C44.476 32.4167 44.801 32.1999 45.0618 31.92C45.5016 31.1772 45.7002 30.3232 45.6317 29.4694C45.6682 28.7431 45.5242 28.019 45.2118 27.3578C45.0534 27.0984 44.8209 26.889 44.5422 26.7549C44.2636 26.6208 43.9508 26.5678 43.6418 26.6023C43.3248 26.5674 43.0045 26.6301 42.7263 26.7813C42.4481 26.9326 42.2261 27.1647 42.0918 27.445C41.8068 28.1279 41.6641 28.8587 41.6718 29.5953V30.3799H37.7718V29.3047C37.7417 28.2153 37.9745 27.134 38.4517 26.1471C38.8821 25.2927 39.5828 24.5937 40.4517 24.1517C41.4432 23.6694 42.5428 23.433 43.6518 23.464C44.7555 23.4314 45.8506 23.6609 46.8418 24.1323C47.6999 24.5612 48.3989 25.2383 48.8418 26.0695C49.3323 27.049 49.5691 28.1295 49.5318 29.2175C49.5742 30.3224 49.286 31.4157 48.7017 32.3655C48.2353 33.1361 47.485 33.7071 46.6017 33.9638C47.185 34.1623 47.7099 34.4946 48.1317 34.9324C48.5898 35.4192 48.9313 35.998 49.1317 36.6275C49.4004 37.4574 49.5255 38.3247 49.5018 39.1943C49.524 40.3673 49.331 41.5348 48.9318 42.6425C48.5815 43.5912 47.9305 44.4083 47.0717 44.9769C46.026 45.5818 44.8181 45.8718 43.6017 45.8099Z" fill="white"/>
</svg>
