<svg width="79" height="114" viewBox="0 0 79 114" fill="none" xmlns="http://www.w3.org/2000/svg">
<path d="M78.792 66.66V67.0087C78.7916 70.7387 78.3317 74.4554 77.422 78.0799C76.8367 80.394 76.0677 82.6609 75.122 84.8602C72.6828 90.5984 69.099 95.8141 64.5757 100.209C60.0525 104.603 54.6786 108.09 48.762 110.47C45.7711 111.673 42.6618 112.579 39.482 113.173L39.192 113.115H38.982H38.832L38.572 113.057L38.302 112.998H38.122H37.952L37.662 112.931L37.112 112.805L36.822 112.737L35.932 112.514L35.702 112.446C34.912 112.233 34.122 112.001 33.342 111.749L33.142 111.681L32.782 111.565L32.612 111.507L32.222 111.371L31.942 111.274L31.782 111.216L31.622 111.158L31.382 111.061L31.152 110.984L30.442 110.703L30.232 110.625L29.962 110.519L29.692 110.403L29.442 110.296H29.332L29.152 110.209L28.932 110.122L28.752 110.034L28.582 109.967L28.312 109.841L28.072 109.734H28.002L27.792 109.637L27.572 109.531C27.5024 109.504 27.4355 109.472 27.372 109.434L27.202 109.347L27.062 109.279L26.872 109.192L26.662 109.085L26.522 109.017L26.402 108.959L26.082 108.533L25.852 108.407H25.782L25.552 108.281L25.332 108.165L25.002 107.991L24.812 107.884C24.532 107.729 24.262 107.584 23.992 107.419L23.792 107.313L23.632 107.216L23.422 107.1C23.3592 107.052 23.2923 107.01 23.222 106.974L23.062 106.877C21.7686 106.102 20.5253 105.272 19.332 104.387L19.172 104.271L19.052 104.174L18.862 104.039L18.642 103.864L18.492 103.748L18.352 103.642L18.122 103.467L17.842 103.244L17.682 103.119L17.612 103.06L17.462 102.944L17.292 102.799L17.092 102.634L16.892 102.47L16.712 102.324L16.442 102.092L16.232 101.908L16.022 101.714L15.822 101.54L15.632 101.365L15.432 101.181L15.242 101.007L15.062 100.833L14.892 100.668L14.692 100.484L14.492 100.29L14.282 100.087L14.102 99.9028L14.022 99.8253L13.882 99.68L13.682 99.4766L13.442 99.2345L13.282 99.0698L13.082 98.8567C12.882 98.6533 12.692 98.4402 12.502 98.2368C12.312 98.0334 12.222 97.9365 12.092 97.7815L11.742 97.3747C11.362 96.9485 10.992 96.5126 10.632 96.0671L10.462 95.8443L10.302 95.6409L9.84196 95.0597L9.71197 94.8853L9.57197 94.7013L9.45196 94.5367L9.14197 94.1105C9.10308 94.0694 9.06951 94.0238 9.04198 93.9748L8.90198 93.7909L8.77197 93.5971L8.65198 93.4324L8.51196 93.229L8.40198 93.0644L8.27197 92.8804V92.8223C8.23898 92.762 8.20224 92.7038 8.16197 92.6478V92.5897L8.06197 92.4445L7.95196 92.2701L7.83197 92.0861L7.62196 91.7567L7.53197 91.6115L7.44197 91.4759L7.08197 91.0981L6.93198 90.8462L6.78197 90.6041L6.66197 90.4007V90.3329L6.54198 90.1295L6.41197 89.897L6.26196 89.6549L6.12196 89.3933C6.12196 89.3352 6.05196 89.2674 6.01196 89.1996L5.95196 89.0834L5.71197 88.6475L5.29198 87.8436C5.24198 87.7564 5.20197 87.6692 5.16197 87.582L4.89197 87.059C4.80197 86.8653 4.70197 86.6715 4.61197 86.4681L4.52197 86.2744L4.30197 85.7804L4.06197 85.2477C4.06197 85.1508 3.99196 85.0636 3.95196 84.9764L3.77197 84.5599L3.69197 84.3565C3.60197 84.1531 3.52197 83.9401 3.44197 83.7366C3.36197 83.5332 3.38197 83.5913 3.36197 83.5235L3.28197 83.3298C3.28197 83.2329 3.21198 83.1458 3.18198 83.0489L3.07197 82.768L3.01197 82.6033C2.98468 82.5109 2.95128 82.4204 2.91197 82.3321C2.88075 82.2496 2.85405 82.1655 2.83197 82.0803L2.74197 81.8381C2.74197 81.7897 2.74197 81.7413 2.69197 81.6832L2.62197 81.4798L2.56197 81.3151C2.56197 81.1698 2.47197 81.0342 2.43197 80.8986L2.37197 80.7049C2.37197 80.6468 2.37197 80.5983 2.37197 80.5499L2.31197 80.3368C2.31197 80.1915 2.22197 80.0462 2.18197 79.9009C2.14197 79.7556 2.18197 79.804 2.13197 79.7556V79.5619L2.07197 79.3391C2.07197 79.2229 2.00197 79.0969 1.96197 78.971L1.90197 78.7289L1.84197 78.5061L1.75197 78.1671C1.75197 78.0315 1.69197 77.8959 1.65197 77.77C1.65767 77.6958 1.65767 77.6213 1.65197 77.5472V77.4019C1.6565 77.3535 1.6565 77.3049 1.65197 77.2566C1.65664 77.1954 1.65664 77.1338 1.65197 77.0726C1.65197 77.0726 1.65197 77.0047 1.65197 76.966C1.65197 76.9272 1.65197 76.8207 1.65197 76.7432C1.63049 76.6602 1.6138 76.5762 1.60197 76.4914C1.60197 76.4139 1.60197 76.3364 1.60197 76.2686C1.60197 76.2008 1.60197 76.2008 1.60197 76.1718C1.60197 76.1427 1.60197 76.0167 1.60197 75.9393V75.8715C1.59634 75.7973 1.59634 75.7228 1.60197 75.6487C1.59633 75.6134 1.59633 75.5775 1.60197 75.5422V75.4162C1.60197 75.3291 1.60197 75.2516 1.60197 75.1644V75.116C1.60197 75.0191 1.60197 74.9222 1.60197 74.8254V74.777L1.54197 74.4476L1.48197 74.0601C1.48197 73.9633 1.48197 73.8664 1.48197 73.7696C1.48197 73.6824 1.48197 73.5856 1.48197 73.4984C1.48197 73.4112 1.48197 73.4209 1.48197 73.3822C1.47801 73.308 1.47801 73.2336 1.48197 73.1593V73.0819C1.48197 72.9753 1.48197 72.8688 1.48197 72.7622C1.48197 72.6557 1.48197 72.5394 1.48197 72.4232C1.48197 72.307 1.48197 72.1907 1.48197 72.0745V71.7742C1.48197 71.7742 1.48197 71.6968 1.48197 71.6677V71.3965V71.0866V70.7475V70.3891C1.48197 70.2826 1.48197 70.1664 1.48197 70.0501V69.7886C1.48197 69.6917 1.48197 69.5949 1.48197 69.5077V69.4399C1.48197 69.343 1.48197 69.2462 1.48197 69.1493C1.48197 69.0331 1.48197 68.9168 1.48197 68.8006C1.48197 68.6843 1.48197 68.5972 1.48197 68.4906C1.48197 68.2581 1.48197 68.0257 1.48197 67.7835V66.7278C1.37249 53.5072 4.81882 40.4868 11.4818 28.948C18.1447 17.4092 27.7947 7.74973 39.482 0.920166C51.4019 7.58609 61.3063 17.1663 68.2048 28.7028C75.1032 40.2394 78.754 53.3281 78.792 66.66Z" fill="#004C84"/>
<path d="M56.7221 55.5408C56.4269 55.8498 56.2144 56.2242 56.1032 56.6312C55.992 57.0382 55.9854 57.4654 56.0841 57.8754C56.1828 58.2854 56.3837 58.6658 56.6692 58.9832C56.9548 59.3006 57.3163 59.5454 57.7221 59.6962C58.2358 59.0294 58.4682 58.1982 58.3721 57.3715C58.0958 56.5818 57.5154 55.926 56.7521 55.5408" fill="white"/>
<path d="M55.2318 62.2722C55.5268 61.9622 55.7391 61.5871 55.8502 61.1795C55.9614 60.7719 55.9679 60.3441 55.8693 59.9334C55.7707 59.5228 55.57 59.1418 55.2846 58.8235C54.9992 58.5052 54.6377 58.2593 54.2318 58.1072C53.7181 58.7739 53.4857 59.6051 53.5818 60.4319C53.8622 61.2216 54.441 61.8792 55.2018 62.2722" fill="white"/>
<path d="M59.002 61.0029C59.5517 61.5363 60.2939 61.8419 61.072 61.8553C61.8402 61.7039 62.5218 61.2787 62.9819 60.6639C62.4322 60.1305 61.69 59.8249 60.912 59.8115C60.1437 59.9629 59.4621 60.3881 59.002 61.0029Z" fill="white"/>
<path d="M60.5817 55.9573C60.0176 56.6484 59.7427 57.5198 59.8117 58.3983C60.7069 58.4699 61.5959 58.2026 62.2917 57.6524C62.851 56.9768 63.1324 56.1246 63.0817 55.26C62.1866 55.1883 61.2976 55.4557 60.6017 56.0058" fill="white"/>
<path d="M58.6017 64.5103C59.3881 64.5164 60.1482 64.2364 60.7317 63.7257C60.3068 63.0977 59.6474 62.6534 58.8917 62.4859C58.1053 62.4799 57.3452 62.7599 56.7617 63.2705C57.1866 63.8985 57.8461 64.3428 58.6017 64.5103Z" fill="white"/>
<path d="M59.5817 81.6055H51.3817C51.074 81.6055 50.779 81.7238 50.5614 81.9345C50.3439 82.1452 50.2217 82.431 50.2217 82.729C50.2217 83.027 50.3439 83.3128 50.5614 83.5235C50.779 83.7343 51.074 83.8527 51.3817 83.8527H59.5817C59.8893 83.8527 60.1844 83.7343 60.4019 83.5235C60.6195 83.3128 60.7417 83.027 60.7417 82.729C60.7417 82.431 60.6195 82.1452 60.4019 81.9345C60.1844 81.7238 59.8893 81.6055 59.5817 81.6055Z" fill="white"/>
<path d="M59.5817 94.0044H51.3817C51.074 94.0044 50.779 94.1228 50.5614 94.3335C50.3439 94.5442 50.2217 94.83 50.2217 95.128C50.2217 95.426 50.3439 95.7118 50.5614 95.9225C50.779 96.1332 51.074 96.2516 51.3817 96.2516H59.5817C59.8893 96.2516 60.1844 96.1332 60.4019 95.9225C60.6195 95.7118 60.7417 95.426 60.7417 95.128C60.7417 94.83 60.6195 94.5442 60.4019 94.3335C60.1844 94.1228 59.8893 94.0044 59.5817 94.0044Z" fill="white"/>
<path d="M22.6816 78.8749C22.4916 78.8171 22.2978 78.7718 22.1016 78.7393L22.6816 78.8749Z" fill="white"/>
<path d="M35.9817 83.7466C36.5217 83.7466 37.0617 83.7466 37.6017 83.7466V87.902H35.9817V83.7466ZM59.2817 84.6378H51.6817C51.5067 84.6378 51.3388 84.7051 51.215 84.825C51.0912 84.9449 51.0217 85.1075 51.0217 85.2771V87.5146L46.0217 88.0376L38.7717 87.8826V83.5917C39.7445 83.4674 40.7069 83.2764 41.6517 83.0202C48.6517 81.0829 50.1617 76.8985 50.0117 73.0338C49.8617 69.169 51.1617 67.5611 53.0117 66.8831C53.5135 66.7015 54.0327 66.5684 54.5617 66.486C54.6095 67.6547 54.8352 68.8101 55.2317 69.9149H55.7217C55.3111 68.8034 55.0817 67.6368 55.0417 66.4569C55.5906 66.4085 56.1428 66.4085 56.6917 66.4569C56.1352 66.1426 55.6096 65.7795 55.1217 65.3721C55.5004 63.7331 56.4287 62.2618 57.7617 61.1876C58.4486 60.548 59.0683 59.844 59.6117 59.0858L59.2017 58.8242C58.6763 59.5582 58.0766 60.2396 57.4117 60.8583C56.0926 61.9439 55.1472 63.3936 54.7017 65.0137C54.277 64.6509 53.8762 64.2627 53.5017 63.8513C51.7817 61.9819 49.5717 63.3573 46.4017 66.2051C43.2317 69.0528 39.2717 69.1109 35.4017 65.3042C30.2817 60.219 25.8117 60.2481 22.7517 60.5387C24.8417 61.4104 25.5817 63.2992 26.6417 68.1229C27.7517 73.1888 30.5517 75.4747 34.3917 75.7943C32.6117 76.0752 32.1517 76.3077 29.2917 78.2256C27.0617 79.7172 23.9217 79.1941 22.6517 78.9617C24.9817 79.6688 27.7517 82.0419 30.2317 82.8361C31.6939 83.3154 33.2124 83.6149 34.7517 83.7273V87.8342L20.9917 87.5533V90.4592L45.9917 89.9168L50.9917 90.4495V92.6773C50.9917 92.8468 51.0612 93.0094 51.185 93.1293C51.3088 93.2492 51.4767 93.3165 51.6517 93.3165H59.2517C59.4267 93.3165 59.5946 93.2492 59.7184 93.1293C59.8422 93.0094 59.9117 92.8468 59.9117 92.6773V85.2868C59.9117 85.1172 59.8422 84.9546 59.7184 84.8347C59.5946 84.7148 59.4267 84.6475 59.2517 84.6475" fill="white"/>
<path d="M20.3118 89.8975C20.3213 90.0332 20.3028 90.1693 20.2576 90.298C20.2123 90.4267 20.141 90.5454 20.048 90.6472C19.955 90.7491 19.842 90.832 19.7156 90.8912C19.5892 90.9504 19.452 90.9846 19.3118 90.992H18.7318C18.4496 90.9746 18.1861 90.8497 17.9987 90.6446C17.8113 90.4395 17.7154 90.1709 17.7318 89.8975V87.9603C17.7154 87.6869 17.8113 87.4183 17.9987 87.2132C18.1861 87.0081 18.4496 86.8832 18.7318 86.8657H19.3118C19.452 86.8731 19.5892 86.9074 19.7156 86.9666C19.842 87.0258 19.955 87.1087 20.048 87.2105C20.141 87.3123 20.2123 87.431 20.2576 87.5597C20.3028 87.6884 20.3213 87.8246 20.3118 87.9603V89.8975Z" fill="white"/>
<path d="M30.8219 46.7453V28.3416C30.5973 28.4518 30.363 28.5425 30.1219 28.6128C29.7919 28.7097 29.4319 28.8162 29.0419 28.9131L27.9519 29.223L27.2319 29.4652V26.4915C27.5019 26.4044 27.8419 26.2688 28.2319 26.1041C28.6219 25.9395 29.0619 25.736 29.5019 25.5132C29.9421 25.2941 30.3694 25.0516 30.7819 24.7868C31.1332 24.5673 31.4527 24.3035 31.7319 24.0022H34.9119V46.6968L30.8219 46.7453Z" fill="white"/>
<path d="M45.6019 47.0552C44.3449 47.1115 43.1028 46.7716 42.0619 46.0865C41.1337 45.4138 40.4367 44.4855 40.0619 43.4229C39.6166 42.2009 39.3999 40.9118 39.4219 39.6161V31.6251C39.4048 30.2806 39.5833 28.9404 39.9519 27.6441C40.2564 26.544 40.9107 25.5646 41.8219 24.8448C42.9247 24.0876 44.2632 23.7217 45.6119 23.8084C46.7641 23.7605 47.9108 23.9866 48.9519 24.4671C49.7929 24.8866 50.4625 25.5693 50.8519 26.4043C51.2838 27.3862 51.4918 28.4467 51.4619 29.5135C51.4572 29.5748 51.4572 29.6363 51.4619 29.6976C51.4669 29.7588 51.4669 29.8203 51.4619 29.8816H47.5319C47.5738 29.1228 47.4512 28.3639 47.1719 27.6538C47.0184 27.4504 46.823 27.2801 46.598 27.1536C46.3731 27.0272 46.1234 26.9473 45.865 26.9191C45.6065 26.8909 45.3448 26.9149 45.0964 26.9897C44.848 27.0645 44.6184 27.1884 44.4219 27.3535C44.0646 27.7704 43.839 28.2782 43.7719 28.8161C43.6167 29.7218 43.5498 30.6396 43.5719 31.5573V34.1628C43.8678 33.7314 44.2888 33.3944 44.7819 33.1942C45.3848 32.9408 46.0347 32.809 46.6919 32.8068C47.7605 32.7338 48.8218 33.025 49.6919 33.6301C50.4574 34.2352 51.0125 35.0535 51.2819 35.9742C51.6096 37.0758 51.768 38.2181 51.7519 39.3644C51.7724 40.7149 51.5802 42.0606 51.1819 43.355C50.8501 44.447 50.1755 45.4118 49.2519 46.1156C48.1753 46.8097 46.8922 47.14 45.6019 47.0552ZM45.6019 44.004C45.837 44.0205 46.0728 43.9846 46.2913 43.8989C46.5097 43.8133 46.7049 43.6802 46.8619 43.51C47.1767 43.1052 47.3766 42.6277 47.4419 42.1249C47.5529 41.4295 47.6064 40.7266 47.6019 40.023C47.6019 39.2191 47.6019 38.5022 47.5019 37.863C47.4645 37.3231 47.2817 36.8022 46.9719 36.3519C46.8047 36.1535 46.5893 35.9983 46.345 35.9003C46.1006 35.8023 45.8351 35.7645 45.5719 35.7902C45.2736 35.7896 44.9781 35.8456 44.7019 35.9548C44.4429 36.0605 44.2083 36.2153 44.0119 36.41C43.835 36.5744 43.6804 36.7599 43.5519 36.9622V40.5266C43.5478 41.106 43.6081 41.684 43.7319 42.2508C43.8295 42.7228 44.0497 43.1629 44.3719 43.5294C44.5339 43.6922 44.7304 43.8191 44.948 43.901C45.1656 43.983 45.399 44.0181 45.6319 44.004H45.6019Z" fill="white"/>
</svg>
