<svg width="78" height="109" viewBox="0 0 78 109" fill="none" xmlns="http://www.w3.org/2000/svg">
<path d="M13.4216 94.6903L12.8516 94.0801L13.4216 94.6903Z" fill="#1F3262"/>
<path d="M77.7016 63.4133V63.7522C77.6964 67.3941 77.2467 71.0225 76.3616 74.562C75.7766 76.8455 75.0145 79.0828 74.0816 81.2551C69.2482 92.5336 59.9955 101.496 48.3516 106.178C45.4306 107.346 42.3952 108.225 39.2916 108.802H39.0116L38.8016 108.754H38.6616L38.4016 108.696L38.1416 108.638H37.9616H37.7916L37.5116 108.58L36.9816 108.454L36.6916 108.386L35.8316 108.163L35.6016 108.105C34.8316 107.892 34.0616 107.669 33.3016 107.417L33.1016 107.359L32.7516 107.243L32.5816 107.185L32.2016 107.049L31.9316 106.952L31.7716 106.894H31.6216L31.3816 106.807L31.1616 106.72L30.4616 106.449L30.2616 106.371L30.0016 106.265L29.7316 106.158L29.4916 106.052H29.3916L29.2116 105.974L28.9916 105.877L28.8216 105.8L28.6616 105.732L28.3916 105.616L28.1516 105.509H28.0916L27.8816 105.412L27.6716 105.306L27.4717 105.219L27.3016 105.141L27.1616 105.073L26.9916 104.986L26.7816 104.88L26.6516 104.821L26.5316 104.754L26.3216 104.647L26.0916 104.531H26.0316L25.8016 104.415L25.5816 104.298L25.2616 104.124L25.0816 104.027L24.2816 103.572L24.0816 103.465L23.9316 103.369L23.7316 103.252L23.5316 103.136L23.3716 103.039C22.1216 102.284 20.9016 101.47 19.7316 100.608L19.5816 100.501L19.4616 100.405L19.2716 100.269L19.0616 100.104L18.9116 99.9881L18.7716 99.8815L18.5516 99.7169L18.2816 99.4941L18.1216 99.3682L18.0516 99.3101L17.9116 99.2035L17.7416 99.0582L17.5516 98.8936H17.5016L17.3116 98.7289L17.1416 98.5836L16.8816 98.3608L16.6716 98.1865L16.4616 98.0024L16.2716 97.8281L16.0816 97.6634L15.8816 97.4794C15.8137 97.4297 15.7501 97.3746 15.6916 97.3147L15.5116 97.15L15.3416 96.9854L15.1516 96.811L14.9516 96.627L14.7516 96.4236L14.5716 96.2492L14.5016 96.1718L14.3616 96.0362L14.1616 95.8327L13.9316 95.6003L13.7716 95.4356L13.5816 95.2322L13.0116 94.622L12.6116 94.1764L12.2716 93.789C11.9016 93.3628 11.5416 92.9366 11.1916 92.5007L11.0216 92.2876L10.8616 92.0939C10.7116 91.9002 10.5616 91.7161 10.4216 91.5224L10.2916 91.348L10.1616 91.1737L10.0416 91.0187L9.73163 90.5926L9.64163 90.4666L9.50165 90.2826L9.37164 90.0889C9.32938 90.0411 9.29248 89.9892 9.26163 89.9339C9.26163 89.8661 9.17164 89.7983 9.12164 89.7402L9.01163 89.5755L8.89163 89.4011V89.343C8.85136 89.2871 8.81464 89.2289 8.78165 89.1687L8.73163 89.1105L8.64163 88.9749C8.60864 88.9147 8.57192 88.8565 8.53165 88.8006L8.42163 88.6165C8.34918 88.5168 8.28243 88.4134 8.22165 88.3066C8.18476 88.2572 8.15134 88.2054 8.12164 88.1516L8.04163 88.0257L7.93164 87.8417L7.78165 87.6092L7.64163 87.3671L7.52164 87.1636V87.1055L7.40164 86.9021L7.28165 86.6793C7.24102 86.5955 7.19422 86.5145 7.14163 86.4372C7.14163 86.35 7.05165 86.2725 7.00165 86.1854L6.90164 86.0013L6.83164 85.8851C6.76164 85.7398 6.68162 85.6042 6.60162 85.4589L6.19162 84.6743L6.06165 84.4225C5.98165 84.2481 5.89165 84.0834 5.81165 83.9091C5.73165 83.7347 5.62165 83.5217 5.53165 83.3376L5.44162 83.1439C5.36162 82.9889 5.29165 82.834 5.22165 82.6693L4.99164 82.1462C4.99164 82.059 4.91162 81.9719 4.88162 81.8847L4.70163 81.4779C4.67936 81.4085 4.65266 81.3406 4.62164 81.2745L4.38162 80.674L4.30164 80.4705L4.23163 80.2768C4.23163 80.1896 4.16164 80.0928 4.12164 80.0056C4.09436 79.9132 4.06095 79.8226 4.02164 79.7344L3.96164 79.5697L3.87164 79.2985L3.78165 79.0563C3.78165 78.9788 3.73163 78.9014 3.70163 78.8239C3.67163 78.7464 3.70164 78.727 3.65164 78.6786C3.60164 78.6302 3.60164 78.543 3.58164 78.4752C3.56038 78.4217 3.54367 78.3666 3.53165 78.3105C3.48165 78.1749 3.44163 78.0393 3.39163 77.9037L3.34165 77.7196C3.32184 77.669 3.30513 77.6173 3.29163 77.5647L3.23163 77.3613C3.18163 77.216 3.14163 77.0804 3.10163 76.9351C3.0971 76.8867 3.0971 76.8381 3.10163 76.7898L3.04163 76.6058L2.98163 76.3926C2.98163 76.2667 2.92162 76.1505 2.88162 76.0246L2.82163 75.7921L2.76163 75.5693C2.76163 75.4628 2.70164 75.3465 2.68164 75.24C2.66164 75.1334 2.61164 74.9785 2.58164 74.8526C2.55164 74.7267 2.58165 74.7072 2.53165 74.6298V74.4942C2.53165 74.4458 2.53165 74.3973 2.53165 74.3489C2.53631 74.2909 2.53631 74.2326 2.53165 74.1745C2.53165 74.1745 2.53165 74.1068 2.53165 74.068C2.53165 74.0293 2.53163 73.9227 2.48163 73.8549C2.43163 73.7871 2.48163 73.6902 2.48163 73.603C2.48163 73.5159 2.48164 73.4578 2.43164 73.3803C2.43633 73.3514 2.43633 73.322 2.43164 73.2931C2.43164 73.2156 2.43164 73.1381 2.43164 73.0606V73.0025C2.43164 72.9347 2.43162 72.8572 2.38162 72.7894C2.38633 72.7541 2.38633 72.7183 2.38162 72.6829C2.38641 72.6411 2.38641 72.5988 2.38162 72.557C2.38162 72.4698 2.38164 72.3923 2.33164 72.3051C2.33164 72.2083 2.33164 72.1114 2.33164 72.0145V71.9661L2.27164 71.6562L2.21164 71.2784C2.21164 71.1815 2.21164 71.0847 2.21164 70.9878C2.2068 70.9007 2.2068 70.8134 2.21164 70.7263C2.21164 70.7263 2.21164 70.6488 2.21164 70.61V70.3873V70.3195C2.21164 70.2129 2.21164 70.1161 2.21164 70.0095C2.21164 69.8933 2.21164 69.7867 2.21164 69.6705C2.21164 69.5542 2.21164 69.4477 2.21164 69.3315V69.0409C2.21164 69.0409 2.21164 68.9731 2.21164 68.9344V68.6728V68.3726V68.0432C2.21164 67.9366 2.21164 67.8204 2.21164 67.7042V67.3748C2.2166 67.2813 2.2166 67.1875 2.21164 67.094V67.0262C2.21164 66.939 2.21164 66.8421 2.21164 66.7453C2.21164 66.6291 2.21164 66.5225 2.21164 66.4159C2.21164 66.3094 2.21164 66.2125 2.21164 66.106C2.21164 65.8735 2.21164 65.6508 2.21164 65.4183C2.21164 65.1858 2.21164 65.1955 2.21164 65.0792V64.3819C2.25045 51.3726 5.81488 38.6013 12.5484 27.345C19.282 16.0888 28.9486 6.74228 40.5816 0.240234C51.837 6.80891 61.1616 16.068 67.6614 27.1299C74.1613 38.1918 77.6185 50.6855 77.7016 63.4133Z" fill="#1F3262"/>
<path d="M13.4216 94.6903L12.8516 94.0801L13.4216 94.6903Z" fill="#1F3262"/>
<path d="M47.9617 72.1793C49.2451 71.0311 50.2693 69.638 50.9697 68.0877C51.6702 66.5374 52.0318 64.8635 52.0317 63.1712C52.0306 62.6432 51.9939 62.1157 51.9217 61.5924C53.8668 61.7903 55.711 62.5299 57.2313 63.7218C58.7515 64.9136 59.8826 66.5067 60.4877 68.3081C61.0929 70.1096 61.1461 72.0424 60.641 73.8725C60.1359 75.7027 59.0942 77.3519 57.6417 78.6206C56.6821 76.872 55.301 75.3734 53.6159 74.252C51.9307 73.1307 49.9911 72.4197 47.9617 72.1793ZM56.5817 84.3838C56.5787 86.0993 56.111 87.784 55.2253 89.2695C54.3395 90.755 53.0668 91.9894 51.5343 92.8493C50.0018 93.7092 48.2631 94.1644 46.492 94.1696C44.721 94.1747 42.9795 93.7295 41.4417 92.8786C43.6756 90.5987 44.9212 87.5755 44.9217 84.4323C44.9219 83.6424 44.8449 82.8543 44.6917 82.0785C46.4703 83.0336 48.4599 83.5604 50.4927 83.6143C52.5255 83.6682 54.5419 83.2478 56.3717 82.3885C56.5115 83.0253 56.5819 83.6746 56.5817 84.3257M22.0917 84.4129C22.088 83.7291 22.1618 83.047 22.3117 82.3788C24.1382 83.2316 26.1488 83.6485 28.1756 83.5946C30.2024 83.5407 32.1864 83.0176 33.9617 82.0689C33.8173 82.813 33.7437 83.5685 33.7417 84.3257C33.7392 87.5214 35.0277 90.5912 37.3317 92.8786C35.7872 93.7635 34.0262 94.2318 32.2317 94.2346C29.5519 94.2347 26.9807 93.2082 25.0792 91.3791C23.1777 89.5499 22.1002 87.0667 22.0817 84.471M17.6817 71.356C17.6865 68.9353 18.6121 66.6012 20.2817 64.8C21.9512 62.9988 24.2476 61.8568 26.7317 61.5924C26.663 62.116 26.6296 62.6434 26.6317 63.1712C26.6309 64.8799 26.9988 66.5699 27.7117 68.1329C28.4247 69.6958 29.4669 71.0972 30.7717 72.2471C28.7388 72.4766 26.7929 73.1774 25.0991 74.2903C23.4053 75.4031 22.0135 76.8952 21.0417 78.6399C19.9838 77.7234 19.1376 76.6008 18.5586 75.3456C17.9796 74.0903 17.6808 72.7308 17.6817 71.356ZM39.3217 53.3397C41.2968 53.3435 43.228 53.9043 44.8795 54.9535C46.531 56.0028 47.8313 57.4951 48.6217 59.2483C46.6131 59.5955 44.72 60.4049 43.1016 61.6084C41.4832 62.8119 40.1869 64.3743 39.3217 66.1642C38.4582 64.375 37.1637 62.813 35.547 61.6094C33.9303 60.4059 32.0389 59.5962 30.0318 59.2483C30.8194 57.4951 32.1177 56.0024 33.7677 54.953C35.4177 53.9036 37.3478 53.3429 39.3217 53.3397ZM41.7417 75.6857C43.1868 74.9455 44.7971 74.5597 46.4317 74.5621C48.3247 74.5664 50.1787 75.0829 51.7848 76.0533C53.3909 77.0237 54.6852 78.4094 55.5217 80.0541C54.325 80.664 53.0141 81.0348 51.6666 81.1447C50.3192 81.2546 48.9627 81.1013 47.6775 80.6939C46.3924 80.2865 45.2048 79.6333 44.1852 78.773C43.1655 77.9127 42.3346 76.8628 41.7417 75.6857ZM36.8717 75.7535C36.273 76.9167 35.4411 77.9529 34.4247 78.8016C33.4082 79.6502 32.2275 80.2944 30.9514 80.6965C29.6753 81.0986 28.3293 81.2506 26.9919 81.1436C25.6545 81.0367 24.3525 80.6729 23.1617 80.0735C24.0039 78.4444 25.2973 77.0743 26.8973 76.1164C28.4972 75.1584 30.3408 74.6505 32.2218 74.6492C33.8412 74.6472 35.4369 75.0261 36.8717 75.7535ZM29.3117 61.6602C30.6366 61.8419 31.9106 62.2777 33.0594 62.9422C34.2082 63.6067 35.2085 64.4866 36.0019 65.5302C36.7953 66.5738 37.3658 67.7602 37.68 69.02C37.9942 70.2798 38.0458 71.5877 37.8317 72.867C35.4312 72.5236 33.2377 71.357 31.6503 69.5794C30.0628 67.8018 29.1868 65.5313 29.1817 63.1809C29.189 62.6749 29.2325 62.17 29.3117 61.6699M39.3817 91.4256C38.4152 90.5189 37.6451 89.4345 37.1165 88.236C36.5878 87.0375 36.3112 85.749 36.3028 84.4457C36.2944 83.1424 36.5545 81.8506 37.0677 80.6459C37.5809 79.4411 38.337 78.3475 39.2917 77.4292C40.2582 78.3359 41.0283 79.4203 41.557 80.6188C42.0857 81.8173 42.3623 83.1058 42.3706 84.4091C42.379 85.7124 42.119 87.0042 41.6058 88.209C41.0926 89.4137 40.3365 90.5073 39.3817 91.4256ZM49.4718 63.1712C49.467 65.5201 48.5924 67.7894 47.007 69.5669C45.4216 71.3443 43.2304 72.5118 40.8317 72.8573C40.6176 71.5787 40.6688 70.2716 40.9824 69.0123C41.296 67.7531 41.8656 66.567 42.658 65.5236C43.4503 64.4801 44.4496 63.6001 45.5972 62.9351C46.7448 62.27 48.0178 61.8333 49.3417 61.6505C49.4258 62.1501 49.4692 62.6553 49.4718 63.1615M63.5317 71.3463C63.5263 68.1652 62.2499 65.1096 59.97 62.82C57.69 60.5303 54.5836 59.1844 51.3017 59.0643C50.4294 56.6639 48.8094 54.585 46.6654 53.1144C44.5213 51.6438 41.9589 50.854 39.3317 50.854C36.7046 50.854 34.1422 51.6438 31.9981 53.1144C29.8541 54.585 28.2341 56.6639 27.3617 59.0643C24.7594 59.1596 22.2504 60.0286 20.1758 61.5534C18.1012 63.0783 16.5617 65.1848 15.7664 67.5868C14.9711 69.9888 14.9586 72.5697 15.7307 74.9788C16.5028 77.3879 18.022 79.5082 20.0817 81.0518C19.5371 82.8791 19.4376 84.804 19.7912 86.6749C20.1448 88.5457 20.9418 90.3116 22.1195 91.8335C23.2972 93.3554 24.8234 94.5918 26.5781 95.4455C28.3328 96.2991 30.2681 96.7467 32.2317 96.753C34.7882 96.7552 37.285 96.0054 39.3917 94.6027C41.5495 95.9983 44.0971 96.7197 46.6913 96.6697C49.2854 96.6197 51.8013 95.8007 53.9001 94.323C55.9988 92.8453 57.5795 90.78 58.4291 88.4053C59.2787 86.0307 59.3564 83.4609 58.6517 81.0421C60.1719 79.8933 61.4016 78.4237 62.2472 76.7452C63.0929 75.0668 63.5322 73.2236 63.5317 71.356" fill="white"/>
<path d="M30.4619 43.9827V26.044C30.2495 26.1553 30.0247 26.243 29.7919 26.3055C29.4719 26.4024 29.1119 26.5089 28.7319 26.6058C28.3519 26.7027 27.9919 26.8092 27.6719 26.9061L26.9619 27.1385V24.2327C27.2319 24.1358 27.5619 24.0099 27.9619 23.8452C28.3619 23.6805 28.7719 23.4869 29.2019 23.2738C29.6322 23.0579 30.0495 22.8186 30.4519 22.557C30.7966 22.3444 31.1096 22.0869 31.3819 21.7917H34.4819V43.9439L30.4619 43.9827Z" fill="white"/>
<path d="M39.5019 43.9828L44.1019 24.8139H37.9219V21.8306H48.0819V24.2714L43.4219 43.9828H39.5019Z" fill="white"/>
</svg>
