<svg width="76" height="108" viewBox="0 0 76 108" fill="none" xmlns="http://www.w3.org/2000/svg">
<path d="M12.2018 93.6074L11.6519 93.0068L12.2018 93.6074Z" fill="#289438"/>
<path d="M75.1918 62.9706V63.3387C75.1823 66.9056 74.7392 70.4591 73.8718 73.9256C72.142 80.8067 68.7586 87.1946 63.9972 92.5691C59.2357 97.9437 53.2309 102.153 46.4718 104.853C43.6095 106.001 40.6342 106.864 37.5918 107.43L37.3218 107.382L37.1118 107.333H36.9718L36.7218 107.275L36.4618 107.227H36.2918H36.1218L35.8418 107.159L35.3318 107.043L35.0418 106.975L34.2018 106.762L33.9818 106.704C33.2218 106.49 32.4618 106.268 31.7218 106.026L31.5218 105.967L31.1818 105.851L31.0218 105.793L30.6518 105.667L30.3818 105.57L30.2318 105.512H30.0818L29.8418 105.425L29.6318 105.347L28.9418 105.076L28.7418 104.999L28.4818 104.902L28.2218 104.786L27.9818 104.689H27.8818L27.7018 104.611L27.4918 104.524L27.3218 104.447L27.1618 104.379L26.9018 104.263L26.6718 104.156H26.6118L26.4018 104.059L26.1918 103.962L26.0018 103.865L25.8418 103.788L25.7018 103.72L25.5318 103.633L25.3218 103.536L25.1918 103.468L25.0818 103.41L24.8718 103.304L24.6518 103.197H24.5918L24.3718 103.081L24.1518 102.974L23.8418 102.8L23.6618 102.703L22.8718 102.267L22.6818 102.151L22.5318 102.064L22.3418 101.948L22.1418 101.831L21.9818 101.744C20.7618 101.002 19.5752 100.207 18.4218 99.3614L18.2718 99.2452L18.1518 99.158L17.9718 99.0224L17.7618 98.8674L17.6118 98.7512L17.4818 98.6447L17.2718 98.48L16.9918 98.2669L16.8418 98.141L16.7718 98.0926L16.6418 97.9763L16.4718 97.8407L16.2818 97.6857L16.0918 97.5307L15.9218 97.3855L15.6618 97.1627L15.4618 96.9883L15.2618 96.814L15.0718 96.6396L14.8918 96.475L14.6918 96.2909L14.5118 96.1263L14.3418 95.9713L14.1718 95.8163L13.9918 95.6323L13.8018 95.4482L13.6018 95.2545L13.4318 95.0802L13.3518 95.0124L13.2218 94.8671L13.0218 94.6733L12.8018 94.4409L12.6418 94.2859L12.4518 94.0825L11.9018 93.4819L11.5118 93.0558L11.1718 92.6683C10.8118 92.2518 10.4618 91.8353 10.1718 91.4091L9.99184 91.196L9.84184 91.0023L9.41182 90.4502L9.28184 90.2855L9.15184 90.1112L9.03184 89.9562L8.73183 89.5397L8.64183 89.4138L8.51183 89.2394L8.38182 89.0457L8.27183 88.8907C8.22183 88.8326 8.18182 88.7648 8.13182 88.697L8.03184 88.542L7.91182 88.3677V88.3095C7.91182 88.3095 7.84183 88.203 7.80183 88.1449V88.0868L7.71184 87.9512L7.60182 87.7865L7.49184 87.6121C7.42184 87.5153 7.36182 87.4087 7.29182 87.3022L7.20183 87.1569L7.12184 87.031C7.08157 86.9751 7.04482 86.9168 7.01183 86.8566L6.86183 86.6242C6.86183 86.5467 6.77185 86.4692 6.72185 86.3917L6.61183 86.198V86.1399L6.49184 85.9461L6.36183 85.7234L6.22185 85.4812L6.08183 85.239L5.98183 85.055L5.92183 84.9485L5.69182 84.532L5.29182 83.7571C5.29182 83.6796 5.21182 83.5924 5.16182 83.5149C5.11182 83.4374 5.00182 83.1759 4.91182 83.0112L4.64183 82.4494L4.55183 82.2557L4.34184 81.7908C4.26184 81.6164 4.19183 81.4421 4.11183 81.2774L4.00185 81.0159L3.83183 80.6188C3.8095 80.5526 3.78279 80.4879 3.75185 80.425L3.51183 79.8245C3.51183 79.7664 3.46182 79.6986 3.44182 79.6308L3.36183 79.4467C3.36183 79.3596 3.30183 79.2627 3.26183 79.1755C3.22183 79.0884 3.20182 79.0012 3.16182 78.914L3.10182 78.7493L3.01183 78.4878C2.97921 78.409 2.95249 78.3281 2.93184 78.2457C2.93184 78.1682 2.87182 78.0907 2.85182 78.0229C2.84612 77.9714 2.84612 77.9194 2.85182 77.8679C2.85182 77.8098 2.80184 77.742 2.78184 77.6742C2.76184 77.6064 2.78183 77.5676 2.73183 77.5095C2.68183 77.4514 2.64182 77.248 2.60182 77.1124L2.54182 76.9283C2.52969 76.8786 2.51297 76.8299 2.49184 76.7831L2.43184 76.5893L2.31184 76.1728C2.3073 76.1213 2.3073 76.0694 2.31184 76.0178L2.25185 75.8435C2.24616 75.7726 2.24616 75.7013 2.25185 75.6304C2.25185 75.5142 2.18184 75.3979 2.15184 75.2817L2.09184 75.0492L2.03184 74.8361C2.03184 74.7199 1.97183 74.6133 1.95183 74.5068C1.93183 74.4003 1.88182 74.255 1.85182 74.129C1.82182 74.0031 1.85183 73.9837 1.80183 73.9159V73.7803V73.6351C1.79717 73.577 1.79717 73.5187 1.80183 73.4607V73.3638C1.80183 73.2864 1.80183 73.2186 1.80183 73.1507C1.80183 73.0829 1.80185 72.9861 1.75185 72.9086C1.73042 72.8354 1.7137 72.761 1.70183 72.6858V72.5986C1.70183 72.5211 1.70183 72.4533 1.70183 72.3759V72.3177C1.70748 72.2468 1.70748 72.1756 1.70183 72.1046C1.70654 72.0693 1.70654 72.0335 1.70183 71.9981C1.70664 71.9595 1.70664 71.9205 1.70183 71.8819C1.70183 71.7947 1.70183 71.7172 1.70183 71.63C1.70183 71.5332 1.70184 71.446 1.65184 71.3491V71.3007C1.65184 71.2038 1.65182 71.0973 1.60182 70.9907L1.54182 70.6227C1.54182 70.5355 1.54182 70.4386 1.54182 70.3418V70.0802C1.53619 70.0449 1.53619 70.009 1.54182 69.9737V69.7606V69.6831C1.54182 69.5863 1.54182 69.4894 1.54182 69.3828C1.54182 69.2763 1.54182 69.1697 1.54182 69.0535C1.54182 68.947 1.54182 68.8307 1.54182 68.7242V68.4336C1.54182 68.4336 1.54182 68.3658 1.54182 68.327C1.53648 68.2432 1.53648 68.1591 1.54182 68.0752C1.54182 67.9783 1.54182 67.8815 1.54182 67.7846C1.54182 67.6781 1.54182 67.5715 1.54182 67.465V67.126C1.54182 67.0194 1.54182 66.9129 1.54182 66.8063V66.7579C1.53687 66.6643 1.53687 66.5706 1.54182 66.477V66.4189C1.54182 66.322 1.54182 66.2348 1.54182 66.138C1.54182 66.0314 1.54182 65.9249 1.54182 65.8183C1.54182 65.7118 1.54182 65.6149 1.54182 65.5181V65.46C1.54182 65.2372 1.54182 65.0144 1.54182 64.7916C1.54182 64.5688 1.54182 64.5785 1.54182 64.4623V63.7843C1.57998 51.0374 5.07186 38.5235 11.6684 27.4937C18.2649 16.4638 27.7349 7.30431 39.1318 0.930908C50.1228 7.41686 59.2104 16.5276 65.5244 27.3904C71.8383 38.2533 75.1671 50.5045 75.1918 62.9706Z" fill="#289438"/>
<path d="M12.2018 93.6074L11.6519 93.0068L12.2018 93.6074Z" fill="#289438"/>
<path d="M61.5419 72.24C61.5801 71.8 61.5255 71.3571 61.3814 70.9382C61.2372 70.5192 61.0066 70.1331 60.7035 69.8033C60.4004 69.4734 60.0312 69.2068 59.6183 69.0196C59.2054 68.8324 58.7575 68.7285 58.3019 68.7143C57.3019 68.7143 56.1419 69.7507 55.5019 70.3803C54.8619 69.7507 53.7619 68.7046 52.7919 68.7046C52.3304 68.7153 51.8759 68.8165 51.4558 69.0019C51.0357 69.1874 50.6587 69.4533 50.3476 69.7836C50.0364 70.114 49.7975 70.5019 49.6453 70.9241C49.4931 71.3462 49.4307 71.7939 49.4619 72.24C49.4506 73.1638 49.809 74.056 50.4619 74.7294L55.4619 79.5724L60.4619 74.7294C61.1149 74.056 61.4732 73.1638 61.4619 72.24" fill="white"/>
<path d="M40.222 87.5541H40.1719C39.9871 87.5435 39.8114 87.4727 39.6734 87.3531C39.5354 87.2335 39.4432 87.0722 39.4119 86.8954L36.8719 72.5502L33.0219 79.4661C32.9389 79.6134 32.8103 79.7318 32.6543 79.8048C32.4983 79.8777 32.3227 79.9016 32.1519 79.873C31.9818 79.8441 31.8255 79.7639 31.7052 79.6439C31.5849 79.5239 31.5067 79.3702 31.4819 79.2046L29.8419 68.1334L26.8419 74.6424C26.7759 74.782 26.6704 74.9007 26.5377 74.9847C26.405 75.0687 26.2505 75.1146 26.0919 75.1171H14.472C14.2688 75.0954 14.081 75.0018 13.9447 74.8544C13.8083 74.7069 13.7329 74.5159 13.7329 74.318C13.7329 74.12 13.8083 73.929 13.9447 73.7815C14.081 73.6341 14.2688 73.5405 14.472 73.5189H25.5719L29.502 64.9563C29.5774 64.8011 29.7022 64.6734 29.858 64.5917C30.0139 64.5101 30.1925 64.479 30.368 64.5028C30.5434 64.5266 30.7063 64.6041 30.833 64.7241C30.9597 64.844 31.0434 65.0001 31.0719 65.1694L32.752 76.5894L36.5519 69.8091C36.6333 69.6626 36.76 69.5445 36.9143 69.4715C37.0686 69.3985 37.2427 69.3743 37.4119 69.4022C37.5804 69.4295 37.7362 69.5064 37.8579 69.6226C37.9796 69.7387 38.0613 69.8884 38.0919 70.0512L40.4419 83.3406L49.0819 55.6382C49.1258 55.4823 49.2183 55.3433 49.3467 55.2402C49.4752 55.1371 49.6334 55.075 49.7997 55.0622C49.9661 55.0495 50.1324 55.0869 50.2759 55.1692C50.4195 55.2515 50.5334 55.3747 50.6019 55.522L55.1219 64.5882C55.1686 64.6824 55.1956 64.7845 55.2015 64.8887C55.2074 64.993 55.192 65.0973 55.1562 65.1958C55.1205 65.2943 55.065 65.385 54.9931 65.4627C54.9212 65.5405 54.8341 65.6037 54.7369 65.6489C54.6398 65.694 54.5343 65.7202 54.4267 65.7259C54.3191 65.7316 54.2114 65.7167 54.1097 65.6821C54.008 65.6474 53.9144 65.5938 53.8341 65.5241C53.7538 65.4544 53.6886 65.3701 53.6419 65.276L50.0419 58.0501L41.0419 86.9535C40.9903 87.1171 40.8855 87.2601 40.7431 87.3613C40.6008 87.4626 40.4285 87.5166 40.252 87.5153" fill="white"/>
<path d="M37.4918 39.8977C36.3026 39.9537 35.1212 39.6852 34.0818 39.1228C33.2283 38.5975 32.5725 37.8197 32.2118 36.9047C31.8035 35.8528 31.6066 34.735 31.6318 33.6114V32.8365H35.5318V33.5049C35.5378 34.0911 35.6047 34.6752 35.7318 35.2484C35.802 35.6623 36.009 36.043 36.3218 36.3332C36.6736 36.5927 37.1105 36.72 37.5518 36.6916C38.0047 36.7255 38.4533 36.5864 38.8018 36.3042C39.1051 35.9851 39.2974 35.582 39.3518 35.1515C39.4509 34.5526 39.4977 33.9467 39.4918 33.3402C39.5354 32.4461 39.3535 31.5551 38.9618 30.7443C38.7449 30.416 38.4389 30.152 38.0772 29.9811C37.7156 29.8102 37.3124 29.7392 36.9118 29.7757C36.8227 29.758 36.7308 29.758 36.6418 29.7757H36.2218V26.8021H36.8318C37.2202 26.8398 37.6124 26.7874 37.9758 26.6493C38.3392 26.5112 38.6635 26.2913 38.9218 26.0078C39.3628 25.2654 39.5615 24.4111 39.4918 23.5572C39.5282 22.8341 39.3841 22.1131 39.0718 21.4553C38.9157 21.1933 38.6839 20.9812 38.405 20.8452C38.126 20.7092 37.812 20.6553 37.5018 20.6901C37.1846 20.6537 36.8637 20.7157 36.5852 20.8671C36.3067 21.0186 36.0849 21.2516 35.9518 21.5328C35.6661 22.2189 35.5233 22.953 35.5318 23.6928V24.5452H31.6318V23.4797C31.603 22.3873 31.8358 21.3032 32.3118 20.3124C32.7422 19.458 33.4428 18.759 34.3118 18.317C35.3041 17.838 36.4036 17.6051 37.5118 17.639C38.6155 17.6064 39.7106 17.8359 40.7018 18.3073C41.5588 18.7378 42.2573 19.4145 42.7018 20.2445C43.1915 21.2243 43.4283 22.3046 43.3918 23.3925C43.4359 24.4976 43.1476 25.5913 42.5618 26.5405C42.0931 27.3092 41.3437 27.8795 40.4618 28.1388C41.0447 28.338 41.5694 28.6702 41.9918 29.1074C42.4486 29.5914 42.79 30.1668 42.9918 30.7927C43.2555 31.6271 43.3803 32.4968 43.3618 33.3693C43.3841 34.5391 43.1911 35.7035 42.7918 36.8078C42.4471 37.7622 41.7906 38.5817 40.9218 39.1422C39.8798 39.7148 38.6869 39.9776 37.4918 39.8977Z" fill="white"/>
</svg>
