<svg width="77" height="108" viewBox="0 0 77 108" fill="none" xmlns="http://www.w3.org/2000/svg">
<path d="M13.0817 93.7578L12.5317 93.1572L13.0817 93.7578Z" fill="#00A7D7"/>
<path d="M76.0219 63.1204V63.4498C76.0101 72.3451 73.2751 81.0372 68.163 88.4268C63.0508 95.8164 55.7911 101.572 47.3019 104.965C44.4395 106.112 41.4643 106.976 38.4219 107.541L38.1519 107.493L37.9419 107.444H37.8019L37.5519 107.386L37.2919 107.338H37.1219H36.9619L36.6819 107.27L36.1619 107.154L35.8719 107.086L35.0319 106.873L34.8119 106.815C34.0519 106.602 33.3019 106.379 32.5519 106.137L32.3619 106.078L32.0119 105.962L31.8519 105.904L31.4819 105.778L31.2119 105.681L31.0619 105.623L30.9119 105.575L30.6719 105.488L30.4619 105.41L29.7719 105.139L29.5819 105.061L29.3219 104.965L29.0619 104.858L28.8219 104.751H28.7219L28.5419 104.674L28.3319 104.587L28.1619 104.509L28.0019 104.442L27.7419 104.325L27.5119 104.219H27.4519L27.2419 104.122L27.0319 104.025L26.8419 103.938L26.6819 103.86L26.5419 103.793L26.3719 103.705C26.3023 103.679 26.2354 103.647 26.1719 103.609L26.0319 103.541L25.9219 103.483L25.7119 103.386L25.4919 103.27H25.4319L25.2119 103.153L24.9919 103.047L24.6819 102.872L24.5019 102.775L23.7119 102.34L23.5219 102.223L23.3719 102.136L23.1819 102.02L22.9819 101.904L22.8219 101.817C21.6019 101.068 20.4152 100.273 19.2619 99.4338L19.1119 99.3176L18.9919 99.2304L18.8119 99.0948L18.6019 98.9398L18.4519 98.8236L18.3219 98.717L18.1119 98.5524L17.8319 98.3393L17.6819 98.2133L17.6219 98.1649L17.4819 98.0487L17.3119 97.9131L17.1219 97.7581L16.9319 97.6031L16.7619 97.4578L16.5019 97.235L16.3019 97.0607L16.1019 96.8863L15.9119 96.712L15.7319 96.5473L15.5319 96.3633L15.3519 96.1986L15.1819 96.0436L15.0119 95.8887L14.8319 95.7046L14.6419 95.5206L14.4419 95.3269L14.2719 95.1525L14.2019 95.0847L14.0619 94.9394L13.8619 94.7457L13.6419 94.5132L13.4819 94.3582L13.2919 94.1548L12.7419 93.5543L12.3519 93.1281L12.0119 92.7407C11.6519 92.3242 11.3019 91.9076 11.0119 91.4815C10.9497 91.4147 10.8929 91.3435 10.8419 91.2684C10.7831 91.2082 10.7296 91.1434 10.6819 91.0747L10.2519 90.5225L10.1219 90.3579L9.99188 90.1835L9.88188 90.0285C9.77188 89.8929 9.67188 89.7477 9.57188 89.612L9.48187 89.4861L9.35188 89.3118L9.22188 89.1181L9.11188 88.9631L8.98187 88.7694L8.87187 88.6144L8.75188 88.44V88.3819C8.75188 88.3335 8.68188 88.2754 8.64188 88.2172V88.1591L8.55188 88.0235L8.44188 87.8589C8.40889 87.7986 8.37215 87.7404 8.33188 87.6845C8.26188 87.5876 8.20188 87.4811 8.13188 87.3745L8.04189 87.2293L7.96188 87.1033C7.92161 87.0474 7.88488 86.9892 7.85188 86.929L7.70187 86.6965C7.70187 86.619 7.61187 86.5415 7.56187 86.4641L7.08188 85.8054V85.7473L6.96188 85.5536L6.83188 85.3308L6.69188 85.0886C6.69188 85.0111 6.60188 84.9337 6.56188 84.8465L6.45188 84.6624L6.39188 84.5559L6.16188 84.1394L5.76188 83.3645C5.76188 83.287 5.68188 83.1998 5.63188 83.1223C5.58188 83.0449 5.47188 82.7833 5.38188 82.6187L5.11188 82.0569L5.03188 81.8631L4.82188 81.3982C4.74188 81.2239 4.67188 81.0495 4.59188 80.8848L4.48188 80.6233L4.31188 80.2262C4.28955 80.16 4.26282 80.0953 4.23188 80.0325L3.99188 79.4319C3.99188 79.3738 3.99188 79.306 3.92188 79.2382L3.85188 79.0542C3.85188 78.967 3.78188 78.8701 3.74188 78.7829C3.70188 78.6958 3.68188 78.6086 3.64188 78.5214C3.63875 78.4666 3.63875 78.4116 3.64188 78.3568C3.64188 78.2696 3.57188 78.1824 3.54188 78.0952C3.51188 78.0081 3.54188 77.9403 3.46188 77.8531C3.43076 77.7804 3.40406 77.706 3.38188 77.6303C3.37618 77.5788 3.37618 77.5268 3.38188 77.4753C3.38188 77.4172 3.38188 77.3494 3.31188 77.2816C3.24188 77.2138 3.31188 77.175 3.31188 77.1169C3.31188 77.0588 3.22188 76.8554 3.18188 76.7198L3.12188 76.5454C3.12758 76.4939 3.12758 76.442 3.12188 76.3905L3.06188 76.1967L2.94188 75.7802C2.94188 75.7318 2.94188 75.6834 2.94188 75.6253C2.93741 75.5672 2.93741 75.5089 2.94188 75.4509L2.88188 75.2378C2.88188 75.1216 2.81188 75.0054 2.78188 74.8891L2.72188 74.6566L2.66188 74.4436C2.66188 74.3273 2.60188 74.2208 2.58188 74.1142C2.56188 74.0077 2.51188 73.8624 2.48188 73.7365C2.48757 73.6656 2.48757 73.5943 2.48188 73.5234V73.3878V73.2425C2.47722 73.1844 2.47722 73.1262 2.48188 73.0681C2.47723 73.036 2.47723 73.0034 2.48188 72.9713C2.47829 72.9003 2.47829 72.8292 2.48188 72.7582C2.48188 72.671 2.48188 72.5935 2.48188 72.516C2.48188 72.4385 2.48188 72.3707 2.48188 72.2932V72.2061C2.48188 72.1286 2.48188 72.0608 2.48188 71.9833V71.9252C2.48188 71.8477 2.48188 71.7799 2.48188 71.7121C2.48188 71.6443 2.48188 71.6443 2.48188 71.6055V71.4893C2.48188 71.4021 2.48188 71.3246 2.48188 71.2374C2.48188 71.1406 2.48188 71.0534 2.48188 70.9566V70.9081C2.48188 70.8112 2.48188 70.7047 2.48188 70.5982L2.42188 70.2301C2.42188 70.1429 2.42188 70.0461 2.42188 69.9492V69.6877C2.42188 69.6877 2.42188 69.6199 2.42188 69.5811V69.368V69.2905C2.42188 69.1937 2.42188 69.0968 2.42188 68.9903C2.42188 68.8837 2.42188 68.7772 2.42188 68.6609C2.42188 68.5544 2.42188 68.4381 2.42188 68.3316V68.041C2.42637 68.0056 2.42637 67.9698 2.42188 67.9345C2.42187 67.857 2.42188 67.7698 2.42188 67.6826C2.42188 67.5858 2.42188 67.4889 2.42188 67.392C2.42188 67.2855 2.42188 67.179 2.42188 67.0724V66.7334C2.42188 66.6268 2.42188 66.5203 2.42188 66.4138V66.3653C2.42188 66.2684 2.42188 66.1813 2.42188 66.0844V66.0263C2.42188 65.9294 2.42188 65.8423 2.42188 65.7454C2.42188 65.6389 2.42188 65.5323 2.42188 65.4258C2.42188 65.3192 2.42188 65.2224 2.42188 65.1255V65.0674C2.42188 64.8446 2.42188 64.6218 2.42188 64.399C2.42188 64.1762 2.42188 64.1859 2.42188 64.0697V63.3917C2.46003 50.6448 5.95191 38.131 12.5484 27.1011C19.1449 16.0712 28.615 6.91173 40.0119 0.53833C51.0748 7.07791 60.2041 16.277 66.5137 27.2424C72.8232 38.2078 76.0986 50.5671 76.0219 63.1204Z" fill="#00A7D7"/>
<path d="M13.0817 93.7578L12.5317 93.1572L13.0817 93.7578Z" fill="#00A7D7"/>
<path d="M50.622 60.2432C49.6866 59.933 48.6627 59.9922 47.772 60.4079C44.032 61.8802 41.482 62.4129 37.542 61.2118C35.062 60.466 32.732 58.8871 29.992 59.8461C28.2264 60.5863 26.3345 61.0034 24.412 61.0762L23.222 55.1677H51.482L50.622 60.2432ZM41.082 77.7848C40.0551 78.5696 38.7851 78.9965 37.477 78.9965C36.1689 78.9965 34.899 78.5696 33.872 77.7848C33.0523 76.9516 32.5418 75.8781 32.4205 74.7332C32.2992 73.5883 32.5741 72.4368 33.202 71.4597C33.692 70.5783 37.202 65.5221 37.462 65.0959C37.752 65.5221 41.232 70.5783 41.712 71.4597C42.3429 72.4353 42.6205 73.5865 42.501 74.7318C42.3815 75.8771 41.8717 76.9513 41.052 77.7848M52.722 53.9956C52.6862 53.9586 52.6428 53.9292 52.5946 53.9091C52.5464 53.8891 52.4944 53.879 52.442 53.8794H22.252C22.2015 53.8789 22.1515 53.889 22.1054 53.909C22.0594 53.929 22.0183 53.9584 21.985 53.9952C21.9518 54.032 21.9271 54.0753 21.9128 54.1222C21.8985 54.1691 21.8948 54.2184 21.902 54.2669L26.982 83.9839C26.9941 84.0652 27.0363 84.1395 27.1007 84.1929C27.165 84.2463 27.2472 84.2754 27.332 84.2745H33.552L33.982 89.1176H31.362L37.452 95.0261L43.562 89.1079H40.942L41.372 84.2648H47.702C47.7877 84.2633 47.87 84.2323 47.9342 84.1772C47.9984 84.1222 48.0401 84.0468 48.052 83.9646L52.802 54.2572C52.8115 54.1602 52.7829 54.0634 52.722 53.9859" fill="white"/>
<path d="M38.0818 40.6199C36.9238 40.693 35.7737 40.391 34.8124 39.7614C33.8511 39.1319 33.1332 38.2106 32.7718 37.1425C32.3461 35.9701 32.1395 34.7335 32.1618 33.4908V25.8582C32.1446 24.5723 32.3163 23.2906 32.6718 22.0515C32.9668 20.999 33.5924 20.0614 34.4618 19.3685C35.5191 18.6552 36.7964 18.3135 38.0818 18.3999C39.1851 18.3583 40.2826 18.5742 41.2818 19.0294C42.0816 19.4283 42.7193 20.0767 43.0918 20.8698C43.5078 21.8079 43.7058 22.823 43.6718 23.8435C43.6673 23.9015 43.6673 23.9598 43.6718 24.0178C43.6767 24.0758 43.6767 24.1342 43.6718 24.1922H39.9118C39.9499 23.466 39.8306 22.7401 39.5618 22.0612C39.4162 21.865 39.2296 21.7006 39.0142 21.5786C38.7988 21.4567 38.5593 21.38 38.3113 21.3535C38.0634 21.3271 37.8124 21.3514 37.5747 21.4249C37.3371 21.4984 37.118 21.6195 36.9318 21.7803C36.5963 22.1772 36.3816 22.6569 36.3118 23.1654C36.1616 24.0358 36.0947 24.9177 36.1118 25.8V28.2894C36.3938 27.8611 36.8011 27.5239 37.2818 27.3208C38.0403 27.0191 38.8629 26.8995 39.6795 26.972C40.4961 27.0445 41.2825 27.3071 41.9718 27.7373C42.7029 28.3149 43.2334 29.0958 43.4918 29.9748C43.8073 31.0287 43.9589 32.1224 43.9418 33.2196C43.9641 34.5117 43.7785 35.7992 43.3918 37.036C43.0727 38.0792 42.4304 39.0024 41.5518 39.6803C40.5335 40.3552 39.3137 40.6855 38.0818 40.6199ZM38.0818 37.714C38.3062 37.7313 38.5316 37.6973 38.74 37.6149C38.9484 37.5324 39.134 37.4038 39.2818 37.2394C39.5822 36.8505 39.775 36.3937 39.8418 35.9124C39.9489 35.2492 39.9991 34.5786 39.9918 33.9074C39.9973 33.2184 39.9639 32.5297 39.8918 31.8442C39.8622 31.3253 39.6896 30.8236 39.3918 30.3913C39.2301 30.2035 39.0235 30.0568 38.79 29.964C38.5564 29.8711 38.303 29.8349 38.0518 29.8585C37.7665 29.8588 37.4842 29.9148 37.2218 30.0232C36.9753 30.1225 36.7512 30.2673 36.5618 30.4494C36.3912 30.6097 36.2403 30.7885 36.1118 30.9821V34.3917C36.1062 34.946 36.17 35.4989 36.3018 36.0383C36.3901 36.4883 36.5968 36.9087 36.9018 37.2588C37.0546 37.4098 37.2389 37.5276 37.4423 37.6045C37.6457 37.6813 37.8637 37.7153 38.0818 37.7043V37.714Z" fill="white"/>
</svg>
