<svg width="77" height="108" viewBox="0 0 77 108" fill="none" xmlns="http://www.w3.org/2000/svg">
<path d="M38.3917 58.3938C38.6836 58.3898 38.9633 58.2803 39.1761 58.0867C39.3889 57.8932 39.5193 57.6295 39.5417 57.3477V51.41C39.5417 51.1146 39.4205 50.8313 39.2049 50.6224C38.9892 50.4135 38.6967 50.2961 38.3917 50.2961C38.0867 50.2961 37.7942 50.4135 37.5785 50.6224C37.3629 50.8313 37.2417 51.1146 37.2417 51.41V57.3477C37.2641 57.6295 37.3945 57.8932 37.6073 58.0867C37.8201 58.2803 38.0998 58.3898 38.3917 58.3938Z" fill="white"/>
<path d="M46.3719 60.4473C46.6271 60.5864 46.9268 60.6277 47.2119 60.5632C47.497 60.4986 47.7468 60.3328 47.9119 60.0986L50.9119 54.9456C50.9867 54.8184 51.035 54.6782 51.0539 54.5329C51.0728 54.3876 51.062 54.2402 51.022 54.099C50.9821 53.9578 50.9138 53.8256 50.8212 53.7099C50.7285 53.5942 50.6132 53.4974 50.4819 53.4249C50.3505 53.3524 50.2058 53.3056 50.0558 53.2873C49.9058 53.269 49.7536 53.2795 49.6078 53.3182C49.462 53.3568 49.3255 53.423 49.2061 53.5127C49.0867 53.6025 48.9867 53.7142 48.9119 53.8414L45.9119 58.9944C45.7868 59.2484 45.7646 59.5386 45.8498 59.8076C45.935 60.0767 46.1213 60.3049 46.3719 60.4473Z" fill="white"/>
<path d="M30.3819 60.4662C30.6315 60.3205 30.8167 60.0904 30.9016 59.8204C30.9865 59.5503 30.9653 59.2594 30.8419 59.0036L27.7819 53.8409C27.7064 53.7137 27.6058 53.6021 27.4858 53.5126C27.3658 53.4231 27.2287 53.3573 27.0825 53.3191C26.9362 53.2809 26.7836 53.2709 26.6334 53.2898C26.4832 53.3087 26.3383 53.3561 26.2069 53.4292C26.0756 53.5024 25.9604 53.5998 25.868 53.7161C25.7756 53.8323 25.7077 53.9651 25.6682 54.1067C25.6288 54.2484 25.6185 54.3962 25.638 54.5417C25.6575 54.6872 25.7064 54.8276 25.7819 54.9548L28.8319 60.0981C29 60.3289 29.2496 60.4918 29.5335 60.5561C29.8173 60.6204 30.1157 60.5815 30.3719 60.4468" fill="white"/>
<path d="M13.1318 93.7578C12.9418 93.564 12.7518 93.3606 12.5718 93.1572C12.7518 93.3606 12.9418 93.5544 13.1318 93.7578Z" fill="#FBB800"/>
<path d="M76.0818 63.1202V63.4496C76.0773 67.0168 75.6341 70.5708 74.7618 74.0365C74.2088 76.2584 73.4765 78.4347 72.5718 80.5456C67.8405 91.599 58.7734 100.382 47.3618 104.964C44.5024 106.111 41.5306 106.974 38.4919 107.541L38.2119 107.492L38.0019 107.444H37.8618L37.6118 107.386L37.3518 107.337H37.1718H37.0118L36.7318 107.27L36.2119 107.153L35.9319 107.086L35.0818 106.873L34.8618 106.814C34.1018 106.601 33.3518 106.379 32.6018 106.136L32.4118 106.078L32.0718 105.962L31.9019 105.904L31.5319 105.778L31.2618 105.681L31.1118 105.623L30.9619 105.575L30.7318 105.487L30.5118 105.41L29.8218 105.139L29.6318 105.061L29.3818 104.964L29.1118 104.858L28.8719 104.751H28.7719L28.5919 104.674L28.3818 104.587L28.2119 104.509L28.0619 104.441L27.7918 104.325L27.5619 104.219H27.5019L27.2918 104.122L27.0919 104.025L26.8918 103.938L26.7219 103.86L26.5819 103.792L26.4118 103.705C26.3423 103.679 26.2754 103.646 26.2119 103.608L26.0819 103.54L25.9619 103.482L25.7618 103.385L25.5319 103.269H25.4719L25.2519 103.153L25.0418 103.046L24.7219 102.872L24.5418 102.775L23.7618 102.339L23.5619 102.223L23.4218 102.136L23.2219 102.02L23.0219 101.904L22.8719 101.816C21.6452 101.067 20.4552 100.273 19.3019 99.4336L19.1519 99.3173L19.0418 99.2301C18.9745 99.1905 18.9109 99.1451 18.8518 99.0945L18.6418 98.9396L18.5019 98.8233L18.3618 98.7168L18.1519 98.5521L17.8818 98.339L17.7318 98.2131L17.6618 98.1647L17.5219 98.0485L17.3518 97.9128L17.1618 97.7579L16.9719 97.6029L16.8019 97.4576L16.5418 97.2348L16.3419 97.0604L16.1418 96.8861L15.9518 96.7118L15.7719 96.5471L15.5718 96.363L15.4019 96.1984L15.2318 96.0434L15.0619 95.8884L14.8818 95.7044L14.6819 95.5204L14.4919 95.3266L14.3119 95.1523L14.2419 95.0845L14.1018 94.9392L13.9118 94.7455L13.6819 94.513L13.5219 94.358L13.3419 94.1546C13.1519 93.9609 12.9619 93.7575 12.7819 93.5541L12.3918 93.1279C12.2818 92.9923 12.1619 92.8664 12.0519 92.7404C11.6919 92.3239 11.3419 91.9074 11.0019 91.4812C10.9397 91.4145 10.8829 91.3432 10.8319 91.2682L10.6718 91.0744L10.2419 90.5223L10.1118 90.3577L9.98184 90.1833L9.87186 90.0283L9.56186 89.6118L9.47186 89.4859L9.34186 89.3115L9.21185 89.1178L9.10184 88.9629L8.97186 88.7691L8.86185 88.6141L8.74185 88.4398V88.3817L8.63184 88.217V88.1589L8.54184 88.0233L8.43186 87.8586L8.31186 87.6843L8.11185 87.3743L8.02185 87.229L7.94183 87.1031L7.83185 86.9288C7.78185 86.8513 7.73183 86.7738 7.69183 86.6963L7.54184 86.4638L7.08185 85.8052V85.747L6.97186 85.5533L6.84186 85.3306L6.70184 85.0884C6.70184 85.0109 6.61184 84.9334 6.57184 84.8462L6.46185 84.6622L6.40186 84.5556C6.33186 84.4103 6.25186 84.2747 6.18186 84.1391C6.11186 84.0035 5.90185 83.6258 5.77185 83.3643L5.65186 83.1221L5.40186 82.6184C5.30186 82.4344 5.21184 82.2407 5.13184 82.0566L5.04184 81.8629L4.83185 81.398C4.75185 81.2236 4.68184 81.0493 4.60184 80.8846C4.52184 80.72 4.53185 80.7103 4.49185 80.6231C4.45185 80.5359 4.38184 80.3615 4.32184 80.2259C4.2995 80.1598 4.2728 80.0951 4.24185 80.0322C4.16185 79.8385 4.08184 79.6351 4.01184 79.4317C3.97918 79.3696 3.95242 79.3047 3.93186 79.238L3.86185 79.0539C3.86185 78.9668 3.79186 78.8699 3.75186 78.7827L3.66184 78.5212L3.60184 78.3565L3.50186 78.095C3.50186 78.0175 3.45185 77.94 3.42185 77.8529L3.34186 77.6301C3.34186 77.5816 3.34184 77.5332 3.29184 77.4751C3.24184 77.417 3.29186 77.3492 3.22186 77.2814C3.18056 77.2133 3.13374 77.1485 3.08185 77.0876C3.08185 76.9617 2.99184 76.8261 2.95184 76.6905L2.89185 76.5162C2.89185 76.458 2.89185 76.4096 2.89185 76.3612L2.83185 76.1674C2.78185 76.0221 2.74184 75.8866 2.70184 75.7509C2.66184 75.6153 2.70184 75.6541 2.70184 75.596C2.68056 75.5392 2.66386 75.4809 2.65186 75.4216L2.59186 75.2085C2.59186 75.0923 2.52185 74.9761 2.49185 74.8598L2.43186 74.6273L2.37186 74.4143C2.37186 74.298 2.32184 74.1915 2.29184 74.0849C2.26184 73.9784 2.22184 73.8331 2.19184 73.7072C2.18103 73.635 2.16432 73.5637 2.14185 73.4941V73.3585V73.2132C2.14185 73.1551 2.14185 73.097 2.14185 73.0388C2.1372 73.0067 2.1372 72.9741 2.14185 72.942C2.14185 72.8645 2.14186 72.7967 2.09186 72.7289C2.04186 72.6611 2.09186 72.5642 2.09186 72.4867C2.09186 72.4092 2.09184 72.3414 2.04184 72.2639V72.1768C2.04184 72.0993 2.04184 72.0315 2.04184 71.954V71.8959C2.03794 71.8249 2.03794 71.7538 2.04184 71.6828C2.03713 71.6474 2.03713 71.6116 2.04184 71.5762V71.46C2.04184 71.3728 2.04184 71.2953 2.04184 71.2081C2.04184 71.1113 2.04184 71.0241 2.04184 70.9273V70.8788C2.04184 70.782 2.04185 70.6754 1.99185 70.5689L1.93186 70.2008C1.93186 70.1136 1.93186 70.0168 1.93186 69.9199C1.92701 69.8328 1.92701 69.7455 1.93186 69.6584C1.93186 69.6584 1.93186 69.5906 1.93186 69.5518V69.3387V69.2613C1.93186 69.1644 1.93186 69.0675 1.93186 68.961C1.93186 68.8544 1.93186 68.7479 1.93186 68.6316V68.3023C1.93186 68.2054 1.93186 68.1086 1.93186 68.0117C1.93635 67.9763 1.93635 67.9406 1.93186 67.9052C1.93644 67.8213 1.93644 67.7372 1.93186 67.6534V67.3627V67.0431V66.7041C1.93186 66.5975 1.93186 66.491 1.93186 66.3845V66.336C1.93186 66.2392 1.93186 66.152 1.93186 66.0551V65.997C1.93186 65.9001 1.93186 65.813 1.93186 65.7161C1.93186 65.6096 1.93186 65.503 1.93186 65.3965C1.93186 65.2899 1.93186 65.1931 1.93186 65.0962V65.0381C1.93186 64.8153 1.93186 64.5925 1.93186 64.3697C1.93186 64.147 1.93186 64.1566 1.93186 64.0404V63.3624C1.97002 50.6144 5.46298 38.0995 12.0614 27.0694C18.6598 16.0392 28.1324 6.88046 39.5319 0.509033C50.7001 6.98607 59.9402 16.1616 66.3473 27.1371C72.7544 38.1126 76.1087 50.5117 76.0818 63.1202Z" fill="#FBB800"/>
<path d="M13.1318 93.7578C12.9418 93.564 12.7518 93.3606 12.5718 93.1572C12.7518 93.3606 12.9418 93.5544 13.1318 93.7578Z" fill="#FBB800"/>
<path d="M38.3916 81.03C36.6537 81.023 34.9755 80.4149 33.6597 79.3152C32.3438 78.2156 31.4768 76.6968 31.215 75.0326C30.9532 73.3684 31.3138 71.6684 32.2318 70.239C33.1497 68.8097 34.5647 67.745 36.2216 67.2369V69.8619C35.2688 70.3319 34.507 71.0989 34.0592 72.0394C33.6114 72.9799 33.5035 74.0391 33.753 75.0462C34.0025 76.0534 34.5948 76.9498 35.4345 77.591C36.2742 78.2323 37.3123 78.581 38.3816 78.581C39.4509 78.581 40.489 78.2323 41.3287 77.591C42.1684 76.9498 42.7607 76.0534 43.0102 75.0462C43.2597 74.0391 43.1519 72.9799 42.704 72.0394C42.2562 71.0989 41.4945 70.3319 40.5416 69.8619V67.2466C42.21 67.7422 43.6391 68.8019 44.5685 70.2325C45.498 71.6631 45.8659 73.3695 45.6054 75.0409C45.3449 76.7123 44.4732 78.2374 43.1491 79.3385C41.825 80.4395 40.1367 81.0432 38.3916 81.0396M37.3916 65.8808C37.3916 65.6137 37.5012 65.3575 37.6962 65.1685C37.8913 64.9796 38.1558 64.8735 38.4316 64.8735C38.7074 64.8735 38.972 64.9796 39.167 65.1685C39.362 65.3575 39.4716 65.6137 39.4716 65.8808V70.5399C39.4716 70.807 39.362 71.0633 39.167 71.2522C38.972 71.4411 38.7074 71.5472 38.4316 71.5472C38.1558 71.5472 37.8913 71.4411 37.6962 71.2522C37.5012 71.0633 37.3916 70.807 37.3916 70.5399V65.8808ZM38.3916 60.5244C35.6227 60.5244 32.9159 61.3197 30.6136 62.8098C28.3113 64.2999 26.5169 66.4177 25.4573 68.8956C24.3977 71.3735 24.1204 74.1 24.6606 76.7305C25.2008 79.361 26.5342 81.7773 28.4921 83.6738C30.45 85.5703 32.9446 86.8618 35.6603 87.385C38.3761 87.9083 41.191 87.6397 43.7492 86.6134C46.3073 85.587 48.4938 83.8489 50.0322 81.6189C51.5705 79.3888 52.3916 76.767 52.3916 74.085C52.3916 70.4885 50.9166 67.0393 48.2911 64.4962C45.6656 61.9531 42.1046 60.5244 38.3916 60.5244Z" fill="white"/>
<path d="M22.3216 73.9586C22.3175 73.6759 22.2044 73.4049 22.0046 73.1989C21.8048 72.9928 21.5327 72.8664 21.2416 72.8447H15.0816C14.7766 72.8447 14.4841 72.9621 14.2685 73.171C14.0528 73.3799 13.9316 73.6632 13.9316 73.9586C13.9316 74.2541 14.0528 74.5374 14.2685 74.7463C14.4841 74.9552 14.7766 75.0726 15.0816 75.0726H21.2116C21.5027 75.0508 21.7748 74.9245 21.9746 74.7184C22.1744 74.5123 22.2875 74.2413 22.2916 73.9586" fill="white"/>
<path d="M62.7519 73.9586C62.748 73.6775 62.6363 73.4078 62.4385 73.2019C62.2408 72.996 61.9711 72.8687 61.6819 72.8447H55.5518C55.2469 72.8447 54.9543 72.9621 54.7387 73.171C54.523 73.3799 54.4019 73.6632 54.4019 73.9586C54.4019 74.2541 54.523 74.5374 54.7387 74.7463C54.9543 74.9552 55.2469 75.0726 55.5518 75.0726H61.6819C61.9711 75.0485 62.2408 74.9212 62.4385 74.7154C62.6363 74.5095 62.748 74.2398 62.7519 73.9586Z" fill="white"/>
<path d="M38.3917 97.5542C38.682 97.5505 38.9604 97.4423 39.1729 97.2507C39.3855 97.0592 39.5169 96.798 39.5417 96.5178V90.5802C39.5417 90.2848 39.4205 90.0015 39.2049 89.7926C38.9892 89.5837 38.6967 89.4663 38.3917 89.4663C38.0867 89.4663 37.7942 89.5837 37.5785 89.7926C37.3629 90.0015 37.2417 90.2848 37.2417 90.5802V96.5178C37.2665 96.798 37.3979 97.0592 37.6104 97.2507C37.823 97.4423 38.1014 97.5505 38.3917 97.5542Z" fill="white"/>
<path d="M59.5319 85.6794C59.6749 85.4337 59.7172 85.1449 59.6505 84.8703C59.5838 84.5958 59.413 84.3556 59.1719 84.1974L53.8519 81.2916C53.5867 81.1451 53.2723 81.1068 52.9778 81.1849C52.6834 81.263 52.4331 81.4512 52.2819 81.7081C52.1307 81.965 52.0911 82.2695 52.1717 82.5547C52.2524 82.8399 52.4467 83.0824 52.7119 83.2288L58.0319 86.1346C58.2957 86.2527 58.5953 86.2715 58.8726 86.1873C59.1498 86.1032 59.3849 85.9221 59.5319 85.6794Z" fill="white"/>
<path d="M26.2917 94.4455C26.547 94.5809 26.8453 94.6191 27.1282 94.5528C27.4112 94.4866 27.6584 94.3205 27.8217 94.0871L30.8717 88.9341C31.0229 88.6772 31.0625 88.3727 30.9818 88.0875C30.9012 87.8023 30.7069 87.5598 30.4417 87.4134C30.1765 87.267 29.8621 87.2286 29.5676 87.3067C29.2732 87.3848 29.0229 87.573 28.8717 87.8299L25.8217 92.9829C25.7015 93.2402 25.683 93.5312 25.7696 93.8008C25.8562 94.0704 26.042 94.2998 26.2917 94.4455Z" fill="white"/>
<path d="M50.5418 94.4165C50.789 94.2711 50.9724 94.0427 51.0572 93.7749C51.142 93.507 51.1223 93.2183 51.0018 92.9636L47.9418 87.8106C47.7736 87.586 47.5255 87.4296 47.2454 87.3715C46.9653 87.3135 46.6729 87.3579 46.4246 87.4962C46.1762 87.6346 45.9895 87.857 45.9004 88.1207C45.8112 88.3844 45.826 88.6707 45.9418 88.9245L49.0018 94.0678C49.1669 94.302 49.4166 94.4678 49.7018 94.5324C49.9869 94.5969 50.2866 94.5556 50.5418 94.4165Z" fill="white"/>
<path d="M17.2719 85.7279C17.4223 85.9697 17.6598 86.149 17.9386 86.2312C18.2174 86.3135 18.5178 86.2929 18.7819 86.1734L24.0919 83.2095C24.2232 83.1363 24.3384 83.0388 24.4308 82.9226C24.5232 82.8063 24.5911 82.6736 24.6306 82.5319C24.6701 82.3903 24.6803 82.2425 24.6608 82.097C24.6413 81.9515 24.5924 81.8111 24.5169 81.6839C24.4414 81.5567 24.3407 81.4452 24.2207 81.3556C24.1007 81.2661 23.9637 81.2003 23.8174 81.1621C23.6712 81.1239 23.5186 81.1139 23.3683 81.1328C23.2181 81.1517 23.0732 81.1991 22.9419 81.2722L17.6319 84.2265C17.3901 84.3864 17.2189 84.6284 17.1523 84.9045C17.0857 85.1807 17.1283 85.471 17.2719 85.7182" fill="white"/>
<path d="M24.4417 66.2295C24.583 65.9818 24.6244 65.6921 24.5579 65.4166C24.4914 65.141 24.3217 64.8992 24.0817 64.7378L18.7617 61.832C18.4997 61.7198 18.2041 61.7055 17.9319 61.7919C17.6596 61.8782 17.43 62.059 17.2872 62.2996C17.1444 62.5401 17.0986 62.8233 17.1585 63.0947C17.2184 63.366 17.3798 63.6063 17.6117 63.7692L22.9317 66.675C23.1954 66.7968 23.4966 66.8185 23.776 66.7361C24.0554 66.6536 24.2929 66.4729 24.4417 66.2295Z" fill="white"/>
<path d="M52.3219 66.2004C52.4707 66.4439 52.7082 66.6246 52.9876 66.707C53.2671 66.7895 53.5682 66.7677 53.8319 66.646L59.1419 63.682C59.3847 63.5253 59.5576 63.2858 59.6261 63.0112C59.6947 62.7365 59.6539 62.4469 59.5119 62.2001C59.3631 61.9566 59.1256 61.7759 58.8462 61.6935C58.5667 61.611 58.2656 61.6328 58.0019 61.7545L52.6819 64.7185C52.4444 64.8795 52.2765 65.1196 52.2101 65.3929C52.1437 65.6663 52.1835 65.9537 52.3219 66.2004Z" fill="white"/>
<path d="M34.8918 40.62L39.4018 21.8773H33.3418V18.9714H43.2718V21.3639L38.7118 40.6781L34.8918 40.62Z" fill="white"/>
</svg>
