<svg width="76" height="108" viewBox="0 0 76 108" fill="none" xmlns="http://www.w3.org/2000/svg">
<path d="M12.4516 93.7578C12.2616 93.564 12.0816 93.3606 11.8916 93.1572C12.0816 93.3606 12.2616 93.5544 12.4516 93.7578Z" fill="#931831"/>
<path d="M75.4416 63.1203V63.4496C75.419 67.0181 74.9625 70.5715 74.0817 74.0366C72.3519 80.9176 68.9685 87.3056 64.207 92.6801C59.4455 98.0546 53.4407 102.264 46.6817 104.964C43.8193 106.112 40.8441 106.975 37.8017 107.541L37.5217 107.493L37.3216 107.444H37.1817L36.9217 107.386L36.6717 107.338H36.5017H36.3317L36.0517 107.27L35.5416 107.153L35.2517 107.086L34.4116 106.873L34.1916 106.814C33.4316 106.601 32.6717 106.379 31.9317 106.136L31.7317 106.078L31.3917 105.962L31.2317 105.904L30.8617 105.778L30.5917 105.681L30.4416 105.623L30.2817 105.575L30.0517 105.487L29.8417 105.41L29.1517 105.139L28.9517 105.061L28.6916 104.964L28.4317 104.858L28.1916 104.751H28.0917L27.9116 104.674L27.7017 104.587L27.5317 104.509L27.3717 104.441L27.0817 104.209L26.8516 104.102H26.7916L26.5817 104.005L26.3717 103.909L26.1817 103.821L26.0217 103.744L25.8816 103.676L25.7117 103.589L25.5017 103.492L25.3717 103.424L25.2517 103.366L25.0517 103.269L24.8317 103.153H24.7717L24.5517 103.037L24.3317 102.93L24.0217 102.756L23.8417 102.659L23.0517 102.223L22.8617 102.107L22.7117 102.02L22.5117 101.904L22.3216 101.787L22.1616 101.7C20.9416 100.951 19.755 100.157 18.6016 99.3174L18.4517 99.2011L18.3317 99.114L18.1517 98.9784L17.9416 98.8234L17.7916 98.7072L17.6616 98.6006L17.4416 98.436L17.1717 98.2229L17.0217 98.0969L16.9517 98.0485L16.8117 97.9323L16.6517 97.7967L16.4617 97.6417L16.2717 97.4867L16.1016 97.3414L15.8417 97.1186L15.6417 96.9443L15.4317 96.7699L15.2517 96.5956L15.0716 96.4309C15.0002 96.3746 14.9334 96.3131 14.8717 96.2469L14.6916 96.0822L14.5217 95.9273L14.3516 95.7723L14.1616 95.5882L13.9717 95.4042L13.7717 95.2105L13.6016 95.0361L13.5217 94.9683L13.3816 94.823L13.1916 94.6293L12.9617 94.3968L12.8117 94.2418L12.6217 94.0384C12.4317 93.8447 12.2517 93.6413 12.0617 93.4379L11.6817 93.0117L11.3417 92.6243C10.9817 92.2078 10.6317 91.7913 10.2817 91.3651L10.1117 91.152L9.96166 90.9583L9.53167 90.4061L9.40166 90.2415L9.27166 90.0671L9.15166 89.9121L8.85165 89.4956L8.76165 89.3697L8.63164 89.1954L8.50167 89.0016C8.4594 88.9539 8.42251 88.902 8.39165 88.8467C8.34165 88.7886 8.30167 88.7208 8.25167 88.653L8.15166 88.498L8.03167 88.3236V88.2655C7.98935 88.2144 7.95247 88.1592 7.92165 88.1008V88.0427L7.83166 87.9071C7.7915 87.8545 7.75478 87.7995 7.72167 87.7425L7.61166 87.5681C7.5392 87.4684 7.47242 87.3649 7.41164 87.2581L7.08166 86.7738L7.00167 86.6479C6.9614 86.592 6.92465 86.5338 6.89165 86.4736L6.74166 86.2411L6.60165 86.0086C6.5591 85.9474 6.5223 85.8825 6.49166 85.8149V85.7568L6.37167 85.5631L6.24166 85.3403L6.10165 85.0981L5.96166 84.856C5.96166 84.7979 5.89166 84.7397 5.86166 84.6719L5.80166 84.5654L5.57165 84.1489C5.44165 83.8874 5.30165 83.6355 5.17165 83.374L5.04165 83.1318C4.96165 82.9575 4.87165 82.7928 4.79165 82.6282L4.52166 82.0664L4.43166 81.8727C4.36166 81.7177 4.29166 81.5627 4.21166 81.4077L3.98165 80.8943L3.87167 80.6328L3.70165 80.2357L3.62167 80.042L3.38164 79.4414C3.38164 79.3833 3.33166 79.3155 3.30166 79.2477L3.08166 79.0249L2.98165 78.7537L2.88164 78.4922L2.82165 78.3275L2.73165 78.066C2.69903 77.9873 2.67231 77.9063 2.65166 77.8239C2.62055 77.7512 2.59382 77.6768 2.57165 77.6011C2.56594 77.5496 2.56594 77.4976 2.57165 77.4461C2.54236 77.3837 2.51896 77.3189 2.50167 77.2524C2.47906 77.1994 2.46228 77.1441 2.45165 77.0877C2.40165 76.9618 2.36165 76.8262 2.32165 76.6906L2.26165 76.5162C2.26165 76.4581 2.26166 76.4097 2.21166 76.3612L2.15166 76.1675L2.03167 75.751C2.03167 75.7026 2.03165 75.6541 1.98165 75.596C1.96965 75.5368 1.95294 75.4785 1.93166 75.4217L1.87167 75.2086L1.78167 74.8599C1.78167 74.7824 1.73166 74.7049 1.71166 74.6274C1.69166 74.5499 1.71164 74.4821 1.66164 74.4143L1.57165 74.085L1.48165 73.7073C1.48165 73.6298 1.48166 73.562 1.43166 73.4942V73.3585V73.2132C1.427 73.1552 1.427 73.0969 1.43166 73.0389V72.942C1.43166 72.8645 1.43166 72.7967 1.43166 72.7289L1.37167 72.4868C1.37167 72.4093 1.37167 72.3415 1.37167 72.264V72.1768C1.37167 72.0993 1.37167 72.0316 1.37167 71.9541V71.896C1.37731 71.825 1.37731 71.7538 1.37167 71.6829C1.37637 71.6475 1.37637 71.6117 1.37167 71.5763C1.37648 71.5377 1.37648 71.4987 1.37167 71.4601C1.36685 71.3762 1.36685 71.2921 1.37167 71.2082C1.35015 71.1154 1.33345 71.0217 1.32165 70.9273V70.8789C1.29934 70.7765 1.28267 70.673 1.27166 70.5689L1.21166 70.2009C1.20614 70.1073 1.20614 70.0135 1.21166 69.92C1.21651 69.8329 1.21651 69.7455 1.21166 69.6584C1.21166 69.6584 1.21166 69.5906 1.21166 69.5519V69.3388V69.2613C1.21166 69.1645 1.21166 69.0676 1.21166 68.961C1.21166 68.8545 1.21166 68.7479 1.21166 68.6317C1.21166 68.5251 1.21166 68.4089 1.21166 68.3024V68.0118C1.21166 68.0118 1.21166 67.944 1.21166 67.9052V67.6534V67.3628V67.0432C1.21166 66.9269 1.21166 66.8204 1.21166 66.7042C1.21166 66.5879 1.21166 66.4911 1.21166 66.3845V66.3361C1.21166 66.2392 1.21166 66.152 1.21166 66.0552V65.9971C1.20671 65.9035 1.20671 65.8098 1.21166 65.7162C1.21166 65.6096 1.21166 65.5031 1.21166 65.3965C1.21166 65.29 1.21166 65.1931 1.21166 65.0963V65.0381C1.21166 64.8154 1.21166 64.5926 1.21166 64.3698V63.4012C1.2478 50.6539 4.73881 38.1393 11.3355 27.1091C17.9323 16.0789 27.4034 6.91976 38.8017 0.547852C49.9802 7.01146 59.2339 16.1763 65.6568 27.145C72.0796 38.1137 75.4513 50.5101 75.4416 63.1203Z" fill="#931831"/>
<path d="M12.4516 93.7578C12.2616 93.564 12.0816 93.3606 11.8916 93.1572C12.0816 93.3606 12.2616 93.5544 12.4516 93.7578Z" fill="#931831"/>
<path d="M53.7117 62.3749L45.5017 69.9398C45.3341 70.0774 45.2036 70.2526 45.1217 70.4501C45.0398 70.6475 45.0089 70.8614 45.0317 71.0731V92.2761C45.0317 92.3968 45.0812 92.5126 45.1693 92.598C45.2575 92.6833 45.377 92.7313 45.5017 92.7313H53.9817C54.1063 92.7313 54.2259 92.6833 54.314 92.598C54.4022 92.5126 54.4517 92.3968 54.4517 92.2761V62.559C54.4517 62.3071 54.2417 61.8519 53.7117 62.3653" fill="white"/>
<path d="M30.0818 72.2444L21.8718 79.8093C21.704 79.9489 21.5736 80.1258 21.4918 80.3248C21.4099 80.5239 21.3791 80.7391 21.4018 80.9522V92.2947C21.4018 92.4155 21.4513 92.5312 21.5395 92.6166C21.6276 92.702 21.7471 92.75 21.8718 92.75H30.3518C30.4764 92.75 30.596 92.702 30.6841 92.6166C30.7722 92.5312 30.8218 92.4155 30.8218 92.2947V72.4381C30.8218 72.1863 30.6218 71.731 30.0818 72.2444Z" fill="white"/>
<path d="M57.442 53.2021C57.4435 53.1699 57.438 53.1378 57.4259 53.1078C57.4139 53.0778 57.3955 53.0506 57.372 53.0278C57.3296 52.992 57.2776 52.9685 57.222 52.96H57.082L50.792 54.3354H50.672L50.552 54.3935C50.5092 54.4383 50.4853 54.4971 50.4853 54.5582C50.4853 54.6192 50.5092 54.6781 50.552 54.7228L50.622 54.7907L52.062 56.1855L37.812 69.9785L31.232 63.605C31.1952 63.5723 31.147 63.5542 31.097 63.5542C31.0471 63.5542 30.9989 63.5723 30.962 63.605L29.182 65.3388L18.632 75.5577C18.5983 75.5934 18.5796 75.6401 18.5796 75.6885C18.5796 75.7369 18.5983 75.7835 18.632 75.8193L20.422 77.5434C20.438 77.5617 20.4579 77.5765 20.4803 77.5866C20.5028 77.5967 20.5273 77.6019 20.552 77.6019C20.5768 77.6019 20.6013 77.5967 20.6237 77.5866C20.6462 77.5765 20.6661 77.5617 20.682 77.5434L31.102 67.4601L35.872 72.0804L37.662 73.8045C37.678 73.8229 37.6979 73.8376 37.7203 73.8477C37.7428 73.8579 37.7673 73.8631 37.792 73.8631C37.8168 73.8631 37.8413 73.8579 37.8637 73.8477C37.8862 73.8376 37.9061 73.8229 37.922 73.8045L54.092 58.1421L55.602 59.6047C55.6483 59.6462 55.709 59.6693 55.772 59.6693C55.8351 59.6693 55.8958 59.6462 55.942 59.6047C55.9802 59.5614 56.0015 59.5066 56.002 59.4497L57.382 53.2312L57.442 53.2021Z" fill="white"/>
<path d="M41.9318 73.5625L37.9318 77.4369C37.8983 77.4683 37.8535 77.4858 37.8068 77.4858C37.7602 77.4858 37.7154 77.4683 37.6818 77.4369L34.0818 73.8821C33.4218 73.2525 33.2818 73.7659 33.2818 74.0177V92.2858C33.2805 92.3451 33.2914 92.4041 33.314 92.4593C33.3365 92.5145 33.3701 92.5647 33.413 92.6071C33.4558 92.6495 33.507 92.6832 33.5635 92.7062C33.6199 92.7292 33.6806 92.741 33.7418 92.741H42.2318C42.3547 92.7385 42.4717 92.6894 42.5577 92.6043C42.6437 92.5192 42.6918 92.4049 42.6918 92.2858V73.6981C42.6918 73.4559 42.4918 72.991 41.9118 73.5625" fill="white"/>
<path d="M37.872 40.92C36.6594 40.9753 35.4567 40.6857 34.412 40.0869C33.5498 39.5304 32.8972 38.7182 32.552 37.772C32.1511 36.6547 31.9581 35.4773 31.982 34.2947C31.9964 33.7255 32.0599 33.1585 32.172 32.5996C32.2764 32.1034 32.4443 31.6219 32.672 31.166C32.8841 30.7447 33.1643 30.3589 33.502 30.0231C33.8332 29.693 34.2183 29.4181 34.642 29.2094C33.972 28.7156 33.4195 28.088 33.022 27.3691C32.5348 26.4536 32.2908 25.4349 32.312 24.4051C32.2706 23.3559 32.4686 22.3108 32.892 21.3443C33.2742 20.502 33.9311 19.8045 34.762 19.3586C35.7205 18.8747 36.7916 18.6379 37.872 18.6709C38.9574 18.6315 40.0341 18.8722 40.992 19.3683C41.7923 19.8145 42.4286 20.4918 42.812 21.3055C43.2317 22.2695 43.4263 23.3114 43.382 24.3567C43.4041 25.3925 43.171 26.4185 42.702 27.3497C42.3148 28.0762 41.748 28.6985 41.052 29.161C41.4833 29.3621 41.873 29.6378 42.202 29.9746C42.5364 30.313 42.8162 30.6984 43.032 31.1176C43.2741 31.5703 43.4523 32.0525 43.562 32.5511C43.6853 33.1082 43.7456 33.6765 43.742 34.2462C43.7848 35.4276 43.6017 36.6066 43.202 37.7235C42.8568 38.667 42.2084 39.4784 41.352 40.0385C40.3069 40.6579 39.0963 40.9645 37.872 40.92ZM37.872 38.0141C38.1206 38.031 38.3697 37.9906 38.5991 37.8963C38.8286 37.802 39.0317 37.6565 39.1919 37.4717C39.4891 37.0774 39.6814 36.6183 39.752 36.135C39.849 35.5945 39.8959 35.0467 39.892 34.4981C39.917 33.9136 39.87 33.3283 39.752 32.7546C39.6729 32.2655 39.4702 31.803 39.162 31.4082C39.0038 31.2298 38.8048 31.0896 38.5809 30.9988C38.3569 30.908 38.1142 30.8691 37.872 30.8851C37.6284 30.8698 37.3844 30.909 37.159 30.9997C36.9335 31.0904 36.7326 31.2302 36.572 31.4082C36.2615 31.7981 36.0585 32.2581 35.982 32.7449C35.8791 33.3239 35.8289 33.9105 35.832 34.4981C35.8301 35.0494 35.8736 35.6 35.962 36.1447C36.0324 36.6361 36.236 37.1006 36.552 37.4911C36.7107 37.6788 36.9131 37.8276 37.1424 37.9252C37.3718 38.0228 37.6218 38.0666 37.872 38.0529V38.0141ZM37.872 27.6693C38.0624 27.6718 38.2509 27.6331 38.4239 27.556C38.5969 27.4789 38.75 27.3654 38.872 27.2238C39.1476 26.8693 39.3357 26.4585 39.422 26.0227C39.5497 25.4369 39.6101 24.8391 39.602 24.2404C39.6255 23.5724 39.485 22.9084 39.1919 22.3032C39.0663 22.0617 38.8708 21.8607 38.6294 21.7249C38.3879 21.589 38.1108 21.5241 37.832 21.538C37.5508 21.5263 37.272 21.592 37.0278 21.7274C36.7835 21.8628 36.5839 22.0625 36.452 22.3032C36.1389 22.9027 35.9875 23.5691 36.012 24.2404C36.0038 24.8318 36.0574 25.4224 36.172 26.0033C36.2495 26.4529 36.4498 26.8743 36.752 27.2238C36.8913 27.3769 37.0641 27.4981 37.2579 27.5785C37.4516 27.6589 37.6614 27.6966 37.872 27.6887V27.6693Z" fill="white"/>
</svg>
