<svg width="76" height="108" viewBox="0 0 76 108" fill="none" xmlns="http://www.w3.org/2000/svg">
<path d="M12.3217 94.1828L11.7617 93.5823L12.3217 94.1828Z" fill="#0076B8"/>
<path d="M75.3017 63.5351V63.8645C75.2966 67.4311 74.8569 70.9846 73.9917 74.4514C73.4321 76.6726 72.6966 78.8487 71.7917 80.9604C68.8553 87.8377 64.206 93.9034 58.2591 98.6157C52.3122 103.328 45.2528 106.54 37.7117 107.965L37.4317 107.907H37.2217H37.0817L36.8317 107.859L36.5717 107.801H36.3917H36.2317L35.9517 107.743L35.4317 107.617L35.1517 107.549L34.3017 107.336L34.0817 107.278C33.3217 107.074 32.5717 106.852 31.8217 106.609L31.6317 106.542L31.2917 106.425L31.1217 106.377L30.7517 106.241L30.4917 106.154L30.3317 106.096L30.1817 106.038L29.9517 105.951L29.7317 105.873L29.0517 105.612L28.8517 105.534L28.6017 105.428L28.3317 105.321L28.0917 105.224L27.9917 105.176L27.8117 105.108L27.6017 105.011L27.4317 104.934L27.2817 104.866L27.0217 104.75L26.7817 104.643H26.7217L26.5117 104.556L26.3117 104.449L26.1117 104.362L25.9417 104.275L25.8117 104.217L25.6317 104.13L25.4317 104.033L25.3017 103.965L25.1817 103.907L24.9817 103.8L24.7517 103.684H24.6917L24.4717 103.568L24.2617 103.452L23.9417 103.287L23.7617 103.19L22.9817 102.745L22.7917 102.638L22.6417 102.551L22.4417 102.435L22.2417 102.318L22.0917 102.222C20.8584 101.485 19.6684 100.691 18.5217 99.8388L18.3717 99.7322L18.2617 99.6451L18.0817 99.5094L17.8617 99.3448L17.7217 99.2382L17.5917 99.1317L17.3717 98.967L17.1017 98.7442L16.9517 98.628L16.8817 98.5699L16.7417 98.4633L16.5717 98.318L16.3817 98.163L16.1917 97.9984L16.0217 97.8531L15.7617 97.64L15.5717 97.4657L15.3617 97.2816L15.1717 97.117L14.9917 96.9523L14.7917 96.7779L14.6117 96.6133L14.4417 96.4486L14.2717 96.2936L14.0917 96.1193L13.8917 95.9255L13.7017 95.7415L13.5217 95.5672L13.4517 95.4897L13.3117 95.3541L13.1217 95.1604L12.8917 94.9279L12.7417 94.7632L12.5517 94.5695L11.9917 93.969L11.6017 93.5331C11.4917 93.4072 11.3717 93.2812 11.2617 93.1456C10.9017 92.7388 10.5517 92.3223 10.2117 91.8961L10.0417 91.683C9.99395 91.6143 9.9404 91.5496 9.88167 91.4893C9.74167 91.3053 9.59168 91.1212 9.45168 90.9275L9.32168 90.7629L9.19167 90.5885L9.08169 90.4335L8.7817 90.0267L8.68166 89.9008C8.64417 89.8358 8.60065 89.7742 8.55166 89.7168C8.51176 89.6532 8.46842 89.5918 8.42171 89.5327C8.39086 89.4774 8.35393 89.4254 8.31167 89.3777L8.18166 89.184L8.07168 89.029L7.95168 88.845V88.7966C7.92086 88.7382 7.88402 88.6831 7.84169 88.6319V88.5641L7.75167 88.4382C7.71868 88.378 7.68196 88.3197 7.64168 88.2638L7.52169 88.0895C7.46169 87.9829 7.39168 87.8861 7.32168 87.7795L7.23171 87.6342L7.15169 87.4986L7.04171 87.3242C7.04171 87.2468 6.94169 87.1693 6.90169 87.0918C6.86169 87.0143 6.80168 86.9368 6.76168 86.8593L6.64168 86.6656V86.5978L6.5317 86.4041L6.40169 86.1813L6.27169 85.9488L6.13167 85.7067L6.02169 85.5226L5.96169 85.4064C5.89169 85.2708 5.81166 85.1352 5.74166 84.9899L5.33169 84.2247L5.21169 83.9729C5.12169 83.8082 5.04169 83.6435 4.96169 83.4692L4.69167 82.9074L4.6017 82.7233L4.39168 82.2487C4.31168 82.0841 4.2417 81.9097 4.1617 81.7354C4.0817 81.561 4.09166 81.561 4.05166 81.4738C4.01166 81.3867 3.94168 81.2123 3.89168 81.0767C3.85902 81.0146 3.83223 80.9498 3.81167 80.883C3.72136 80.6901 3.64127 80.4929 3.57168 80.2922C3.54066 80.226 3.51393 80.1581 3.49166 80.0887L3.42171 79.9047C3.3824 79.8165 3.34896 79.7258 3.32168 79.6335C3.32168 79.5463 3.2517 79.4591 3.2217 79.372L3.1617 79.2073C3.1617 79.1201 3.10167 79.033 3.06167 78.9458C3.03952 78.8669 3.01286 78.7893 2.98171 78.7133L2.90169 78.4808V78.3355L2.84169 78.1418L2.7817 77.9772C2.7817 77.8416 2.69169 77.7156 2.65169 77.58L2.08169 76.8729C2.08169 76.8729 2.08169 76.7761 2.08169 76.718L2.02169 76.5242C2.02169 76.3886 1.93168 76.253 1.89168 76.1077C1.85168 75.9625 1.89168 76.0109 1.89168 75.9624C1.89168 75.914 1.89168 75.8462 1.89168 75.7881L1.83169 75.575C1.83169 75.4587 1.76171 75.3425 1.73171 75.2166L1.67171 74.9841L1.61171 74.771C1.61171 74.6645 1.6117 74.5579 1.5317 74.4417L1.44167 74.0639L1.38167 73.8509V73.7152V73.5796C1.38167 73.5215 1.38167 73.4634 1.38167 73.4053C1.38167 73.3472 1.38167 73.3375 1.38167 73.2987C1.38167 73.26 1.38169 73.1632 1.33169 73.0857C1.28169 73.0082 1.33169 72.921 1.33169 72.8435C1.33169 72.766 1.3317 72.6982 1.2817 72.6304V72.5433C1.27689 72.4658 1.27689 72.3882 1.2817 72.3107V72.2526C1.27605 72.1817 1.27605 72.1105 1.2817 72.0396C1.27705 72.0074 1.27705 71.9748 1.2817 71.9427V71.8168C1.2817 71.7393 1.2817 71.6521 1.2817 71.5746C1.27074 71.4801 1.25406 71.3863 1.23171 71.2937V71.2453C1.23729 71.142 1.23729 71.0386 1.23171 70.9353L1.17171 70.5672C1.17171 70.4704 1.17171 70.3735 1.17171 70.2864C1.16687 70.1993 1.16687 70.1119 1.17171 70.0248C1.17171 70.0248 1.17171 69.9473 1.17171 69.9086V69.6955V69.6277V69.3274C1.17171 69.2209 1.17171 69.1143 1.17171 69.0078V68.6688V68.3879C1.17171 68.3879 1.17171 68.3201 1.17171 68.2813C1.17667 68.1942 1.17667 68.1069 1.17171 68.0198V67.7292V67.3999V67.0706C1.17171 66.9543 1.17171 66.8478 1.17171 66.7412C1.17171 66.654 1.17171 66.5572 1.17171 66.47V66.2182C1.16672 66.1278 1.16672 66.0373 1.17171 65.9469C1.17171 65.8404 1.17171 65.7242 1.17171 65.6176C1.17171 65.5111 1.17171 65.4239 1.17171 65.3174C1.17171 65.0946 1.17171 64.8718 1.17171 64.649C1.17171 64.4262 1.17171 64.4262 1.17171 64.3197V63.632C1.20961 50.8852 4.70251 38.3716 11.301 27.343C17.8996 16.3143 27.3724 7.15744 38.7717 0.78833C49.958 7.27807 59.2083 16.4757 65.6131 27.4772C72.018 38.4786 75.3569 50.9051 75.3017 63.5351Z" fill="#0076B8"/>
<path d="M12.3217 94.1828L11.7617 93.5823L12.3217 94.1828Z" fill="#0076B8"/>
<path d="M49.0818 82.2494C48.5538 82.2494 48.0375 82.0977 47.5984 81.8135C47.1594 81.5294 46.8172 81.1255 46.6151 80.6529C46.413 80.1803 46.3601 79.6603 46.4631 79.1587C46.5662 78.657 46.8204 78.1961 47.1938 77.8344C47.5673 77.4728 48.043 77.2264 48.561 77.1267C49.0789 77.0269 49.6158 77.0781 50.1036 77.2739C50.5915 77.4696 51.0085 77.801 51.3019 78.2263C51.5953 78.6516 51.7518 79.1517 51.7518 79.6632C51.7518 80.3491 51.4706 81.0069 50.9698 81.4919C50.4691 81.9769 49.79 82.2494 49.0818 82.2494ZM60.6719 81.0483C59.6719 79.731 53.1418 71.6721 43.9918 71.6721C36.0518 71.6721 27.5518 78.6462 27.5518 78.6462C27.5518 78.6462 24.3618 72.3211 17.8318 71.7108H17.6719C17.6055 71.7156 17.5432 71.7439 17.4971 71.7904C17.4509 71.8369 17.4242 71.8982 17.4219 71.9627C17.4406 72.0454 17.4744 72.1241 17.5219 72.1951C18.3719 73.5512 20.5219 77.3966 20.5219 81.242C20.5219 85.0874 18.3619 88.9909 17.5219 90.3082L17.4619 90.3954C17.4518 90.4401 17.4518 90.4863 17.4619 90.531C17.4639 90.5939 17.4892 90.6541 17.5333 90.7003C17.5774 90.7466 17.6372 90.7759 17.7018 90.7829H17.8419C24.3919 90.192 27.5919 83.8476 27.5919 83.8476C27.5919 83.8476 36.0919 90.8313 44.0319 90.8313C53.1819 90.8313 59.7019 82.7724 60.7119 81.4551L60.7819 81.3583C60.7919 81.3267 60.7919 81.293 60.7819 81.2614C60.7908 81.2297 60.7908 81.1962 60.7819 81.1645L60.7119 81.0774" fill="white"/>
<path d="M26.9518 64.4462C26.9698 64.4189 26.9937 64.3958 27.0218 64.3783C27.062 64.3483 27.1111 64.3313 27.1618 64.3299C27.2281 64.3319 27.2916 64.3559 27.3418 64.3977C32.3418 68.9987 37.5618 65.2695 38.6518 64.3977L38.7518 64.2912H38.9618L39.0618 64.3977C40.1518 65.2695 45.3818 68.9987 50.3718 64.3977C50.3942 64.3762 50.4207 64.3591 50.4499 64.3474C50.479 64.3358 50.5103 64.3299 50.5419 64.3299C50.5959 64.3299 50.6485 64.3469 50.6918 64.3783L50.7618 64.4462C51.7618 65.4148 55.9018 68.8534 60.3218 65.1339C60.3466 65.1116 60.3665 65.0846 60.3803 65.0547C60.394 65.0247 60.4014 64.9923 60.4018 64.9595V63.187C60.4018 63.1202 60.3744 63.0561 60.3257 63.0089C60.2769 62.9617 60.2108 62.9351 60.1418 62.9351H60.0818L59.9518 63.0029C58.4504 63.7874 56.7295 64.0865 55.0402 63.8564C53.3509 63.6264 51.7817 62.8794 50.5618 61.7244L50.4518 61.6178C50.4157 61.6088 50.3779 61.6088 50.3418 61.6178C50.3161 61.6081 50.2875 61.6081 50.2618 61.6178C50.2056 61.6289 50.1556 61.6601 50.1218 61.705C48.9918 62.5477 43.7618 65.9766 39.1218 61.7728L39.0518 61.705C39.0264 61.682 38.9965 61.6641 38.9639 61.6525C38.9313 61.6408 38.8966 61.6356 38.8619 61.6372C38.8286 61.6352 38.7952 61.6402 38.7641 61.6519C38.7331 61.6636 38.7049 61.6818 38.6818 61.705L38.6119 61.7728C33.9519 65.9766 28.7219 62.5477 27.6119 61.705C27.5799 61.6626 27.5341 61.6318 27.4819 61.6178C27.4558 61.6097 27.4278 61.6097 27.4018 61.6178C27.3659 61.6079 27.3278 61.6079 27.2918 61.6178L27.1719 61.7244C25.9519 62.8794 24.3827 63.6264 22.6935 63.8564C21.0042 64.0865 19.2832 63.7874 17.7818 63.0029L17.6518 62.9351C17.6173 62.9338 17.5829 62.9393 17.5507 62.9515C17.5185 62.9637 17.4893 62.9822 17.4648 63.0059C17.4404 63.0296 17.4213 63.0578 17.4087 63.089C17.3962 63.1202 17.3904 63.1535 17.3918 63.187V64.9595C17.3904 64.9917 17.3959 65.0238 17.4079 65.0538C17.42 65.0839 17.4383 65.1111 17.4618 65.1339C21.8818 68.8534 26.0618 65.3663 27.0318 64.4462" fill="white"/>
<path d="M17.6221 56.5331C17.5871 56.5331 17.5524 56.5399 17.5202 56.5531C17.488 56.5664 17.4589 56.5858 17.4346 56.6102C17.4103 56.6347 17.3914 56.6636 17.379 56.6953C17.3665 56.7269 17.3608 56.7608 17.3621 56.7946V58.5575C17.3605 58.5912 17.3658 58.6248 17.3778 58.6564C17.3898 58.688 17.4083 58.717 17.4321 58.7416C21.8521 62.4514 26.0321 58.974 27.0021 58.0538L27.0621 57.9763C27.1117 57.9676 27.1625 57.9676 27.2121 57.9763C27.2453 57.9749 27.2784 57.9803 27.3094 57.9919C27.3404 58.0036 27.3686 58.0214 27.3921 58.0441C32.3921 62.6547 37.6121 58.9159 38.6921 58.0441L38.802 57.9473H38.9021H39.0021L39.1121 58.0441C40.2021 58.9159 45.4321 62.6547 50.4221 58.0441C50.4433 58.0211 50.4696 58.003 50.499 57.9913C50.5285 57.9795 50.5603 57.9744 50.5921 57.9763C50.6414 57.9652 50.6927 57.9652 50.7421 57.9763C50.7705 57.9974 50.7943 58.0238 50.8121 58.0538C51.8121 59.0224 55.9521 62.4514 60.3721 58.7416C60.4228 58.6929 60.4516 58.6267 60.4521 58.5575V56.7946C60.4521 56.7269 60.4251 56.6618 60.3766 56.613C60.3281 56.5642 60.2619 56.5356 60.1921 56.5331H60.0821L59.9521 56.6009C58.4507 57.3854 56.7297 57.6844 55.0405 57.4544C53.3512 57.2243 51.782 56.4773 50.5621 55.3223L50.4521 55.2255C50.4159 55.2169 50.3782 55.2169 50.3421 55.2255H50.2621C50.2046 55.2399 50.1548 55.2744 50.1221 55.3223C48.9821 56.165 43.7621 59.5939 39.1221 55.3804L39.052 55.3223C39.0275 55.2975 38.998 55.2779 38.9653 55.2646C38.9326 55.2512 38.8976 55.2445 38.8621 55.2448C38.8281 55.244 38.7942 55.2506 38.7631 55.264C38.732 55.2774 38.7043 55.2973 38.6821 55.3223L38.6121 55.3804C33.9521 59.5939 28.7221 56.165 27.6121 55.3223C27.5807 55.2773 27.5351 55.2433 27.4821 55.2255H27.4021C27.3661 55.2155 27.328 55.2155 27.2921 55.2255L27.1721 55.3223C25.9522 56.4773 24.383 57.2243 22.6937 57.4544C21.0044 57.6844 19.2835 57.3854 17.7821 56.6009L17.6521 56.5331" fill="white"/>
<path d="M29.0817 45.4618V27.9105C28.8664 28.0134 28.6422 28.0977 28.4117 28.1624L27.4117 28.4529C27.0317 28.5498 26.6817 28.6563 26.4117 28.7532L25.7217 28.976V26.1379C25.9817 26.0508 26.3017 25.9248 26.7217 25.7602C27.1417 25.5955 27.5116 25.4115 27.9316 25.1984C28.3519 24.989 28.7593 24.7561 29.1517 24.501C29.4892 24.2944 29.7954 24.0434 30.0616 23.7551H33.0817V45.4618H29.0817Z" fill="white"/>
<path d="M43.4217 45.4618V40.1828H36.7017V37.0155L42.5417 23.7551H47.1317V37.2092H49.4017V40.1828H47.1317V45.4618H43.4217ZM39.9316 37.2092H43.4217V27.8233L39.9316 37.2092Z" fill="white"/>
</svg>
