<svg width="76" height="107" viewBox="0 0 76 107" fill="none" xmlns="http://www.w3.org/2000/svg">
<path d="M12.3417 93.1828C12.1517 92.9794 11.9717 92.776 11.7817 92.5823C11.9717 92.776 12.1517 92.9794 12.3417 93.1828Z" fill="#3EA635"/>
<path d="M75.3319 62.5355V62.8648C75.3236 66.4318 74.8805 69.9854 74.0119 73.4518C73.4557 75.6728 72.7235 77.8489 71.8219 79.9608C68.8861 86.8402 64.2357 92.9076 58.2867 97.6202C52.3377 102.333 45.2756 105.544 37.7319 106.966L37.4519 106.908H37.2419H37.1119L36.8519 106.859L36.6019 106.801H36.4219H36.2619L35.9819 106.743L35.4619 106.617L35.1819 106.549L34.3419 106.336L34.1119 106.278C33.3519 106.071 32.6019 105.849 31.8619 105.61L31.6619 105.542L31.3219 105.426L31.1519 105.377L30.7919 105.242L30.5219 105.154L30.3619 105.096L30.2119 105.038L29.9819 104.951L29.7719 104.874L29.0819 104.612L28.8819 104.535L28.6219 104.428L28.3519 104.321L28.1219 104.225L28.0219 104.176L27.8419 104.108L27.6319 104.012L27.4619 103.934L27.3019 103.866L27.0419 103.75L26.8019 103.643H26.7519L26.5419 103.556L26.3319 103.45L26.1419 103.363L25.9719 103.275L25.8419 103.217L25.6719 103.13L25.4619 103.033L25.3319 102.965L25.2119 102.907L25.0119 102.801L24.7919 102.685H24.7319L24.5019 102.568L24.2919 102.452L23.9719 102.287C23.9187 102.25 23.8617 102.217 23.8019 102.191L23.0119 101.745L22.8219 101.638L22.6719 101.551L22.4719 101.435L22.2819 101.319L22.1219 101.222C20.8934 100.488 19.7052 99.6926 18.5619 98.8392L18.4119 98.7326L18.2919 98.6454L18.1119 98.5098L17.9019 98.3452L17.7519 98.2386L17.6219 98.132L17.4019 97.9674L17.1319 97.7446L16.9819 97.6284L16.9119 97.5703L16.7719 97.4637L16.6119 97.3184L16.4119 97.1634L16.2219 96.9988L16.0619 96.8535L15.8019 96.6404L15.6019 96.466L15.3919 96.282L15.2019 96.1174L15.0119 95.9527L14.8219 95.7783L14.6419 95.6137L14.4619 95.449C14.4619 95.4006 14.3519 95.3521 14.3019 95.294L14.1119 95.1197L13.9219 94.9259L13.7219 94.7419L13.5519 94.5675L13.4719 94.49L13.3319 94.3545L13.1419 94.1607L12.9119 93.9283L12.7619 93.7636L12.5719 93.5699C12.3819 93.3665 12.2019 93.1631 12.0119 92.9694L11.6219 92.5335L11.2919 92.146C10.9319 91.7392 10.5819 91.3227 10.2319 90.8965C10.1809 90.8214 10.124 90.7502 10.0619 90.6834L9.91193 90.4897L9.47192 89.9279L9.35193 89.7633L9.22192 89.5889L9.10193 89.4339L8.80188 89.0271L8.71191 88.9012L8.58191 88.7171C8.5352 88.6581 8.4918 88.5967 8.4519 88.5331L8.34192 88.3781C8.34192 88.3103 8.2519 88.2425 8.2019 88.1844C8.17105 88.1291 8.13419 88.0771 8.09192 88.0294L7.97192 87.8454V87.7969L7.86194 87.6323V87.5645L7.77191 87.4386C7.73164 87.3826 7.69492 87.3244 7.66193 87.2642C7.62165 87.2083 7.58487 87.1501 7.55188 87.0899C7.48188 86.9833 7.41193 86.8865 7.35193 86.7799L7.25189 86.6346C7.22904 86.5874 7.20233 86.542 7.17194 86.499C7.13894 86.4388 7.10216 86.3805 7.06189 86.3246C7.06189 86.2471 6.97194 86.1697 6.92194 86.0922L6.78192 85.8597L6.66193 85.666V85.5982L6.54193 85.4045L6.42194 85.1817C6.37194 85.1042 6.32192 85.0267 6.28192 84.9492L6.14191 84.7071C6.14191 84.6393 6.07193 84.5811 6.04193 84.523L5.98193 84.4068C5.90193 84.2712 5.82189 84.1356 5.75189 83.9903C5.68189 83.845 5.48193 83.4866 5.35193 83.2251C5.35193 83.1379 5.26192 83.0604 5.22192 82.9733C5.18192 82.8861 5.05192 82.6439 4.97192 82.4696L4.7019 81.9077L4.61194 81.7237C4.54194 81.559 4.46191 81.4041 4.39191 81.2491C4.32191 81.0844 4.24194 80.9101 4.17194 80.7358C4.10194 80.5614 4.09189 80.5614 4.06189 80.4742C4.03189 80.387 3.94191 80.2127 3.89191 80.0771C3.84191 79.9415 3.89189 79.9512 3.81189 79.8834L3.5719 79.2925L3.49188 79.0891L3.42194 78.9051C3.42194 78.8179 3.3519 78.7307 3.3219 78.6338L3.22192 78.3723L3.16193 78.2076L3.0719 77.9462L2.98193 77.7137C2.95979 77.6348 2.93306 77.5572 2.90192 77.4812C2.90619 77.4328 2.90619 77.3843 2.90192 77.3359L2.84192 77.1422L2.78192 76.9775L2.66193 76.5804L2.60193 76.3963C2.60193 76.3963 2.60193 76.2995 2.60193 76.2414L2.54193 76.0476L2.42194 75.6311C2.42194 75.5827 2.42189 75.5343 2.37189 75.4858C2.37636 75.4278 2.37636 75.3695 2.37189 75.3115L2.31189 75.0984L2.22192 74.74C2.194 74.6639 2.17062 74.5863 2.15192 74.5076C2.14728 74.4366 2.14728 74.3654 2.15192 74.2945L2.06189 73.9652L1.97192 73.5874C1.96728 73.5164 1.96728 73.4452 1.97192 73.3743V73.2387C1.97192 73.2387 1.97192 73.1515 1.97192 73.1031C1.97659 73.0451 1.97659 72.9868 1.97192 72.9287C1.97663 72.8934 1.97663 72.8575 1.97192 72.8221C1.95895 72.7504 1.94227 72.6793 1.92194 72.6091C1.92665 72.5284 1.92665 72.4476 1.92194 72.3669C1.92194 72.2991 1.92194 72.2216 1.92194 72.1538V72.0667C1.92194 71.9892 1.92189 71.9117 1.87189 71.8342V71.7761C1.87189 71.7083 1.87189 71.6404 1.87189 71.563C1.87189 71.4855 1.87189 71.4952 1.87189 71.4661C1.87189 71.4371 1.87189 71.3789 1.87189 71.3402C1.87189 71.3015 1.87189 71.1755 1.87189 71.098C1.87189 71.0012 1.87189 70.9043 1.87189 70.8172V70.7687C1.87189 70.6621 1.8719 70.5556 1.8219 70.4587L1.7619 70.0907C1.7619 69.9938 1.76191 69.8969 1.71191 69.8098C1.71191 69.7226 1.71191 69.6354 1.71191 69.5482C1.71191 69.4611 1.71191 69.4707 1.71191 69.432V69.2189V69.1511C1.71191 69.0543 1.71191 68.9477 1.71191 68.8509C1.71191 68.7443 1.71191 68.6377 1.71191 68.5312C1.71191 68.415 1.71191 68.3084 1.71191 68.1922V67.9113C1.71191 67.9113 1.71191 67.8435 1.71191 67.8047V67.5433V67.2526V66.9233C1.71191 66.8168 1.71191 66.7005 1.71191 66.594C1.71191 66.4874 1.71191 66.3712 1.71191 66.2647C1.71191 66.1775 1.71191 66.0806 1.71191 65.9934C1.71191 65.9063 1.71191 65.9934 1.71191 65.9256C1.71191 65.8578 1.71191 65.7416 1.71191 65.6544C1.71191 65.5479 1.71191 65.4316 1.71191 65.3251C1.71191 65.2185 1.71191 65.1314 1.71191 65.0248C1.71191 64.802 1.71191 64.5793 1.71191 64.3565V63.3879C1.74577 50.6415 5.23591 38.1273 11.8329 27.0983C18.43 16.0693 27.9024 6.91228 39.3019 0.544189C50.2814 7.028 59.3595 16.1323 65.6678 26.9861C71.9762 37.8399 75.3037 50.08 75.3319 62.5355Z" fill="#3EA635"/>
<path d="M12.3417 93.1828C12.1517 92.9794 11.9717 92.776 11.7817 92.5823C11.9717 92.776 12.1517 92.9794 12.3417 93.1828Z" fill="#3EA635"/>
<path d="M31.5618 73.2383H29.0118C28.9068 73.2383 28.8218 73.3207 28.8218 73.4223V79.5343C28.8218 79.6359 28.9068 79.7183 29.0118 79.7183H31.5618C31.6667 79.7183 31.7518 79.6359 31.7518 79.5343V73.4223C31.7518 73.3207 31.6667 73.2383 31.5618 73.2383Z" fill="white"/>
<path d="M59.6018 82.3438H17.5318C17.4805 82.3462 17.4322 82.3678 17.3968 82.4038C17.3614 82.4399 17.3417 82.4877 17.3418 82.5375V85.0268C17.3418 85.0756 17.3618 85.1224 17.3975 85.157C17.4331 85.1915 17.4814 85.2109 17.5318 85.2109H59.6018C59.6522 85.2109 59.7005 85.1915 59.7361 85.157C59.7718 85.1224 59.7918 85.0756 59.7918 85.0268V82.5375C59.7919 82.4877 59.7722 82.4399 59.7368 82.4038C59.7014 82.3678 59.6531 82.3462 59.6018 82.3438Z" fill="white"/>
<path d="M59.6018 87.2927H17.5318C17.4822 87.2951 17.4353 87.3152 17.4001 87.3492C17.365 87.3833 17.3442 87.4287 17.3418 87.4768V89.9758C17.3442 90.0239 17.365 90.0693 17.4001 90.1033C17.4353 90.1373 17.4822 90.1575 17.5318 90.1598H59.6018C59.6514 90.1575 59.6983 90.1373 59.7335 90.1033C59.7686 90.0693 59.7894 90.0239 59.7918 89.9758V87.4962C59.7894 87.4481 59.7686 87.4027 59.7335 87.3686C59.6983 87.3346 59.6514 87.3145 59.6018 87.3121" fill="white"/>
<path d="M51.5921 66.4779C50.5564 65.67 49.2807 65.205 47.9521 65.1509C46.6828 65.1669 45.4714 65.6682 44.5821 66.5457C44.5444 66.5767 44.5142 66.6153 44.4934 66.6588C44.4727 66.7023 44.462 66.7496 44.4621 66.7975V67.0203C44.4603 67.0727 44.4701 67.1249 44.4908 67.1733C44.5115 67.2217 44.5426 67.2654 44.5821 67.3012C44.6238 67.3333 44.6724 67.356 44.7243 67.3677C44.7761 67.3795 44.83 67.3799 44.8821 67.369H44.9621C45.0413 67.3387 45.1129 67.2925 45.1721 67.2334C45.6924 66.9815 46.2713 66.8646 46.8521 66.8944C48.4777 66.9258 50.0297 67.5562 51.1921 68.6573C51.2374 68.7063 51.2929 68.7455 51.3549 68.7722C51.417 68.7989 51.4842 68.8126 51.5521 68.8123C51.6868 68.8099 51.8156 68.7579 51.9121 68.667C53.0746 67.5659 54.6266 66.9355 56.2521 66.9041C56.8362 66.8735 57.4186 66.9904 57.9421 67.2431C58.009 67.3047 58.087 67.3539 58.1721 67.3884C58.2542 67.4085 58.3401 67.4085 58.4221 67.3884C58.4979 67.3706 58.565 67.3283 58.6123 67.2683C58.6597 67.2084 58.6843 67.1345 58.6821 67.0591V66.8556C58.6802 66.7611 58.6408 66.6709 58.5721 66.6038C58.1266 66.1604 57.5953 65.8064 57.0085 65.5621C56.4216 65.3178 55.7908 65.188 55.1521 65.18C53.8263 65.2327 52.5533 65.698 51.5221 66.507" fill="white"/>
<path d="M48.9817 50.2435C48.9372 50.2638 48.8979 50.2935 48.8668 50.3304C48.8356 50.3672 48.8133 50.4104 48.8016 50.4567V50.5923C48.7818 50.6437 48.776 50.6993 48.7847 50.7536C48.7935 50.8079 48.8165 50.859 48.8517 50.9022C48.9173 50.9779 49.0103 51.0264 49.1117 51.0378C49.1845 51.0367 49.2561 51.0201 49.3217 50.9894C49.4045 50.9772 49.4888 50.9772 49.5717 50.9894C50.2018 51.034 50.8093 51.2359 51.335 51.5754C51.8607 51.9149 52.2868 52.3804 52.5717 52.9266C52.5998 52.9777 52.6382 53.0229 52.6845 53.0595C52.7309 53.0961 52.7843 53.1234 52.8417 53.1397H52.9717C53.0493 53.1415 53.1257 53.1212 53.1917 53.0816C53.7757 52.7874 54.4234 52.6315 55.0817 52.6263C55.7743 52.5921 56.4564 52.802 57.0016 53.2172C57.0368 53.2776 57.0845 53.3304 57.1417 53.3722L57.2817 53.4303H57.3817C57.4341 53.4434 57.4892 53.4434 57.5417 53.4303C57.5847 53.4105 57.623 53.3822 57.654 53.3471C57.685 53.3121 57.7081 53.2711 57.7217 53.2269V53.101C57.7271 53.0689 57.7271 53.0362 57.7217 53.0041C57.7216 52.9427 57.7044 52.8824 57.6717 52.8298C57.4042 52.3231 56.9953 51.8992 56.4915 51.6064C55.9876 51.3136 55.4091 51.1636 54.8217 51.1734C54.3028 51.1796 53.7887 51.2713 53.3016 51.4447C52.9851 50.9934 52.5648 50.6193 52.0737 50.3521C51.5827 50.0848 51.0343 49.9317 50.4717 49.9045C49.9207 49.91 49.379 50.0428 48.8917 50.292" fill="white"/>
<path d="M40.0816 56.5013V56.6854C40.0811 56.7403 40.0957 56.7943 40.1238 56.8419C40.1519 56.8896 40.1925 56.9291 40.2416 56.9566C40.2875 56.9755 40.3368 56.9852 40.3866 56.9852C40.4365 56.9852 40.4858 56.9755 40.5317 56.9566H40.5916C40.6618 56.9257 40.7235 56.8793 40.7716 56.821C41.2625 56.5664 41.8155 56.4458 42.3716 56.4723C43.5951 56.4877 44.774 56.9198 45.7016 57.6927C45.7929 57.7634 45.9049 57.8041 46.0216 57.8089C46.1515 57.8021 46.2734 57.7465 46.3617 57.654C46.825 57.1457 47.3921 56.736 48.0273 56.4509C48.6624 56.1658 49.3517 56.0115 50.0516 55.9976C50.4283 55.9863 50.8032 56.0523 51.1516 56.1914C51.2166 56.2434 51.2913 56.2828 51.3716 56.3076H51.5216H51.6117C51.6861 56.2807 51.7495 56.2314 51.7928 56.1668C51.836 56.1023 51.8567 56.026 51.8517 55.9492V55.7943C51.8491 55.7473 51.8362 55.7013 51.8138 55.6595C51.7913 55.6178 51.7599 55.5811 51.7217 55.5521C50.981 54.9086 50.0264 54.5442 49.0317 54.5254C47.8618 54.5749 46.747 55.0205 45.8816 55.7846C45.0554 55.2332 44.0843 54.9208 43.0816 54.8838C42.5122 54.8869 41.95 55.0077 41.4326 55.2383C40.9152 55.4688 40.4546 55.8036 40.0816 56.2205C40.0142 56.2916 39.9783 56.3854 39.9817 56.482" fill="white"/>
<path d="M18.8117 59.7847C18.8117 58.6132 19.2922 57.4898 20.1473 56.6614C21.0025 55.8331 22.1623 55.3678 23.3717 55.3678H23.6617C23.7896 53.8315 24.5252 52.4024 25.7151 51.379C26.9049 50.3557 28.4569 49.8172 30.047 49.8759C31.637 49.9347 33.1422 50.5862 34.2481 51.6944C35.354 52.8026 35.9751 54.2817 35.9817 55.823C35.9809 56.7268 35.7654 57.6184 35.3517 58.4286C37.0123 58.7814 38.4795 59.7163 39.4713 61.0537C40.4631 62.391 40.9096 64.0363 40.7247 65.6731C40.5398 67.31 39.7367 68.8229 38.4698 69.9209C37.2029 71.0189 35.5617 71.6244 33.8617 71.6211H24.6617C23.7064 71.6258 22.7706 71.3582 21.9711 70.8517C21.1716 70.3452 20.5435 69.6221 20.1651 68.7724C19.7868 67.9227 19.6748 66.9839 19.8431 66.073C20.0114 65.1621 20.4526 64.3193 21.1117 63.6494C20.4073 63.2601 19.8227 62.6958 19.4184 62.0148C19.0142 61.3337 18.8047 60.5605 18.8117 59.775" fill="white"/>
<path d="M30.2721 44.4618V26.9105C30.0597 27.0121 29.839 27.0963 29.6121 27.1624C29.3021 27.2592 28.9521 27.3561 28.6121 27.4529C28.2721 27.5498 27.8921 27.6563 27.6121 27.7532L26.9121 27.976V25.1379C27.1721 25.0508 27.4921 24.9248 27.9121 24.7602C28.3321 24.5955 28.7021 24.4115 29.1321 24.1984C29.5511 23.9868 29.9584 23.754 30.3521 23.501C30.6877 23.2918 30.9936 23.0411 31.2621 22.7551H34.2621V44.4618H30.2721Z" fill="white"/>
<path d="M43.9119 44.7809C42.6892 44.8504 41.4723 44.5708 40.4119 43.977C39.5841 43.4294 38.9821 42.6165 38.7119 41.6814C38.3804 40.5541 38.222 39.3857 38.2419 38.2137H42.0819C42.0765 38.8624 42.1267 39.5103 42.2319 40.1509C42.2904 40.6299 42.4999 41.0798 42.8319 41.4392C43.0037 41.5969 43.2092 41.716 43.4339 41.788C43.6586 41.8599 43.8969 41.8831 44.1319 41.8557C44.3873 41.8795 44.6447 41.8363 44.8769 41.7307C45.1092 41.625 45.3078 41.4608 45.4519 41.2552C45.7444 40.7399 45.912 40.1668 45.9419 39.5795C46.0019 38.8627 46.0419 38.02 46.0419 37.0611C46.0477 36.3452 46.0009 35.6298 45.9019 34.9204C45.8439 34.4027 45.6474 33.9085 45.3319 33.4869C45.1661 33.3046 44.9586 33.1624 44.7259 33.0716C44.4933 32.9808 44.2419 32.9439 43.9919 32.9638C43.7512 32.9572 43.5116 32.9984 43.288 33.085C43.0644 33.1717 42.8615 33.3018 42.6919 33.4675C42.3118 33.8593 42.0431 34.3398 41.9119 34.8623H38.5419L38.7919 22.7256H48.9119V26.0963H42.0819L41.862 31.2203C42.1839 30.8724 42.5941 30.612 43.0519 30.4648C43.6108 30.2656 44.1973 30.1481 44.7919 30.1161C45.8103 30.0068 46.8355 30.2542 47.6819 30.8135C48.4716 31.4083 49.0487 32.2282 49.3319 33.1576C49.7088 34.3529 49.8877 35.5985 49.862 36.848C49.8687 37.9051 49.7884 38.9609 49.6219 40.0056C49.4923 40.8862 49.1974 41.7365 48.7519 42.5144C48.3297 43.2209 47.7043 43.7931 46.9519 44.161C46.0071 44.6079 44.9626 44.8209 43.9119 44.7809Z" fill="white"/>
</svg>
