<svg width="76" height="108" viewBox="0 0 76 108" fill="none" xmlns="http://www.w3.org/2000/svg">
<path d="M12.7919 93.6074C12.6019 93.4136 12.4119 93.2102 12.2319 93.0068C12.4119 93.2102 12.6019 93.4136 12.7919 93.6074Z" fill="#E2071F"/>
<path d="M12.7919 93.6074C12.6019 93.4136 12.4119 93.2102 12.2319 93.0068C12.4119 93.2102 12.6019 93.4136 12.7919 93.6074Z" fill="#E2071F"/>
<path d="M75.7721 62.9699V63.338C75.7675 66.9052 75.3244 70.4592 74.4521 73.9249C73.899 76.1468 73.1668 78.3232 72.2621 80.434C67.5291 91.4673 58.4747 100.234 47.0821 104.814C44.2227 105.96 41.2509 106.824 38.2121 107.391L37.9321 107.342L37.7221 107.294H37.5821L37.3321 107.236L37.0721 107.187H36.8921H36.7321L36.4521 107.119L35.9321 107.003L35.6521 106.935L34.8021 106.722L34.5821 106.664C33.8221 106.451 33.0721 106.228 32.3221 105.986L32.1321 105.928L31.7921 105.812L31.6221 105.754L31.2521 105.628L30.9821 105.531L30.8321 105.473H30.6821L30.4521 105.386L30.2321 105.308L29.5421 105.037L29.3521 104.959L29.0921 104.862L28.8321 104.746L28.5921 104.649H28.4921L28.3121 104.572L28.1021 104.485L27.9321 104.407L27.7821 104.339L27.5121 104.223L27.2821 104.117H27.2221L27.0121 104.02L26.8021 103.923L26.6121 103.826L26.4521 103.749L26.3121 103.681L26.1421 103.594L25.9421 103.497L25.8121 103.429L25.6921 103.371L25.4821 103.264L25.2621 103.158H25.2021L24.9821 103.041L24.7721 102.935L24.4521 102.761L24.2721 102.664L23.4821 102.228L23.2921 102.112L23.1521 102.024L22.9521 101.908L22.7521 101.792L22.6021 101.705C21.3688 100.962 20.1788 100.168 19.0321 99.322L18.8821 99.2058L18.7621 99.1186L18.5821 98.983L18.3721 98.828L18.2321 98.7118L18.0921 98.6052L17.8821 98.4406L17.6021 98.2275L17.4621 98.1016L17.3921 98.0531L17.2521 97.9369L17.0821 97.8013L16.8921 97.6463L16.7021 97.4913L16.5321 97.346L16.2721 97.1233L16.0721 96.9489L15.8721 96.7745L15.6821 96.6002L15.5021 96.4356L15.3021 96.2515L15.1321 96.0868L14.9621 95.9319L14.7921 95.7769L14.6121 95.5928L14.4121 95.4088L14.2221 95.2151L14.0421 95.0407L13.9721 94.9729L13.8321 94.8277L13.6421 94.6339L13.4121 94.4015L13.2521 94.2465L13.0721 94.0431C12.8821 93.8493 12.6921 93.6459 12.5121 93.4425L12.1221 93.0163C12.0121 92.8807 11.8921 92.7548 11.7821 92.6289C11.4221 92.2124 11.0721 91.7959 10.7821 91.3697C10.72 91.3029 10.6632 91.2317 10.6121 91.1566C10.5534 91.0964 10.4999 91.0316 10.4521 90.9629L10.0221 90.4108L9.89211 90.2461L9.76211 90.0718L9.65212 89.9168L9.34211 89.5003L9.25211 89.3744L9.12211 89.2L8.99212 89.0063L8.88212 88.8513L8.75211 88.6576L8.64211 88.5026L8.52212 88.3282V88.2701L8.41212 88.1055V88.0473L8.32212 87.9117L8.21212 87.7471C8.17913 87.6869 8.14239 87.6286 8.10212 87.5727C8.03212 87.4759 7.97212 87.3693 7.90212 87.2628L7.81211 87.1175L7.73211 86.9916L7.62211 86.8172L7.47212 86.5847C7.47212 86.5072 7.38212 86.4298 7.33212 86.3523L7.21212 86.1585V86.1004L7.10212 85.9067L6.97212 85.6839L6.83212 85.4418C6.83212 85.3643 6.74211 85.2868 6.70211 85.1996L6.59211 85.0156L6.53211 84.909C6.46211 84.7637 6.38211 84.6281 6.31211 84.4925C6.24211 84.3569 6.03212 83.9792 5.90212 83.7176L5.78211 83.4755L5.53211 82.9718C5.43211 82.7878 5.34211 82.594 5.26211 82.41L5.17211 82.2163L4.96212 81.7514C4.88212 81.577 4.81211 81.4026 4.73211 81.238C4.65211 81.0733 4.66211 81.0636 4.62211 80.9765C4.58211 80.8893 4.51211 80.7149 4.45211 80.5793C4.42978 80.5132 4.40305 80.4485 4.37211 80.3856C4.29211 80.1919 4.21211 79.9885 4.14211 79.7851C4.10946 79.723 4.08269 79.6581 4.06212 79.5913L3.99212 79.4073C3.99212 79.3201 3.92212 79.2233 3.88212 79.1361L3.79212 78.8746L3.73212 78.7099L3.08212 77.8672C3.08212 77.7897 3.08211 77.7122 3.00211 77.6251C2.92211 77.5379 3.00211 77.4701 2.92211 77.4023C2.84211 77.3345 2.92211 77.3054 2.92211 77.2473C2.92211 77.1892 2.92211 77.1214 2.85211 77.0536C2.85524 76.9987 2.85524 76.9438 2.85211 76.8889C2.85211 76.763 2.76212 76.6274 2.72212 76.4918L2.66212 76.3077C2.66212 76.3077 2.66212 76.2109 2.66212 76.1625L2.60211 75.9687C2.55211 75.8234 2.51212 75.6878 2.47212 75.5522C2.43212 75.4166 2.47212 75.4457 2.47212 75.3972C2.46765 75.3392 2.46765 75.2809 2.47212 75.2229L2.41212 75.0098C2.41212 74.8936 2.34212 74.7773 2.31212 74.6611L2.25211 74.4286L2.19212 74.2155C2.19212 74.0993 2.14212 73.9928 2.11212 73.8862C2.08212 73.7797 2.04212 73.6344 2.01212 73.5085C2.01781 73.4375 2.01781 73.3663 2.01212 73.2954V73.1598V73.0145C2.01212 72.9563 2.01212 72.8982 2.01212 72.8401C2.00746 72.808 2.00746 72.7754 2.01212 72.7433C2.01212 72.6658 2.01212 72.598 2.01212 72.5302C2.01212 72.4624 2.01212 72.3655 2.01212 72.288C2.01212 72.2105 2.01212 72.1427 2.01212 72.0652V71.978C2.01212 71.9006 2.01212 71.8327 2.01212 71.7553V71.6972C2.00822 71.6262 2.00822 71.555 2.01212 71.4841C2.00741 71.4487 2.00741 71.4129 2.01212 71.3775V71.2613C2.01212 71.1741 2.01212 71.0966 2.01212 71.0094C2.01212 70.9126 2.01212 70.8254 2.01212 70.7285V70.6801C2.01212 70.5832 2.01212 70.4767 2.01212 70.3701L1.95212 70.0021C1.95212 69.9149 1.95212 69.818 1.95212 69.7212C1.94728 69.6341 1.94728 69.5468 1.95212 69.4597C1.95212 69.4597 1.95212 69.3918 1.95212 69.3531V69.14V69.0625C1.95212 68.9657 1.95212 68.8688 1.95212 68.7623C1.95212 68.6557 1.95212 68.5491 1.95212 68.4329C1.95212 68.3264 1.95212 68.2101 1.95212 68.1036V67.813C1.95662 67.7776 1.95662 67.7418 1.95212 67.7065C1.95212 67.629 1.95212 67.5418 1.95212 67.4546C1.95212 67.3577 1.95212 67.2609 1.95212 67.164V66.8444V66.5054C1.95212 66.3988 1.95212 66.2923 1.95212 66.1857V66.1373C1.95212 66.0404 1.95212 65.9533 1.95212 65.8564V65.7983C1.95212 65.7014 1.95212 65.6143 1.95212 65.5174C1.95212 65.4108 1.95212 65.3043 1.95212 65.1977C1.95212 65.0912 1.95212 64.9943 1.95212 64.8975V64.8394C1.95212 64.6166 1.95212 64.3938 1.95212 64.171C1.95212 63.9482 1.95212 63.9579 1.95212 63.8417V63.1637C1.99028 50.4157 5.48323 37.9008 12.0817 26.8706C18.6801 15.8405 28.1527 6.68173 39.5521 0.310303C50.665 6.83241 59.843 16.033 66.1909 27.0147C72.5388 37.9964 75.8399 50.3842 75.7721 62.9699Z" fill="#E2071F"/>
<path d="M60.3821 61.7008C60.7655 61.6913 61.1375 61.5725 61.4515 61.3592C61.7655 61.146 62.0077 60.8478 62.1476 60.5019C62.2876 60.156 62.3191 59.7779 62.2383 59.4147C62.1575 59.0516 61.968 58.7196 61.6934 58.4603C61.4188 58.2009 61.0714 58.0258 60.6945 57.9567C60.3177 57.8877 59.9282 57.9278 59.5748 58.0721C59.2214 58.2164 58.9197 58.4584 58.7076 58.7679C58.4954 59.0773 58.3822 59.4405 58.3821 59.812C58.3806 60.0646 58.4317 60.3148 58.5324 60.5478C58.633 60.7808 58.7811 60.9917 58.9678 61.168C59.1544 61.3443 59.3759 61.4824 59.6189 61.5739C59.8619 61.6655 60.1215 61.7086 60.3821 61.7008Z" fill="white"/>
<path d="M62.6522 62.4272H58.0822C57.4384 62.485 56.84 62.7731 56.4037 63.2351C55.9674 63.6972 55.7244 64.3001 55.7222 64.9263V70.118C55.7435 70.2975 55.8323 70.4631 55.9715 70.5833C56.1107 70.7035 56.2907 70.7699 56.4772 70.7699C56.6637 70.7699 56.8436 70.7035 56.9829 70.5833C57.1221 70.4631 57.2108 70.2975 57.2322 70.118V65.6624C57.2322 65.4977 57.2322 65.2653 57.6022 65.2653C57.9722 65.2653 57.8622 65.4977 57.8722 65.6334V79.0777C57.8722 79.3552 57.986 79.6212 58.1885 79.8174C58.391 80.0136 58.6657 80.1238 58.9522 80.1238C59.2386 80.1238 59.5133 80.0136 59.7159 79.8174C59.9184 79.6212 60.0322 79.3552 60.0322 79.0777V71.3288C60.0307 71.2882 60.038 71.2477 60.0537 71.2099C60.0694 71.1722 60.0931 71.1381 60.1232 71.1098C60.1534 71.0815 60.1894 71.0596 60.2288 71.0456C60.2682 71.0316 60.3103 71.0258 60.3522 71.0285C60.3933 71.0272 60.4342 71.034 60.4724 71.0486C60.5107 71.0633 60.5454 71.0853 60.5745 71.1135C60.6035 71.1416 60.6263 71.1753 60.6414 71.2123C60.6565 71.2494 60.6636 71.289 60.6622 71.3288V79.0777C60.6622 79.3552 60.776 79.6212 60.9785 79.8174C61.181 80.0136 61.4557 80.1238 61.7422 80.1238C62.0286 80.1238 62.3033 80.0136 62.5058 79.8174C62.7084 79.6212 62.8222 79.3552 62.8222 79.0777V65.6334C62.8222 65.4977 62.8822 65.2653 63.1022 65.2653C63.3222 65.2653 63.4622 65.4977 63.4622 65.6624V70.118C63.4835 70.2975 63.5723 70.4631 63.7115 70.5833C63.8507 70.7035 64.0307 70.7699 64.2172 70.7699C64.4037 70.7699 64.5837 70.7035 64.7229 70.5833C64.8621 70.4631 64.9508 70.2975 64.9722 70.118V64.8972C64.9658 64.2815 64.7259 63.6895 64.2981 63.234C63.8702 62.7786 63.2844 62.4914 62.6522 62.4272Z" fill="white"/>
<path d="M45.0822 62.5921C45.449 62.5941 45.808 62.4904 46.1138 62.2942C46.4195 62.098 46.6582 61.8183 46.7995 61.4904C46.9407 61.1626 46.9782 60.8015 46.9071 60.453C46.8361 60.1045 46.6597 59.7843 46.4003 59.5331C46.141 59.282 45.8104 59.1111 45.4506 59.0423C45.0909 58.9734 44.7181 59.0097 44.3796 59.1466C44.0412 59.2834 43.7523 59.5146 43.5498 59.8107C43.3473 60.1069 43.2402 60.4547 43.2422 60.8099C43.2422 61.2826 43.4361 61.7359 43.7811 62.0701C44.1262 62.4044 44.5942 62.5921 45.0822 62.5921Z" fill="white"/>
<path d="M47.222 65.8658C47.462 65.798 47.532 66.1079 47.532 66.1079L48.762 70.1374C48.762 70.1374 49.002 70.9994 49.762 70.7766C50.522 70.5539 50.262 69.6724 50.262 69.6724L48.732 64.8294C48.732 64.8294 48.182 63.4346 46.972 63.4346H43.082C41.872 63.4346 41.322 64.8294 41.322 64.8294L39.792 69.6724C39.792 69.6724 39.522 70.5539 40.292 70.7766C41.062 70.9994 41.292 70.1374 41.292 70.1374L42.522 66.1079C42.522 66.1079 42.592 65.798 42.832 65.8658C43.072 65.9336 42.982 66.2629 42.982 66.2629L40.832 73.8084H42.832V79.2133C42.7885 79.3576 42.7803 79.5098 42.8081 79.6578C42.8359 79.8057 42.8988 79.9454 42.992 80.0657C43.0851 80.186 43.2059 80.2836 43.3448 80.3508C43.4836 80.4181 43.6367 80.4531 43.792 80.4531C43.9472 80.4531 44.1003 80.4181 44.2392 80.3508C44.378 80.2836 44.4988 80.186 44.592 80.0657C44.6851 79.9454 44.7481 79.8057 44.7758 79.6578C44.8036 79.5098 44.7954 79.3576 44.752 79.2133V73.8084H45.292V79.2133C45.2485 79.3576 45.2403 79.5098 45.2681 79.6578C45.2959 79.8057 45.3588 79.9454 45.452 80.0657C45.5451 80.186 45.6659 80.2836 45.8048 80.3508C45.9436 80.4181 46.0967 80.4531 46.252 80.4531C46.4072 80.4531 46.5603 80.4181 46.6992 80.3508C46.838 80.2836 46.9588 80.186 47.052 80.0657C47.1451 79.9454 47.2081 79.8057 47.2358 79.6578C47.2636 79.5098 47.2554 79.3576 47.212 79.2133V73.8084H49.212L47.082 66.2435C47.082 66.2435 46.982 65.9336 47.222 65.8658Z" fill="white"/>
<path d="M34.0021 62.5921C34.3689 62.5941 34.7279 62.4904 35.0337 62.2942C35.3394 62.098 35.5781 61.8183 35.7194 61.4904C35.8606 61.1626 35.8981 60.8015 35.827 60.453C35.756 60.1045 35.5796 59.7843 35.3202 59.5331C35.0609 59.282 34.7304 59.1111 34.3706 59.0423C34.0108 58.9734 33.638 59.0097 33.2995 59.1466C32.9611 59.2834 32.6723 59.5146 32.4697 59.8107C32.2672 60.1069 32.1602 60.4547 32.1621 60.8099C32.1621 61.0439 32.2097 61.2757 32.3022 61.4919C32.3947 61.7082 32.5302 61.9046 32.7011 62.0701C32.8719 62.2356 33.0748 62.3669 33.298 62.4565C33.5212 62.546 33.7605 62.5921 34.0021 62.5921Z" fill="white"/>
<path d="M37.7122 64.849C37.7122 64.849 37.1722 63.4542 35.9522 63.4542H32.0822C30.8722 63.4542 30.3222 64.849 30.3222 64.849L28.7922 69.6921C28.7847 69.7888 28.7847 69.886 28.7922 69.9827C28.7418 69.9108 28.6739 69.8519 28.5946 69.8112C28.5153 69.7705 28.4269 69.7492 28.3372 69.7492C28.2474 69.7492 28.1591 69.7705 28.0797 69.8112C28.0004 69.8519 27.9326 69.9108 27.8822 69.9827C27.8822 69.9827 27.1222 71.2613 26.8822 71.484C26.8241 71.5507 26.7523 71.6049 26.6714 71.6433C26.5904 71.6816 26.5022 71.7033 26.4122 71.7068H24.4822C24.3922 71.7033 24.3039 71.6816 24.223 71.6433C24.1421 71.6049 24.0703 71.5507 24.0122 71.484C23.7722 71.2613 23.0122 70.0214 23.0122 69.9827C22.9602 69.9046 22.8893 69.8399 22.8056 69.7943C22.722 69.7488 22.6281 69.7236 22.5322 69.7212C22.4437 69.7234 22.3569 69.7456 22.2788 69.7859C22.2007 69.8263 22.1334 69.8837 22.0822 69.9536V64.8975C22.0825 64.2722 21.8417 63.6693 21.407 63.207C20.9722 62.7448 20.375 62.4564 19.7322 62.3984H15.1922C14.5485 62.4562 13.9501 62.7443 13.5137 63.2063C13.0774 63.6684 12.8344 64.2713 12.8322 64.8975V70.1183C12.8337 70.2294 12.8616 70.3387 12.9136 70.4378C12.9656 70.5369 13.0404 70.6231 13.1322 70.6898C13.1113 70.7267 13.0945 70.7657 13.0822 70.806L11.3622 79.6688C11.3521 79.7204 11.3526 79.7733 11.3638 79.8247C11.3749 79.876 11.3964 79.9247 11.4271 79.9679C11.4578 80.0112 11.497 80.0481 11.5425 80.0765C11.588 80.105 11.6389 80.1244 11.6922 80.1338H11.7722C11.8681 80.1329 11.9607 80.0994 12.0337 80.0392C12.1068 79.9791 12.1558 79.896 12.1722 79.8044L13.9022 70.9416C13.9175 70.8877 13.9175 70.8308 13.9022 70.7769C14.0364 70.7202 14.1504 70.6267 14.2304 70.508C14.3104 70.3892 14.3527 70.2504 14.3522 70.1086V65.6627C14.3522 65.498 14.4022 65.2655 14.7222 65.2655C15.0422 65.2655 14.9822 65.498 14.9922 65.6336V79.078C15.0181 79.3393 15.1436 79.5819 15.3442 79.7584C15.5448 79.9349 15.8061 80.0327 16.0772 80.0327C16.3482 80.0327 16.6095 79.9349 16.8101 79.7584C17.0107 79.5819 17.1363 79.3393 17.1622 79.078V71.3291C17.1592 71.2889 17.1652 71.2486 17.1797 71.2108C17.1942 71.1731 17.217 71.1388 17.2464 71.1103C17.2758 71.0819 17.3112 71.0598 17.3501 71.0458C17.3891 71.0317 17.4307 71.0259 17.4722 71.0288C17.5137 71.0259 17.5553 71.0317 17.5942 71.0458C17.6332 71.0598 17.6686 71.0819 17.698 71.1103C17.7274 71.1388 17.7501 71.1731 17.7647 71.2108C17.7792 71.2486 17.7852 71.2889 17.7822 71.3291V79.078C17.7822 79.3554 17.896 79.6215 18.0985 79.8177C18.3011 80.0139 18.5758 80.1241 18.8622 80.1241C19.1486 80.1241 19.4233 80.0139 19.6259 79.8177C19.8284 79.6215 19.9422 79.3554 19.9422 79.078V65.6336C19.9422 65.498 20.0022 65.2655 20.2222 65.2655C20.4422 65.2655 20.5822 65.498 20.5822 65.6627V70.1183C20.5822 70.2145 20.6019 70.3098 20.6402 70.3985C20.6785 70.4873 20.7347 70.5678 20.8054 70.6354C20.8761 70.703 20.9599 70.7563 21.0521 70.7923C21.1442 70.8282 21.2429 70.846 21.3422 70.8448C21.4833 70.8448 21.6217 70.8068 21.7419 70.7349C21.862 70.6631 21.959 70.5602 22.0222 70.4379V70.5057L23.5622 73.2082C23.6191 73.3203 23.653 73.442 23.6622 73.5666V74.0993L22.8422 77.0051H23.6622V79.3879C23.6499 79.491 23.6603 79.5955 23.6926 79.6944C23.725 79.7934 23.7785 79.8846 23.8498 79.9621C23.9211 80.0395 24.0085 80.1015 24.1063 80.144C24.2041 80.1864 24.31 80.2084 24.4172 80.2084C24.5243 80.2084 24.6303 80.1864 24.728 80.144C24.8258 80.1015 24.9132 80.0395 24.9845 79.9621C25.0558 79.8846 25.1094 79.7934 25.1417 79.6944C25.1741 79.5955 25.1845 79.491 25.1722 79.3879V77.0051H25.6322V79.3879C25.6309 79.4841 25.6493 79.5796 25.6864 79.6689C25.7235 79.7582 25.7785 79.8394 25.8483 79.9079C25.9181 79.9764 26.0012 80.0308 26.0929 80.0679C26.1845 80.105 26.2829 80.1241 26.3822 80.1241C26.5838 80.1241 26.7771 80.0465 26.9196 79.9085C27.0621 79.7704 27.1422 79.5832 27.1422 79.3879V77.0051H27.9522L27.1422 74.0993V73.5859C27.15 73.4622 27.1805 73.3409 27.2322 73.2275L28.6622 70.7285C28.6622 70.7285 28.7522 70.5542 28.8022 70.4186C28.8484 70.5053 28.9135 70.5814 28.9928 70.6416C29.0722 70.7018 29.1641 70.7447 29.2622 70.7673C30.0322 70.99 30.2622 70.128 30.2622 70.128L31.5022 66.0985C31.5022 66.0985 31.5622 65.7886 31.8022 65.8564C32.0422 65.9242 31.9522 66.2535 31.9522 66.2535L29.8122 73.799H31.8122V79.2039C31.8728 79.4051 31.9991 79.5818 32.1722 79.7076C32.3453 79.8333 32.5558 79.9013 32.7722 79.9013C32.9886 79.9013 33.1991 79.8333 33.3722 79.7076C33.5453 79.5818 33.6716 79.4051 33.7322 79.2039V73.799H34.2822V79.2039C34.2357 79.3489 34.225 79.5024 34.2511 79.652C34.2771 79.8017 34.3391 79.9434 34.432 80.0656C34.5249 80.1878 34.6462 80.2872 34.7861 80.3557C34.926 80.4241 35.0805 80.4598 35.2372 80.4598C35.3939 80.4598 35.5484 80.4241 35.6883 80.3557C35.8281 80.2872 35.9494 80.1878 36.0424 80.0656C36.1353 79.9434 36.1973 79.8017 36.2233 79.652C36.2493 79.5024 36.2387 79.3489 36.1922 79.2039V73.799H38.1922L36.0822 66.2438C36.0822 66.2438 35.9822 65.9145 36.2222 65.8467C36.4622 65.7789 36.5322 66.0889 36.5322 66.0889L37.7722 70.1183C37.7722 70.1183 38.0022 70.9804 38.7722 70.7576C39.5422 70.5348 39.2722 69.6534 39.2722 69.6534L37.7122 64.849Z" fill="white"/>
<path d="M53.082 70.7865C53.3875 70.7884 53.6866 70.7023 53.9413 70.5392C54.1961 70.376 54.3951 70.1431 54.5129 69.8702C54.6307 69.5972 54.662 69.2965 54.6029 69.0062C54.5438 68.716 54.3969 68.4493 54.1809 68.2401C53.965 68.0309 53.6897 67.8887 53.39 67.8314C53.0903 67.7742 52.7799 67.8045 52.4981 67.9186C52.2163 68.0327 51.9759 68.2254 51.8074 68.4722C51.639 68.719 51.5501 69.0087 51.552 69.3045C51.5547 69.6968 51.7167 70.0723 52.0031 70.3497C52.2894 70.627 52.6771 70.784 53.082 70.7865Z" fill="white"/>
<path d="M56.6921 75.0096C56.6921 74.9515 55.6921 72.6752 55.6021 72.3556C55.2521 71.387 54.6021 71.387 54.0221 71.387H53.0221C53.0221 71.387 52.6321 71.387 51.8321 71.387C51.0321 71.387 50.7821 71.8131 49.9021 74.0022C49.7821 74.3219 49.3521 75.3486 49.3421 75.4067C49.2747 75.5288 49.2601 75.6717 49.3013 75.8043C49.3425 75.9368 49.4363 76.0481 49.5621 76.1138C49.6796 76.1658 49.813 76.1727 49.9355 76.1332C50.058 76.0936 50.1604 76.0106 50.2221 75.9007L51.0521 73.3339C51.0521 73.3339 51.2021 73.1595 51.2021 73.3339V79.3974C51.2239 79.5843 51.316 79.7568 51.4608 79.8821C51.6056 80.0074 51.793 80.0767 51.9871 80.0767C52.1813 80.0767 52.3686 80.0074 52.5134 79.8821C52.6582 79.7568 52.7503 79.5843 52.7721 79.3974V76.9952C52.7721 76.9952 52.7721 76.6562 53.0121 76.6562C53.2521 76.6562 53.2521 76.9952 53.2521 76.9952V79.3877C53.2739 79.5746 53.366 79.7471 53.5108 79.8724C53.6556 79.9977 53.843 80.067 54.0371 80.067C54.2313 80.067 54.4186 79.9977 54.5634 79.8724C54.7082 79.7471 54.8003 79.5746 54.8221 79.3877V73.3242C54.8221 73.1498 54.9221 73.2758 54.9221 73.2758L55.5721 75.0386C55.6689 75.3236 55.7927 75.5992 55.9421 75.862C56.0591 75.9051 56.1873 75.9111 56.3081 75.8791C56.4288 75.847 56.5359 75.7786 56.6139 75.6837C56.6918 75.5887 56.7366 75.4723 56.7416 75.3511C56.7467 75.2299 56.7119 75.1103 56.6421 75.0096H56.6921Z" fill="white"/>
<path d="M17.4622 61.7009C17.8479 61.7009 18.2249 61.5902 18.5456 61.3826C18.8663 61.1751 19.1162 60.8801 19.2638 60.5349C19.4114 60.1898 19.45 59.81 19.3748 59.4436C19.2995 59.0773 19.1138 58.7407 18.8411 58.4766C18.5684 58.2124 18.2209 58.0325 17.8427 57.9596C17.4644 57.8868 17.0723 57.9242 16.716 58.0671C16.3597 58.2101 16.0551 58.4522 15.8409 58.7628C15.6266 59.0734 15.5122 59.4386 15.5122 59.8121C15.5109 60.0605 15.5604 60.3067 15.658 60.5365C15.7555 60.7662 15.8991 60.9749 16.0804 61.1506C16.2618 61.3262 16.4773 61.4653 16.7144 61.5598C16.9516 61.6542 17.2058 61.7022 17.4622 61.7009Z" fill="white"/>
<path d="M25.4121 70.7865C25.7175 70.7884 26.0166 70.7023 26.2714 70.5392C26.5262 70.376 26.7251 70.1431 26.8429 69.8702C26.9607 69.5972 26.9921 69.2965 26.933 69.0062C26.8739 68.716 26.727 68.4493 26.511 68.2401C26.295 68.0309 26.0197 67.8887 25.7201 67.8314C25.4204 67.7742 25.1099 67.8045 24.8281 67.9186C24.5463 68.0327 24.3059 68.2254 24.1375 68.4722C23.969 68.719 23.8801 69.0087 23.8821 69.3045C23.8821 69.6976 24.0433 70.0745 24.3302 70.3525C24.6172 70.6304 25.0063 70.7865 25.4121 70.7865Z" fill="white"/>
<path d="M36.2321 39.5484V21.9972C36.0197 22.0987 35.7989 22.183 35.5721 22.249C35.2621 22.3459 34.9121 22.4524 34.5721 22.5493L33.5721 22.8399L32.8821 23.0723V20.2343L33.8821 19.8565C34.2721 19.6919 34.6721 19.5078 35.1021 19.2947C35.5211 19.0831 35.9283 18.8504 36.3221 18.5973C36.6073 18.3666 36.8625 18.1031 37.0821 17.8127H40.0821V39.5194L36.2321 39.5484Z" fill="white"/>
</svg>
