<svg width="76" height="108" viewBox="0 0 76 108" fill="none" xmlns="http://www.w3.org/2000/svg">
<path d="M12.8818 93.6074C12.6918 93.4136 12.5018 93.2102 12.3218 93.0068C12.5018 93.2102 12.6918 93.4136 12.8818 93.6074Z" fill="#D6A102"/>
<path d="M75.8617 62.9706V63.3387C75.8555 66.9052 75.4158 70.4587 74.5518 73.9256C72.8113 80.8035 69.4228 87.1877 64.6608 92.5609C59.8987 97.9341 53.897 102.145 47.1417 104.853C44.2828 106.001 41.3109 106.864 38.2718 107.43L37.9918 107.382L37.7818 107.333H37.6518L37.3917 107.275L37.1317 107.227H36.9517H36.7917L36.5117 107.159L35.9918 107.043L35.7118 106.975L34.8617 106.762L34.6417 106.704C33.8817 106.49 33.1317 106.268 32.3817 106.026L32.1917 105.967L31.8517 105.851L31.6818 105.793L31.3118 105.667L31.0517 105.57L30.8917 105.512H30.7418L30.5117 105.425L30.2917 105.347L29.6117 105.076L29.4117 104.999L29.1617 104.902L28.8917 104.786L28.6518 104.689H28.5517L28.3817 104.611L28.1617 104.524L27.9918 104.447L27.8418 104.379L27.5817 104.263L27.3418 104.156H27.2818L27.0817 104.059L26.8718 103.962L26.6717 103.865L26.5018 103.788L26.3718 103.72L26.1917 103.633L25.9918 103.536L25.8617 103.468L25.7418 103.41L25.5417 103.304L25.3217 103.197H25.2518L25.0318 103.081L24.8217 102.974L24.5018 102.8L24.3217 102.703L23.5417 102.267L23.3517 102.151L23.2017 102.064L23.0018 101.948L22.8017 101.831L22.6518 101.744C21.4251 101.002 20.2351 100.207 19.0817 99.3614L18.9318 99.2452L18.8217 99.158L18.6417 99.0224L18.4217 98.8674L18.2818 98.7512C18.2341 98.721 18.1904 98.6852 18.1518 98.6447C18.0742 98.5952 18.0007 98.5402 17.9318 98.48L17.6617 98.2669L17.5117 98.141L17.4417 98.0926L17.3017 97.9763L17.1317 97.8407L16.9417 97.6857L16.7518 97.5307L16.5817 97.3855L16.3217 97.1627L16.1317 96.9883L15.9217 96.814L15.7317 96.6396L15.5517 96.475L15.3517 96.2909L15.1717 96.1263L15.0018 95.9713L14.8418 95.8163L14.6518 95.6323L14.4517 95.4482L14.2617 95.2545L14.0817 95.0802L14.0117 95.0124L13.8718 94.8671L13.6818 94.6733L13.4517 94.4409L13.3017 94.2859L13.1117 94.0825C12.9217 93.8888 12.7317 93.6854 12.5517 93.4819L12.1617 93.0558C12.0517 92.9201 11.9317 92.7942 11.8217 92.6683C11.4617 92.2518 11.1117 91.8353 10.7717 91.4091C10.7096 91.3423 10.6528 91.2711 10.6017 91.196L10.4417 91.0023L10.0117 90.4502C9.97409 90.3913 9.93054 90.3362 9.88174 90.2855L9.75176 90.1112C9.72091 90.0559 9.68401 90.0039 9.64175 89.9562L9.34176 89.5397L9.24175 89.4138L9.11175 89.2394L8.98174 89.0457L8.87176 88.8907L8.74175 88.697L8.63174 88.542L8.51174 88.3677V88.3095L8.40175 88.1449V88.0868L8.31176 87.9512C8.27865 87.8941 8.2419 87.8391 8.20174 87.7865L8.08175 87.6121L7.88174 87.3022L7.79174 87.1569L7.71175 87.031L7.60174 86.8566C7.55174 86.7791 7.50175 86.7016 7.46175 86.6242C7.42175 86.5467 7.36174 86.4692 7.32174 86.3917L7.20174 86.198V86.1399C7.20174 86.072 7.13176 86.0042 7.09176 85.9461C7.05442 85.8687 7.01095 85.7943 6.96175 85.7234C6.96175 85.6459 6.87175 85.5684 6.83175 85.4812C6.77916 85.4038 6.73236 85.3229 6.69173 85.239C6.6525 85.1809 6.61904 85.1193 6.59176 85.055L6.52175 84.9485C6.45175 84.8032 6.37175 84.6676 6.30175 84.532L5.89174 83.7571L5.77175 83.5149L5.52175 83.0112L5.25176 82.4494L5.16173 82.2557L4.95174 81.7908C4.88174 81.6164 4.80176 81.4421 4.72176 81.2774C4.64176 81.1128 4.65175 81.1031 4.61175 81.0159C4.57175 80.9287 4.50174 80.7544 4.45174 80.6188C4.4208 80.5559 4.39409 80.4912 4.37176 80.425C4.28176 80.2313 4.21174 80.0279 4.13174 79.8245C4.09908 79.7624 4.07231 79.6976 4.05175 79.6308L3.98174 79.4467C3.98174 79.3596 3.91174 79.2627 3.88174 79.1755C3.85174 79.0884 3.81176 79.0012 3.78176 78.914L3.72176 78.7493C3.72176 78.6622 3.66176 78.575 3.62176 78.4878C3.58176 78.4006 3.57174 78.3328 3.54174 78.2457C3.51174 78.1585 3.54175 78.0907 3.46175 78.0229C3.38175 77.9551 3.46173 77.926 3.41173 77.8679L3.35174 77.6742L3.29174 77.5095C3.29174 77.3836 3.20173 77.248 3.16173 77.1124L3.10174 76.9283C3.10174 76.9283 3.10174 76.8315 3.10174 76.7831L3.04174 76.5893C3.04174 76.444 2.95173 76.3084 2.91173 76.1728C2.87173 76.0372 2.91173 76.0663 2.91173 76.0178C2.91173 75.9694 2.91175 75.9016 2.86175 75.8435L2.80175 75.6304C2.80175 75.5142 2.73174 75.3979 2.70174 75.2817L2.64174 75.0492L2.58175 74.8361C2.58175 74.7199 2.53176 74.6133 2.50176 74.5068L2.41173 74.129L2.35174 73.9159V73.7803V73.6351C2.35174 73.5769 2.35174 73.5188 2.35174 73.4607C2.35174 73.4026 2.35174 73.3929 2.35174 73.3638C2.35174 73.3348 2.35175 73.2186 2.30175 73.1507C2.25175 73.0829 2.30175 72.9861 2.30175 72.9086C2.30175 72.8311 2.30176 72.7633 2.25176 72.6858V72.5986C2.25176 72.5211 2.25174 72.4533 2.20174 72.3759V72.3177C2.19784 72.2468 2.19784 72.1756 2.20174 72.1046C2.19703 72.0693 2.19703 72.0335 2.20174 71.9981C2.19693 71.9595 2.19693 71.9205 2.20174 71.8819C2.19701 71.798 2.19701 71.7139 2.20174 71.63C2.20653 71.5364 2.20653 71.4427 2.20174 71.3491V71.3007L2.14174 70.9907L2.08175 70.6227C2.08175 70.5355 2.08175 70.4386 2.08175 70.3418C2.0769 70.2546 2.0769 70.1674 2.08175 70.0802C2.08175 70.0802 2.08175 70.0124 2.08175 69.9737V69.7606V69.6831V69.3828C2.08175 69.2763 2.08175 69.1697 2.08175 69.0535V68.7242V68.4336C2.07627 68.3983 2.07627 68.3624 2.08175 68.327V68.0752V67.7846V67.465V67.126C2.08175 67.0194 2.08175 66.9129 2.08175 66.8063V66.7579C2.08175 66.661 2.08175 66.5739 2.08175 66.477V66.4189C2.08175 66.322 2.08175 66.2348 2.08175 66.138C2.08175 66.0314 2.08175 65.9249 2.08175 65.8183C2.08175 65.7118 2.08175 65.6149 2.08175 65.5181V65.46C2.08175 65.2372 2.08175 65.0144 2.08175 64.7916V64.4429C2.08175 64.3364 2.08175 64.2201 2.08175 64.1136V63.7843C2.11991 51.0363 5.61287 38.5214 12.2113 27.4912C18.8097 16.4611 28.2823 7.30234 39.6818 0.930908C50.6957 7.40198 59.8076 16.5064 66.1432 27.3704C72.4788 38.2343 75.8254 50.4932 75.8617 62.9706Z" fill="#D6A102"/>
<path d="M12.8818 93.6074C12.6918 93.4136 12.5018 93.2102 12.3218 93.0068C12.5018 93.2102 12.6918 93.4136 12.8818 93.6074Z" fill="#D6A102"/>
<path d="M31.7919 87.9799V89.1132C31.797 89.2443 31.8537 89.3686 31.9504 89.4604C32.0471 89.5523 32.1765 89.6048 32.3119 89.6072H45.5619C45.7007 89.6047 45.833 89.5495 45.9302 89.4535C46.0274 89.3575 46.0819 89.2283 46.0819 89.0938V87.8637C53.5119 85.5003 59.0819 79.6692 60.3119 72.5596C60.3167 72.5372 60.3167 72.5142 60.3119 72.4918C60.3119 72.3547 60.2564 72.2231 60.1573 72.1253C60.0581 72.0275 59.9234 71.9713 59.7819 71.9688H17.7119C17.5687 71.9687 17.4313 72.0239 17.33 72.1219C17.2288 72.22 17.1719 72.3531 17.1719 72.4918V72.7243C18.4519 79.9017 24.1719 85.7715 31.7619 88.038" fill="white"/>
<path d="M46.0818 54.5143C45.9118 54.7564 41.8418 60.4228 46.1718 65.0141C48.1718 67.1159 47.9818 68.9757 47.4218 70.2252H50.1918C50.7618 68.3752 50.5318 66.0505 48.2718 63.6677C45.0818 60.2872 48.2718 55.7251 48.3618 55.6476C48.4577 55.5269 48.523 55.3861 48.5522 55.2364C48.5814 55.0868 48.5738 54.9326 48.53 54.7863C48.4861 54.6401 48.4073 54.5059 48.2999 54.3947C48.1925 54.2834 48.0595 54.1983 47.9118 54.1462C47.6096 53.9943 47.2625 53.948 46.9292 54.0151C46.5958 54.0821 46.2966 54.2584 46.0818 54.5143Z" fill="white"/>
<path d="M39.0819 70.2252H41.8519C42.4219 68.3751 42.1819 66.0505 39.9319 63.6677C36.7419 60.2872 39.9319 55.725 40.0219 55.6476C40.1176 55.5263 40.1825 55.3848 40.211 55.2346C40.2396 55.0845 40.2311 54.9299 40.1862 54.7835C40.1414 54.6371 40.0615 54.5031 39.953 54.3923C39.8445 54.2816 39.7104 54.1972 39.5619 54.1462C39.2612 53.995 38.9158 53.9491 38.5842 54.0161C38.2525 54.0832 37.955 54.2592 37.7419 54.5143C37.5619 54.7564 33.4919 60.4228 37.8319 65.0141C39.8319 67.1159 39.6419 68.9757 39.0819 70.2252Z" fill="white"/>
<path d="M29.322 54.5137C29.152 54.7559 25.082 60.4223 29.412 65.0135C31.412 67.1154 31.232 68.9751 30.662 70.2246H33.442C34.002 68.3746 33.772 66.0499 31.512 63.6671C28.322 60.2867 31.512 55.7245 31.602 55.647C31.698 55.5264 31.7632 55.3855 31.7925 55.2359C31.8217 55.0862 31.8141 54.932 31.7702 54.7857C31.7264 54.6395 31.6476 54.5053 31.5402 54.3941C31.4327 54.2829 31.2998 54.1978 31.152 54.1456C30.8494 53.9956 30.5029 53.9503 30.17 54.0172C29.8372 54.0842 29.5379 54.2594 29.322 54.5137Z" fill="white"/>
<path d="M31.8721 39.5484V36.8459L37.3721 28.6127C37.7821 28.0122 38.1621 27.431 38.5221 26.8789C38.874 26.3359 39.1719 25.7619 39.412 25.1645C39.6439 24.5435 39.759 23.8875 39.7521 23.2272C39.7907 22.6065 39.645 21.988 39.3321 21.445C39.1838 21.2346 38.981 21.0657 38.744 20.9552C38.5071 20.8447 38.2443 20.7965 37.9821 20.8154C37.7379 20.8017 37.4934 20.8358 37.2632 20.9157C37.033 20.9956 36.8217 21.1196 36.6421 21.2803C36.3024 21.6266 36.0732 22.0604 35.9821 22.5298C35.8577 23.0834 35.7973 23.6487 35.8021 24.2152V25.1838H31.9521V24.2152C31.927 23.0521 32.1307 21.8951 32.5521 20.8057C32.912 19.8642 33.5745 19.0595 34.442 18.5101C35.4868 17.9113 36.6895 17.6218 37.9021 17.6771C38.692 17.6205 39.4855 17.7248 40.2313 17.9834C40.977 18.242 41.6586 18.6491 42.2321 19.1784C43.2562 20.3389 43.776 21.8388 43.6821 23.3628C43.6956 24.1864 43.5602 25.006 43.2821 25.7844C43.0258 26.514 42.6906 27.2153 42.2821 27.8766C41.8621 28.5449 41.4021 29.2423 40.9021 29.9494L36.3621 36.5747H43.0821V39.6259L31.8721 39.5484Z" fill="white"/>
</svg>
