<svg width="77" height="108" viewBox="0 0 77 108" fill="none" xmlns="http://www.w3.org/2000/svg">
<path d="M13.082 93.6074C12.892 93.4136 12.702 93.2102 12.522 93.0068C12.692 93.2102 12.882 93.4136 13.082 93.6074Z" fill="#C11728"/>
<path d="M76.0817 62.9698V63.3378C76.0699 72.2331 73.335 80.9252 68.2228 88.3148C63.1107 95.7044 55.8509 101.46 47.3617 104.853C44.5033 106.002 41.5312 106.865 38.4917 107.429L38.2117 107.381L38.0017 107.332H37.8717L37.6117 107.274L37.3617 107.226H37.1817H37.0217L36.7417 107.158L36.2217 107.042L35.9417 106.974L35.0917 106.761L34.8717 106.703C34.1117 106.49 33.3617 106.267 32.6217 106.025L32.4217 105.967L32.0817 105.85L31.9117 105.792L31.5417 105.666L31.2817 105.569L31.1217 105.511H30.9717L30.7417 105.424L30.5217 105.347L29.8417 105.075L29.6417 104.998L29.3917 104.901L29.1217 104.785L28.8817 104.688H28.7817L28.6117 104.61L28.3917 104.523L28.2217 104.446L28.0717 104.378L27.8117 104.262L27.5717 104.155H27.5117L27.3117 104.058L27.1017 103.962L26.9017 103.865L26.7317 103.787L26.6017 103.719L26.4217 103.632L26.2217 103.535L26.0917 103.467L25.9717 103.409L25.7717 103.303L25.5517 103.196H25.4817L25.2617 103.08L25.0517 102.974L24.7317 102.799L24.5517 102.702L23.7717 102.266L23.5817 102.15L23.4317 102.063L23.2317 101.947L23.0317 101.831L22.8817 101.743C21.6484 101.001 20.4617 100.207 19.3217 99.3606L19.1717 99.2444L19.0517 99.1572L18.8717 99.0216L18.6617 98.8666L18.5117 98.7504C18.464 98.7202 18.4203 98.6844 18.3817 98.6438C18.2601 98.5136 18.159 98.3667 18.0817 98.2079L17.8117 97.9948L17.6617 97.8689L17.5917 97.8205L17.4517 97.7043L17.2817 97.5686L17.0917 97.4137L16.9017 97.2587L16.7317 97.1134L16.4817 96.8906L16.2817 96.7163L16.0717 96.5419L15.8817 96.3676L15.7017 96.2029C15.6417 96.1448 15.5717 96.0867 15.5117 96.0189L15.3317 95.8542L15.1617 95.6992L15.0017 95.5442C14.9334 95.4879 14.8699 95.4263 14.8117 95.3602L14.6117 95.1762L14.4217 94.9825L14.2417 94.8081L14.1717 94.7403L14.0317 94.595L13.8417 94.4013L13.6117 94.1688L13.4617 94.0138L13.2717 93.8104C13.0817 93.6167 12.8917 93.4133 12.7117 93.2099L12.3217 92.7837C12.2117 92.6481 12.1017 92.5222 11.9817 92.3962C11.6217 91.9797 11.2717 91.5633 10.9317 91.1371L10.7617 90.924L10.6117 90.7302L10.1717 90.1781L10.0517 90.0135L9.92173 89.8391L9.80168 89.6841L9.50169 89.2676C9.47155 89.2234 9.43815 89.1813 9.40171 89.1417L9.28172 88.9674L9.1417 88.7736L9.03172 88.6187L8.90171 88.4249L8.79173 88.27L8.67173 88.0956V88.0375L8.55168 87.8728V87.8147L8.46171 87.6791C8.4286 87.6221 8.39188 87.5671 8.35173 87.5144L8.23173 87.3401L8.04173 87.0301L7.94169 86.8848L7.86174 86.7589L7.75169 86.5846L7.61174 86.3521C7.61174 86.2746 7.51172 86.1971 7.47172 86.1196L7.35173 85.9259V85.8678C7.32109 85.8002 7.28423 85.7353 7.24168 85.6741C7.20434 85.5967 7.16094 85.5222 7.11174 85.4513C7.11174 85.3738 7.02173 85.2963 6.98173 85.2091C6.92915 85.1318 6.88235 85.0508 6.84172 84.967C6.80248 84.9088 6.76896 84.8472 6.74168 84.7829L6.67173 84.6764C6.60173 84.5311 6.5217 84.3955 6.4517 84.2599L6.04173 83.485L5.92173 83.2429L5.67173 82.7392L5.40171 82.1774L5.31169 81.9837C5.23169 81.8287 5.16172 81.6737 5.09172 81.5187C5.02172 81.3444 4.94168 81.17 4.87168 81.0054L4.75169 80.7438C4.75169 80.6082 4.64172 80.4823 4.59172 80.3467C4.56077 80.2839 4.53403 80.2191 4.5117 80.153L4.27171 79.5524C4.27171 79.4943 4.27169 79.4265 4.19169 79.3587L4.12168 79.1747C4.12168 79.0875 4.05171 78.9906 4.02171 78.9035C3.99171 78.8163 3.95173 78.7291 3.92173 78.6419L3.86174 78.4773L3.77171 78.2157L3.68168 77.9736C3.66109 77.8974 3.63438 77.8229 3.60173 77.7508C3.60473 77.6992 3.60473 77.6475 3.60173 77.5958L3.54173 77.4021L3.08171 76.8984C3.08171 76.7725 3.0017 76.6369 2.9517 76.5013L2.90171 76.3173C2.89744 76.2689 2.89744 76.2203 2.90171 76.172L2.84172 75.9782C2.84172 75.833 2.75171 75.6973 2.71171 75.5617C2.71626 75.5102 2.71626 75.4583 2.71171 75.4068C2.71171 75.3487 2.71171 75.2905 2.71171 75.2324L2.65171 75.0193C2.65171 74.9031 2.58168 74.7868 2.55168 74.6706L2.49168 74.4382L2.43168 74.2251C2.41089 74.114 2.38423 74.0041 2.35173 73.8957L2.2617 73.518C2.25811 73.447 2.25811 73.3759 2.2617 73.3049C2.25843 73.2597 2.25843 73.2144 2.2617 73.1693V73.024C2.26636 72.9659 2.26636 72.9077 2.2617 72.8496C2.2617 72.8496 2.2617 72.7818 2.2617 72.7528C2.2617 72.7237 2.26171 72.6075 2.21171 72.5397C2.16171 72.4719 2.21171 72.375 2.21171 72.2975C2.20694 72.2233 2.20694 72.1489 2.21171 72.0747V71.9875C2.21171 71.9101 2.21171 71.8423 2.21171 71.7648V71.7067C2.21171 71.6292 2.21171 71.5614 2.21171 71.4936C2.21171 71.4258 2.21171 71.4258 2.21171 71.387C2.20689 71.3484 2.20689 71.3094 2.21171 71.2708C2.21171 71.1836 2.21171 71.1061 2.21171 71.0189C2.19991 70.9246 2.18324 70.8308 2.16172 70.738V70.6896L2.10173 70.3797L2.04173 70.0116C2.04173 69.9244 2.04173 69.8276 2.04173 69.7307C2.04173 69.6435 2.04173 69.5563 2.04173 69.4692C2.04173 69.382 2.04173 69.4014 2.04173 69.3626C2.03724 69.2916 2.03724 69.2205 2.04173 69.1495V69.072C2.03622 68.972 2.03622 68.8718 2.04173 68.7718V68.4424V68.1131V67.8225C2.03625 67.7872 2.03625 67.7513 2.04173 67.716V67.4641V67.1736V66.8539C2.04173 66.7377 2.04173 66.6311 2.04173 66.5149V66.1952V66.1468C2.04668 66.0532 2.04668 65.9595 2.04173 65.8659V65.8078C2.04173 65.7109 2.04173 65.6238 2.04173 65.5269C2.04173 65.4203 2.04173 65.3138 2.04173 65.2073C2.04173 65.1007 2.04173 65.0038 2.04173 64.907V64.8489C2.04173 64.6261 2.04173 64.4033 2.04173 64.1805V63.8318C2.04173 63.7253 2.04173 63.609 2.04173 63.5025V63.1732C2.07989 50.4252 5.57282 37.9103 12.1712 26.8802C18.7697 15.85 28.2423 6.69125 39.6417 0.319824C50.7967 6.81195 60.0197 15.999 66.4075 26.9813C72.7953 37.9636 76.1288 50.3646 76.0817 62.9698Z" fill="#C11728"/>
<path d="M13.082 93.6074C12.892 93.4136 12.702 93.2102 12.522 93.0068C12.692 93.2102 12.882 93.4136 13.082 93.6074Z" fill="#C11728"/>
<path d="M33.2119 62.5536L17.3818 53.7004V82.3423L33.2119 86.9723V62.5536Z" fill="white"/>
<path d="M34.9517 62.6117V86.982L50.8817 82.3424V53.7004L34.9517 62.6117Z" fill="white"/>
<path d="M60.032 81.839H59.562L61.442 88.1737L63.312 81.839H62.842H63.312V56.3547H62.842H62.382H61.882H60.952H60.492H60.032H59.562V81.839H60.032Z" fill="white"/>
<path d="M54.282 54.9303L52.582 53.6323V83.1169L35.002 88.6283H34.1819H34.022H33.212L15.702 83.8918V53.6323L14.002 54.9303V85.0445L33.132 90.1684H34.022H34.1819H35.072L52.7219 84.7442L54.282 84.2986V54.9303Z" fill="white"/>
<path d="M63.312 52.9739C63.2774 52.5152 63.0649 52.0861 62.717 51.7729C62.3692 51.4597 61.9119 51.2856 61.437 51.2856C60.9621 51.2856 60.5049 51.4597 60.157 51.7729C59.8092 52.0861 59.5966 52.5152 59.562 52.9739V54.9111H63.312V52.9739Z" fill="white"/>
<path d="M37.482 39.5493V34.28H30.752V31.1223L36.592 17.8523H41.1819V31.3063H43.452V34.28H41.1819V39.5589L37.482 39.5493ZM33.9919 31.2967H37.482V21.9205L33.9919 31.2967Z" fill="white"/>
</svg>
