<svg width="77" height="108" viewBox="0 0 77 108" fill="none" xmlns="http://www.w3.org/2000/svg">
<path d="M76.0817 62.9704V63.3385C76.0722 66.9054 75.6291 70.4589 74.7617 73.9254C73.0319 80.8065 69.6485 87.1944 64.8871 92.5689C60.1256 97.9435 54.1208 102.153 47.3617 104.853C44.4994 106.001 41.5241 106.864 38.4817 107.43L38.2017 107.381L38.0017 107.333H37.8617L37.6017 107.275L37.3517 107.226H37.1817H37.0117L36.7317 107.159L36.2217 107.042L35.9317 106.975L35.0917 106.761L34.8717 106.703C34.1117 106.49 33.3517 106.267 32.6117 106.025L32.4117 105.967L32.0717 105.851L31.9117 105.793L31.5417 105.667L31.2717 105.57L31.1217 105.512H30.9617L30.7317 105.425L30.5217 105.347L29.8317 105.076L29.6317 104.999L29.3717 104.902L29.1117 104.785L28.8717 104.689H28.7717L28.5917 104.611L28.3817 104.524L28.2117 104.446L28.0517 104.379L27.7917 104.262L27.5617 104.156H27.5017L27.2917 104.059L27.0817 103.962L26.8917 103.865L26.7317 103.788L26.5917 103.72L26.4217 103.633L26.2117 103.536L26.0817 103.468L25.9617 103.41L25.7617 103.304L25.5417 103.197H25.4817L25.2617 103.081C25.1855 103.051 25.112 103.015 25.0417 102.974L24.7317 102.8L24.5517 102.703L23.7617 102.267L23.5717 102.151L23.4217 102.064L23.2217 101.947L23.0317 101.831L22.8717 101.744C21.6417 100.998 20.4617 100.204 19.3117 99.3612L19.1617 99.245L19.0417 99.1578L18.8617 99.0222L18.6517 98.8672L18.5017 98.751L18.3717 98.6445L18.0817 98.2086L17.8117 97.9955L17.6617 97.8696L17.5917 97.8211L17.4517 97.7049L17.2917 97.5693L17.1017 97.4143L16.9117 97.2593L16.7517 97.114L16.4917 96.8913L16.2917 96.7169L16.0817 96.5426L15.8917 96.3682L15.7117 96.2036C15.6403 96.1472 15.5734 96.0857 15.5117 96.0195L15.3317 95.8549L15.1617 95.6999L14.9917 95.5449L14.8017 95.3609L14.6117 95.1768L14.4117 94.9831L14.2417 94.8087L14.1617 94.741L14.0217 94.5956L13.8317 94.4019L13.6017 94.1695L13.4517 94.0145L13.2617 93.8111C13.0717 93.6173 12.8917 93.4139 12.7017 93.2105L12.3217 92.7843L11.9817 92.3969C11.6217 91.9804 11.2717 91.5639 10.9217 91.1377L10.7517 90.9246L10.6017 90.7309L10.1717 90.1788L10.0417 90.0141L9.91174 89.8398L9.79174 89.6848L9.49169 89.2683L9.40173 89.1424L9.27172 88.968L9.14172 88.7743C9.09945 88.7266 9.06259 88.6746 9.03173 88.6193C9.03173 88.5612 8.94172 88.4934 8.89172 88.4256L8.79174 88.2706L8.67174 88.0963V88.0381C8.62942 87.987 8.59252 87.9318 8.5617 87.8735V87.8154L8.47173 87.6798C8.43158 87.6271 8.39486 87.5721 8.36175 87.5151L8.2517 87.3407C8.17925 87.241 8.11247 87.1376 8.05169 87.0308L7.96172 86.8855L7.8717 86.7596L7.77172 86.5852L7.6217 86.3527L7.48174 86.1203C7.43919 86.059 7.40233 85.9942 7.3717 85.9266V85.8684L7.2517 85.6747L7.1217 85.4519L6.98174 85.2098L6.84173 84.9676C6.84173 84.9095 6.77169 84.8514 6.74169 84.7836L6.68169 84.677L6.45171 84.2606L6.05169 83.4857L5.92174 83.2435C5.84174 83.0692 5.75174 82.9045 5.67174 82.7398L5.40173 82.178L5.3117 81.9843C5.2417 81.8293 5.17173 81.6744 5.09173 81.5194L4.86175 81.006C4.86175 80.9188 4.7817 80.8317 4.7517 80.7445L4.58172 80.3473L4.5017 80.1536L4.26171 79.5531L4.18169 79.3594L4.11175 79.1753L4.01171 78.9041L3.91173 78.6426L3.85174 78.4779L3.76171 78.2164C3.72909 78.1376 3.70234 78.0567 3.68169 77.9742C3.68169 77.8968 3.62174 77.8193 3.60174 77.7515C3.59603 77.7 3.59603 77.648 3.60174 77.5965C3.57245 77.5341 3.54902 77.4692 3.53173 77.4028C3.52598 77.348 3.52598 77.2929 3.53173 77.2381C3.53173 77.1122 3.44173 76.9766 3.40173 76.841L3.34173 76.6569C3.34173 76.6569 3.34173 76.5601 3.34173 76.5116L3.28173 76.3179L3.16173 75.9014C3.16173 75.853 3.16175 75.7949 3.11175 75.7464C3.11622 75.6884 3.11622 75.6301 3.11175 75.5721L3.05169 75.359L2.96172 75.0103C2.96172 74.9328 2.91172 74.8553 2.89172 74.7778C2.87172 74.7003 2.89172 74.6325 2.89172 74.5647L2.80169 74.2354L2.71172 73.8576C2.71172 73.7802 2.71172 73.7123 2.71172 73.6445V73.5089V73.3636C2.70706 73.3056 2.70706 73.2473 2.71172 73.1893V73.0924C2.71172 73.0149 2.71172 72.9471 2.71172 72.8793L2.65173 72.6372C2.65173 72.5597 2.65173 72.4919 2.65173 72.4144V72.3272C2.64695 72.253 2.64695 72.1786 2.65173 72.1044V72.0463C2.65737 71.9754 2.65737 71.9042 2.65173 71.8332C2.65643 71.7979 2.65643 71.7621 2.65173 71.7267C2.65173 71.7267 2.65173 71.6492 2.65173 71.6104C2.65173 71.5717 2.65173 71.4458 2.65173 71.3586C2.64694 71.265 2.64694 71.1713 2.65173 71.0777V71.0293C2.62942 70.9269 2.61274 70.8234 2.60174 70.7193L2.54174 70.3513C2.53622 70.2577 2.53622 70.1639 2.54174 70.0704C2.54658 69.9832 2.54658 69.8959 2.54174 69.8088C2.54174 69.8088 2.54174 69.741 2.54174 69.7023V69.4892V69.4117C2.54174 69.3148 2.54174 69.218 2.54174 69.1114C2.54174 69.0049 2.54174 68.8983 2.54174 68.7821C2.54174 68.6755 2.54174 68.5593 2.54174 68.4528V68.1622C2.54174 68.1622 2.54174 68.0944 2.54174 68.0556V67.8038V67.5132V67.1936C2.54174 67.0773 2.54174 66.9708 2.54174 66.8546C2.54174 66.7383 2.54174 66.6415 2.54174 66.5349V66.4865C2.54174 66.3896 2.54174 66.3025 2.54174 66.2056C2.54642 66.1865 2.54642 66.1666 2.54174 66.1475C2.54174 66.0506 2.54174 65.9634 2.54174 65.8666C2.54174 65.76 2.54174 65.6535 2.54174 65.5469C2.54174 65.4404 2.54174 65.3435 2.54174 65.2467V65.1885C2.54174 64.9658 2.54174 64.743 2.54174 64.5202V63.5516C2.57788 50.8043 6.06886 38.2897 12.6656 27.2595C19.2623 16.2293 28.7335 7.07015 40.1317 0.698242C51.1369 7.2177 60.2248 16.3708 66.5209 27.2769C72.8171 38.183 76.1096 50.475 76.0817 62.9704Z" fill="#E6331D"/>
<path d="M39.3221 77.7412C37.3696 77.7431 35.4603 77.184 33.8359 76.1347C32.2115 75.0854 30.9449 73.5929 30.1963 71.8462C29.4477 70.0995 29.2509 68.1769 29.6306 66.3218C30.0103 64.4667 30.9495 62.7623 32.3294 61.4243C33.7094 60.0863 35.468 59.1748 37.3829 58.8051C39.2977 58.4355 41.2828 58.6242 43.0869 59.3475C44.8909 60.0708 46.433 61.2962 47.518 62.8686C48.603 64.441 49.1821 66.2897 49.1821 68.181C49.1794 70.714 48.1401 73.1427 46.2919 74.9348C44.4436 76.7268 41.9372 77.736 39.3221 77.7412ZM58.3221 50.0388H48.0821C48.0476 50.0388 48.0146 50.0521 47.9902 50.0757C47.9658 50.0993 47.9521 50.1313 47.9521 50.1647V53.4677C47.9521 53.5011 47.9658 53.5331 47.9902 53.5567C48.0146 53.5804 48.0476 53.5936 48.0821 53.5936H52.0821L47.5521 57.9718C45.9295 56.7385 44.035 55.8847 42.0161 55.4768C39.9971 55.0689 37.9082 55.1179 35.9119 55.62C33.9157 56.1221 32.0661 57.0637 30.5071 58.3716C28.9481 59.6795 27.7218 61.3183 26.9238 63.1604C26.1257 65.0025 25.7774 66.9981 25.9059 68.9919C26.0345 70.9857 26.6365 72.9239 27.665 74.6555C28.6936 76.387 30.1209 77.8653 31.8358 78.9751C33.5507 80.0849 35.5068 80.7962 37.5521 81.0538V84.8508H33.5521C33.5176 84.8508 33.4845 84.8641 33.4601 84.8877C33.4358 84.9113 33.4221 84.9433 33.4221 84.9767V88.5218C33.4221 88.5552 33.4358 88.5873 33.4601 88.6109C33.4845 88.6345 33.5176 88.6478 33.5521 88.6478H37.5521V92.3963C37.5505 92.4132 37.5529 92.4302 37.5589 92.4462C37.5649 92.4621 37.5744 92.4766 37.5868 92.4886C37.5992 92.5006 37.6142 92.5099 37.6306 92.5157C37.6471 92.5215 37.6646 92.5237 37.6821 92.5222H41.3221C41.3566 92.5222 41.3896 92.5089 41.414 92.4853C41.4384 92.4617 41.4521 92.4297 41.4521 92.3963V88.6671H45.4521C45.4866 88.6671 45.5196 88.6539 45.544 88.6303C45.5684 88.6066 45.5821 88.5746 45.5821 88.5412V85.0058C45.5821 84.9724 45.5684 84.9403 45.544 84.9167C45.5196 84.8931 45.4866 84.8799 45.4521 84.8799H41.4521V81.0054C43.6929 80.6511 45.804 79.7507 47.5868 78.3888C49.3696 77.027 50.7656 75.2483 51.6436 73.2202C52.5215 71.192 52.8526 68.9809 52.6057 66.7947C52.3588 64.6085 51.542 62.519 50.2321 60.7226L54.6921 56.4026V60.093C54.692 60.1104 54.6957 60.1276 54.7029 60.1436C54.71 60.1595 54.7205 60.1738 54.7336 60.1857C54.7468 60.1975 54.7624 60.2066 54.7793 60.2123C54.7962 60.218 54.8142 60.2203 54.8321 60.2189H58.2321C58.2666 60.2189 58.2997 60.2057 58.324 60.1821C58.3484 60.1585 58.3621 60.1264 58.3621 60.093V50.1647C58.3621 50.1313 58.3484 50.0993 58.324 50.0757C58.2997 50.0521 58.2666 50.0388 58.2321 50.0388" fill="white"/>
<path d="M45.3419 64.3069H33.3419C33.3253 64.3055 33.3086 64.3076 33.2929 64.3128C33.2772 64.318 33.2627 64.3264 33.2505 64.3373C33.2383 64.3482 33.2286 64.3615 33.2219 64.3763C33.2153 64.391 33.2119 64.407 33.2119 64.4231V67.2127C33.2119 67.2288 33.2153 67.2448 33.2219 67.2596C33.2286 67.2743 33.2383 67.2876 33.2505 67.2985C33.2627 67.3095 33.2772 67.3178 33.2929 67.3231C33.3086 67.3283 33.3253 67.3303 33.3419 67.329H45.3419C45.359 67.3303 45.3762 67.3283 45.3925 67.3232C45.4088 67.3181 45.4239 67.3098 45.4369 67.299C45.4499 67.2882 45.4605 67.2751 45.4683 67.2602C45.476 67.2454 45.4807 67.2293 45.4819 67.2127V64.4038C45.4807 64.3872 45.476 64.371 45.4683 64.3562C45.4605 64.3414 45.4499 64.3282 45.4369 64.3174C45.4239 64.3066 45.4088 64.2984 45.3925 64.2933C45.3762 64.2882 45.359 64.2862 45.3419 64.2875" fill="white"/>
<path d="M45.3419 69.2753H33.3419C33.3253 69.274 33.3086 69.276 33.2929 69.2812C33.2772 69.2864 33.2627 69.2948 33.2505 69.3057C33.2383 69.3167 33.2286 69.3299 33.2219 69.3447C33.2153 69.3595 33.2119 69.3754 33.2119 69.3915V72.2005C33.2132 72.2158 33.2176 72.2307 33.2248 72.2443C33.232 72.258 33.2419 72.2701 33.254 72.28C33.2661 72.2899 33.2801 72.2974 33.2952 72.302C33.3103 72.3067 33.3262 72.3084 33.3419 72.3071H45.3419C45.3749 72.3099 45.4077 72.3004 45.4337 72.2806C45.4597 72.2609 45.477 72.2322 45.4819 72.2005V69.3915C45.4807 69.375 45.476 69.3588 45.4683 69.344C45.4605 69.3292 45.4499 69.316 45.4369 69.3052C45.4239 69.2944 45.4088 69.2862 45.3925 69.2811C45.3762 69.2759 45.359 69.274 45.3419 69.2753Z" fill="white"/>
<path d="M38.4021 39.6845C37.1794 39.7539 35.9625 39.4744 34.9021 38.8805C34.0742 38.3329 33.4722 37.52 33.2021 36.5849C32.8706 35.4577 32.7123 34.2892 32.7321 33.1173H36.5521C36.5462 33.766 36.5964 34.414 36.7021 35.0545C36.7586 35.534 36.9683 35.9844 37.3021 36.3428C37.4742 36.4999 37.6798 36.6186 37.9044 36.6906C38.129 36.7626 38.3672 36.786 38.6021 36.7593C38.8588 36.7818 39.1171 36.7381 39.3507 36.6326C39.5843 36.5271 39.7848 36.3636 39.9321 36.1587C40.2211 35.6426 40.3853 35.0696 40.4121 34.483C40.4721 33.7663 40.5121 32.9333 40.5121 31.9646C40.5179 31.2488 40.4711 30.5334 40.3721 29.824C40.3183 29.3053 40.1214 28.8101 39.8021 28.3904C39.6367 28.2076 39.4293 28.0649 39.1965 27.9741C38.9638 27.8832 38.7122 27.8467 38.4621 27.8674C38.2214 27.8607 37.9818 27.902 37.7582 27.9886C37.5346 28.0753 37.3317 28.2054 37.1621 28.3711C36.782 28.7629 36.5132 29.2434 36.3821 29.7659H33.0121L33.2621 17.6292H43.3821V20.9999H36.5221L36.3021 26.1239C36.6286 25.7812 37.0373 25.5217 37.4921 25.3684C38.0515 25.1708 38.6377 25.0533 39.2321 25.0197C40.2505 24.9104 41.2756 25.1578 42.1221 25.7171C42.9118 26.3119 43.4889 27.1318 43.7721 28.0611C44.1483 29.2566 44.3272 30.502 44.3021 31.7515C44.3089 32.8086 44.2286 33.8645 44.0621 34.9092C43.9324 35.7898 43.6376 36.6401 43.1921 37.4179C42.7722 38.1262 42.1461 38.699 41.3921 39.0646C40.4623 39.5037 39.436 39.7164 38.4021 39.6845Z" fill="white"/>
</svg>
