<svg width="76" height="108" viewBox="0 0 76 108" fill="none" xmlns="http://www.w3.org/2000/svg">
<path d="M75.302 63.1204V63.4497C75.2957 67.0163 74.856 70.5697 73.992 74.0367C71.8872 82.3978 67.3503 89.9987 60.9197 95.9373C54.4891 101.876 46.4346 105.903 37.712 107.541L37.432 107.493L37.222 107.444H37.082L36.832 107.386L36.572 107.338H36.392H36.232L35.952 107.27L35.432 107.154L35.152 107.086L34.302 106.873L34.082 106.815C33.322 106.601 32.572 106.379 31.822 106.137L31.632 106.078L31.292 105.962L31.122 105.904L30.752 105.778L30.492 105.681L30.332 105.623L30.182 105.575L29.952 105.488L29.732 105.41L29.052 105.139L28.852 105.061L28.602 104.964L28.332 104.858L28.092 104.751H27.992L27.812 104.674L27.602 104.587L27.432 104.509L27.282 104.441L27.022 104.325L26.782 104.219H26.722L26.512 104.122L26.312 104.025L26.112 103.938L25.942 103.86L25.812 103.792L25.632 103.705L25.432 103.608L25.302 103.541L25.182 103.483L24.982 103.386L24.752 103.269H24.692L24.472 103.153L24.262 103.047L23.942 102.872L23.762 102.775L22.982 102.34L22.792 102.223L22.642 102.136L22.442 102.02L22.242 101.904L22.092 101.817C20.8587 101.067 19.6687 100.273 18.522 99.4337L18.372 99.3175L18.262 99.2303L18.082 99.0947L17.862 98.9397L17.722 98.8235C17.6743 98.7933 17.6306 98.7575 17.592 98.7169C17.5145 98.6675 17.4409 98.6125 17.372 98.5523L17.102 98.3392L16.952 98.2133L16.882 98.1648L16.742 98.0486L16.572 97.913L16.382 97.758L16.192 97.603L16.022 97.4577L15.762 97.2349L15.572 97.0606L15.362 96.8863L15.082 96.4601L14.902 96.2954L14.702 96.1114L14.522 95.9467L14.352 95.7917L14.082 95.4915L13.902 95.3074L13.702 95.1234L13.512 94.9297L13.332 94.7553L13.262 94.6875L13.082 94.5228L12.892 94.3291L12.662 94.0966L12.512 93.9417L12.322 93.7383C12.132 93.5445 11.942 93.3411 11.762 93.1377L11.372 92.7115C11.262 92.5759 11.142 92.45 11.032 92.3241C10.672 91.9076 10.322 91.4911 9.98201 91.0649C9.91988 90.9981 9.86301 90.9269 9.81197 90.8518L9.652 90.6581L9.22201 90.106C9.18435 90.0471 9.14081 89.9919 9.092 89.9413L8.962 89.7669L8.85201 89.612L8.55196 89.1955C8.51552 89.1559 8.48213 89.1138 8.45199 89.0695L8.32198 88.8952L8.19198 88.7015L8.08199 88.5465L7.95199 88.3528L7.842 88.1978L7.72201 88.0235V87.9653L7.61202 87.8007V87.7425L7.52199 87.6069C7.48888 87.5499 7.45216 87.4949 7.41201 87.4423L7.29201 87.2679L7.092 86.958L7.00197 86.8127L6.92202 86.6868L6.81197 86.5124C6.81197 86.4349 6.71202 86.3574 6.67202 86.2799C6.63202 86.2024 6.572 86.125 6.532 86.0475L6.41201 85.8537V85.7956C6.41201 85.7278 6.34196 85.66 6.30196 85.6019C6.26462 85.5245 6.22122 85.45 6.17202 85.3791C6.17202 85.3016 6.08201 85.2241 6.04201 85.137C5.98943 85.0596 5.94263 84.9787 5.902 84.8948L5.79201 84.7108L5.73202 84.6042C5.66201 84.459 5.58198 84.3233 5.51198 84.1877L5.10201 83.4128L4.98202 83.1707L4.73202 82.667L4.462 82.1052L4.37197 81.9115L4.16201 81.4466C4.08201 81.2722 4.01197 81.0979 3.93197 80.9332C3.85197 80.7685 3.86198 80.7589 3.82198 80.6717C3.78198 80.5845 3.71201 80.4101 3.66201 80.2745C3.63106 80.2117 3.60433 80.147 3.58199 80.0808C3.49166 79.8846 3.41157 79.6842 3.342 79.4803C3.30934 79.4182 3.28255 79.3533 3.26198 79.2865L3.19198 79.1025C3.19198 79.0153 3.122 78.9185 3.092 78.8313C3.062 78.7441 3.02196 78.6569 2.99196 78.5698L2.93197 78.4051C2.93197 78.3179 2.87199 78.2308 2.83199 78.1436C2.79199 78.0564 2.83197 77.9886 2.75197 77.9014L2.67202 77.6786C2.67202 77.6302 2.67202 77.5818 2.67202 77.5237L2.61202 77.3299L2.55196 77.1653C2.55196 77.0394 2.46202 76.9038 2.42202 76.7682L2.36202 76.5938C2.36202 76.5357 2.36202 76.4872 2.36202 76.4388L2.30196 76.2451C2.30196 76.0998 2.21202 75.9642 2.17202 75.8286C2.13202 75.693 2.17202 75.7317 2.17202 75.6736C2.17202 75.6155 2.17202 75.5574 2.17202 75.4993L2.11202 75.2862C2.11202 75.17 2.04198 75.0537 2.01198 74.9375L1.95199 74.705L1.89199 74.4919C1.89199 74.3757 1.89197 74.2691 1.81197 74.1626L1.72201 73.7848L1.66201 73.5717V73.4361V73.2908C1.66201 73.2327 1.66201 73.1746 1.66201 73.1165C1.66201 73.0584 1.66201 73.0487 1.66201 73.0196C1.66201 72.9905 1.66202 72.8743 1.61202 72.8065C1.56202 72.7387 1.61202 72.6418 1.61202 72.5644C1.61202 72.4869 1.61197 72.4191 1.56197 72.3416V72.2544C1.5573 72.1802 1.5573 72.1058 1.56197 72.0316V71.9735C1.55807 71.9025 1.55807 71.8314 1.56197 71.7604C1.55726 71.7251 1.55726 71.6893 1.56197 71.6539V71.5376C1.56197 71.4505 1.56197 71.373 1.56197 71.2858C1.55017 71.1914 1.5335 71.0977 1.51198 71.0049V70.9565C1.51198 70.8596 1.51198 70.7531 1.51198 70.6465L1.45199 70.2784C1.45199 70.1913 1.45199 70.0944 1.45199 69.9975C1.44714 69.9104 1.44714 69.8231 1.45199 69.736C1.45199 69.736 1.45199 69.6682 1.45199 69.6295V69.4164V69.3389V69.0386C1.45199 68.9321 1.45199 68.8255 1.45199 68.7093V68.38V68.0894C1.45199 68.0894 1.45199 68.0216 1.45199 67.9828C1.45657 67.8989 1.45657 67.8149 1.45199 67.731V67.4404V67.1208V66.7817C1.45199 66.6752 1.45199 66.5686 1.45199 66.4621V66.4137C1.45199 66.3168 1.45199 66.2296 1.45199 66.1328V66.0747C1.44699 65.9811 1.44699 65.8873 1.45199 65.7938C1.45199 65.6872 1.45199 65.5807 1.45199 65.4741C1.45199 65.3676 1.45199 65.2707 1.45199 65.1739V65.1157C1.45199 64.893 1.45199 64.6702 1.45199 64.4474C1.45199 64.2246 1.45199 64.2343 1.45199 64.118V63.44C1.49015 50.692 4.98314 38.1772 11.5816 27.147C18.18 16.1169 27.6525 6.9581 39.052 0.58667C50.1528 7.09279 59.3258 16.2716 65.6782 27.23C72.0306 38.1883 75.3461 50.5528 75.302 63.1204Z" fill="#EC6411"/>
<path d="M56.8418 87.4129L48.2618 92.2559V82.657L56.8418 77.8139V87.4129ZM28.4918 92.2559V83.3834L36.4218 87.8197L28.4918 92.2559ZM27.1918 92.2559L18.6118 87.4129V77.8139L27.1918 82.657V92.2559ZM36.4218 65.7062L28.4918 70.1425V61.27L36.4218 65.7062ZM46.9618 70.1425L39.0818 65.6675L47.0118 61.2312L46.9618 70.1425ZM39.0818 76.7194L47.6618 71.9247L56.2418 76.7194L47.6618 81.5624L39.0818 76.7194ZM37.0818 75.6345L29.1618 71.1983L37.0818 66.762V75.6345ZM46.3218 71.1983L38.3918 75.6345V66.762L46.3218 71.1983ZM37.0818 86.6961L29.1618 82.2598L37.0818 77.8236V86.6961ZM57.8318 76.1866L48.2718 70.8399V60.1851C48.2736 60.0739 48.2449 59.9642 48.1887 59.8673C48.1325 59.7703 48.0507 59.6895 47.9518 59.633L38.0818 54.0635C37.9821 54.0109 37.8703 53.9834 37.7568 53.9834C37.6433 53.9834 37.5315 54.0109 37.4318 54.0635L27.5518 59.5943C27.4503 59.6487 27.366 59.7288 27.3079 59.8261C27.2498 59.9233 27.22 60.034 27.2218 60.1464V70.8011L17.6618 76.1479C17.5644 76.2035 17.4836 76.2828 17.4275 76.378C17.3713 76.4731 17.3418 76.5807 17.3418 76.6903V87.7422C17.3408 87.852 17.3699 87.96 17.4261 88.0553C17.4823 88.1506 17.5637 88.2297 17.6618 88.2846L27.5518 93.8154C27.6483 93.8721 27.7589 93.9023 27.8718 93.9026C27.9878 93.9021 28.1016 93.872 28.2018 93.8154L37.7618 88.4687L47.3118 93.8154C47.412 93.872 47.5258 93.9021 47.6418 93.9026C47.7577 93.9012 47.8713 93.8712 47.9718 93.8154L57.8518 88.2846C57.9511 88.2302 58.0339 88.1515 58.0918 88.0562C58.1497 87.961 58.1808 87.8527 58.1818 87.7422V76.7194C58.1798 76.6091 58.1484 76.5011 58.0905 76.4061C58.0327 76.311 57.9505 76.2321 57.8518 76.1769" fill="white"/>
<path d="M37.3417 41.2491C36.234 41.2915 35.1323 41.0721 34.1317 40.6098C33.3252 40.2011 32.6867 39.5383 32.3217 38.7307C31.9183 37.7785 31.7176 36.7572 31.7317 35.728V35.4374H35.4917C35.4535 36.1582 35.5763 36.8784 35.8517 37.549C35.9996 37.7462 36.1881 37.9116 36.4053 38.0347C36.6225 38.1578 36.8637 38.236 37.1137 38.2642C37.3637 38.2924 37.617 38.2701 37.8576 38.1987C38.0983 38.1273 38.3209 38.0083 38.5117 37.8493C38.8397 37.4305 39.0374 36.9299 39.0817 36.406C39.2041 35.5428 39.2576 34.6717 39.2417 33.8005V31.3014C38.9717 31.7324 38.5698 32.071 38.0917 32.2701C37.5186 32.5073 36.9047 32.6388 36.2817 32.6575C35.2558 32.7102 34.2435 32.4119 33.4217 31.8148C32.6879 31.2114 32.1583 30.4082 31.9017 29.5095C31.5808 28.4432 31.4257 27.3365 31.4417 26.2259C31.416 24.9442 31.6121 23.6673 32.0217 22.4483C32.3592 21.4302 33.0164 20.5396 33.9017 19.9008C34.9158 19.2514 36.1174 18.9324 37.3317 18.9903C38.5361 18.9387 39.7275 19.2501 40.7417 19.8815C41.6156 20.5002 42.2747 21.3616 42.6317 22.3514C43.0508 23.5085 43.254 24.7286 43.2317 25.9547V33.7036C43.2455 34.9855 43.0772 36.2631 42.7317 37.5006C42.4509 38.5597 41.8313 39.5056 40.9617 40.203C39.9154 40.9451 38.6367 41.3146 37.3417 41.2491ZM37.4017 29.7517C37.8205 29.7732 38.2331 29.6457 38.5617 29.3933C38.8363 29.1794 39.0699 28.9204 39.2517 28.6281V25.2282C39.2563 24.6695 39.2061 24.1117 39.1017 23.5622C39.0299 23.1185 38.8326 22.7028 38.5317 22.3611C38.3816 22.2033 38.1966 22.0804 37.9905 22.0015C37.7844 21.9227 37.5627 21.89 37.3417 21.9059C37.1239 21.8947 36.9062 21.9316 36.7053 22.0139C36.5043 22.0961 36.3253 22.2214 36.1817 22.3805C35.8829 22.7712 35.6872 23.2268 35.6117 23.7075C35.5041 24.3674 35.4539 25.0348 35.4617 25.7029C35.4557 26.3918 35.4891 27.0806 35.5617 27.766C35.5912 28.2849 35.7639 28.7866 36.0617 29.2189C36.2264 29.401 36.4346 29.5412 36.6682 29.6274C36.9018 29.7135 37.1537 29.7428 37.4017 29.7129V29.7517Z" fill="white"/>
</svg>
