<svg width="48" height="47" viewBox="0 0 48 47" fill="none" xmlns="http://www.w3.org/2000/svg">
<g clip-path="url(#clip0_234_5274)">
<path d="M11.9739 46.534C11.7945 46.5368 11.6182 46.487 11.4666 46.3905C11.3149 46.294 11.1945 46.155 11.1202 45.9907C11.0458 45.8264 11.0207 45.6438 11.0479 45.4653C11.0751 45.2868 11.1534 45.1201 11.2733 44.9858C11.5782 44.6083 11.8042 44.1727 11.9376 43.7051C12.0061 43.3201 11.6276 41.7112 11.1324 40.2643C11.0925 40.1486 11.0756 40.026 11.0827 39.9037C11.0899 39.7814 11.1209 39.6617 11.1739 39.5514C11.227 39.4411 11.3012 39.3425 11.3921 39.2611C11.4831 39.1796 11.5891 39.117 11.7041 39.0769C11.8191 39.0367 11.9409 39.0197 12.0624 39.0269C12.1839 39.034 12.3028 39.0652 12.4124 39.1187C12.5219 39.1721 12.6199 39.2468 12.7008 39.3383C12.7817 39.4299 12.8439 39.5366 12.8838 39.6524C13.23 40.6372 14.0031 43.0445 13.7575 44.1104C13.5569 44.8813 13.1852 45.5963 12.6704 46.2016C12.5832 46.301 12.476 46.3805 12.3559 46.435C12.2358 46.4895 12.1056 46.5177 11.9739 46.5178V46.534Z" fill="#0ADCBF"/>
<path d="M18.5203 47.0121C18.3668 47.0116 18.2159 46.9727 18.0811 46.8988C17.9462 46.825 17.8317 46.7186 17.7479 46.5892C17.6641 46.4598 17.6135 46.3114 17.6007 46.1574C17.588 46.0035 17.6134 45.8487 17.6748 45.7071C18.2023 44.4913 17.6426 41.7759 17.4011 40.9208C17.3592 40.8006 17.3422 40.673 17.3512 40.5459C17.3603 40.4188 17.3951 40.2949 17.4535 40.1819C17.512 40.0689 17.5928 39.9691 17.6911 39.8888C17.7893 39.8084 17.9029 39.7492 18.0248 39.7148C18.1466 39.6804 18.2742 39.6715 18.3997 39.6887C18.5251 39.7058 18.6457 39.7487 18.754 39.8146C18.8623 39.8805 18.9561 39.9681 19.0294 40.0719C19.1028 40.1758 19.1543 40.2936 19.1806 40.4183C19.2934 40.8235 20.2556 44.4021 19.3699 46.4528C19.2977 46.6192 19.1789 46.7607 19.028 46.8601C18.8771 46.9594 18.7007 47.0123 18.5203 47.0121Z" fill="#0ADCBF"/>
<path d="M25.6225 45.7964C25.5284 45.7968 25.4348 45.7832 25.3447 45.7558C25.1111 45.6813 24.9163 45.5166 24.8031 45.2978C24.6899 45.0791 24.6675 44.824 24.7408 44.5886C25.0105 43.7335 23.9999 41.6423 23.235 40.5035C23.1587 40.4027 23.1036 40.2873 23.073 40.1644C23.0425 40.0414 23.0372 39.9135 23.0575 39.7885C23.0777 39.6634 23.1231 39.5438 23.1908 39.437C23.2585 39.3302 23.3471 39.2384 23.4513 39.1672C23.5554 39.096 23.6729 39.0469 23.7965 39.023C23.9201 38.9991 24.0473 39.0008 24.1702 39.028C24.2932 39.0552 24.4093 39.1073 24.5116 39.1812C24.6138 39.2551 24.7 39.3493 24.7649 39.4578C25.1675 40.0536 27.1363 43.1337 26.5042 45.1317C26.445 45.3203 26.3276 45.4848 26.169 45.6015C26.0104 45.7181 25.8189 45.7807 25.6225 45.7802V45.7964Z" fill="#0ADCBF"/>
<path d="M32.2898 43.7416C32.1709 43.7427 32.0531 43.7193 31.9436 43.6727C31.8302 43.6273 31.727 43.5596 31.6398 43.4737C31.5526 43.3878 31.4832 43.2854 31.4357 43.1723C31.3881 43.0592 31.3633 42.9377 31.3627 42.8149C31.3621 42.6921 31.3858 42.5704 31.4323 42.4569C31.706 41.772 30.5546 39.7131 29.3548 38.2906C29.1946 38.1031 29.115 37.8591 29.1335 37.6125C29.152 37.3659 29.2671 37.1367 29.4534 36.9755C29.6397 36.8143 29.8821 36.7341 30.1271 36.7528C30.3721 36.7714 30.5997 36.8872 30.7599 37.0748C31.3074 37.7192 33.9808 41.0425 33.1474 43.1539C33.0784 43.3261 32.96 43.4737 32.8072 43.5776C32.6544 43.6816 32.4743 43.7373 32.2898 43.7375V43.7416Z" fill="#0ADCBF"/>
<path d="M38.1318 39.7172C37.8934 39.7174 37.6642 39.6246 37.4923 39.4584C37.3204 39.2921 37.2192 39.0653 37.2098 38.8256C37.1816 38.2501 36.0785 36.5763 35.0639 35.3726C34.9037 35.1845 34.8243 34.9401 34.8432 34.693C34.8621 34.446 34.9777 34.2167 35.1645 34.0555C35.3514 33.8942 35.5942 33.8143 35.8396 33.8333C36.085 33.8523 36.3129 33.9687 36.473 34.1568C37.0608 34.8782 38.9894 37.2855 39.0538 38.7526C39.0626 38.9972 38.9755 39.2354 38.8112 39.4159C38.647 39.5963 38.4189 39.7046 38.1761 39.7172H38.1318Z" fill="#0ADCBF"/>
<path d="M43.3015 36.0697C43.0664 36.0701 42.8401 35.9802 42.6687 35.8182C42.4973 35.6562 42.3939 35.4345 42.3795 35.1983C42.3232 34.3067 40.2779 31.3563 39.7102 30.8416C39.5276 30.6771 39.4174 30.4464 39.4038 30.2001C39.3902 29.9539 39.4743 29.7123 39.6377 29.5285C39.8011 29.3447 40.0303 29.2337 40.2749 29.2201C40.5196 29.2064 40.7596 29.2911 40.9422 29.4555C41.5421 29.9946 44.1148 33.3827 44.2235 35.0808C44.2389 35.3275 44.1564 35.5702 43.9941 35.7556C43.8318 35.9411 43.6029 36.054 43.3579 36.0697H43.3015Z" fill="#0ADCBF"/>
<path d="M47.074 29.3745C46.8856 29.3755 46.7015 29.3185 46.5461 29.2114C46.3907 29.1042 46.2715 28.9519 46.2043 28.7747C45.7658 27.6409 44.9768 26.679 43.9537 26.031C43.8466 25.9647 43.754 25.8772 43.6816 25.7737C43.6092 25.6702 43.5585 25.5529 43.5326 25.4291C43.5067 25.3052 43.5061 25.1774 43.5309 25.0533C43.5556 24.9292 43.6053 24.8115 43.6767 24.7073C43.7481 24.6032 43.8399 24.5147 43.9464 24.4475C44.0529 24.3802 44.1719 24.3354 44.2962 24.3159C44.4204 24.2964 44.5473 24.3026 44.6691 24.3341C44.7909 24.3656 44.905 24.4217 45.0045 24.4991C46.3451 25.3699 47.3758 26.6473 47.9477 28.1466C48.0291 28.3798 48.0155 28.6361 47.9099 28.8593C47.8043 29.0825 47.6152 29.2546 47.384 29.3381C47.2845 29.3735 47.1796 29.3913 47.074 29.3908V29.3745Z" fill="#0ADCBF"/>
<path d="M7.38395 20.3003C7.16465 20.3001 6.95258 20.2213 6.78582 20.078C6.61905 19.9346 6.50851 19.7361 6.47404 19.5181C6.37338 19.2223 5.42321 18.3955 4.51732 17.8362C4.40845 17.775 4.31298 17.6922 4.23666 17.593C4.16033 17.4937 4.10471 17.3799 4.07314 17.2585C4.04156 17.137 4.03469 17.0104 4.05292 16.8862C4.07115 16.762 4.11411 16.6428 4.17923 16.5357C4.24435 16.4287 4.33028 16.336 4.43187 16.2632C4.53347 16.1903 4.64862 16.1389 4.77043 16.112C4.89225 16.0851 5.01821 16.0832 5.14075 16.1065C5.2633 16.1298 5.37992 16.1778 5.4836 16.2475C6.26468 16.7298 8.09658 17.9821 8.30192 19.2182C8.32351 19.3515 8.31605 19.488 8.28005 19.6181C8.24406 19.7483 8.1804 19.869 8.09346 19.9719C8.00653 20.0749 7.89842 20.1575 7.7766 20.2142C7.65479 20.2709 7.52218 20.3003 7.38798 20.3003H7.38395Z" fill="#0ADCBF"/>
<path d="M11.998 17.974C11.7787 17.9739 11.5666 17.8951 11.3999 17.7517C11.2331 17.6083 11.1226 17.4098 11.0881 17.1918C10.9874 16.8919 10.0534 16.0814 9.13138 15.5099C8.93251 15.3761 8.7928 15.17 8.74151 14.9349C8.69022 14.6997 8.73133 14.4536 8.85624 14.2483C8.98114 14.0429 9.18014 13.8942 9.41155 13.8332C9.64297 13.7723 9.88884 13.8038 10.0977 13.9213C10.8787 14.4035 12.7106 15.6558 12.916 16.8919C12.9556 17.1353 12.8977 17.3846 12.7551 17.5851C12.6125 17.7857 12.3967 17.9211 12.155 17.9619H12.002L11.998 17.974Z" fill="#0ADCBF"/>
<path d="M17.6829 17.3013H17.6064C17.3757 17.282 17.1605 17.1765 17.0032 17.0055C16.846 16.8344 16.7581 16.6103 16.7569 16.3773C16.6039 15.9963 15.549 15.0236 14.4901 14.3022C14.3018 14.1577 14.1756 13.9461 14.1375 13.7108C14.0995 13.4756 14.1524 13.2345 14.2854 13.0373C14.4184 12.8401 14.6214 12.7017 14.8527 12.6505C15.084 12.5993 15.326 12.6393 15.5289 12.7622C16.9904 13.7592 18.7096 15.1939 18.6049 16.4502C18.5857 16.6832 18.4803 16.9003 18.3095 17.0587C18.1387 17.2171 17.9151 17.3051 17.6829 17.3053V17.3013Z" fill="#0ADCBF"/>
<path d="M23.223 16.8352H23.1425C22.9054 16.8165 22.6848 16.706 22.527 16.5268C22.3693 16.3477 22.2869 16.1139 22.297 15.8747C22.2044 15.51 21.3226 14.5292 20.4248 13.7875C20.3223 13.7133 20.2359 13.6188 20.171 13.5097C20.1061 13.4006 20.0641 13.2794 20.0475 13.1533C20.0309 13.0273 20.04 12.8992 20.0744 12.7769C20.1088 12.6546 20.1677 12.5406 20.2475 12.4421C20.3273 12.3435 20.4262 12.2624 20.5383 12.2037C20.6503 12.1451 20.7731 12.1101 20.8991 12.101C21.025 12.0919 21.1515 12.1088 21.2707 12.1508C21.39 12.1927 21.4994 12.2587 21.5924 12.3448C22.5909 13.1553 24.2456 14.7278 24.1409 15.9922C24.1218 16.2241 24.0168 16.4403 23.8468 16.5979C23.6768 16.7555 23.4541 16.8431 23.223 16.8433V16.8352Z" fill="#0ADCBF"/>
<path d="M27.8329 14.0429H27.7524C27.5179 14.0233 27.2996 13.9142 27.1424 13.7379C26.9852 13.5615 26.901 13.3314 26.9069 13.0946C26.7902 12.7784 25.9447 12.0327 25.1354 11.5342C24.9365 11.4004 24.7968 11.1943 24.7455 10.9592C24.6942 10.724 24.7354 10.4779 24.8603 10.2726C24.9852 10.0672 25.1842 9.91848 25.4156 9.85752C25.647 9.79656 25.8929 9.82811 26.1017 9.94555C27.1404 10.5899 28.8636 11.8625 28.7509 13.1878C28.7317 13.4196 28.6267 13.6358 28.4567 13.7934C28.2867 13.951 28.0641 14.0386 27.8329 14.0388V14.0429Z" fill="#0ADCBF"/>
<path d="M31.529 9.85631H31.4283C31.1877 9.82683 30.9683 9.70313 30.8175 9.51198C30.6668 9.32083 30.597 9.07763 30.6231 8.83501C30.7358 7.76508 29.1858 7.47328 29.1697 7.47328C28.9278 7.43029 28.7128 7.29234 28.572 7.08979C28.4312 6.88724 28.3761 6.63668 28.4188 6.39322C28.4615 6.14976 28.5985 5.93336 28.7998 5.79161C29.001 5.64986 29.2499 5.59438 29.4918 5.63738C30.6231 5.84002 32.7127 6.80863 32.4631 9.02955C32.4392 9.25815 32.3323 9.46983 32.1629 9.62393C31.9935 9.77803 31.7734 9.86368 31.5451 9.86442L31.529 9.85631Z" fill="#0ADCBF"/>
<path d="M34.1862 4.9079C33.9406 4.9079 33.7051 4.80969 33.5314 4.63488C33.3577 4.46007 33.2602 4.22298 33.2602 3.97576C33.2602 3.22194 31.8591 2.71129 31.5128 2.62619C31.2736 2.56761 31.0674 2.41578 30.9394 2.20411C30.8114 1.99244 30.7722 1.73826 30.8304 1.49749C30.8886 1.25672 31.0394 1.04908 31.2497 0.920256C31.46 0.791429 31.7125 0.751964 31.9517 0.810544C33.1273 1.09829 35.1082 2.09122 35.1082 3.96765C35.1087 4.08987 35.0853 4.21099 35.0392 4.32406C34.9931 4.43713 34.9252 4.53992 34.8396 4.62653C34.7539 4.71314 34.6521 4.78187 34.54 4.82876C34.4278 4.87565 34.3076 4.89979 34.1862 4.89979V4.9079Z" fill="#0ADCBF"/>
<path d="M45.8179 24.337C44.5156 28.383 42.0148 31.9313 38.6513 34.5054C38.3372 34.7526 38.0152 34.9876 37.681 35.2227C22.5184 45.7964 9.35285 45.4681 2.5285 33.2936C-0.450871 27.9642 1.13947 23.9114 3.87726 21.0745C7.22301 17.5729 12.3685 15.8464 16.7892 16.6164C25.2683 18.0633 30.3131 11.3478 33.071 5.35377C35.4062 0.291856 43.5028 -0.72539 44.9965 3.92719C45.0207 4.0042 49.0549 14.4847 45.8018 24.3491L45.8179 24.337Z" fill="white"/>
<path d="M17.8842 43.7416C13.9968 43.8098 10.2003 42.5545 7.11022 40.1792C7.00599 40.1077 6.91737 40.0156 6.84978 39.9084C6.78219 39.8013 6.73705 39.6813 6.71714 39.556C6.69723 39.4306 6.70296 39.3025 6.73399 39.1795C6.76501 39.0564 6.82067 38.9411 6.89756 38.8405C6.97445 38.7398 7.07094 38.6561 7.18112 38.5944C7.2913 38.5326 7.41285 38.4942 7.53832 38.4814C7.66378 38.4686 7.79052 38.4818 7.91075 38.52C8.03099 38.5583 8.14219 38.6209 8.23754 38.704C11.0107 40.8286 14.416 41.9469 17.9004 41.8773C23.5249 41.8773 30.1963 39.3119 37.1454 34.4486C37.4836 34.2094 37.7896 33.9865 38.0715 33.7636C41.293 31.3026 43.6898 27.9085 44.9401 24.037C45.7658 21.4303 46.1735 18.7078 46.148 15.972C46.1194 11.9831 45.4393 8.02613 44.1349 4.25946C44.1223 4.22905 44.1116 4.19792 44.1027 4.16625C43.4303 2.07907 41.1958 1.85212 40.2657 1.85212C38.0634 1.85212 35.1283 3.06795 33.9044 5.72657C29.8178 14.59 23.7866 18.74 16.6361 17.5201C15.9883 17.4104 15.3324 17.3561 14.6754 17.358C10.8606 17.4168 7.22142 18.9813 4.54152 21.7148C2.7539 23.5831 1.84801 25.6216 1.84801 27.7696C1.9043 29.5559 2.41589 31.2976 3.33367 32.8275C4.01061 34.0483 4.80489 35.1994 5.70508 36.2642C5.78439 36.3571 5.84475 36.4648 5.88272 36.5811C5.92068 36.6975 5.93551 36.8202 5.92635 36.9423C5.91719 37.0645 5.88422 37.1836 5.82933 37.2929C5.77444 37.4022 5.6987 37.4995 5.60644 37.5793C5.51418 37.6592 5.4072 37.7199 5.29161 37.7581C5.17602 37.7964 5.05409 37.8113 4.93277 37.8021C4.81145 37.7928 4.69312 37.7597 4.58454 37.7044C4.47596 37.6491 4.37926 37.5729 4.29995 37.48C3.32227 36.3233 2.45925 35.0732 1.7232 33.7474C0.646466 31.9377 0.0528575 29.8784 0 27.7696C0 25.1272 1.07901 22.6509 3.22094 20.426C4.71301 18.8847 6.49323 17.6559 8.45909 16.8101C10.4249 15.9643 12.5376 15.5183 14.6754 15.4978C15.4362 15.4958 16.1958 15.5582 16.9461 15.6842C17.6495 15.8074 18.3621 15.8698 19.076 15.8707C25.7876 15.8707 29.9467 9.93334 32.2335 4.94843C33.5783 2.02639 36.8837 0 40.2617 0C43.0398 0 45.1334 1.35363 45.8661 3.6475C47.2426 7.61985 47.9595 11.7934 47.9879 16.0003C48.0184 18.9269 47.5848 21.8396 46.7036 24.6287C45.3413 28.8594 42.7252 32.5691 39.2068 35.2591C38.9009 35.4982 38.5707 35.7455 38.2003 36.0008C30.8284 41.1478 23.9919 43.7578 17.8842 43.7578V43.7416Z" fill="#0ADCBF"/>
<path d="M20.9724 30.1405C20.9729 31.083 20.789 32.0165 20.4311 32.8875C20.0733 33.7585 19.5485 34.55 18.8868 35.2169C18.225 35.8837 17.4393 36.4129 16.5744 36.7741C15.7095 37.1353 14.7824 37.3214 13.846 37.322C9.91248 37.322 5.57629 32.6613 5.57629 28.6936C5.57629 24.726 8.61605 21.885 13.846 22.9549C17.6991 23.7654 20.9724 26.1728 20.9724 30.1405Z" fill="#FFF8AA"/>
<path d="M11.696 23.652C10.4308 23.602 9.18784 23.9975 8.18112 24.7705C7.62635 25.2554 7.18731 25.8599 6.89664 26.5391C6.60597 27.2183 6.47115 27.9547 6.5022 28.6936C6.5022 32.2195 10.4841 36.3939 13.8459 36.3939C15.4915 36.3907 17.0685 35.7304 18.2309 34.558C19.3934 33.3856 20.0462 31.7969 20.0462 30.1404C20.0462 25.5487 15.1585 24.1788 13.6607 23.8668C13.0145 23.7295 12.3564 23.6575 11.696 23.652ZM13.8459 38.2419C9.46547 38.2419 4.65419 33.2408 4.65419 28.6814C4.62075 27.666 4.81556 26.656 5.22409 25.7268C5.63262 24.7977 6.24431 23.9735 7.01353 23.3156C8.22138 22.3186 10.4358 21.2892 14.0311 22.0309C18.8625 23.04 21.8943 26.1404 21.8943 30.1364C21.8943 32.2861 21.0459 34.3478 19.5358 35.8679C18.0257 37.388 15.9775 38.2419 13.8419 38.2419H13.8459Z" fill="#FFB827"/>
<path d="M20.8435 31.3563C20.8435 31.8518 20.6975 32.3362 20.4239 32.7482C20.1503 33.1602 19.7615 33.4812 19.3066 33.6706C18.8517 33.8601 18.3512 33.9095 17.8685 33.8125C17.3857 33.7155 16.9423 33.4766 16.5945 33.1259C16.2467 32.7752 16.0101 32.3286 15.9145 31.8424C15.819 31.3563 15.8688 30.8526 16.0577 30.395C16.2467 29.9374 16.5662 29.5465 16.9759 29.2718C17.3856 28.9971 17.8671 28.8509 18.3594 28.8517C18.6859 28.8517 19.0093 28.9165 19.311 29.0424C19.6126 29.1683 19.8866 29.3529 20.1174 29.5855C20.3481 29.8181 20.531 30.0943 20.6556 30.3981C20.7802 30.702 20.8441 31.0276 20.8435 31.3563Z" fill="white"/>
<path d="M18.3594 29.7798C18.0493 29.7782 17.7457 29.8693 17.4871 30.0415C17.2285 30.2138 17.0265 30.4594 16.9067 30.7474C16.7869 31.0353 16.7547 31.3525 16.8143 31.6589C16.8738 31.9652 17.0223 32.2469 17.241 32.4682C17.4597 32.6895 17.7388 32.8404 18.0428 32.9019C18.3468 32.9634 18.6622 32.9327 18.9488 32.8136C19.2355 32.6945 19.4805 32.4924 19.653 32.233C19.8254 31.9736 19.9175 31.6685 19.9175 31.3563C19.9175 30.9396 19.7536 30.5398 19.4616 30.2444C19.1697 29.949 18.7734 29.7819 18.3594 29.7798ZM18.3594 34.7931C17.6839 34.7939 17.0235 34.593 16.4615 34.2158C15.8995 33.8387 15.4612 33.3022 15.2022 32.6743C14.9432 32.0464 14.875 31.3552 15.0063 30.6883C15.1376 30.0214 15.4624 29.4086 15.9397 28.9276C16.4171 28.4465 17.0254 28.1188 17.6878 27.9859C18.3502 27.853 19.0369 27.9208 19.661 28.1808C20.2851 28.4408 20.8185 28.8813 21.1939 29.4465C21.5692 30.0118 21.7695 30.6764 21.7695 31.3563C21.7695 32.2671 21.4104 33.1406 20.771 33.785C20.1316 34.4294 19.2642 34.792 18.3594 34.7931Z" fill="#FFB827"/>
<path d="M45.8178 24.3369C44.5155 28.383 42.0148 31.9313 38.6512 34.5053C39.1183 33.6218 39.2954 32.9086 38.7197 32.7505C36.9844 32.2844 34.2909 33.861 34.2909 33.861C34.2909 33.861 30.2647 33.861 33.7151 29.7798C37.1656 25.6987 40.5234 26.874 41.5622 22.2214C42.4519 18.2294 44.5657 20.7827 45.842 24.3369H45.8178Z" fill="#CDFFE4"/>
<path d="M42.9189 21.1515C42.6682 21.535 42.5046 21.9695 42.4398 22.424C41.7473 25.5244 40.0684 26.4403 38.2888 27.409C36.8027 28.1295 35.4769 29.1455 34.3915 30.3959C33.2803 31.7008 33.1474 32.3979 33.232 32.5843C33.3165 32.7708 33.7151 32.8802 34.0372 32.9248C34.8424 32.5195 37.1615 31.3847 38.929 31.8589C39.2339 31.9377 39.5043 32.1158 39.698 32.3655C42.0246 30.1549 43.7822 27.4079 44.8193 24.3613C44.014 22.266 43.2088 21.3339 42.8988 21.1596L42.9189 21.1515ZM38.6512 35.4334C38.493 35.431 38.338 35.3877 38.2012 35.3078C38.0643 35.228 37.95 35.1141 37.8693 34.9771C37.7885 34.8402 37.744 34.6847 37.7399 34.5255C37.7358 34.3662 37.7723 34.2086 37.8459 34.0677C37.9506 33.8691 38.0231 33.711 38.0714 33.5935C36.9199 33.5611 35.2974 34.3514 34.7498 34.6675C34.6091 34.7495 34.4494 34.7929 34.2868 34.7931C34.0734 34.7931 32.2093 34.7485 31.5732 33.3544C31.0739 32.2642 31.545 30.8984 33.0065 29.176C34.2429 27.7558 35.7486 26.5984 37.4353 25.7716C39.0739 24.88 40.1529 24.2924 40.6562 22.0147C41.0588 20.2599 41.7715 19.3358 42.7941 19.271C44.6703 19.1494 46.0553 22.193 46.7116 24.0208C46.782 24.2173 46.782 24.4323 46.7116 24.6288C45.3471 28.8605 42.7281 32.5703 39.2068 35.2592C39.0443 35.3822 38.8465 35.4491 38.6431 35.4497L38.6512 35.4334Z" fill="#0ADCBF"/>
<path d="M26.307 17.5079C26.307 17.8758 26.1986 18.2355 25.9955 18.5414C25.7925 18.8473 25.5039 19.0858 25.1662 19.2266C24.8285 19.3673 24.4569 19.4042 24.0984 19.3324C23.74 19.2606 23.4107 19.0835 23.1522 18.8233C22.8938 18.5632 22.7178 18.2317 22.6465 17.8708C22.5752 17.51 22.6118 17.136 22.7516 16.7961C22.8915 16.4561 23.1284 16.1656 23.4323 15.9612C23.7362 15.7568 24.0935 15.6477 24.459 15.6477C24.7018 15.6472 24.9424 15.6949 25.1668 15.7882C25.3913 15.8815 25.5952 16.0185 25.7669 16.1914C25.9386 16.3642 26.0747 16.5695 26.1674 16.7954C26.2601 17.0214 26.3075 17.2635 26.307 17.5079Z" fill="white"/>
<path d="M24.459 16.5758C24.275 16.5718 24.094 16.623 23.9391 16.7229C23.7842 16.8229 23.6624 16.967 23.5892 17.137C23.516 17.3069 23.4948 17.4949 23.5282 17.677C23.5617 17.8592 23.6482 18.0272 23.7769 18.1596C23.9056 18.292 24.0705 18.3828 24.2506 18.4204C24.4308 18.458 24.618 18.4408 24.7884 18.3709C24.9588 18.301 25.1046 18.1815 25.2073 18.0278C25.31 17.8742 25.3648 17.6932 25.3649 17.5079C25.3654 17.3857 25.3419 17.2646 25.2958 17.1515C25.2497 17.0385 25.1819 16.9357 25.0962 16.8491C25.0106 16.7625 24.9088 16.6937 24.7966 16.6468C24.6845 16.5999 24.5643 16.5758 24.4429 16.5758H24.459ZM24.459 20.3003C23.9103 20.3003 23.374 20.1365 22.9178 19.8297C22.4616 19.5229 22.1061 19.0868 21.8961 18.5765C21.6861 18.0663 21.6312 17.5048 21.7382 16.9632C21.8453 16.4215 22.1095 15.924 22.4974 15.5334C22.8854 15.1429 23.3797 14.877 23.9178 14.7692C24.4559 14.6615 25.0137 14.7168 25.5205 14.9281C26.0274 15.1395 26.4607 15.4974 26.7655 15.9566C27.0703 16.4158 27.233 16.9557 27.233 17.5079C27.233 18.2485 26.9407 18.9588 26.4205 19.4824C25.9003 20.0061 25.1947 20.3003 24.459 20.3003Z" fill="#0ADCBF"/>
<path d="M33.7474 11.1086C33.7474 11.4767 33.6389 11.8365 33.4357 12.1425C33.2324 12.4485 32.9436 12.687 32.6057 12.8276C32.2678 12.9683 31.896 13.0049 31.5374 12.9328C31.1788 12.8607 30.8495 12.6831 30.5912 12.4226C30.3329 12.162 30.1573 11.8302 30.0864 11.4691C30.0156 11.1079 30.0527 10.7338 30.1932 10.394C30.3337 10.0541 30.5712 9.76387 30.8756 9.55995C31.1801 9.35603 31.5378 9.24762 31.9034 9.24842C32.1459 9.24842 32.386 9.29656 32.61 9.3901C32.834 9.48363 33.0375 9.62072 33.2087 9.79351C33.38 9.9663 33.5158 10.1714 33.6082 10.3971C33.7006 10.6227 33.7479 10.8645 33.7474 11.1086Z" fill="white"/>
<path d="M31.9034 10.1806C31.7199 10.1798 31.5403 10.2338 31.3874 10.336C31.2345 10.4381 31.1152 10.5836 31.0446 10.7541C30.9741 10.9246 30.9554 11.1124 30.991 11.2935C31.0266 11.4747 31.1149 11.6412 31.2446 11.7718C31.3744 11.9024 31.5397 11.9913 31.7197 12.0271C31.8997 12.0629 32.0863 12.0441 32.2556 11.9731C32.425 11.902 32.5696 11.7819 32.671 11.628C32.7725 11.4741 32.8262 11.2933 32.8254 11.1086C32.8244 10.8628 32.7269 10.6274 32.5542 10.4536C32.3815 10.2797 32.1476 10.1816 31.9034 10.1806ZM31.9034 13.901C31.3546 13.9018 30.8179 13.7387 30.3612 13.4324C29.9044 13.126 29.5483 12.6902 29.3377 12.18C29.1271 11.6699 29.0716 11.1083 29.1782 10.5664C29.2848 10.0244 29.5486 9.52651 29.9364 9.13558C30.3242 8.74466 30.8185 8.47831 31.3567 8.37024C31.8949 8.26216 32.4529 8.31723 32.96 8.52845C33.4672 8.73968 33.9006 9.09758 34.2056 9.55687C34.5106 10.0162 34.6734 10.5562 34.6734 11.1086C34.6734 11.8485 34.3817 12.5582 33.8624 13.0817C33.343 13.6053 32.6384 13.8999 31.9034 13.901Z" fill="#0ADCBF"/>
<path d="M37.6125 4.65259C37.6125 5.02067 37.504 5.38049 37.3008 5.68649C37.0976 5.99249 36.8087 6.23092 36.4708 6.37159C36.1329 6.51227 35.7611 6.54887 35.4025 6.47676C35.0439 6.40466 34.7146 6.22708 34.4563 5.96652C34.1981 5.70596 34.0224 5.37412 33.9515 5.01301C33.8807 4.65189 33.9178 4.27774 34.0583 3.9379C34.1988 3.59806 34.4363 3.30781 34.7407 3.10389C35.0452 2.89998 35.4029 2.79156 35.7685 2.79236C36.011 2.79236 36.2512 2.84051 36.4751 2.93404C36.6991 3.02758 36.9026 3.16466 37.0739 3.33745C37.2451 3.51025 37.3809 3.71535 37.4733 3.94102C37.5658 4.16668 37.6131 4.40849 37.6125 4.65259Z" fill="white"/>
<path d="M35.7685 3.72045C35.5852 3.71965 35.4058 3.77363 35.253 3.87557C35.1002 3.97751 34.9808 4.1228 34.9101 4.29306C34.8394 4.46331 34.8205 4.65086 34.8558 4.83194C34.8911 5.01303 34.9789 5.17949 35.1083 5.31026C35.2376 5.44103 35.4026 5.53021 35.5824 5.56651C35.7621 5.6028 35.9485 5.58458 36.1179 5.51415C36.2874 5.44372 36.4323 5.32425 36.5342 5.17087C36.6361 5.0175 36.6905 4.83712 36.6905 4.65259C36.6911 4.53037 36.6676 4.40925 36.6215 4.29618C36.5754 4.18311 36.5076 4.08032 36.4219 3.99371C36.3362 3.9071 36.2344 3.83838 36.1223 3.79148C36.0102 3.74459 35.89 3.72045 35.7685 3.72045ZM35.7685 7.44495C35.2197 7.44575 34.683 7.28266 34.2263 6.97632C33.7696 6.66998 33.4134 6.23416 33.2028 5.72399C32.9922 5.21382 32.9367 4.65225 33.0433 4.11031C33.1499 3.56838 33.4138 3.07045 33.8016 2.67953C34.1893 2.2886 34.6836 2.02226 35.2218 1.91418C35.7601 1.80611 36.318 1.86117 36.8252 2.0724C37.3323 2.28363 37.7658 2.64153 38.0708 3.10082C38.3757 3.5601 38.5385 4.10014 38.5385 4.65259C38.5375 5.39214 38.2454 6.10115 37.7263 6.62447C37.2072 7.14779 36.5032 7.44281 35.7685 7.44495Z" fill="#0ADCBF"/>
<path d="M23.7101 25.415C23.5822 25.4136 23.456 25.3854 23.3394 25.3323C23.2229 25.2791 23.1187 25.2022 23.0333 25.1063C22.948 25.0104 22.8833 24.8977 22.8436 24.7753C22.8039 24.6529 22.7899 24.5235 22.8025 24.3954C22.8151 24.2672 22.8541 24.1432 22.9169 24.031C22.9797 23.9189 23.0651 23.8211 23.1675 23.7439C23.2699 23.6668 23.3871 23.6119 23.5117 23.5828C23.6363 23.5537 23.7656 23.5511 23.8913 23.575C23.9502 23.5883 24.008 23.6059 24.0644 23.6277C24.1197 23.6528 24.1735 23.6813 24.2254 23.7128C24.2756 23.7463 24.3215 23.7858 24.3623 23.8303C24.4489 23.9168 24.5177 24.0197 24.5647 24.1331C24.6117 24.2465 24.636 24.3681 24.6361 24.4909C24.6334 24.7373 24.5352 24.973 24.3623 25.1475C24.3204 25.1896 24.2746 25.2276 24.2254 25.261C24.1735 25.2925 24.1197 25.3209 24.0644 25.3461C24.0081 25.3692 23.9503 25.3882 23.8913 25.4028C23.8309 25.4068 23.7704 25.4068 23.7101 25.4028V25.415Z" fill="#1193FF"/>
<path d="M20.9683 38.6229C20.724 38.6197 20.4907 38.5203 20.3184 38.3461C20.146 38.1719 20.0484 37.9366 20.0463 37.6907C20.0467 37.5685 20.0711 37.4476 20.1181 37.335C20.1651 37.2223 20.2337 37.1201 20.32 37.0342C20.4953 36.8659 20.7281 36.7721 20.9703 36.7721C21.2124 36.7721 21.4453 36.8659 21.6205 37.0342C21.749 37.1645 21.8364 37.3301 21.8717 37.5103C21.907 37.6904 21.8887 37.8771 21.819 38.0468C21.7493 38.2165 21.6314 38.3617 21.4801 38.4641C21.3287 38.5666 21.1507 38.6219 20.9683 38.6229Z" fill="#1193FF"/>
<path d="M29.1334 35.4334C28.8877 35.4329 28.6521 35.3354 28.4771 35.1619C28.435 35.1173 28.396 35.0699 28.3603 35.02C28.3272 34.9709 28.3001 34.9178 28.2798 34.862C28.255 34.805 28.2374 34.7451 28.2275 34.6837C28.2215 34.6244 28.2215 34.5646 28.2275 34.5053C28.2269 34.3834 28.2505 34.2625 28.2968 34.1498C28.3431 34.0371 28.4113 33.9347 28.4972 33.8488C28.5406 33.8038 28.5893 33.7644 28.6422 33.7312C28.6917 33.6968 28.7443 33.6669 28.7992 33.6421C28.8556 33.6216 28.9135 33.6053 28.9723 33.5935C29.0919 33.5691 29.2151 33.5691 29.3347 33.5935C29.3923 33.6048 29.4489 33.6211 29.5038 33.6421C29.5608 33.6678 29.616 33.6976 29.6688 33.7312C29.7199 33.7635 29.766 33.8031 29.8057 33.8488C29.893 33.934 29.9622 34.0361 30.0092 34.1489C30.0563 34.2617 30.0802 34.383 30.0795 34.5053C30.0874 34.5645 30.0874 34.6245 30.0795 34.6837C30.0623 34.8055 30.0153 34.9211 29.9426 35.02C29.9081 35.0709 29.8691 35.1183 29.8259 35.1619C29.785 35.2052 29.739 35.2433 29.689 35.2754C29.6361 35.309 29.581 35.3388 29.5239 35.3645C29.4698 35.3887 29.413 35.4064 29.3548 35.4172C29.2945 35.4232 29.2339 35.4232 29.1736 35.4172L29.1334 35.4334Z" fill="#1193FF"/>
<path d="M24.459 35.4334C24.3311 35.432 24.2049 35.4039 24.0883 35.3507C23.9718 35.2976 23.8676 35.2206 23.7822 35.1247C23.6969 35.0288 23.6322 34.9161 23.5925 34.7937C23.5528 34.6713 23.5388 34.5419 23.5514 34.4138C23.564 34.2857 23.603 34.1616 23.6658 34.0494C23.7286 33.9373 23.814 33.8395 23.9164 33.7624C24.0188 33.6852 24.136 33.6303 24.2606 33.6013C24.3852 33.5722 24.5145 33.5695 24.6402 33.5934C24.7007 33.6034 24.7601 33.6197 24.8173 33.6421C24.8713 33.6687 24.9238 33.6985 24.9743 33.7312C25.0254 33.7635 25.0715 33.8031 25.1112 33.8488C25.1979 33.9344 25.2667 34.0366 25.3137 34.1493C25.3607 34.262 25.385 34.383 25.385 34.5053C25.385 34.6276 25.3607 34.7486 25.3137 34.8613C25.2667 34.974 25.1979 35.0762 25.1112 35.1619C25.0657 35.2003 25.0157 35.2329 24.9623 35.2591C24.9117 35.2919 24.8593 35.3217 24.8052 35.3483C24.7475 35.3701 24.6883 35.3877 24.6281 35.401C24.5678 35.407 24.5072 35.407 24.4469 35.401L24.459 35.4334Z" fill="#1193FF"/>
<path d="M27.3457 40.4832C27.2855 40.4892 27.2248 40.4892 27.1645 40.4832C27.1051 40.4718 27.0471 40.4541 26.9914 40.4305C26.9356 40.4048 26.8818 40.375 26.8304 40.3413C26.7793 40.309 26.7332 40.2694 26.6935 40.2238C26.6062 40.1386 26.537 40.0365 26.49 39.9237C26.4429 39.8108 26.419 39.6896 26.4197 39.5672C26.412 39.508 26.412 39.4481 26.4197 39.3889C26.4296 39.3293 26.4458 39.2708 26.468 39.2146C26.4911 39.1573 26.5208 39.1029 26.5566 39.0525C26.5928 38.9958 26.6392 38.9463 26.6935 38.9066C26.7332 38.861 26.7793 38.8214 26.8304 38.7891C26.8818 38.7554 26.9356 38.7256 26.9914 38.6999C27.0471 38.6763 27.1051 38.6586 27.1645 38.6472C27.3139 38.6182 27.4681 38.6267 27.6135 38.672C27.7588 38.7172 27.8909 38.7978 27.998 38.9066C28.0419 38.9469 28.0799 38.9933 28.1107 39.0444C28.1479 39.0938 28.1778 39.1484 28.1993 39.2065C28.2228 39.2626 28.2403 39.321 28.2516 39.3808C28.2795 39.5302 28.2711 39.6843 28.2269 39.8297C28.1827 39.9751 28.1041 40.1075 27.998 40.2157C27.9568 40.2614 27.9094 40.301 27.857 40.3332C27.8061 40.3677 27.7522 40.3975 27.696 40.4224C27.6415 40.4454 27.5848 40.4631 27.5269 40.4751C27.4666 40.4811 27.406 40.4811 27.3457 40.4751V40.4832Z" fill="#0ADCBF"/>
<path d="M12.8475 20.6691C12.6012 20.6679 12.3654 20.5689 12.1913 20.3935C12.15 20.3536 12.1123 20.3103 12.0785 20.2638C12.0461 20.2128 12.0192 20.1584 11.998 20.1017C11.9738 20.0456 11.9549 19.9872 11.9416 19.9274C11.9379 19.8681 11.9379 19.8085 11.9416 19.7491C11.9373 19.6884 11.9373 19.6275 11.9416 19.5668C11.9543 19.5055 11.9732 19.4458 11.998 19.3884C12.0183 19.3326 12.0454 19.2795 12.0785 19.2304C12.1148 19.1777 12.155 19.1331 12.1953 19.0845C12.2411 19.0435 12.2895 19.0056 12.3402 18.971C12.439 18.9042 12.5498 18.8574 12.6664 18.8332C12.7873 18.8089 12.9118 18.8089 13.0327 18.8332C13.0907 18.8452 13.1473 18.8628 13.2018 18.8859C13.2571 18.9085 13.3097 18.937 13.3589 18.971C13.4103 19.0045 13.4588 19.0425 13.5038 19.0845C13.6765 19.2624 13.7745 19.5004 13.7776 19.7491C13.7746 19.8089 13.7679 19.8685 13.7574 19.9274C13.7442 19.9872 13.7253 20.0456 13.7011 20.1017C13.6799 20.1584 13.653 20.2128 13.6206 20.2638C13.5871 20.3142 13.5479 20.3604 13.5038 20.4016C13.461 20.4473 13.4123 20.4868 13.3589 20.5192C13.3097 20.5531 13.2571 20.5817 13.2018 20.6043C13.1467 20.6268 13.0903 20.6458 13.0327 20.661C12.9724 20.665 12.9119 20.665 12.8516 20.661L12.8475 20.6691Z" fill="#1193FF"/>
<path d="M19.7845 22.201C19.7249 22.2021 19.6653 22.1953 19.6074 22.1808C19.5486 22.1689 19.4907 22.1527 19.4343 22.1321C19.3785 22.1064 19.3247 22.0766 19.2732 22.043C19.2223 22.0105 19.1762 21.9709 19.1363 21.9254C19.05 21.8395 18.9814 21.7373 18.9344 21.6246C18.8874 21.512 18.863 21.3911 18.8625 21.2689C18.8646 21.0211 18.9628 20.784 19.1363 20.6083C19.1775 20.5665 19.2235 20.5298 19.2732 20.4989C19.3228 20.4622 19.3769 20.4322 19.4343 20.4097C19.49 20.3861 19.548 20.3684 19.6074 20.357C19.7414 20.3292 19.8799 20.3319 20.0128 20.365C20.1456 20.398 20.2694 20.4605 20.3752 20.5479C20.4809 20.6353 20.5659 20.7454 20.624 20.8702C20.682 20.9949 20.7116 21.1312 20.7106 21.2689C20.7106 21.5161 20.613 21.7532 20.4393 21.928C20.2657 22.1028 20.0301 22.201 19.7845 22.201Z" fill="#1193FF"/>
<path d="M28.3241 24.957C28.2638 24.961 28.2033 24.961 28.143 24.957C28.0847 24.9442 28.0281 24.9252 27.9739 24.9003C27.9172 24.8798 27.8631 24.8526 27.8128 24.8192C27.7623 24.7845 27.7152 24.7452 27.6719 24.7017C27.4983 24.5277 27.3999 24.2917 27.3981 24.0451C27.3922 23.9831 27.3922 23.9207 27.3981 23.8587C27.4113 23.8007 27.4288 23.7438 27.4505 23.6885C27.4727 23.632 27.5025 23.5788 27.539 23.5304C27.571 23.4776 27.6088 23.4287 27.6518 23.3845C27.829 23.2187 28.062 23.1266 28.304 23.1266C28.546 23.1266 28.779 23.2187 28.9562 23.3845C29.0028 23.4265 29.0422 23.4757 29.073 23.5304C29.1096 23.5788 29.1394 23.632 29.1616 23.6885C29.1838 23.7433 29.2 23.8004 29.2099 23.8587C29.2246 23.9197 29.2313 23.9824 29.23 24.0451C29.2333 24.2805 29.1469 24.5082 28.9885 24.6814C28.9466 24.7248 28.9008 24.7642 28.8516 24.7989C28.8018 24.8307 28.7492 24.8579 28.6945 24.88C28.6376 24.905 28.5782 24.924 28.5174 24.9367C28.4571 24.9407 28.3965 24.9407 28.3362 24.9367L28.3241 24.957Z" fill="#1193FF"/>
<path d="M29.7132 17.974C29.6529 17.9782 29.5923 17.9782 29.532 17.974C29.4717 17.9594 29.4125 17.9404 29.3549 17.9173C29.3001 17.8938 29.2475 17.8653 29.1978 17.8322C29.1484 17.7976 29.1013 17.7597 29.0569 17.7187C29.0137 17.6737 28.9746 17.6249 28.9402 17.5728C28.9064 17.5233 28.8781 17.4703 28.8556 17.4147C28.8345 17.3595 28.8183 17.3026 28.8073 17.2445C28.7994 17.184 28.7994 17.1227 28.8073 17.0621C28.8067 16.9395 28.8302 16.818 28.8765 16.7047C28.9228 16.5913 28.991 16.4882 29.0771 16.4015C29.1203 16.358 29.1675 16.3187 29.218 16.284C29.2676 16.2509 29.3202 16.2224 29.375 16.1989L29.5521 16.1421C29.6707 16.1219 29.7919 16.1219 29.9105 16.1421L30.0836 16.1989C30.1393 16.2231 30.1932 16.2516 30.2447 16.284C30.2946 16.3177 30.3406 16.3571 30.3815 16.4015C30.4682 16.488 30.5369 16.5909 30.5839 16.7043C30.6309 16.8177 30.6552 16.9393 30.6553 17.0621C30.6593 17.1228 30.6593 17.1838 30.6553 17.2445C30.6396 17.3022 30.6208 17.359 30.599 17.4147C30.5765 17.4703 30.5481 17.5233 30.5144 17.5728C30.4812 17.6258 30.442 17.6747 30.3976 17.7187C30.3555 17.7606 30.3097 17.7986 30.2608 17.8322C30.2093 17.8646 30.1554 17.893 30.0997 17.9173C30.0432 17.9398 29.9854 17.9588 29.9266 17.974C29.8676 17.978 29.8084 17.978 29.7494 17.974H29.7132Z" fill="#1193FF"/>
<path d="M34.3271 16.5759C34.2059 16.5764 34.0859 16.5526 33.9739 16.506C33.8619 16.4594 33.7603 16.3908 33.6749 16.3043C33.6295 16.2643 33.5902 16.2179 33.5581 16.1665C33.5231 16.1143 33.4935 16.0586 33.4695 16.0004C33.4459 15.9457 33.4284 15.8886 33.4172 15.8301C33.4112 15.7695 33.4112 15.7084 33.4172 15.6478C33.4112 15.5858 33.4112 15.5233 33.4172 15.4613C33.4297 15.4032 33.4472 15.3462 33.4695 15.2911C33.5209 15.1791 33.5903 15.0764 33.6749 14.9872C33.7819 14.8797 33.9135 14.8002 34.058 14.7557C34.2026 14.7112 34.3558 14.703 34.5043 14.7318C34.5633 14.7465 34.6211 14.7654 34.6774 14.7886C34.7342 14.8104 34.7883 14.839 34.8384 14.8737C34.8874 14.9072 34.9332 14.9452 34.9753 14.9872C35.0599 15.0764 35.1293 15.1791 35.1807 15.2911C35.203 15.3462 35.2205 15.4032 35.233 15.4613C35.239 15.5233 35.239 15.5858 35.233 15.6478C35.239 15.7084 35.239 15.7695 35.233 15.8301C35.2218 15.8886 35.2043 15.9457 35.1807 16.0004C35.1567 16.0586 35.1271 16.1143 35.0921 16.1665C35.06 16.2179 35.0207 16.2643 34.9753 16.3043C34.8035 16.4777 34.5704 16.5754 34.3271 16.5759Z" fill="#1193FF"/>
<path d="M40.3262 20.3004C40.2044 20.3009 40.0838 20.2772 39.9712 20.2305C39.8586 20.1839 39.7563 20.1152 39.6702 20.0286C39.5841 19.9419 39.5159 19.8389 39.4696 19.7256C39.4232 19.6123 39.3996 19.4908 39.4002 19.3683C39.4001 19.2464 39.4239 19.1256 39.4701 19.013C39.5164 18.9003 39.5843 18.7979 39.6699 18.7117C39.8478 18.5456 40.0815 18.4534 40.3242 18.4534C40.5668 18.4534 40.8005 18.5456 40.9784 18.7117C41.064 18.7979 41.1319 18.9003 41.1782 19.013C41.2245 19.1256 41.2482 19.2464 41.2482 19.3683C41.2487 19.4905 41.2252 19.6116 41.1791 19.7247C41.133 19.8377 41.0652 19.9405 40.9795 20.0271C40.8939 20.1137 40.7921 20.1825 40.6799 20.2294C40.5678 20.2763 40.4476 20.3004 40.3262 20.3004Z" fill="#1193FF"/>
<path d="M26.2707 31.4333H26.1701C25.5797 31.3907 25.0071 31.2117 24.4966 30.9102C23.9862 30.6087 23.5517 30.1927 23.2269 29.6946C23.1135 29.4862 23.0836 29.242 23.1431 29.012C23.2026 28.782 23.3471 28.5836 23.5471 28.4573C23.7471 28.331 23.9875 28.2864 24.2191 28.3326C24.4507 28.3788 24.656 28.5123 24.7931 28.7057C24.9559 28.9485 25.1691 29.1528 25.418 29.3046C25.6668 29.4564 25.9454 29.5522 26.2345 29.5852C27.241 29.6176 28.4851 28.6287 29.7654 26.8253C34.0493 20.7704 37.1414 20.9123 37.4796 20.9447C37.7151 20.9807 37.9278 21.1066 38.0734 21.2964C38.2191 21.4862 38.2865 21.7251 38.2616 21.9636C38.2367 22.2021 38.1215 22.4218 37.9398 22.577C37.7582 22.7321 37.5241 22.8109 37.2863 22.7968C37.2863 22.7968 34.8948 22.7968 31.2712 27.8911C29.6004 30.2417 27.9214 31.4333 26.2707 31.4333Z" fill="#0ADCBF"/>
<path d="M30.0554 21.5811C29.8217 21.577 29.5982 21.4841 29.4297 21.321C29.2612 21.1579 29.1602 20.9368 29.147 20.7019C29.1338 20.467 29.2092 20.2358 29.3583 20.0545C29.5074 19.8733 29.719 19.7556 29.9507 19.7249C30.0554 19.7249 36.606 18.886 38.8727 14.5698C38.9943 14.3644 39.1897 14.2139 39.4184 14.1494C39.6471 14.0849 39.8916 14.1114 40.1015 14.2232C40.3114 14.3351 40.4706 14.5239 40.5461 14.7506C40.6216 14.9772 40.6078 15.2244 40.5074 15.4411C37.7736 20.6449 30.4701 21.5203 30.1601 21.5729H30.0554V21.5811Z" fill="#0ADCBF"/>
<path d="M37.6125 13.9011C37.4291 13.9001 37.2502 13.8443 37.0983 13.7408C36.9465 13.6373 36.8286 13.4907 36.7596 13.3197C36.6906 13.1486 36.6736 12.9608 36.7107 12.7801C36.7479 12.5993 36.8375 12.4337 36.9683 12.3043C40.3745 8.96885 39.7866 5.909 39.7866 5.77931C39.7332 5.53801 39.7773 5.28523 39.909 5.0766C40.0408 4.86797 40.2495 4.72057 40.4892 4.66683C40.7289 4.61308 40.98 4.6574 41.1873 4.79003C41.3946 4.92266 41.541 5.13273 41.5944 5.37404C41.6306 5.54425 42.4681 9.53623 38.2768 13.6336C38.192 13.718 38.0914 13.7848 37.9808 13.83C37.8703 13.8752 37.7519 13.898 37.6326 13.897L37.6125 13.9011Z" fill="#0ADCBF"/>
<path d="M42.8062 16.2881C42.6261 16.2872 42.4502 16.2336 42.2999 16.1336C42.1497 16.0336 42.0317 15.8917 41.9603 15.7253C41.889 15.5588 41.8674 15.3751 41.8982 15.1965C41.929 15.0178 42.0109 14.8522 42.1338 14.7197C42.4854 14.2673 42.7165 13.7321 42.8053 13.1648C42.894 12.5975 42.8375 12.0167 42.6411 11.4775C42.5643 11.2524 42.5758 11.0064 42.6734 10.7896C42.771 10.5729 42.9472 10.402 43.166 10.3118C43.3848 10.2217 43.6295 10.2191 43.85 10.3047C44.0706 10.3903 44.2503 10.5576 44.3523 10.7723C44.6919 11.6495 44.7881 12.6032 44.6307 13.5313C44.4732 14.4593 44.068 15.3268 43.4584 16.0409C43.2858 16.216 43.0513 16.3151 42.8062 16.3165V16.2881Z" fill="#0ADCBF"/>
<g clip-path="url(#clip1_234_5274)">
<path d="M49.5536 48.6243H54.679V22.0989H49.5536V48.6243ZM55.7223 50.75H48.4842C48.2006 50.75 47.9286 50.6378 47.728 50.438C47.5275 50.2383 47.4148 49.9674 47.4148 49.685V21.0339C47.4148 20.7514 47.5275 20.4805 47.728 20.2808C47.9286 20.0811 48.2006 19.9689 48.4842 19.9689H55.7223C56.0059 19.9689 56.2779 20.0811 56.4785 20.2808C56.679 20.4805 56.7917 20.7514 56.7917 21.0339V49.685C56.7917 49.9674 56.679 50.2383 56.4785 50.438C56.2779 50.6378 56.0059 50.75 55.7223 50.75Z" fill="#1193FF"/>
<path d="M49.5536 43.2993H54.679V41.1693H49.5536V43.2993ZM55.7223 45.438H48.4842C48.2006 45.438 47.9286 45.3258 47.728 45.126C47.5275 44.9263 47.4148 44.6554 47.4148 44.373V40.1043C47.4148 39.8219 47.5275 39.551 47.728 39.3512C47.9286 39.1515 48.2006 39.0393 48.4842 39.0393H55.7223C56.0059 39.0393 56.2779 39.1515 56.4785 39.3512C56.679 39.551 56.7917 39.8219 56.7917 40.1043V44.3643C56.7929 44.5049 56.766 44.6443 56.7128 44.7745C56.6596 44.9047 56.581 45.0232 56.4816 45.123C56.3822 45.2228 56.2639 45.302 56.1336 45.3561C56.0032 45.4101 55.8635 45.438 55.7223 45.438Z" fill="#1193FF"/>
<path d="M49.5536 34.7836H54.679V32.6536H49.5536V34.7836ZM55.7223 36.9136H48.4842C48.2006 36.9136 47.9286 36.8014 47.728 36.6017C47.5275 36.402 47.4148 36.1311 47.4148 35.8486V31.5843C47.4148 31.3018 47.5275 31.0309 47.728 30.8312C47.9286 30.6315 48.2006 30.5193 48.4842 30.5193H55.7223C56.0059 30.5193 56.2779 30.6315 56.4785 30.8312C56.679 31.0309 56.7917 31.3018 56.7917 31.5843V35.8443C56.7917 36.1267 56.679 36.3976 56.4785 36.5974C56.2779 36.7971 56.0059 36.9093 55.7223 36.9093V36.9136Z" fill="#FF554F"/>
<path d="M16.8061 45.8232H4.63395C4.32473 45.8232 4.01855 45.7625 3.73293 45.6445C3.44731 45.5265 3.18785 45.3536 2.96941 45.1357C2.75096 44.9177 2.57782 44.659 2.45988 44.3744C2.34195 44.0897 2.28154 43.7847 2.28211 43.4768V25.0904C2.28154 24.7824 2.34195 24.4774 2.45988 24.1927C2.57782 23.9081 2.75096 23.6494 2.96941 23.4314C3.18785 23.2135 3.44731 23.0406 3.73293 22.9226C4.01855 22.8046 4.32473 22.7439 4.63395 22.7439H16.8061C17.1153 22.7439 17.4215 22.8046 17.7071 22.9226C17.9927 23.0406 18.2522 23.2135 18.4707 23.4314C18.6891 23.6494 18.8622 23.9081 18.9802 24.1927C19.0981 24.4774 19.1585 24.7824 19.158 25.0904V43.4768C19.158 44.0983 18.9103 44.6945 18.4694 45.1344C18.0284 45.5743 17.4303 45.8221 16.8061 45.8232Z" fill="white"/>
<path d="M15.7324 46.8882H5.70338C4.51083 46.8871 3.36752 46.4145 2.52467 45.5743C1.68181 44.7341 1.20837 43.595 1.20837 42.4074L1.20837 41.7927C1.20837 41.5102 1.32104 41.2393 1.5216 41.0396C1.72215 40.8399 1.99416 40.7277 2.27779 40.7277C2.56141 40.7277 2.83342 40.8399 3.03397 41.0396C3.23453 41.2393 3.3472 41.5102 3.3472 41.7927V42.4074C3.3472 42.7156 3.40814 43.0207 3.52655 43.3054C3.64496 43.5901 3.81852 43.8487 4.03731 44.0666C4.2561 44.2845 4.51584 44.4573 4.80171 44.5753C5.08757 44.6932 5.39396 44.7539 5.70338 44.7539H15.7324C16.3577 44.7539 16.9574 44.5068 17.4 44.0669C17.8426 43.627 18.0918 43.0301 18.0929 42.4074V26.151C18.0941 25.8416 18.0338 25.535 17.9157 25.2488C17.7976 24.9625 17.6239 24.7024 17.4046 24.4832C17.1853 24.264 16.9247 24.09 16.6377 23.9713C16.3508 23.8527 16.0431 23.7916 15.7324 23.7916H5.70338C5.07848 23.7916 4.47918 24.0388 4.03731 24.4788C3.59544 24.9189 3.3472 25.5157 3.3472 26.138V37.5327C3.3472 37.8151 3.23453 38.086 3.03397 38.2857C2.83342 38.4855 2.56141 38.5977 2.27779 38.5977C1.99416 38.5977 1.72215 38.4855 1.5216 38.2857C1.32104 38.086 1.20837 37.8151 1.20837 37.5327L1.20837 26.151C1.20952 24.9641 1.68347 23.8262 2.5262 22.987C3.36893 22.1477 4.51158 21.6757 5.70338 21.6746H15.7324C16.9242 21.6757 18.0668 22.1477 18.9096 22.987C19.7523 23.8262 20.2262 24.9641 20.2274 26.151V42.4074C20.2274 43.595 19.7539 44.7341 18.9111 45.5743C18.0682 46.4145 16.9249 46.8871 15.7324 46.8882Z" fill="#0ADCBF"/>
<path d="M16.5497 49.6849H4.88617C4.73174 49.6872 4.57865 49.6561 4.43752 49.5936C4.2964 49.5311 4.17061 49.4388 4.06887 49.323C3.96714 49.2073 3.8919 49.0709 3.84836 48.9234C3.80483 48.7758 3.79404 48.6206 3.81675 48.4684L4.18192 45.8146H17.2235L17.6104 48.4684C17.6309 48.619 17.6188 48.7723 17.5748 48.9179C17.5309 49.0634 17.4562 49.198 17.3557 49.3124C17.2552 49.4268 17.1313 49.5185 16.9923 49.5812C16.8532 49.644 16.7023 49.6764 16.5497 49.6763V49.6849Z" fill="white"/>
<path d="M5.12091 46.8883L4.87746 48.62H16.5497L16.3106 46.8883H5.12091ZM16.541 50.75H4.88616C4.58083 50.7497 4.2791 50.6844 4.00125 50.5583C3.7234 50.4323 3.47587 50.2484 3.27531 50.0192C3.07474 49.7899 2.92579 49.5205 2.83848 49.2292C2.75116 48.9378 2.72749 48.6312 2.76907 48.3299L3.13858 45.6761C3.17331 45.4217 3.2995 45.1885 3.49376 45.0197C3.68802 44.8509 3.93716 44.7581 4.19495 44.7583H17.2366C17.4946 44.7588 17.7438 44.8519 17.9386 45.0204C18.1334 45.189 18.2607 45.4217 18.2973 45.6761L18.6624 48.3299C18.704 48.6312 18.6804 48.9378 18.593 49.2292C18.5057 49.5205 18.3568 49.7899 18.1562 50.0192C17.9556 50.2484 17.7081 50.4323 17.4303 50.5583C17.1524 50.6844 16.8507 50.7497 16.5454 50.75H16.541Z" fill="#0ADCBF"/>
<path d="M16.4236 22.7396H5.51208V15.224L6.24242 14.4923C6.51194 14.2239 6.77277 13.9685 7.11186 13.6265H14.8108L15.8802 14.7001L16.4236 15.224V22.7396Z" fill="#CDFFE4"/>
<path d="M6.57718 21.6746H15.3498V16.3929L13.6414 14.7002H8.28563L6.57718 16.4016V21.6833V21.6746ZM16.4236 23.7916H5.50777C5.36733 23.7916 5.22827 23.7641 5.09852 23.7106C4.96877 23.6571 4.85088 23.5786 4.75158 23.4797C4.65227 23.3808 4.5735 23.2634 4.51976 23.1342C4.46602 23.005 4.43835 22.8665 4.43835 22.7266V15.9513C4.43871 15.6689 4.55123 15.3981 4.75135 15.198L7.09015 12.8732C7.18935 12.7742 7.30726 12.6956 7.43708 12.6421C7.5669 12.5886 7.70607 12.5612 7.84656 12.5615H14.0804C14.364 12.5619 14.6359 12.6739 14.8369 12.8732L17.1757 15.198C17.3742 15.3992 17.4864 15.6693 17.4887 15.9513V22.7396C17.4852 23.0191 17.3717 23.286 17.1724 23.4828C16.9732 23.6796 16.7042 23.7905 16.4236 23.7916Z" fill="#0ADCBF"/>
<path d="M9.90277 18.8736H12.0329V18.2069H9.90277V18.8736ZM13.111 21.0036H8.82466C8.68422 21.0036 8.54516 20.9761 8.41541 20.9225C8.28567 20.869 8.16778 20.7906 8.06847 20.6917C7.96917 20.5928 7.8904 20.4754 7.83665 20.3462C7.78291 20.217 7.75525 20.0785 7.75525 19.9386V17.1419C7.75525 17.002 7.78291 16.8636 7.83665 16.7343C7.8904 16.6051 7.96917 16.4877 8.06847 16.3888C8.16778 16.2899 8.28567 16.2115 8.41541 16.158C8.54516 16.1045 8.68422 16.0769 8.82466 16.0769H13.1023C13.3859 16.0769 13.6579 16.1891 13.8585 16.3888C14.0591 16.5886 14.1717 16.8594 14.1717 17.1419V19.9386C14.1717 20.2211 14.0591 20.492 13.8585 20.6917C13.6579 20.8914 13.3859 21.0036 13.1023 21.0036H13.111Z" fill="#0ADCBF"/>
<path d="M13.2458 42.0178C12.2829 42.0408 11.3264 41.8562 10.4418 41.4766C9.82463 41.1929 9.27878 40.7755 8.84409 40.255C8.4094 39.7345 8.09683 39.1239 7.92916 38.4678C6.95104 35.0044 8.53776 33.5194 9.81584 32.3116C10.8722 31.3072 11.7895 30.437 11.7895 28.4152C11.8185 27.0992 11.4992 25.7986 10.8635 24.6444C10.1624 23.3168 9.83064 21.8265 9.90279 20.3282V19.9385C9.90279 19.6561 10.0155 19.3852 10.216 19.1855C10.4166 18.9857 10.6886 18.8735 10.9722 18.8735C11.2558 18.8735 11.5278 18.9857 11.7284 19.1855C11.9289 19.3852 12.0416 19.6561 12.0416 19.9385V20.3282C12.0416 21.7741 12.2459 22.7439 12.7241 23.5708C13.5429 25.0489 13.9595 26.7144 13.9326 28.4023C13.9326 31.3548 12.472 32.7315 11.2982 33.8571C10.1245 34.9827 9.36808 35.6884 9.99408 37.892C10.0758 38.253 10.2404 38.5901 10.475 38.8771C10.7095 39.164 11.0077 39.3929 11.3461 39.5458C13.4849 40.5285 17.3974 39.1691 18.7363 38.563C18.8651 38.4943 19.0068 38.4527 19.1525 38.4408C19.2982 38.429 19.4448 38.4471 19.5831 38.4941C19.7214 38.5411 19.8486 38.6159 19.9566 38.714C20.0647 38.812 20.1513 38.9312 20.2111 39.064C20.2709 39.1968 20.3026 39.3405 20.3043 39.486C20.3059 39.6316 20.2775 39.7759 20.2207 39.91C20.1639 40.0442 20.08 40.1652 19.9742 40.2657C19.8684 40.3661 19.743 40.4438 19.6057 40.4939C19.171 40.693 16.1584 42.0221 13.2458 42.0221V42.0178Z" fill="#0ADCBF"/>
<path d="M48.4842 49.6849H16.4236V10.518C16.423 10.0699 16.5112 9.626 16.6832 9.21185C16.8551 8.79769 17.1074 8.42139 17.4256 8.10449C17.7439 7.7876 18.1217 7.53633 18.5376 7.36509C18.9535 7.19385 19.3992 7.106 19.8492 7.10657H45.063C45.9711 7.10772 46.8418 7.4675 47.484 8.10703C48.1261 8.74655 48.4874 9.61361 48.4886 10.518V49.6849H48.4842Z" fill="white"/>
<path d="M17.4886 48.6243H47.4147V12.0723C47.4147 11.0389 47.0025 10.0479 46.2688 9.31717C45.5351 8.58646 44.5399 8.17595 43.5023 8.17595H21.4054C20.3678 8.17595 19.3726 8.58646 18.6389 9.31717C17.9052 10.0479 17.4929 11.0389 17.4929 12.0723V48.6243H17.4886ZM48.4842 50.75H16.4235C16.1399 50.75 15.8679 50.6378 15.6673 50.438C15.4668 50.2383 15.3541 49.9674 15.3541 49.685V12.0723C15.3621 10.4761 16.0021 8.94741 17.1351 7.81828C18.2681 6.68916 19.8026 6.05073 21.4054 6.04163H43.4979C45.1015 6.04959 46.6371 6.68752 47.7711 7.81677C48.905 8.94602 49.5456 10.4753 49.5536 12.0723V49.685C49.5536 49.9674 49.4409 50.2383 49.2403 50.438C49.0398 50.6378 48.7678 50.75 48.4842 50.75Z" fill="#1193FF"/>
<path d="M29.2217 34.0867C29.0799 34.087 28.9395 34.059 28.8087 34.0044L28.6566 33.9654C26.2656 33.3247 25.0527 32.0389 25.0527 30.1384C25.0569 29.7162 25.1124 29.2961 25.2179 28.8872C25.8178 26.5537 26.0874 24.9519 26.0874 23.6921C26.1097 23.0615 26.0048 22.4329 25.7787 21.8435C25.6942 21.6509 25.6688 21.4377 25.7057 21.2308C25.7426 21.0238 25.8402 20.8324 25.9862 20.6806C26.1321 20.5288 26.3199 20.4233 26.5259 20.3776C26.7319 20.3318 26.9468 20.3478 27.1437 20.4235C27.3133 20.4884 31.2388 22.0426 31.2388 25.5407C31.2383 25.7403 31.2267 25.9398 31.204 26.1381C31.1661 26.4181 31.0189 26.672 30.7943 26.8446C30.5697 27.0172 30.2858 27.0947 30.0042 27.0603C29.8649 27.0421 29.7305 26.9968 29.6088 26.9269C29.4871 26.857 29.3804 26.764 29.2948 26.653C29.2092 26.542 29.1464 26.4154 29.11 26.2802C29.0736 26.1451 29.0643 26.0041 29.0826 25.8654C29.1358 25.453 29.0841 25.0338 28.9322 24.6465C28.7803 24.2592 28.533 23.9161 28.2132 23.6488V23.6964C28.2132 25.1381 27.9262 26.9001 27.2828 29.4154C27.2204 29.6515 27.1868 29.8942 27.1829 30.1384C27.1829 31.1601 27.9871 31.5843 29.2 31.9047C29.3475 31.9404 29.4927 31.9853 29.6347 32.0389C29.8647 32.1344 30.054 32.3069 30.1699 32.5266C30.2858 32.7463 30.321 32.9994 30.2695 33.2422C30.2179 33.485 30.0828 33.7023 29.8876 33.8564C29.6923 34.0106 29.4491 34.092 29.2 34.0867H29.2217Z" fill="#FF554F"/>
<path d="M35.5208 34.0866C35.3422 34.0856 35.1666 34.0402 35.01 33.9545C34.8534 33.8689 34.7208 33.7457 34.6241 33.5961C34.5274 33.4465 34.4697 33.2752 34.4562 33.0978C34.4428 32.9203 34.474 32.7424 34.5471 32.58C34.7407 32.1347 34.8512 31.6579 34.8731 31.173C34.8817 31.0895 34.8817 31.0054 34.8731 30.9219C34.7745 30.3132 34.4978 29.747 34.0776 29.2941C33.7763 29.9361 33.3871 30.5335 32.9212 31.0691C32.8322 31.1806 32.7216 31.2732 32.5961 31.3413C32.4705 31.4095 32.3325 31.4519 32.1902 31.466C32.0479 31.4801 31.9041 31.4657 31.7675 31.4235C31.6309 31.3813 31.5042 31.3123 31.3949 31.2205C31.2855 31.1287 31.1958 31.016 31.131 30.889C31.0661 30.7621 31.0275 30.6235 31.0174 30.4814C31.0073 30.3393 31.026 30.1967 31.0722 30.0619C31.1185 29.9271 31.1914 29.8029 31.2867 29.6967C32.2735 28.5322 32.3387 27.7745 32.343 27.6403C32.2981 27.458 32.307 27.2666 32.3687 27.0892C32.4304 26.9117 32.5422 26.7558 32.6908 26.6403C32.8478 26.5146 33.0375 26.4361 33.2376 26.4139C33.4378 26.3917 33.6402 26.4266 33.8211 26.5147C34.5318 26.8454 35.1662 27.3187 35.6847 27.905C36.2031 28.4913 36.5943 29.1779 36.8337 29.9218C37.4251 28.9102 37.7329 27.7589 37.7249 26.5883C37.6802 25.0639 37.2782 23.571 36.5511 22.2287L36.3033 23.6487C36.2549 23.9272 36.0974 24.1751 35.8655 24.3378C35.6335 24.5006 35.3462 24.565 35.0666 24.5168C34.787 24.4685 34.5381 24.3117 34.3746 24.0807C34.2112 23.8497 34.1465 23.5635 34.1949 23.2851L34.9166 19.1809C34.9504 18.9814 35.0409 18.7956 35.1773 18.6456C35.3138 18.4955 35.4905 18.3875 35.6865 18.3342C35.8826 18.281 36.0899 18.2847 36.2839 18.345C36.478 18.4053 36.6506 18.5196 36.7815 18.6744C36.9076 18.8216 39.8507 22.3153 39.8507 26.5883C39.8507 29.3807 38.6248 31.8181 36.2077 33.8355C36.0157 33.9974 35.7724 34.0863 35.5208 34.0866Z" fill="#FF554F"/>
<path d="M29.6477 24.8133C29.4301 24.8129 29.2177 24.7463 29.0391 24.6225C28.8604 24.4988 28.7239 24.3237 28.6479 24.1206C28.3654 23.3775 28.2182 22.5903 28.2131 21.7958C28.2131 17.7566 31.8039 14.5876 31.9517 14.436C32.115 14.2939 32.3178 14.2045 32.5332 14.1797C32.7486 14.155 32.9665 14.1961 33.158 14.2975C33.3494 14.3989 33.5054 14.556 33.6052 14.7477C33.705 14.9395 33.7439 15.1569 33.7167 15.3712C33.6586 15.8668 33.6325 16.3657 33.6384 16.8647C33.6384 20.3282 35.26 22.0902 35.6729 22.4928C35.9046 22.5913 36.0929 22.7695 36.2033 22.995C36.2827 23.1491 36.3244 23.3197 36.325 23.4929C36.3227 23.7765 36.2083 24.0478 36.0065 24.248C35.8046 24.4482 35.5317 24.5611 35.2469 24.5622C34.2427 24.5622 32.0039 22.1378 31.5735 18.2155C30.8403 19.2734 30.4214 20.5158 30.365 21.8001C30.3668 22.3325 30.464 22.8603 30.6519 23.3586C30.7505 23.6239 30.7395 23.9173 30.6213 24.1745C30.5032 24.4317 30.2875 24.6318 30.0216 24.731C29.9016 24.7739 29.7752 24.7959 29.6477 24.796V24.8133Z" fill="#FF554F"/>
<path d="M27.3742 38.3423C27.0908 38.341 26.8192 38.2291 26.6177 38.0306C26.5158 37.9338 26.4371 37.8155 26.3873 37.6843C26.3605 37.6201 26.3401 37.5533 26.3265 37.4851C26.3202 37.4174 26.3202 37.3493 26.3265 37.2817C26.3207 37.1334 26.3474 36.9857 26.4047 36.8487C26.4323 36.786 26.4642 36.7252 26.5004 36.6669C26.5438 36.6106 26.5873 36.5543 26.6351 36.5024C26.8409 36.3125 27.111 36.207 27.3915 36.207C27.672 36.207 27.9422 36.3125 28.148 36.5024C28.1964 36.5531 28.2401 36.6082 28.2784 36.6669C28.3159 36.7251 28.3493 36.7859 28.3784 36.8487C28.46 37.0431 28.4816 37.2572 28.4406 37.4638C28.3996 37.6704 28.2977 37.8602 28.148 38.009C28.0984 38.0583 28.0446 38.1032 27.9871 38.1432C27.9262 38.1778 27.8654 38.2124 27.8002 38.2428C27.7348 38.2669 27.668 38.2872 27.6002 38.3034C27.5308 38.3098 27.4609 38.3098 27.3915 38.3034L27.3742 38.3423Z" fill="#1193FF"/>
<path d="M31.3866 37.2816C31.3855 37.1418 31.4122 37.0031 31.4653 36.8737C31.5183 36.7442 31.5967 36.6265 31.6957 36.5275C31.7948 36.4284 31.9127 36.3499 32.0424 36.2965C32.1722 36.2432 32.3113 36.216 32.4517 36.2166C32.5923 36.216 32.7316 36.2431 32.8616 36.2965C32.9916 36.3498 33.1098 36.4282 33.2092 36.5272C33.3086 36.6262 33.3873 36.7439 33.4409 36.8733C33.4944 37.0028 33.5217 37.1415 33.5211 37.2816C33.52 37.5633 33.4068 37.833 33.2064 38.0318C33.0059 38.2306 32.7346 38.3422 32.4517 38.3422C32.3118 38.3422 32.1733 38.3148 32.0441 38.2615C31.9149 38.2082 31.7975 38.1301 31.6986 38.0316C31.5997 37.9331 31.5212 37.8161 31.4677 37.6875C31.4142 37.5588 31.3866 37.4209 31.3866 37.2816Z" fill="#1193FF"/>
<path d="M37.5293 38.3423C37.2459 38.341 36.9743 38.2291 36.7728 38.0306C36.573 37.8321 36.4604 37.5628 36.4598 37.2817C36.46 36.9979 36.5725 36.7257 36.7728 36.524C36.9229 36.3762 37.1135 36.2759 37.3207 36.2358C37.5278 36.1956 37.7423 36.2175 37.9371 36.2985C38.1318 36.3795 38.2981 36.516 38.4151 36.691C38.5321 36.866 38.5944 37.0715 38.5943 37.2817C38.5905 37.5621 38.4784 37.8303 38.2813 38.0306C38.2329 38.0812 38.1789 38.1262 38.1205 38.1648L37.9335 38.2644L37.7336 38.325C37.6641 38.3293 37.5944 38.3293 37.5249 38.325L37.5293 38.3423Z" fill="#1193FF"/>
<path d="M36.325 45.5635H28.5957C28.161 45.1305 27.8784 44.8491 27.5263 44.4985C27.4002 44.3772 27.2698 44.2474 27.1263 44.1002V42.7668C27.4828 42.4118 27.7393 42.152 28.0262 41.8706C28.1958 41.6974 28.3783 41.5199 28.5957 41.3035H36.325L37.0293 42.0048L37.7944 42.7668V44.1002C37.5379 44.3513 37.3336 44.5591 37.1336 44.7582C36.9336 44.9574 36.6424 45.2431 36.325 45.5635Z" fill="#FFE3D7"/>
<path d="M29.6869 44.4985H35.2166L36.286 43.4335L35.2166 42.3685H29.6869L28.6175 43.4335L29.6869 44.4985ZM35.66 46.6242H29.2435C29.1023 46.6238 28.9627 46.5953 28.8327 46.5403C28.7028 46.4853 28.5853 46.4049 28.4871 46.3038L26.3526 44.1782C26.2522 44.0799 26.1724 43.9626 26.118 43.8333C26.0636 43.7039 26.0355 43.5651 26.0355 43.4249C26.0355 43.2846 26.0636 43.1458 26.118 43.0165C26.1724 42.8871 26.2522 42.7699 26.3526 42.6716L28.4871 40.5416C28.6901 40.347 28.9618 40.2398 29.2435 40.2429H35.66C35.9422 40.2434 36.2127 40.3555 36.4121 40.5546L38.5509 42.6846C38.6502 42.7835 38.7291 42.9009 38.7829 43.0302C38.8366 43.1594 38.8643 43.298 38.8643 43.4379C38.8643 43.5778 38.8366 43.7163 38.7829 43.8456C38.7291 43.9748 38.6502 44.0923 38.5509 44.1912L36.4207 46.3038C36.3228 46.4034 36.2057 46.4823 36.0765 46.5358C35.9473 46.5894 35.8086 46.6165 35.6687 46.6155L35.66 46.6242Z" fill="#FF554F"/>
</g>
</g>
<defs>
<clipPath id="clip0_234_5274">
<rect width="48" height="47" fill="white"/>
</clipPath>
<clipPath id="clip1_234_5274">
<rect width="55.5833" height="44.7083" fill="white" transform="translate(1.20837 6.04163)"/>
</clipPath>
</defs>
</svg>
