<svg width="34" height="45" viewBox="0 0 34 45" fill="none" xmlns="http://www.w3.org/2000/svg">
<g clip-path="url(#clip0_234_8717)">
<path d="M18.4819 41.5414C18.6516 40.4752 19.4181 35.1798 17.9903 33.7074C16.4075 32.0588 14.5379 33.8209 14.5438 33.8687C14.5438 33.7522 17.8645 30.3534 16.8844 27.095C16.2319 24.6459 12.6069 27.0054 12.6157 27.095C12.5893 26.7963 18.514 23.1466 16.6825 19.8135C14.927 15.7636 11.0591 20.8857 11.1411 21.1246C11.0679 20.8259 15.9159 15.5366 15.6263 11.5673C15.4779 10.2231 15.2532 8.8888 14.9534 7.57116C14.2921 4.25 11.3312 1.82183 8.47274 3.81095C7.28161 4.6509 6.25955 5.71653 5.46209 6.94993C2.34027 11.7286 6.87233 20.369 7.04202 20.0434C6.89281 20.2854 3.82365 12.5171 1.80485 17.236C-0.243204 22.6777 7.8203 27.7998 7.82322 27.4713C7.82322 27.5698 3.02491 24.7265 3.75344 28.2836C4.9969 33.6596 11.0679 35.0544 11.0036 34.9618C11.027 34.9976 7.88465 34.2749 8.50785 36.9898C9.14567 40.0033 16.071 42.6644 17.2179 42.3657L18.4877 41.5295L18.4819 41.5414Z" fill="#CDFFE4"/>
<path d="M16.978 43.3782C15.2811 43.3782 8.30014 40.7529 7.54529 37.2107C7.48092 36.9286 7.44659 36.6402 7.44289 36.3506C7.43665 35.8104 7.60993 35.284 7.93444 34.8573C5.93027 33.7791 3.54574 31.8138 2.79673 28.5315C2.73366 28.2371 2.70034 27.9369 2.69727 27.6355C2.69727 26.7067 3.09809 26.0317 3.78858 25.7151C2.07699 23.9888 0.485352 21.6144 0.485352 19.0727C0.486777 18.3258 0.623672 17.5856 0.889112 16.8895C1.5006 15.4499 2.31399 14.7391 3.31753 14.7391C3.49522 14.7391 3.67217 14.7622 3.84415 14.8078C3.64589 13.9792 3.50899 13.1366 3.43457 12.2871C3.42362 12.1588 3.4375 12.0296 3.47547 11.9068C3.51343 11.7841 3.57473 11.6701 3.65583 11.5716C3.73693 11.473 3.83624 11.3916 3.94812 11.3322C4.06001 11.2728 4.18228 11.2365 4.30792 11.2253C4.43356 11.2141 4.56012 11.2283 4.68039 11.2671C4.80066 11.3058 4.91224 11.3684 5.00883 11.4512C5.10541 11.534 5.1851 11.6353 5.2433 11.7496C5.3015 11.8638 5.33707 11.9886 5.34802 12.1168C5.5723 14.212 6.14105 16.2537 7.03035 18.1559C7.17371 18.4067 7.32294 18.6576 7.44875 18.9055C7.53652 19.0668 7.63892 19.2579 7.70036 19.3595C7.83483 19.4967 7.92636 19.6715 7.96333 19.8619C8.0003 20.0522 7.98104 20.2495 7.90801 20.4287C7.83498 20.6079 7.71145 20.7609 7.55311 20.8683C7.39477 20.9757 7.20878 21.0327 7.01867 21.032C6.65294 21.032 6.20822 21.032 5.29537 19.022C4.12505 17.0239 3.56037 16.7013 3.31753 16.7013C3.26487 16.7013 2.9957 16.8596 2.66509 17.6362C2.49387 18.0949 2.4066 18.5818 2.40762 19.0727C2.40762 22.3581 6.21113 25.4403 7.62136 26.3274L7.93151 26.4737L8.06316 26.5364C8.24002 26.5853 8.39948 26.6848 8.52271 26.8232C8.64593 26.9616 8.72776 27.1332 8.75853 27.3175C8.7893 27.5019 8.76773 27.6914 8.69635 27.8636C8.62498 28.0359 8.50677 28.1837 8.35574 28.2896C8.19111 28.4104 7.9938 28.4762 7.79104 28.4778C7.49933 28.4351 7.21887 28.3335 6.96599 28.1791C6.44227 27.9342 5.42996 27.4862 4.78629 27.4862C4.73673 27.48 4.68662 27.48 4.63707 27.4862C4.6328 27.5339 4.6328 27.5818 4.63707 27.6295C4.64003 27.7832 4.65765 27.9363 4.68971 28.0865C5.71959 32.5426 10.5618 33.8657 11.0533 33.9852C11.2681 33.9979 11.4725 34.0837 11.6339 34.2288C11.7954 34.374 11.9045 34.5702 11.9439 34.7861C11.9833 35.002 11.9507 35.2252 11.8513 35.42C11.752 35.6148 11.5915 35.7699 11.3956 35.8608C11.2688 35.9196 11.1312 35.9501 10.9919 35.9504C10.952 35.9538 10.9118 35.9538 10.8719 35.9504H10.7929C10.599 35.9223 10.4036 35.9074 10.2078 35.9056C9.3739 35.9056 9.37391 36.1594 9.37391 36.3625C9.37778 36.5075 9.39643 36.6516 9.42952 36.7926C9.89472 38.9729 15.3923 41.3234 16.8932 41.4249L17.5924 40.965C17.7696 39.7785 17.8673 38.581 17.885 37.381C17.885 35.1589 17.4462 34.5347 17.2999 34.3943C17.1947 34.2702 17.0656 34.1696 16.9206 34.0987C16.7756 34.0278 16.6179 33.9881 16.4573 33.9822C16.0239 34.0235 15.6144 34.2032 15.287 34.4959C15.1598 34.6491 14.9897 34.7588 14.7995 34.8103C14.6094 34.8619 14.4083 34.8527 14.2235 34.784C14.0386 34.7154 13.8788 34.5905 13.7655 34.4264C13.6523 34.2622 13.591 34.0665 13.59 33.8657C13.6067 33.5373 13.7484 33.2287 13.985 33.0055C14.5087 32.3514 16.1062 30.3623 16.1062 28.3553C16.1078 28.0254 16.0604 27.6971 15.9657 27.3816C15.8809 27.0651 15.7931 26.9635 15.4508 26.9635C14.6989 26.9635 13.6163 27.5608 13.3033 27.7878C13.1699 27.9277 12.9986 28.0236 12.8115 28.0634C12.6243 28.1033 12.4298 28.0851 12.2528 28.0113C12.0758 27.9375 11.9244 27.8114 11.8181 27.6492C11.7118 27.487 11.6554 27.2961 11.656 27.1009C11.656 26.5723 11.9486 26.3214 12.6215 25.7718C13.6543 24.9177 16.074 22.9196 16.074 21.1664C16.0731 20.8614 15.9945 20.5618 15.8458 20.2973C15.8298 20.2717 15.8161 20.2447 15.8048 20.2166C15.3806 19.249 14.9651 19.249 14.8305 19.249C14.0552 19.249 13.0194 20.2196 12.4401 20.9095C12.2763 21.1335 12.1124 21.3575 12.0422 21.4681C11.9661 21.6863 11.8167 21.87 11.6205 21.9865C11.4243 22.1029 11.194 22.1446 10.9705 22.1042C10.747 22.0637 10.5448 21.9437 10.3998 21.7654C10.2548 21.5872 10.1764 21.3622 10.1785 21.1306C10.1853 20.8369 10.2883 20.554 10.4711 20.3271C10.6343 20.0559 10.8182 19.7983 11.0211 19.5566C12.1388 18.0304 14.6696 14.5539 14.6696 11.9317C14.6696 11.8361 14.6696 11.7435 14.6696 11.6509C14.5247 10.352 14.3068 9.0626 14.0171 7.78916C13.5958 5.67162 12.1271 4.08569 10.6028 4.08569C10.032 4.09876 9.4787 4.28946 9.01697 4.63226C7.93119 5.39909 6.99956 6.3714 6.27258 7.49647C6.03653 7.85647 5.84673 8.24592 5.70788 8.65528C5.61458 8.88888 5.43684 9.0769 5.21148 9.1804C4.98611 9.28391 4.73038 9.29496 4.49724 9.21128C4.26411 9.12761 4.07144 8.9556 3.95912 8.73089C3.8468 8.50618 3.82346 8.24599 3.89391 8.00419C4.08474 7.44438 4.34428 6.9115 4.66632 6.41827C5.53076 5.08291 6.63701 3.92832 7.92565 3.01648C8.70767 2.44619 9.64178 2.13356 10.6028 2.12048C13.0634 2.12048 15.284 4.3336 15.8984 7.38298C16.2046 8.73526 16.4341 10.1044 16.586 11.4837C16.586 11.6479 16.6036 11.7823 16.6036 11.9287C16.6036 13.7207 15.8048 15.6172 14.8481 17.2837C15.6585 17.2837 16.7703 17.666 17.531 19.3744C17.8296 19.9224 17.9858 20.5393 17.9845 21.1664C17.9845 22.6299 17.1507 23.9858 16.1734 25.0969C16.5742 25.2073 16.9377 25.4278 17.2245 25.7342C17.5113 26.0406 17.7104 26.4213 17.8002 26.8351C17.9462 27.328 18.0192 27.8404 18.0167 28.3553C17.9737 29.6636 17.6073 30.9396 16.9517 32.0647C17.6102 32.1883 18.2129 32.5231 18.6721 33.0205C19.4269 33.8 19.7956 35.2276 19.7956 37.381C19.7788 38.8281 19.6546 40.2718 19.424 41.6997C19.4026 41.8351 19.3535 41.9644 19.2799 42.0791C19.2063 42.1939 19.1099 42.2915 18.9968 42.3657L17.7271 43.202C17.6375 43.2616 17.5385 43.3051 17.4345 43.3304C17.2858 43.3653 17.1336 43.3824 16.981 43.3812L16.978 43.3782Z" fill="#0ADCBF"/>
<path d="M8.15097 8.71204C8.01931 8.82553 9.84499 14.9482 9.64311 17.0209L8.15097 8.71204Z" fill="#CDFFE4"/>
<path d="M9.63719 17.9976H9.54358C9.41672 17.9867 9.29322 17.9503 9.18025 17.8904C9.06729 17.8304 8.96709 17.7482 8.88546 17.6485C8.80382 17.5488 8.74237 17.4335 8.70467 17.3094C8.66697 17.1853 8.65379 17.0548 8.66585 16.9254C8.67057 16.8378 8.67057 16.7501 8.66585 16.6626C8.66585 15.2379 7.95777 12.3289 7.53646 10.5937C7.22047 9.2915 7.1532 8.98985 7.1532 8.74494C7.15378 8.59709 7.18479 8.451 7.24427 8.31619C7.30375 8.18138 7.39034 8.06087 7.49842 7.96244C7.64026 7.84032 7.81368 7.76265 7.99776 7.73879C8.18183 7.71492 8.36874 7.74588 8.53598 7.82793C8.70323 7.90998 8.84368 8.03961 8.94042 8.20124C9.03717 8.36287 9.08608 8.54961 9.08128 8.73896C9.11932 8.96595 9.26853 9.57523 9.40019 10.1188C9.87416 12.0631 10.5881 14.999 10.5881 16.6626C10.5892 16.8132 10.5824 16.9637 10.5676 17.1136C10.5471 17.3576 10.4378 17.5849 10.2613 17.7508C10.0847 17.9166 9.85373 18.009 9.6138 18.0096L9.63719 17.9976Z" fill="#0ADCBF"/>
<path d="M8.75952 30.3505C9.66895 31.271 10.7386 32.0104 11.9135 32.5307L8.75952 30.3505Z" fill="#CDFFE4"/>
<path d="M11.9135 33.5104C11.7807 33.5113 11.6491 33.4839 11.5273 33.4297C10.2409 32.8579 9.06936 32.0478 8.07195 31.0404C7.93995 30.9022 7.85084 30.7273 7.81587 30.5377C7.7809 30.348 7.80161 30.152 7.87537 29.9743C7.94913 29.7966 8.07267 29.6451 8.23049 29.5388C8.38831 29.4325 8.57336 29.3761 8.76243 29.3768C8.89208 29.3771 9.02038 29.4037 9.13991 29.4549C9.25944 29.5062 9.36782 29.5812 9.45877 29.6755C10.2839 30.4968 11.2472 31.1595 12.3026 31.6318C12.5058 31.7216 12.6723 31.8803 12.774 32.0811C12.8756 32.2819 12.9061 32.5123 12.8603 32.7335C12.8145 32.9546 12.6952 33.1527 12.5227 33.2943C12.3501 33.4359 12.1349 33.5122 11.9135 33.5104Z" fill="#0ADCBF"/>
<path d="M6.38965 22.5225C6.38965 22.5374 7.5102 24.3503 8.66882 24.5593L6.38965 22.5225Z" fill="#CDFFE4"/>
<path d="M8.66877 25.5419C8.61228 25.5462 8.55557 25.5462 8.49908 25.5419C7.06837 25.279 5.42993 23.2481 5.42993 22.5373C5.43019 22.3175 5.50287 22.1041 5.63626 21.9316C5.76965 21.7591 5.95598 21.6373 6.16534 21.586C6.3747 21.5346 6.59491 21.5566 6.79054 21.6484C6.98617 21.7403 7.14583 21.8966 7.24391 22.0923C7.5043 22.5224 8.32062 23.5139 8.83849 23.6095C9.07247 23.6556 9.28136 23.7887 9.42475 23.983C9.56814 24.1773 9.63584 24.419 9.61472 24.6613C9.5936 24.9037 9.4852 25.1294 9.31046 25.2948C9.13572 25.4602 8.90706 25.5535 8.66877 25.5568V25.5419Z" fill="#0ADCBF"/>
<path d="M18.122 42.3329C19.2426 42.5479 25.7291 39.851 26.1621 37.0375C26.5863 34.4839 23.5289 35.2007 23.5552 35.1649C23.4938 35.2515 29.3658 33.8717 30.4133 28.8929C31.0248 25.6076 26.3172 28.2418 26.3172 28.1522C26.3172 28.4509 34.2168 23.717 32.2243 18.7502C30.2992 14.4614 26.7092 22.1998 26.5571 21.94C26.7268 22.2775 31.7621 13.7535 28.9241 9.33625C28.1945 8.19348 27.2521 7.20813 26.1504 6.4362C23.4967 4.59044 20.3807 6.78862 19.4796 9.83203C19.0918 11.0291 18.7878 12.2527 18.5697 13.4937C18.0196 17.1613 22.5429 21.5577 22.5049 21.7936C22.5517 21.6055 19.0787 17.3674 17.3028 21.0559C15.4654 24.1292 21.5423 27.5429 21.5218 27.8087C21.5218 27.7221 17.8177 25.5239 17.2648 27.8087C16.4251 30.8701 19.977 34.0538 19.9711 34.1554C19.9711 34.1136 18.0021 32.4679 16.5626 34.0568C15.2548 35.4815 16.5128 40.5468 16.7996 41.5623L18.1162 42.3179L18.122 42.3329Z" fill="#CDFFE4"/>
<path d="M19.1754 34.7229C19.1815 34.735 19.1894 34.7461 19.1988 34.7557C19.1894 34.7461 19.1815 34.735 19.1754 34.7229ZM17.6072 40.9112L18.3708 41.3473C19.6757 41.2338 24.8953 38.8236 25.1967 36.8673C25.2464 36.5687 25.2288 36.3327 25.1469 36.2491C25.1177 36.2192 24.8543 35.9653 23.8157 36.1027H23.7542C23.5418 36.145 23.3217 36.1178 23.1252 36.0251C22.992 35.9614 22.8757 35.8661 22.7858 35.7473C22.7593 35.7158 22.7358 35.6818 22.7156 35.6458C22.6282 35.5017 22.579 35.3369 22.5727 35.1676C22.5664 34.9983 22.6032 34.8301 22.6795 34.6797C22.7559 34.5292 22.8692 34.4015 23.0083 34.3091C23.1474 34.2167 23.3077 34.1627 23.4734 34.1525C23.9386 34.036 28.5935 32.7577 29.4566 28.66C29.4914 28.5114 29.4993 28.3575 29.48 28.206C29.3162 28.1582 28.7252 28.1224 26.958 28.9138C26.685 29.0756 26.3648 29.1338 26.0539 29.0781L25.9486 29.0453C25.7896 28.9768 25.6506 28.8678 25.5448 28.7287C25.4198 28.5619 25.3492 28.3592 25.343 28.1493C25.3415 28.1294 25.3415 28.1094 25.343 28.0895C25.3539 27.8828 25.4285 27.6848 25.5562 27.5239C25.6838 27.363 25.858 27.2474 26.0539 27.1935L26.1797 27.1368L26.4314 27.0263C27.4788 26.411 30.188 24.4428 31.2004 22.0654C31.4212 21.6094 31.546 21.1112 31.5666 20.603C31.5873 20.0948 31.5034 19.5877 31.3203 19.1146C31.0834 18.5919 30.8668 18.4307 30.7791 18.4247C30.5187 18.4068 29.8165 18.7234 28.3273 21.0082L28.3126 21.038C27.4583 22.6269 27.1072 22.9226 26.5571 22.9226H26.5396C26.357 22.9243 26.1775 22.8736 26.0217 22.7763C25.9048 22.6987 25.8052 22.5969 25.7292 22.4776C25.7173 22.4583 25.7066 22.4384 25.697 22.4179C25.5952 22.2174 25.5644 21.9873 25.6097 21.7663C25.655 21.5454 25.7737 21.3472 25.9457 21.2053L26.2382 20.7543C26.405 20.4855 26.5747 20.2137 26.7503 19.9449C27.982 17.5765 29.8984 12.6634 28.1225 9.90078C27.4601 8.8634 26.6041 7.96931 25.6033 7.26953C25.2552 7.01264 24.8502 6.84767 24.4245 6.7893C23.9987 6.73094 23.5654 6.781 23.1632 6.93503C21.9315 7.38004 20.8489 8.63742 20.4013 10.1427C20.0274 11.2968 19.7341 12.4765 19.5236 13.6729C19.1549 16.128 21.7413 19.2998 22.7419 20.5422C22.8712 20.6825 22.9914 20.8311 23.1018 20.9873C23.3944 21.3666 23.5055 21.6115 23.4441 21.9848C23.4469 22.0106 23.4469 22.0366 23.4441 22.0624C23.3971 22.2597 23.2912 22.4371 23.1411 22.5703C22.991 22.7034 22.8041 22.7857 22.6062 22.8057C22.4083 22.8257 22.2093 22.7824 22.0365 22.6819C21.8637 22.5814 21.7258 22.4286 21.6418 22.2446C21.5745 22.155 21.437 21.9878 21.3112 21.8355L21.2849 21.8056C20.7787 21.274 19.8776 20.5303 19.19 20.5721C19.0467 20.5721 18.6049 20.599 18.1719 21.5248C18.1572 21.5517 18.1455 21.5786 18.1309 21.6025C17.1215 23.287 20.2872 25.6494 21.4809 26.5394C22.1831 27.0621 22.5371 27.3249 22.4845 27.9312C22.4684 28.1137 22.4026 28.288 22.2946 28.4343C22.1867 28.5806 22.0407 28.6932 21.8734 28.7594C21.706 28.8256 21.5239 28.8426 21.3475 28.8087C21.1711 28.7748 21.0076 28.6912 20.8753 28.5674C20.3837 28.2329 18.9472 27.6146 18.3737 27.8327C18.3211 27.8536 18.2538 27.8775 18.204 28.0836C17.8149 29.5052 18.5873 31.2494 20.4891 33.3072C20.5689 33.3894 20.6441 33.4762 20.7143 33.5671C20.7989 33.6619 20.8625 33.7742 20.9008 33.8963C20.9392 34.0185 20.9514 34.1475 20.9367 34.2749C20.921 34.4631 20.8524 34.6427 20.7393 34.7921C20.6262 34.9416 20.4733 35.0546 20.2988 35.1176C20.1244 35.1806 19.9359 35.191 19.7559 35.1475C19.5758 35.104 19.4118 35.0084 19.2836 34.8722C19.1198 34.7378 18.0285 33.9225 17.2736 34.7587C16.6621 35.4248 16.9577 38.4084 17.6247 40.9441L17.6072 40.9112ZM18.2186 43.3006C18.1206 43.301 18.0228 43.293 17.9261 43.2767C17.8233 43.2565 17.7244 43.2192 17.6335 43.1662L16.3169 42.4106C16.0966 42.2849 15.9337 42.0756 15.8634 41.8282C15.4362 40.3109 14.1664 35.2127 15.8634 33.3819C16.2704 32.9178 16.8079 32.5934 17.4024 32.453C16.2876 30.6879 15.9395 29.0423 16.3432 27.537C16.4213 27.1562 16.5984 26.8039 16.8557 26.517C17.1131 26.2301 17.4414 26.0191 17.8061 25.9063C16.4164 24.4398 15.3192 22.5254 16.4573 20.5721C17.0601 19.3446 17.9436 18.6576 18.9823 18.568C18.0636 16.9941 17.3468 15.1334 17.6189 13.3324C17.8425 12.0416 18.1574 10.7689 18.561 9.52445C19.1842 7.43379 20.6997 5.70153 22.5166 5.04447C23.2054 4.78905 23.9445 4.70726 24.6709 4.80606C25.3973 4.90487 26.0896 5.18134 26.6888 5.61194C27.8976 6.4595 28.9315 7.54124 29.7317 8.79571C31.177 11.0447 30.8551 14.0522 30.1442 16.561C30.3959 16.4873 30.6581 16.458 30.9195 16.4744C31.5486 16.5162 32.438 16.8746 33.0934 18.3381C34.0882 20.82 33.2543 23.4931 30.6942 26.1034C30.6942 26.1034 30.5538 26.2408 30.3314 26.4469C30.468 26.512 30.5966 26.5932 30.7147 26.6888C31.1419 27.0352 31.5924 27.7281 31.3467 29.0781C30.7147 32.0857 28.5438 33.9553 26.6391 35.0096C26.9726 35.4188 27.2827 36.1057 27.1013 37.1899C26.9229 38.3607 26.0305 39.5344 24.4506 40.6693C22.4698 42.097 19.5587 43.3125 18.2274 43.3125L18.2186 43.3006Z" fill="#0ADCBF"/>
<path d="M21.5248 12.7202C21.554 12.6157 25.2961 16.0683 25.0767 18.3949L21.5248 12.7202Z" fill="#CDFFE4"/>
<path d="M25.0796 19.3625H24.986C24.8594 19.3516 24.7362 19.3153 24.6234 19.2555C24.5106 19.1958 24.4106 19.1139 24.329 19.0145C24.2474 18.9151 24.1859 18.8002 24.148 18.6764C24.1101 18.5526 24.0966 18.4224 24.1082 18.2933C24.2487 16.7999 21.7237 14.1119 21.0683 13.5923C20.8753 13.4892 20.7223 13.3222 20.6346 13.1187C20.5469 12.9151 20.5296 12.6872 20.5856 12.4723C20.6497 12.2344 20.798 12.0294 21.0018 11.8969C21.2057 11.7645 21.4504 11.714 21.6886 11.7555C22.5488 11.9137 26.2704 15.8532 26.0217 18.4784C26.0012 18.7225 25.8919 18.9498 25.7154 19.1157C25.5388 19.2815 25.3078 19.3738 25.0679 19.3744L25.0796 19.3625Z" fill="#0ADCBF"/>
<path d="M21.0479 30.1772C21.4084 31.1363 21.8872 32.0446 22.4727 32.8802L21.0479 30.1772Z" fill="#CDFFE4"/>
<path d="M22.4815 33.8627C22.3263 33.863 22.1733 33.8248 22.0357 33.7515C21.8981 33.6781 21.78 33.5718 21.6915 33.4416C21.3989 33.0235 19.977 30.7387 20.1087 30.001C20.1469 29.7852 20.2549 29.5887 20.4155 29.443C20.576 29.2973 20.7799 29.2108 20.9943 29.1974C21.2087 29.184 21.4214 29.2444 21.5982 29.369C21.775 29.4935 21.9057 29.6751 21.9695 29.8845C22.3048 30.7464 22.7409 31.5637 23.2685 32.3186C23.3689 32.4658 23.4279 32.6381 23.4392 32.817C23.4505 32.996 23.4135 33.1746 23.3325 33.3337C23.2514 33.4927 23.1293 33.6261 22.9793 33.7193C22.8293 33.8126 22.6571 33.8622 22.4815 33.8627Z" fill="#0ADCBF"/>
<path d="M21.5452 23.8783C21.5452 23.8783 22.3029 25.2402 23.3709 25.4582L21.5452 23.8783Z" fill="#CDFFE4"/>
<path d="M23.3709 26.4379C23.3081 26.4379 23.2454 26.4319 23.1837 26.42C22.0602 26.1901 21.2468 25.2254 20.7611 24.4459L21.5452 23.8784L21.6798 22.9077C21.823 22.9342 21.9593 22.9905 22.0801 23.0733C22.2009 23.156 22.3037 23.2634 22.382 23.3886C22.8414 24.1203 23.2919 24.4399 23.5523 24.4966C23.7873 24.5431 23.9967 24.6775 24.1396 24.8734C24.2824 25.0694 24.3484 25.3128 24.3246 25.5558C24.3008 25.7989 24.1889 26.0241 24.0109 26.1873C23.8328 26.3505 23.6014 26.4399 23.3621 26.4379H23.3709Z" fill="#0ADCBF"/>
<path d="M18.397 43.0407C19.2748 42.3568 23.2714 36.8166 22.6541 34.1614C22.0367 31.5063 19.4942 33.0235 19.4942 33.0235C19.4942 33.0235 24.2311 30.0368 24.2311 25.3418C24.2311 22.0983 20.0442 24.9058 20.0442 24.9058C20.0442 24.9058 26.9696 20.1809 25.1849 15.7815C23.4001 11.3822 19.4942 18.2276 19.4942 18.2276C19.4942 18.2276 24.6436 10.8685 23.2012 6.54378C22.7591 5.27388 22.1413 4.07504 21.3667 2.98367C20.9514 2.36644 20.3951 1.86166 19.746 1.51291C19.0968 1.16416 18.3743 0.981934 17.6407 0.981934C16.9072 0.981934 16.1846 1.16416 15.5355 1.51291C14.8863 1.86166 14.3301 2.36644 13.9147 2.98367C13.1403 4.07561 12.5216 5.27429 12.0773 6.54378C10.6349 10.8685 15.3981 17.5944 15.3981 17.5944C15.3981 17.5944 11.8871 11.3762 10.0966 15.7755C8.30597 20.1749 15.2372 24.8998 15.2372 24.8998C15.2372 24.8998 11.0474 22.0923 11.0474 25.3358C11.0474 30.0398 15.7872 33.0175 15.7872 33.0175C15.7872 33.0175 13.2447 31.5003 12.6274 34.1554C12.01 36.8106 15.992 42.3508 16.8844 43.0348L18.397 43.0407Z" fill="white"/>
<path d="M17.2443 42.0581H18.0196C19.108 40.9113 22.145 36.267 21.7091 34.3884C21.6418 34.0897 21.5101 33.7343 21.2643 33.6238C20.8928 33.4595 20.2169 33.7253 19.9653 33.8747C19.7468 33.9943 19.4915 34.0233 19.2526 33.9556C19.0137 33.8878 18.8096 33.7286 18.6829 33.511C18.5562 33.2935 18.5166 33.0344 18.5723 32.7878C18.6281 32.5412 18.7749 32.3261 18.9822 32.1872C19.0232 32.1633 23.2626 29.4276 23.2626 25.3418C23.2626 24.9655 23.1836 24.8072 23.1544 24.7893C22.8238 24.6071 21.5393 25.07 20.5621 25.7241C20.457 25.7953 20.3393 25.8446 20.2155 25.8694C20.0917 25.8941 19.9644 25.8937 19.8408 25.8681C19.7172 25.8426 19.5997 25.7925 19.495 25.7206C19.3904 25.6488 19.3007 25.5566 19.2309 25.4493C19.1612 25.342 19.1128 25.2218 19.0886 25.0955C19.0644 24.9691 19.0648 24.8391 19.0898 24.7129C19.1148 24.5867 19.1639 24.4668 19.2343 24.36C19.3047 24.2532 19.395 24.1616 19.5001 24.0904C21.2555 22.8957 25.5009 19.1475 24.2896 16.1578C24.0731 15.6262 23.8185 15.3036 23.6079 15.2887C23.0227 15.2409 21.9753 16.2952 21.0859 17.5317C20.6411 18.2604 20.3193 18.7263 20.2666 18.798C20.1285 19.0162 19.9111 19.1695 19.6623 19.2241C19.4135 19.2788 19.1536 19.2302 18.9398 19.0892C18.726 18.9482 18.5759 18.7263 18.5224 18.4723C18.4689 18.2183 18.5164 17.953 18.6545 17.7348C18.9242 17.2668 19.2171 16.8132 19.5322 16.3758C21.0478 13.8551 23.1573 9.47368 22.2854 6.86035C21.8738 5.67957 21.2984 4.56514 20.5768 3.55113C20.2505 3.06143 19.8119 2.6606 19.2991 2.38357C18.7864 2.10654 18.215 1.96171 17.6349 1.96171C17.0547 1.96171 16.4834 2.10654 15.9706 2.38357C15.4579 2.6606 15.0193 3.06143 14.693 3.55113C13.9717 4.56579 13.3954 5.68002 12.9814 6.86035C12.1037 9.48264 14.0318 13.5564 15.4215 15.8651C15.7119 16.2649 15.9805 16.6807 16.2261 17.1106C16.3642 17.3288 16.4118 17.5941 16.3583 17.8481C16.3048 18.1021 16.1546 18.324 15.9409 18.465C15.7271 18.606 15.4672 18.6545 15.2183 18.5999C14.9695 18.5453 14.7521 18.392 14.614 18.1738C14.5672 18.1081 14.2775 17.6959 13.8796 17.0419C13.1423 16.0354 12.2675 15.1872 11.7555 15.1872H11.7263C11.498 15.1872 11.2172 15.5635 10.9772 16.1548C9.76303 19.1415 14.023 22.8957 15.7668 24.0874C15.979 24.2312 16.1266 24.4551 16.1771 24.71C16.2275 24.9648 16.1768 25.2297 16.0359 25.4463C15.8951 25.663 15.6757 25.8136 15.4261 25.8652C15.1764 25.9167 14.9169 25.8649 14.7047 25.7211C13.7246 25.07 12.4372 24.6071 12.1095 24.7863C12.0832 24.8042 12.0042 24.9625 12.0042 25.3388C12.0042 29.4485 16.2407 32.1574 16.2846 32.1842C16.5031 32.3181 16.6605 32.5351 16.7222 32.7874C16.7839 33.0397 16.7449 33.3067 16.6138 33.5297C16.4826 33.7527 16.2701 33.9134 16.0229 33.9764C15.7757 34.0394 15.5141 33.9996 15.2957 33.8657C15.047 33.7224 14.3712 33.4595 14.0025 33.6208C13.7568 33.7313 13.6251 34.0987 13.5578 34.3854C13.1189 36.264 16.1588 40.9083 17.2472 42.0551L17.2443 42.0581ZM18.3883 44.0204H16.8756C16.6646 44.0223 16.4589 43.953 16.2905 43.8232C15.2811 43.0497 10.9246 37.163 11.6765 33.9344C11.9369 32.8055 12.4987 32.235 12.9931 31.9423C11.5946 30.4759 10.0673 28.215 10.0673 25.3418C10.0673 23.9679 10.673 23.3437 11.1821 23.063C11.286 23.0064 11.3947 22.9594 11.5068 22.9226C9.71916 20.9544 8.0573 18.1917 9.18665 15.4052C9.88299 13.6938 10.8749 13.2787 11.5888 13.2309C11.7037 13.2219 11.8191 13.2219 11.934 13.2309C11.0358 11.0028 10.4272 8.38952 11.147 6.22419C11.6193 4.86598 12.2794 3.58368 13.1072 2.4162C13.6111 1.67019 14.285 1.0603 15.0708 0.638987C15.8567 0.217675 16.7311 -0.00244141 17.6188 -0.00244141C18.5065 -0.00244141 19.3808 0.217675 20.1667 0.638987C20.9526 1.0603 21.6265 1.67019 22.1304 2.4162C22.9593 3.58298 23.6195 4.86545 24.0907 6.22419C24.7987 8.34472 24.1521 11.0028 23.2129 13.3533C23.3859 13.3235 23.5616 13.3145 23.7366 13.3265C24.4359 13.3742 25.4043 13.7745 26.0772 15.4171C27.2066 18.2037 25.5418 20.9663 23.7571 22.9346C23.8685 22.9708 23.9763 23.0178 24.0789 23.0749C24.591 23.3557 25.1966 23.9709 25.1966 25.3537C25.1966 28.2269 23.6723 30.4878 22.2708 31.9543C22.7682 32.2529 23.327 32.8174 23.5903 33.9464C24.3422 37.1749 19.9858 43.0616 18.9764 43.8352C18.808 43.965 18.6022 44.0343 18.3912 44.0323L18.3883 44.0204Z" fill="#0ADCBF"/>
<path d="M15.167 6.97388C15.167 6.97388 18.2595 11.863 18.0021 14.1777L15.167 6.97388Z" fill="white"/>
<path d="M18.002 15.1573C17.966 15.1603 17.9298 15.1603 17.8938 15.1573C17.7683 15.1432 17.6467 15.1039 17.5361 15.0417C17.4254 14.9796 17.3279 14.8957 17.2491 14.795C17.1703 14.6943 17.1117 14.5787 17.0767 14.4548C17.0418 14.3309 17.0311 14.2012 17.0453 14.0731C17.2062 12.6455 15.4829 9.29449 14.3594 7.50249C14.2213 7.28387 14.1739 7.01819 14.2277 6.7639C14.2815 6.50961 14.432 6.28755 14.6462 6.14655C14.8603 6.00556 15.1206 5.95719 15.3697 6.01208C15.6188 6.06697 15.8364 6.22062 15.9745 6.43924C16.311 6.97087 19.2426 11.6988 18.9558 14.2852C18.9292 14.5244 18.8173 14.7452 18.6414 14.9055C18.4655 15.0658 18.2379 15.1544 18.002 15.1543V15.1573Z" fill="#0ADCBF"/>
<path d="M15.3981 27.8745C16.0029 28.9483 16.7579 29.9262 17.6392 30.7775L15.3981 27.8745Z" fill="white"/>
<path d="M17.6393 31.7601C17.393 31.7593 17.1563 31.662 16.9781 31.4883C16.0204 30.5654 15.202 29.5025 14.5497 28.3344C14.4302 28.1047 14.405 27.836 14.4796 27.5873C14.5542 27.3386 14.7226 27.1303 14.9476 27.0084C15.1727 26.8864 15.4359 26.8606 15.6795 26.9368C15.9232 27.013 16.1272 27.1848 16.2467 27.4146C16.8021 28.3937 17.4917 29.2868 18.2947 30.0667C18.4338 30.2022 18.5299 30.3771 18.5708 30.5689C18.6116 30.7607 18.5952 30.9605 18.5238 31.1427C18.4523 31.3249 18.3291 31.4811 18.1699 31.5912C18.0107 31.7012 17.8228 31.76 17.6306 31.7601H17.6393Z" fill="#0ADCBF"/>
<path d="M14.6111 20.0286C14.6111 20.0286 15.5444 21.7459 16.6591 21.9848L14.6111 20.0286Z" fill="white"/>
<path d="M16.6387 22.9644C16.5709 22.9649 16.5032 22.9579 16.4368 22.9435C14.9739 22.6269 13.947 20.8529 13.7568 20.5034C13.6955 20.3908 13.6566 20.2671 13.6422 20.1391C13.6277 20.0112 13.6381 19.8816 13.6728 19.7578C13.7074 19.6339 13.7656 19.5183 13.844 19.4174C13.9225 19.3165 14.0196 19.2324 14.1299 19.1699C14.2401 19.1073 14.3614 19.0675 14.4867 19.0528C14.6121 19.0381 14.739 19.0487 14.8603 19.0841C14.9816 19.1194 15.0949 19.1788 15.1937 19.2589C15.2926 19.339 15.3749 19.4381 15.4362 19.5507C15.7288 20.1092 16.3988 20.9305 16.8347 21.0261C17.0669 21.0758 17.2729 21.2116 17.4127 21.4073C17.5526 21.6029 17.6165 21.8445 17.5921 22.0854C17.5678 22.3263 17.4569 22.5494 17.2808 22.7118C17.1047 22.8741 16.876 22.9641 16.6387 22.9644Z" fill="#0ADCBF"/>
<path d="M12.0657 44.0204C12.0477 43.1716 12.1959 42.3277 12.5016 41.5381C12.8074 40.7486 13.2645 40.0293 13.8462 39.4225C14.4279 38.8158 15.1225 38.3337 15.8891 38.0045C16.6558 37.6754 17.4791 37.5059 18.3108 37.5059C19.1425 37.5059 19.9658 37.6754 20.7324 38.0045C21.499 38.3337 22.1936 38.8158 22.7753 39.4225C23.357 40.0293 23.8141 40.7486 24.1199 41.5381C24.4256 42.3277 24.5739 43.1716 24.5559 44.0204H12.0657Z" fill="white"/>
<path d="M13.113 43.0407H23.5084C23.2858 41.7992 22.6438 40.6766 21.6941 39.8685C20.7444 39.0603 19.5471 38.6177 18.3107 38.6177C17.0743 38.6177 15.8771 39.0603 14.9273 39.8685C13.9776 40.6766 13.3356 41.7992 13.113 43.0407ZM24.5558 44.9999H12.0656C11.9394 45.0003 11.8142 44.9753 11.6975 44.9262C11.5807 44.8772 11.4746 44.8051 11.3851 44.7141C11.2957 44.6231 11.2248 44.5149 11.1764 44.3959C11.1279 44.2769 11.103 44.1492 11.103 44.0203C11.141 42.0946 11.9171 40.2609 13.2647 38.9127C14.6123 37.5646 16.4239 36.8094 18.3107 36.8094C20.1976 36.8094 22.0092 37.5646 23.3567 38.9127C24.7043 40.2609 25.4804 42.0946 25.5184 44.0203C25.5184 44.1492 25.4935 44.2769 25.4451 44.3959C25.3967 44.5149 25.3257 44.6231 25.2363 44.7141C25.1469 44.8051 25.0407 44.8772 24.924 44.9262C24.8072 44.9753 24.6821 45.0003 24.5558 44.9999Z" fill="#0ADCBF"/>
</g>
<defs>
<clipPath id="clip0_234_8717">
<rect width="33" height="45" fill="white" transform="translate(0.5)"/>
</clipPath>
</defs>
</svg>
