<svg width="38" height="47" viewBox="0 0 38 47" fill="none" xmlns="http://www.w3.org/2000/svg">
<g clip-path="url(#clip0_136_2233)">
<path d="M22.9524 13.9886V4.51855H15.8789V13.9886C12.6034 14.7996 9.68932 16.7127 7.60461 19.4209C5.51989 22.1291 4.38545 25.4751 4.38342 28.9219C4.38342 30.9397 4.77241 32.9378 5.52813 34.8017C6.28385 36.6657 7.39148 38.3589 8.78765 39.7847C10.1838 41.2104 11.8411 42.3406 13.6648 43.1107C15.4884 43.8807 17.4427 44.2754 19.4156 44.2723C21.3889 44.276 23.3435 43.8816 25.1676 43.1118C26.9917 42.342 28.6495 41.2118 30.0461 39.7861C31.4427 38.3603 32.5506 36.6668 33.3066 34.8026C34.0626 32.9384 34.4517 30.94 34.4517 28.9219C34.4487 25.4748 33.3135 22.1286 31.2282 19.4205C29.1428 16.7124 26.2283 14.7995 22.9524 13.9886Z" fill="white"/>
<path d="M19.4157 45.1933C15.1967 45.1891 11.1516 43.4738 8.16759 40.4234C5.18361 37.373 3.5044 33.2367 3.49829 28.9218C3.48903 26.468 4.02877 24.0446 5.07618 21.837C5.12637 21.7297 5.19683 21.6336 5.2835 21.5542C5.37017 21.4749 5.47132 21.4139 5.58116 21.3748C5.69099 21.3356 5.80731 21.3191 5.92342 21.3261C6.03953 21.3332 6.15314 21.3637 6.25767 21.4158C6.46819 21.521 6.62933 21.7073 6.7058 21.9338C6.78227 22.1603 6.76783 22.4085 6.66561 22.6242C5.73608 24.587 5.25696 26.7409 5.26475 28.9218C5.27086 32.7576 6.76397 36.4343 9.41668 39.1459C12.0694 41.8574 15.6652 43.3825 19.4157 43.3867C23.1664 43.3835 26.7628 41.8588 29.4158 39.147C32.0687 36.4352 33.5615 32.7579 33.5665 28.9218C33.5761 25.6744 32.5129 22.519 30.5493 19.967C28.5857 17.4151 25.8369 15.6163 22.7484 14.8624C22.5554 14.814 22.3838 14.7008 22.2611 14.541C22.1383 14.3812 22.0714 14.1839 22.0711 13.9807V5.41591H16.764V13.9807C16.7637 14.1839 16.6969 14.3812 16.5741 14.541C16.4513 14.7008 16.2797 14.814 16.0867 14.8624C13.0883 15.6102 10.4087 17.3341 8.45129 19.7745C8.30305 19.9599 8.08899 20.0777 7.856 20.1021C7.62301 20.1264 7.39008 20.0553 7.20824 19.9044C7.02725 19.7515 6.91272 19.5316 6.88965 19.2927C6.86658 19.0538 6.93683 18.8153 7.08508 18.6291C9.13317 16.0725 11.8905 14.2103 14.9937 13.2879V4.51063C14.9937 4.27053 15.087 4.04027 15.253 3.87049C15.419 3.70072 15.6441 3.60535 15.8789 3.60535H22.9563C23.1903 3.60639 23.4145 3.70223 23.5797 3.87189C23.7449 4.04155 23.8376 4.27121 23.8376 4.51063V13.2879C27.1554 14.2601 30.0726 16.3127 32.1465 19.1341C34.2205 21.9556 35.3379 25.392 35.3292 28.9218C35.3241 33.237 33.6452 37.3739 30.661 40.4245C27.6768 43.4751 23.6311 45.1902 19.4118 45.1933H19.4157Z" fill="#1193FF"/>
<path d="M15.8789 1.80664C15.6442 1.80664 15.419 1.90202 15.253 2.07179C15.087 2.24156 14.9937 2.47183 14.9937 2.71192C14.9948 2.95134 15.0885 3.18058 15.2544 3.34951C15.4202 3.51843 15.6448 3.61326 15.8789 3.61326H22.9563C23.1897 3.61223 23.4133 3.51693 23.5783 3.34811C23.7434 3.1793 23.8366 2.95066 23.8376 2.71192C23.8376 2.47251 23.7449 2.24285 23.5797 2.07318C23.4145 1.90352 23.1904 1.80768 22.9563 1.80664H15.8789ZM22.9563 5.42385H15.8789C15.176 5.4228 14.5021 5.13673 14.005 4.62838C13.508 4.12002 13.2283 3.43085 13.2273 2.71192C13.2283 1.993 13.508 1.30383 14.005 0.795468C14.5021 0.28711 15.176 0.00104117 15.8789 0H22.9563C23.6592 0.00104117 24.3331 0.28711 24.8301 0.795468C25.3272 1.30383 25.6069 1.993 25.6079 2.71192C25.6069 3.43085 25.3272 4.12002 24.8301 4.62838C24.3331 5.13673 23.6592 5.4228 22.9563 5.42385Z" fill="#1193FF"/>
<path d="M13.0078 15.9252C12.8403 15.9259 12.676 15.8778 12.5342 15.7865C12.3924 15.6952 12.2791 15.5644 12.2073 15.4096C12.1074 15.1924 12.0959 14.9436 12.1752 14.7177C12.2546 14.4919 12.4184 14.3075 12.6307 14.2051C14.7526 13.1782 17.0719 12.6483 19.4194 12.6543C19.6535 12.6543 19.8781 12.7492 20.044 12.9181C20.2099 13.087 20.3036 13.3163 20.3046 13.5557C20.3046 13.7958 20.2113 14.026 20.0453 14.1958C19.8793 14.3656 19.6542 14.461 19.4194 14.461C17.3329 14.4561 15.2715 14.9267 13.385 15.8386C13.2647 15.8968 13.1332 15.9264 13.0001 15.9252H13.0078Z" fill="#1193FF"/>
<path d="M16.8949 34.2552C16.079 33.4247 11.8533 28.5834 18.4343 25.2023C25.0152 21.8213 22.4559 18.6449 22.4559 18.6449C22.4559 18.6449 31.3075 28.9494 20.7241 35.1762L16.9064 34.2394L16.8949 34.2552Z" fill="#CDFFE4"/>
<path d="M17.3528 33.4364L20.5702 34.2236C23.1025 32.6492 24.5726 30.7048 24.9382 28.4259C25.3231 25.9816 24.4225 23.5492 23.4796 21.8016C22.8369 23.3287 21.2744 24.7378 18.8191 26.0013C16.9641 26.9577 15.925 28.0874 15.7403 29.3587C15.4632 31.1221 16.814 32.8224 17.3682 33.4325L17.3528 33.4364ZM20.7049 36.1169C20.6362 36.117 20.5678 36.1091 20.5009 36.0932L16.6793 35.1525C16.5209 35.1147 16.3758 35.033 16.2599 34.9164C15.6133 34.2512 13.5351 31.8778 13.9739 29.095C14.2663 27.2175 15.6287 25.6431 18.0148 24.4111C20.9743 22.8879 21.8132 21.5221 21.9941 20.6483C22.0498 20.4085 22.0574 20.1596 22.0164 19.9168C21.9754 19.6739 21.8866 19.4421 21.7555 19.2353C21.6081 19.0522 21.5367 18.8173 21.5569 18.581C21.577 18.3447 21.6871 18.126 21.8633 17.9718C22.0403 17.8192 22.2689 17.7435 22.4998 17.7612C22.7308 17.7788 22.9457 17.8884 23.0986 18.0663C23.2833 18.2749 27.5475 23.313 26.6739 28.7408C26.2044 31.6692 24.3417 34.1095 21.1474 35.9948C21.0128 36.074 20.8602 36.1161 20.7049 36.1169Z" fill="#0ADCBF"/>
<path d="M18.5806 39.1712C18.3911 39.1704 18.2068 39.1083 18.054 38.9938C17.9012 38.8792 17.7878 38.7181 17.7301 38.5336C17.3452 37.3252 17.73 30.8898 20.7665 27.4104C21.4826 26.6339 22.0841 25.7548 22.5522 24.8008C22.6474 24.5848 22.8218 24.4158 23.0379 24.3303C23.254 24.2449 23.4943 24.2499 23.7068 24.3442C23.9173 24.4423 24.0819 24.6208 24.1654 24.8415C24.2488 25.0622 24.2444 25.3076 24.1532 25.525C23.6123 26.6476 22.912 27.6822 22.075 28.5951C19.5196 31.5314 19.2117 37.1481 19.4119 37.9904C19.4457 38.1036 19.4574 38.2225 19.4464 38.3404C19.4353 38.4582 19.4017 38.5726 19.3473 38.6772C19.293 38.7817 19.2191 38.8743 19.1298 38.9496C19.0405 39.0249 18.9376 39.0815 18.8269 39.1161C18.7434 39.1426 18.6564 39.1559 18.569 39.1555L18.5806 39.1712Z" fill="#0ADCBF"/>
<path d="M5.6958 37.3292C10.2551 37.7863 14.8347 37.9978 19.4157 37.9629C23.9967 37.998 28.5763 37.7865 33.1355 37.3292V40.9464C28.5762 41.4021 23.9966 41.6123 19.4157 41.5762C14.8348 41.6121 10.2552 41.4019 5.6958 40.9464V37.3292Z" fill="#CDFFE4"/>
<path d="M6.58097 40.1317C9.94455 40.478 14.5589 40.6748 19.4157 40.6748C24.2725 40.6748 28.8907 40.478 32.2543 40.1317V38.3329C28.8483 38.6753 24.2456 38.8682 19.4157 38.8682C14.5858 38.8682 9.98688 38.6753 6.58097 38.3329V40.1317ZM19.4157 42.4933C14.8013 42.5279 10.1883 42.3151 5.59575 41.8556C5.38252 41.8278 5.18659 41.7212 5.04484 41.5559C4.90308 41.3906 4.82526 41.1781 4.82606 40.9582V37.341C4.82596 37.2137 4.85234 37.0879 4.90343 36.9719C4.95452 36.8558 5.02916 36.7522 5.1224 36.668C5.21449 36.5818 5.32378 36.5171 5.44272 36.4783C5.56166 36.4396 5.68741 36.4278 5.81127 36.4436C10.3361 36.8951 14.881 37.104 19.4272 37.0694C23.966 37.0992 28.5031 36.8863 33.0201 36.4318C33.1439 36.4172 33.2693 36.4297 33.3881 36.4684C33.5068 36.5071 33.6162 36.5711 33.709 36.6561C33.8022 36.7404 33.8769 36.844 33.9279 36.9601C33.979 37.0761 34.0054 37.2019 34.0053 37.3292V40.9464C34.0053 41.166 33.9272 41.3782 33.7856 41.5433C33.644 41.7084 33.4485 41.8152 33.2356 41.8438C28.643 42.3033 24.0301 42.5161 19.4157 42.4814V42.4933Z" fill="#0ADCBF"/>
<path d="M7.31981 37.4945L4.4219 46.0947H0.885132L3.53674 37.3292L7.31981 37.4945Z" fill="#CDFFE4"/>
<path d="M2.08205 45.1933H3.79079L6.09988 38.3486L4.17563 38.262L2.0782 45.1933H2.08205ZM4.41809 46.9999H0.881327C0.742935 47.0001 0.606431 46.9671 0.482784 46.9035C0.359136 46.8399 0.251799 46.7476 0.169366 46.6339C0.0898944 46.5217 0.0367466 46.3924 0.0140542 46.2559C-0.00863815 46.1194 -0.000275056 45.9793 0.0385066 45.8467L2.69012 37.0772C2.74895 36.8875 2.86703 36.7228 3.02623 36.6083C3.18543 36.4938 3.37695 36.4359 3.57142 36.4435L7.35449 36.6088C7.49205 36.6143 7.62645 36.6527 7.74679 36.7211C7.86713 36.7895 7.97003 36.8859 8.04722 37.0024C8.12229 37.1167 8.17101 37.247 8.18968 37.3834C8.20834 37.5197 8.19648 37.6587 8.15498 37.7896L5.25321 46.3898C5.19373 46.568 5.08123 46.7226 4.93145 46.832C4.78167 46.9415 4.60215 47.0002 4.41809 46.9999Z" fill="#0ADCBF"/>
<path d="M30.9919 37.5418L33.5781 46.0947H37.1187L34.4633 37.3292L30.9919 37.5418Z" fill="#CDFFE4"/>
<path d="M34.2285 45.1934H35.918L33.8244 38.2739L32.1657 38.3762L34.2285 45.1934ZM37.1149 47.0001H33.5781C33.3891 47.0013 33.2048 46.9399 33.0528 46.8249C32.9009 46.7099 32.7894 46.5477 32.7353 46.3624L30.1453 37.8095C30.1046 37.6777 30.0942 37.5381 30.1148 37.4016C30.1355 37.265 30.1868 37.1352 30.2646 37.0222C30.3396 36.908 30.4394 36.8131 30.5563 36.7448C30.6731 36.6765 30.8038 36.6368 30.9381 36.6286L34.4017 36.4161C34.5991 36.4029 34.7951 36.4583 34.9579 36.5733C35.1207 36.6883 35.2407 36.8562 35.2984 37.0498L37.9539 45.8193C37.9909 45.9524 37.9981 46.0923 37.9748 46.2286C37.9514 46.365 37.8982 46.4942 37.8192 46.6065C37.7371 46.7206 37.6299 46.8133 37.5062 46.8769C37.3824 46.9405 37.2457 46.9733 37.1072 46.9725L37.1149 47.0001Z" fill="#0ADCBF"/>
</g>
<defs>
<clipPath id="clip0_136_2233">
<rect width="38" height="47" fill="white"/>
</clipPath>
</defs>
</svg>
