<svg width="34" height="48" viewBox="0 0 34 48" fill="none" xmlns="http://www.w3.org/2000/svg">
<g clip-path="url(#clip0_234_6991)">
<path d="M20.127 43.3853H8.08103C5.62852 43.3853 2.87761 41.4196 2.24813 38.9636C0.490531 31.4062 0.490531 23.556 2.24813 15.9986C2.87761 13.5225 5.62035 11.5769 8.08103 11.5769H20.127C22.5795 11.5769 25.3345 13.5385 25.9639 15.9986C27.7175 23.5565 27.7175 31.4057 25.9639 38.9636C25.3345 41.4397 22.5917 43.3853 20.127 43.3853Z" fill="white"/>
<path d="M8.08497 12.4613C5.96763 12.4613 3.66636 14.2099 3.15951 16.2037C1.44475 23.6206 1.44475 31.3215 3.15951 38.7385C3.66227 40.7122 5.96355 42.4608 8.06453 42.4608H20.1064C22.2237 42.4608 24.525 40.7122 25.0318 38.7184C26.7424 31.301 26.7424 23.601 25.0318 16.1836C24.5291 14.2099 22.2278 12.4613 20.1268 12.4613H8.08497ZM20.1268 44.3098H8.08497C5.08473 44.3098 2.05996 42.0025 1.33647 39.1686C-0.443698 31.4685 -0.443698 23.4736 1.33647 15.7736C2.06404 12.9235 5.08882 10.6162 8.08906 10.6162H20.1309C23.1311 10.6162 26.1559 12.9235 26.8753 15.7575C28.6533 23.4565 28.6533 31.4495 26.8753 39.1485C26.1477 42.0025 23.123 44.3098 20.1227 44.3098H20.1268Z" fill="#FFB827"/>
<path d="M21.1774 47.0754H7.03052L6.0863 43.3853H22.1216L21.1774 47.0754Z" fill="#FFF8AA"/>
<path d="M7.76624 46.1549H20.4375L20.9117 44.3099H7.28391L7.75806 46.1549H7.76624ZM21.1774 48H7.03047C6.82136 48.0005 6.61818 47.9317 6.4536 47.8049C6.28901 47.678 6.17258 47.5004 6.12306 47.3006L5.17884 43.6104C5.1422 43.4725 5.13862 43.3281 5.16841 43.1886C5.1982 43.0491 5.26055 42.9183 5.35051 42.8065C5.43767 42.695 5.54971 42.6048 5.678 42.5428C5.8063 42.4807 5.94739 42.4486 6.09035 42.4487H22.1216C22.2646 42.4486 22.4056 42.4807 22.5339 42.5428C22.6622 42.6048 22.7743 42.695 22.8614 42.8065C22.9514 42.9183 23.0137 43.0491 23.0435 43.1886C23.0733 43.3281 23.0698 43.4725 23.0331 43.6104L22.0889 47.3006C22.0386 47.5007 21.9214 47.6784 21.7561 47.8052C21.5908 47.9321 21.387 48.0007 21.1774 48Z" fill="#FFB827"/>
<path d="M20.7073 11.5609H7.50464V3.38467C7.50336 2.74288 7.75884 2.12637 8.21588 1.66825C8.44938 1.4328 8.72845 1.2457 9.03663 1.11799C9.34481 0.990267 9.67587 0.924496 10.0103 0.924579H18.1853C18.7973 0.922249 19.3884 1.14278 19.8449 1.54364C20.111 1.77363 20.3241 2.05682 20.4701 2.37431C20.616 2.6918 20.6913 3.03626 20.691 3.38467V11.5609H20.7073Z" fill="white"/>
<path d="M20.7074 12.4613H7.50471C7.25608 12.4613 7.01758 12.3644 6.84139 12.1919C6.6652 12.0194 6.56566 11.7853 6.56458 11.5408V8.36915C6.56457 8.24793 6.58893 8.1279 6.63623 8.01595C6.68352 7.904 6.75284 7.80235 6.84019 7.71682C6.92754 7.63129 7.03122 7.56358 7.14526 7.51755C7.2593 7.47153 7.38145 7.4481 7.50471 7.44863C7.62798 7.4481 7.75014 7.47153 7.86418 7.51755C7.97822 7.56358 8.08189 7.63129 8.16925 7.71682C8.2566 7.80235 8.32592 7.904 8.37321 8.01595C8.42051 8.1279 8.44485 8.24793 8.44485 8.36915V10.6162H19.7673V4.51019C19.7673 3.80405 19.4823 3.12677 18.975 2.62708C18.4676 2.12739 17.7794 1.84615 17.0613 1.84508H11.1508C10.4328 1.84615 9.74449 2.12739 9.23714 2.62708C8.7298 3.12677 8.44485 3.80405 8.44485 4.51019V4.67499C8.44485 4.92019 8.34579 5.15535 8.16948 5.32874C7.99318 5.50212 7.75405 5.59953 7.50471 5.59953C7.25537 5.59953 7.01625 5.50212 6.83994 5.32874C6.66363 5.15535 6.56458 4.92019 6.56458 4.67499V4.51019C6.56566 3.31434 7.0492 2.16777 7.90905 1.32217C8.76889 0.476583 9.93478 0.00106439 11.1508 0H17.0613C18.2773 0.00106439 19.4432 0.476583 20.3031 1.32217C21.1629 2.16777 21.6465 3.31434 21.6475 4.51019V11.5608C21.6465 11.8054 21.5469 12.0395 21.3707 12.212C21.1945 12.3845 20.956 12.4814 20.7074 12.4814V12.4613Z" fill="#FFB827"/>
<path d="M16.2683 7.84659H11.9437C11.767 7.84659 11.5976 7.77756 11.4726 7.65468C11.3477 7.53181 11.2775 7.36515 11.2775 7.19137V4.92422L12.095 4.12026L12.5446 3.6781H15.692L16.4564 4.43382L16.9469 4.91217V7.1793C16.9469 7.35308 16.8767 7.51973 16.7517 7.64261C16.6268 7.76549 16.4573 7.83452 16.2806 7.83452L16.2683 7.84659Z" fill="#FFF8AA"/>
<path d="M12.2136 5.8689V6.89393L15.9659 6.92208C15.9735 6.92208 15.9808 6.91911 15.9861 6.91383C15.9915 6.90856 15.9945 6.9014 15.9945 6.89393V5.8689L14.7192 4.61471H13.493L12.2177 5.8689H12.2136ZM15.9659 8.77116H12.2463C11.7403 8.7701 11.2554 8.57198 10.8977 8.22016C10.5399 7.86834 10.3385 7.39148 10.3374 6.89393V5.48702C10.3373 5.3661 10.3615 5.24636 10.4085 5.13463C10.4554 5.02289 10.5244 4.92136 10.6113 4.83582L12.4384 3.03897C12.5254 2.95351 12.6286 2.88574 12.7422 2.83953C12.8558 2.79332 12.9776 2.76958 13.1006 2.76965H15.1116C15.2346 2.76958 15.3563 2.79332 15.47 2.83953C15.5836 2.88574 15.6868 2.95351 15.7738 3.03897L17.6009 4.83582C17.7749 5.00955 17.8732 5.24317 17.8748 5.48702V6.89393C17.8737 7.39148 17.6722 7.86834 17.3145 8.22016C16.9567 8.57198 16.4718 8.7701 15.9659 8.77116Z" fill="#FFB827"/>
<path d="M15.9904 11.5367H12.2177V7.84656H15.9904V11.5367Z" fill="#FFF8AA"/>
<path d="M13.1577 10.6162H15.0543V8.77113H13.1577V10.6162ZM15.9904 12.4613H12.2217C11.9758 12.4624 11.7393 12.3688 11.5628 12.2005C11.3863 12.0321 11.2839 11.8025 11.2775 11.5608V7.86668C11.2775 7.62147 11.3765 7.38631 11.5528 7.21293C11.7291 7.03954 11.9683 6.94214 12.2176 6.94214H15.9863C16.2356 6.94214 16.4747 7.03954 16.6511 7.21293C16.8274 7.38631 16.9264 7.62147 16.9264 7.86668V11.5608C16.9253 11.8054 16.8258 12.0395 16.6496 12.212C16.4734 12.3845 16.2349 12.4814 15.9863 12.4814L15.9904 12.4613Z" fill="#FFB827"/>
<path d="M33.0639 26.9525C33.0607 28.2437 32.7989 29.5217 32.2935 30.7134C31.7881 31.9051 31.0489 32.9872 30.1182 33.898C29.1876 34.8088 28.0836 35.5304 26.8693 36.0216C25.6551 36.5128 24.3543 36.7639 23.0413 36.7608C21.7286 36.7639 20.428 36.5127 19.214 36.0215C18 35.5302 16.8963 34.8086 15.9659 33.8978C15.0355 32.9869 14.2968 31.9048 13.7918 30.7131C13.2868 29.5214 13.0255 28.2435 13.0228 26.9525C13.026 25.6619 13.2877 24.3844 13.793 23.1932C14.2982 22.002 15.037 20.9203 15.9673 20.0099C16.8976 19.0995 18.0012 18.3782 19.2149 17.8872C20.4287 17.3962 21.7289 17.1452 23.0413 17.1483C25.6923 17.1419 28.2373 18.1711 30.1168 20.0097C31.9963 21.8482 33.0564 24.3455 33.0639 26.9525Z" fill="#CDFFE4"/>
<path d="M23.0414 18.0688C20.6404 18.0656 18.3362 18.9992 16.6343 20.6646C14.9323 22.33 13.9716 24.5914 13.963 26.9525C13.9716 29.3137 14.9323 31.575 16.6343 33.2405C18.3362 34.9059 20.6404 35.8394 23.0414 35.8362C25.443 35.8405 27.7483 34.9074 29.4511 33.2419C31.1539 31.5763 32.1152 29.3144 32.1238 26.9525C32.1152 24.5907 31.1539 22.3287 29.4511 20.6632C27.7483 18.9976 25.443 18.0646 23.0414 18.0688ZM23.0414 37.6853C20.1442 37.6842 17.3655 36.5542 15.3138 34.5425C13.2621 32.5309 12.1047 29.8017 12.095 26.9525C12.1047 24.1017 13.264 21.371 15.3184 19.3597C17.3729 17.3484 20.1547 16.2206 23.0536 16.2238C25.9532 16.2195 28.7361 17.3468 30.7915 19.3583C32.8468 21.3697 34.0066 24.101 34.0163 26.9525C34.0077 29.8072 32.8468 32.5417 30.7888 34.5551C28.7308 36.5684 25.9442 37.6957 23.0414 37.6893V37.6853Z" fill="#0ADCBF"/>
<path d="M23.0455 33.1953C22.7961 33.1953 22.557 33.0979 22.3807 32.9245C22.2044 32.7511 22.1053 32.5159 22.1053 32.2707C22.1053 32.1495 22.1297 32.0295 22.177 31.9175C22.2243 31.8056 22.2936 31.7039 22.3809 31.6184C22.4683 31.5328 22.572 31.4651 22.686 31.4191C22.8001 31.3731 22.9222 31.3496 23.0455 31.3502C24.2937 31.3512 25.4914 30.8657 26.3763 30C27.2612 29.1343 27.7612 27.959 27.7666 26.7315C27.7662 26.0829 27.6257 25.4419 27.3544 24.8508C27.0831 24.2596 26.6872 23.7319 26.1929 23.3026C26.1006 23.2223 26.0253 23.1248 25.9715 23.0157C25.9176 22.9067 25.8861 22.7883 25.8789 22.6673C25.8717 22.5463 25.8889 22.425 25.9294 22.3106C25.97 22.1961 26.0331 22.0906 26.1152 22.0002C26.1966 21.9092 26.2956 21.8348 26.4063 21.7815C26.517 21.7282 26.6373 21.6968 26.7604 21.6894C26.8835 21.6819 27.0068 21.6984 27.1234 21.738C27.2399 21.7775 27.3474 21.8393 27.4396 21.9198C28.1335 22.5244 28.6887 23.2671 29.0686 24.0987C29.4484 24.9303 29.6441 25.8319 29.6427 26.7435C29.6373 28.4604 28.9397 30.105 27.703 31.3168C26.4662 32.5285 24.7913 33.2084 23.0455 33.2073V33.1953Z" fill="#0ADCBF"/>
<path d="M26.0906 34.0716C26.002 34.0697 25.914 34.0562 25.829 34.0314L22.7797 33.1631C22.6295 33.1189 22.4927 33.0389 22.3814 32.9302C22.2702 32.8215 22.188 32.6875 22.1421 32.5401C22.0924 32.391 22.0821 32.2321 22.1122 32.0781C22.1422 31.9241 22.2116 31.7801 22.3137 31.6597L24.3575 29.2961C24.4371 29.2038 24.5346 29.1279 24.6443 29.0728C24.7539 29.0177 24.8736 28.9845 24.9963 28.9751C25.1191 28.9658 25.2425 28.9805 25.3595 29.0183C25.4765 29.0562 25.5846 29.1164 25.6778 29.1956C25.7717 29.2739 25.8489 29.3698 25.9049 29.4776C25.9609 29.5854 25.9946 29.7031 26.0041 29.8238C26.0136 29.9446 25.9987 30.066 25.9602 30.181C25.9218 30.296 25.8605 30.4024 25.78 30.494L24.6682 31.7723L26.3032 32.2426C26.4218 32.2763 26.5325 32.3328 26.629 32.4086C26.7255 32.4845 26.8058 32.5782 26.8654 32.6846C26.925 32.791 26.9627 32.9079 26.9763 33.0287C26.99 33.1494 26.9793 33.2716 26.9449 33.3882C26.8876 33.5804 26.7687 33.7491 26.6059 33.8694C26.4431 33.9896 26.2452 34.0549 26.0416 34.0555L26.0906 34.0716Z" fill="#0ADCBF"/>
<path d="M19.2686 32.2184C19.0394 32.2185 18.8182 32.1355 18.6473 31.9853C17.9534 31.3807 17.3981 30.638 17.0183 29.8064C16.6384 28.9748 16.4427 28.0732 16.4441 27.1616C16.4495 25.4451 17.1472 23.8009 18.3841 22.5898C19.621 21.3787 21.2959 20.6997 23.0414 20.7018C23.1646 20.7013 23.2868 20.7247 23.4008 20.7707C23.5149 20.8167 23.6185 20.8844 23.7059 20.97C23.7932 21.0555 23.8625 21.1572 23.9098 21.2691C23.9571 21.3811 23.9815 21.5011 23.9815 21.6223C23.9815 21.8675 23.8824 22.1027 23.7061 22.2761C23.5298 22.4495 23.2907 22.5469 23.0414 22.5469C21.7935 22.5447 20.5958 23.0293 19.7107 23.8944C18.8257 24.7595 18.3257 25.9344 18.3203 27.1616C18.3209 27.8103 18.461 28.4515 18.7316 29.0431C19.0021 29.6348 19.3968 30.1635 19.8899 30.5944C19.9823 30.6741 20.0578 30.7711 20.112 30.8796C20.1662 30.9882 20.198 31.1062 20.2056 31.2269C20.2132 31.3476 20.1964 31.4686 20.1563 31.5829C20.1161 31.6971 20.0534 31.8025 19.9716 31.8928C19.8844 31.9919 19.7764 32.0711 19.655 32.1253C19.5336 32.1794 19.4018 32.207 19.2686 32.2064V32.2184Z" fill="#0ADCBF"/>
<path d="M20.9812 24.9225C20.7567 24.9225 20.5394 24.8442 20.3681 24.7014C20.1797 24.5414 20.0636 24.3144 20.0452 24.0702C20.0268 23.826 20.1077 23.5847 20.27 23.3991L21.3818 22.1248L19.7468 21.6545C19.6282 21.6207 19.5174 21.5643 19.421 21.4885C19.3245 21.4126 19.2441 21.3188 19.1846 21.2124C19.125 21.106 19.0873 20.9891 19.0736 20.8684C19.06 20.7477 19.0707 20.6255 19.1051 20.5088C19.1389 20.3919 19.196 20.2828 19.273 20.1878C19.3501 20.0928 19.4456 20.0138 19.554 19.9555C19.6625 19.8971 19.7816 19.8605 19.9045 19.8479C20.0274 19.8352 20.1517 19.8467 20.27 19.8818L23.3193 20.75C23.4708 20.7927 23.609 20.8721 23.7211 20.9809C23.8332 21.0898 23.9157 21.2247 23.961 21.3731C24.0056 21.5211 24.0117 21.6778 23.9788 21.8287C23.946 21.9797 23.8752 22.1202 23.773 22.2373L21.7293 24.601C21.6415 24.7021 21.5324 24.7832 21.4096 24.8387C21.2868 24.8943 21.1532 24.9229 21.018 24.9225H20.9812Z" fill="#0ADCBF"/>
</g>
<defs>
<clipPath id="clip0_234_6991">
<rect width="34" height="48" fill="white"/>
</clipPath>
</defs>
</svg>
