<svg width="60" height="48" viewBox="0 0 60 48" fill="none" xmlns="http://www.w3.org/2000/svg">
<g clip-path="url(#clip0_136_2252)">
<path d="M32.8273 5.39741L30.5147 6.53172H30.4771L27.1869 5.37851C25.7046 4.85932 24.0786 4.94761 22.6604 5.62429L19.201 7.26429L12.1975 0.269413C12.1162 0.187103 12.0195 0.121786 11.9131 0.0772066C11.8066 0.0326271 11.6924 0.00967606 11.577 0.00967606C11.4617 0.00967606 11.3475 0.0326271 11.241 0.0772066C11.1345 0.121786 11.0378 0.187103 10.9566 0.269413C10.8747 0.351126 10.8097 0.448329 10.7654 0.555401C10.7211 0.662473 10.6982 0.777302 10.6982 0.893284C10.6982 1.00927 10.7211 1.1241 10.7654 1.23117C10.8097 1.33824 10.8747 1.43544 10.9566 1.51716L17.7533 8.35606L14.1857 11.9433C14.1039 12.025 14.0389 12.1222 13.9946 12.2293C13.9502 12.3363 13.9274 12.4512 13.9274 12.5672C13.9274 12.6832 13.9502 12.798 13.9946 12.905C14.0389 13.0121 14.1039 13.1093 14.1857 13.191C14.2677 13.2737 14.3651 13.3393 14.4724 13.3839C14.5797 13.4285 14.6948 13.4513 14.8109 13.451C14.9262 13.451 15.0405 13.428 15.1469 13.3834C15.2534 13.3388 15.3501 13.2734 15.4313 13.191L19.5112 9.08865L23.389 7.25012C24.3938 6.77212 25.5454 6.71098 26.5946 7.07996L32.7427 9.22094L35.0929 11.8582C35.1694 11.9451 35.2622 12.016 35.366 12.0669C35.4698 12.1177 35.5825 12.1475 35.6978 12.1545C35.813 12.1615 35.9285 12.1456 36.0376 12.1078C36.1467 12.0699 36.2474 12.0108 36.3338 11.9339C36.5072 11.7778 36.6124 11.5592 36.6265 11.3256C36.6406 11.0919 36.5624 10.8621 36.409 10.6861L33.9319 7.87399C33.83 7.76168 33.7026 7.67574 33.5606 7.62349L32.8367 7.37301L33.476 7.06106C34.5121 6.71213 35.6423 6.77989 36.6299 7.25012L40.644 9.14063C40.7617 9.19617 40.89 9.22517 41.02 9.22567C41.1355 9.22617 41.2498 9.20345 41.3564 9.15881C41.463 9.11416 41.5595 9.04853 41.6405 8.96576L49.0623 1.50296C49.1442 1.42125 49.2092 1.32408 49.2535 1.217C49.2978 1.10993 49.3207 0.995074 49.3207 0.879092C49.3207 0.76311 49.2978 0.648281 49.2535 0.541208C49.2092 0.434136 49.1442 0.336933 49.0623 0.255221C48.9811 0.172911 48.8844 0.107593 48.7779 0.0630139C48.6714 0.0184344 48.5572 -0.0045166 48.4419 -0.0045166C48.3265 -0.0045166 48.2123 0.0184344 48.1059 0.0630139C47.9994 0.107593 47.9027 0.172911 47.8214 0.255221L40.8367 7.27848L37.3772 5.63845C35.9591 4.96178 34.3332 4.87351 32.8508 5.3927L32.8273 5.39741Z" fill="#0ADCBF"/>
<path d="M1.4994 11.017C1.33385 10.8516 1.10996 10.7588 0.876599 10.7588C0.643238 10.7588 0.419346 10.8516 0.253796 11.017C0.171938 11.0987 0.106979 11.1959 0.0626436 11.303C0.0183086 11.41 -0.0045166 11.5249 -0.0045166 11.6409C-0.0045166 11.7569 0.0183086 11.8717 0.0626436 11.9787C0.106979 12.0858 0.171938 12.183 0.253796 12.2647L2.77318 14.798C2.85514 14.8807 2.95259 14.9462 3.05989 14.9909C3.16719 15.0355 3.28222 15.0583 3.39833 15.058C3.51369 15.0579 3.62791 15.0349 3.73439 14.9903C3.84088 14.9457 3.93753 14.8803 4.01878 14.798C4.10064 14.7163 4.1656 14.6191 4.20994 14.512C4.25427 14.4049 4.2771 14.2901 4.2771 14.1741C4.2771 14.0582 4.25427 13.9433 4.20994 13.8362C4.1656 13.7292 4.10064 13.632 4.01878 13.5502L1.4994 11.017Z" fill="#0ADCBF"/>
<path d="M20.6863 22.4025C20.767 22.4855 20.8636 22.5513 20.9702 22.5959C21.0768 22.6406 21.1912 22.6632 21.3067 22.6624C21.4222 22.6632 21.5366 22.6406 21.6432 22.5959C21.7498 22.5513 21.8464 22.4855 21.9271 22.4025C21.9271 22.4025 26.4066 17.8983 26.4301 17.8653C27.3483 17.4489 28.1843 16.8693 28.8978 16.1544L29.1422 15.9039L32.6768 19.458C33.2191 20.0053 33.8638 20.4392 34.5738 20.7345C35.2837 21.0298 36.0449 21.1806 36.8132 21.1784C37.5822 21.1807 38.3441 21.0299 39.0548 20.7347C39.7655 20.4394 40.4111 20.0055 40.9542 19.458C41.4066 19.0003 41.669 18.3867 41.6882 17.7417C41.7074 17.0966 41.482 16.4683 41.0576 15.9842L39.121 13.7865C38.9658 13.6121 38.7484 13.5064 38.5161 13.4922C38.2837 13.478 38.0552 13.5566 37.8801 13.7109C37.7067 13.8669 37.6015 14.0856 37.5874 14.3192C37.5733 14.5528 37.6515 14.7826 37.8049 14.9586L39.7415 17.1563C39.8711 17.302 39.9399 17.4922 39.9338 17.6876C39.9277 17.8829 39.847 18.0684 39.7086 18.2055C39.3297 18.5897 38.8786 18.8941 38.3814 19.101C37.8843 19.3079 37.3512 19.4132 36.8132 19.4108C36.2753 19.4125 35.7424 19.3068 35.2453 19.0999C34.7483 18.893 34.2971 18.589 33.9177 18.2055L27.9013 12.1323C27.82 12.05 27.7234 11.9847 27.6169 11.9401C27.5104 11.8955 27.3962 11.8726 27.2809 11.8726C27.1655 11.8726 27.0513 11.8955 26.9448 11.9401C26.8383 11.9847 26.7417 12.05 26.6604 12.1323C26.5785 12.214 26.5136 12.3112 26.4693 12.4183C26.4249 12.5254 26.4021 12.6402 26.4021 12.7562C26.4021 12.8722 26.4249 12.987 26.4693 13.0941C26.5136 13.2011 26.5785 13.2983 26.6604 13.38L27.9248 14.6561L27.6757 14.9019C26.8492 15.7299 25.8186 16.3221 24.6895 16.6178C23.5605 16.9134 22.3735 16.9019 21.2503 16.5845C21.0259 16.5217 20.786 16.5505 20.5827 16.6647C20.3794 16.7789 20.2291 16.9692 20.1645 17.1942C20.1021 17.4198 20.1308 17.661 20.2444 17.8654C20.3579 18.0699 20.5471 18.221 20.7709 18.2859C21.5777 18.5155 22.4145 18.6207 23.2526 18.5979L20.7098 21.1547C20.6279 21.2364 20.5629 21.3336 20.5186 21.4407C20.4743 21.5478 20.4514 21.6626 20.4514 21.7786C20.4514 21.8946 20.4743 22.0095 20.5186 22.1165C20.5629 22.2236 20.6279 22.3208 20.7098 22.4025H20.6863Z" fill="#0ADCBF"/>
<path d="M59.7415 11.017C59.576 10.8516 59.3521 10.7588 59.1187 10.7588C58.8854 10.7588 58.6615 10.8516 58.4959 11.017L50.5053 19.0516C50.3698 19.1885 50.2824 19.3661 50.2562 19.5574L49.7862 22.8658C49.5164 24.7773 48.6999 26.5687 47.436 28.0221C46.8095 27.5332 46.0386 27.2687 45.2456 27.2706C44.7768 27.2692 44.3124 27.3612 43.8792 27.5413C43.4459 27.7213 43.0525 27.986 42.7215 28.3198L42.322 28.7216C41.9887 29.0536 41.7244 29.449 41.5445 29.8847C41.3645 30.3204 41.2725 30.7878 41.2738 31.2596C41.2738 31.3446 41.2738 31.425 41.2738 31.5101C40.7651 31.4725 40.2543 31.546 39.7765 31.7255C39.2986 31.905 38.865 32.1862 38.5053 32.5499L38.1058 32.9516C37.7451 33.314 37.4661 33.7502 37.2877 34.2304C37.1093 34.7107 37.0357 35.224 37.0717 35.7354C36.5625 35.7 36.0516 35.7744 35.5733 35.9538C35.095 36.1331 34.6604 36.4131 34.2985 36.7751L33.899 37.1816C33.5388 37.5444 33.2602 37.9806 33.0818 38.4608C32.9034 38.941 32.8294 39.454 32.8649 39.9654C32.7835 39.9607 32.7019 39.9607 32.6205 39.9654C32.1517 39.964 31.6873 40.056 31.254 40.2361C30.8208 40.4162 30.4273 40.6807 30.0964 41.0146L29.6969 41.4164C29.3636 41.7484 29.0993 42.1438 28.9193 42.5795C28.7394 43.0152 28.6474 43.4826 28.6487 43.9544C28.6465 44.7063 28.8819 45.4394 29.3208 46.0481C28.9361 46.2086 28.5122 46.2493 28.1042 46.1651C27.6961 46.0808 27.3225 45.8754 27.0318 45.5755C26.8364 45.3805 26.6813 45.1486 26.5757 44.8931C26.47 44.6375 26.4157 44.3634 26.416 44.0867C26.4157 43.8099 26.47 43.5358 26.5757 43.2803C26.6813 43.0247 26.8364 42.7929 27.0318 42.5979L36.9589 32.616C37.1234 32.4495 37.2157 32.2244 37.2157 31.9898C37.2157 31.7551 37.1234 31.53 36.9589 31.3636C36.7934 31.1982 36.5695 31.1053 36.3361 31.1053C36.1028 31.1053 35.8789 31.1982 35.7133 31.3636L23.3044 43.8456C23.1103 44.0415 22.8795 44.1966 22.6253 44.3021C22.3712 44.4076 22.0987 44.4613 21.8238 44.4601C21.5488 44.4613 21.2764 44.4076 21.0222 44.3021C20.7681 44.1966 20.5372 44.0415 20.3432 43.8456C19.9508 43.4496 19.7305 42.9135 19.7305 42.3545C19.7305 41.7956 19.9508 41.2594 20.3432 40.8634L33.0341 28.1024C33.116 28.0207 33.1809 27.9235 33.2253 27.8165C33.2696 27.7094 33.2924 27.5945 33.2924 27.4785C33.2924 27.3626 33.2696 27.2478 33.2253 27.1407C33.1809 27.0336 33.116 26.9364 33.0341 26.8547C32.8686 26.6893 32.6447 26.5965 32.4113 26.5965C32.1779 26.5965 31.9541 26.6893 31.7885 26.8547L17.0905 41.6668C16.8962 41.8626 16.6655 42.018 16.4114 42.1239C16.1573 42.2299 15.885 42.2844 15.6099 42.2844C15.3348 42.2844 15.0625 42.2299 14.8084 42.1239C14.5544 42.018 14.3236 41.8626 14.1293 41.6668C13.9345 41.4717 13.7802 41.2396 13.6754 40.984C13.5705 40.7285 13.5171 40.4545 13.5183 40.178C13.5171 39.9016 13.5705 39.6277 13.6754 39.3721C13.7802 39.1166 13.9345 38.8845 14.1293 38.6893L29.0388 23.6975C29.2033 23.5311 29.2956 23.306 29.2956 23.0713C29.2956 22.8367 29.2033 22.6116 29.0388 22.4451C28.9575 22.3628 28.8609 22.2975 28.7544 22.2529C28.6479 22.2083 28.5337 22.1853 28.4184 22.1853C28.303 22.1853 28.1888 22.2083 28.0823 22.2529C27.9758 22.2975 27.8792 22.3628 27.7979 22.4451L16.7192 33.5849C16.5249 33.7807 16.2941 33.936 16.0401 34.042C15.786 34.148 15.5136 34.2025 15.2386 34.2025C14.9635 34.2025 14.6912 34.148 14.4371 34.042C14.183 33.936 13.9522 33.7807 13.758 33.5849C13.5632 33.3896 13.4088 33.1575 13.3034 32.902C13.198 32.6466 13.1438 32.3727 13.1438 32.0961C13.1438 31.8195 13.198 31.5457 13.3034 31.2903C13.4088 31.0348 13.5632 30.8027 13.758 30.6073L18.9801 25.3565C19.1445 25.19 19.2368 24.9649 19.2368 24.7302C19.2368 24.4956 19.1445 24.2705 18.9801 24.104C18.8988 24.0217 18.8021 23.9564 18.6956 23.9118C18.5892 23.8672 18.475 23.8442 18.3596 23.8442C18.2443 23.8442 18.1301 23.8672 18.0236 23.9118C17.9171 23.9564 17.8204 24.0217 17.7392 24.104L13.161 28.7027L12.9777 28.5184C11.4681 26.9942 10.4902 25.0192 10.1904 22.8894L9.72037 19.581C9.69419 19.3897 9.60672 19.2122 9.47123 19.0753L6.92836 16.5184C6.76281 16.353 6.53891 16.2602 6.30555 16.2602C6.07219 16.2602 5.8483 16.353 5.68275 16.5184C5.60089 16.6001 5.53593 16.6973 5.4916 16.8043C5.44726 16.9114 5.42444 17.0262 5.42444 17.1422C5.42444 17.2582 5.44726 17.373 5.4916 17.4801C5.53593 17.5872 5.60089 17.6844 5.68275 17.7661L8.03293 20.1292L8.45597 23.1682C8.81328 25.6732 9.96759 27.9945 11.7462 29.785L11.9953 30.0355C11.6015 30.655 11.3927 31.3751 11.3937 32.1103C11.3922 32.6195 11.4911 33.124 11.6847 33.5945C11.8784 34.0651 12.1629 34.4923 12.5218 34.8516C13.0472 35.3814 13.7156 35.7445 14.4442 35.8961L12.8978 37.451C12.5389 37.8103 12.2544 38.2375 12.0608 38.7081C11.8672 39.1786 11.7682 39.683 11.7697 40.1922C11.7682 40.7014 11.8672 41.2059 12.0608 41.6765C12.2544 42.147 12.5389 42.5742 12.8978 42.9335C13.2545 43.2938 13.6787 43.5795 14.1458 43.7742C14.6129 43.9689 15.1137 44.0687 15.6193 44.0678C16.5109 44.0697 17.3753 43.7588 18.0635 43.1887C18.2126 43.9285 18.5756 44.6075 19.107 45.1406C19.4642 45.5015 19.8892 45.7876 20.3571 45.9823C20.8251 46.177 21.3268 46.2764 21.8332 46.2749C22.3396 46.2764 22.8413 46.177 23.3092 45.9823C23.7772 45.7876 24.2021 45.5015 24.5594 45.1406L24.7521 44.9469C24.9091 45.6769 25.2713 46.3462 25.7956 46.8752C26.5193 47.601 27.4996 48.0089 28.5218 48.0095C29.255 48.0097 29.9729 47.7981 30.5899 47.3998C31.0523 47.7972 31.6409 48.0152 32.2492 48.0142C32.5857 48.0156 32.919 47.9494 33.2298 47.8196C33.5405 47.6897 33.8223 47.4988 34.0588 47.258L35.8872 45.4195C36.3217 44.9782 36.5836 44.3943 36.6252 43.7748C37.2451 43.735 37.8289 43.4675 38.2656 43.0233L40.0893 41.1895C40.5238 40.7481 40.7857 40.1643 40.8273 39.5447C41.4435 39.5029 42.0241 39.2396 42.463 38.8027L44.2915 36.9689C44.7329 36.5315 44.999 35.9461 45.0388 35.3242C45.6574 35.2865 46.2408 35.0226 46.6792 34.5821L48.5077 32.7531C48.9903 32.2698 49.2625 31.6136 49.2644 30.9287C49.2664 30.3364 49.0637 29.7617 48.691 29.3029C50.2104 27.5776 51.1912 25.4408 51.5112 23.1588L51.9342 20.1198L59.7227 12.2884C59.8046 12.2067 59.8695 12.1094 59.9139 12.0024C59.9582 11.8953 59.981 11.7804 59.981 11.6645C59.981 11.5485 59.9582 11.4337 59.9139 11.3266C59.8695 11.2195 59.8046 11.1223 59.7227 11.0406L59.7415 11.017ZM34.6463 44.1576L32.8226 45.9914C32.7484 46.0675 32.6599 46.128 32.5623 46.1694C32.4646 46.2107 32.3598 46.2322 32.2539 46.2324C32.1482 46.2328 32.0436 46.2121 31.9459 46.1715C31.8483 46.131 31.7597 46.0713 31.6851 45.9961L30.9518 45.2588C30.7828 45.0898 30.6487 44.8887 30.5576 44.6672C30.4664 44.4457 30.4199 44.2082 30.4207 43.9685C30.4194 43.7294 30.4658 43.4925 30.557 43.2717C30.6482 43.051 30.7825 42.8508 30.9518 42.683L31.3514 42.2765C31.6928 41.9366 32.1541 41.7463 32.6346 41.7472C32.8718 41.7466 33.1069 41.793 33.3262 41.8839C33.5456 41.9747 33.745 42.1081 33.9131 42.2765L34.6463 43.0138C34.7211 43.0889 34.7804 43.1781 34.8209 43.2762C34.8613 43.3743 34.8821 43.4795 34.8821 43.5857C34.8821 43.6919 34.8613 43.7971 34.8209 43.8952C34.7804 43.9934 34.7211 44.0825 34.6463 44.1576ZM38.8484 39.9276L37.0247 41.7614C36.9508 41.8375 36.8623 41.8976 36.7645 41.9383C36.6667 41.9789 36.5618 41.9991 36.456 41.9977C36.3502 41.9991 36.2452 41.9789 36.1475 41.9383C36.0497 41.8976 35.9611 41.8375 35.8872 41.7614L35.1587 41.0288C34.9897 40.8601 34.8556 40.6594 34.7641 40.4384C34.6725 40.2174 34.6254 39.9803 34.6254 39.7409C34.6254 39.5015 34.6725 39.2644 34.7641 39.0434C34.8556 38.8223 34.9897 38.6217 35.1587 38.453L35.5582 38.0512C35.7263 37.8819 35.9259 37.7476 36.1457 37.6559C36.3655 37.5642 36.6011 37.517 36.8391 37.517C37.077 37.517 37.3126 37.5642 37.5324 37.6559C37.7522 37.7476 37.9518 37.8819 38.1199 38.0512L38.8484 38.7838C38.9232 38.8589 38.9825 38.948 39.023 39.0461C39.0634 39.1443 39.0843 39.2494 39.0843 39.3557C39.0843 39.4619 39.0634 39.5671 39.023 39.6653C38.9825 39.7634 38.9232 39.8525 38.8484 39.9276ZM43.0788 35.7023L41.2456 37.5361C41.0951 37.6864 40.8914 37.7708 40.6792 37.7708C40.467 37.7708 40.2634 37.6864 40.1128 37.5361L39.3843 36.8035C39.0453 36.4616 38.8549 35.9984 38.8549 35.5156C38.8549 35.0328 39.0453 34.5696 39.3843 34.2277L39.7885 33.826C40.1286 33.4851 40.5892 33.2937 41.0694 33.2937C41.5495 33.2937 42.0101 33.4851 42.3502 33.826L43.0835 34.5633C43.2329 34.7159 43.3172 34.921 43.3185 35.1351C43.3188 35.2414 43.2983 35.3466 43.2579 35.4447C43.2176 35.5429 43.1583 35.632 43.0835 35.707L43.0788 35.7023ZM47.3091 31.4865L45.4807 33.3155C45.3287 33.4651 45.1245 33.5488 44.9119 33.5488C44.6993 33.5488 44.4951 33.4651 44.3431 33.3155L43.6099 32.5782C43.4408 32.4092 43.3068 32.2082 43.2156 31.9867C43.1244 31.7652 43.0779 31.5277 43.0788 31.2879C43.0775 31.0489 43.1238 30.812 43.2151 30.5912C43.3063 30.3704 43.4405 30.1702 43.6099 30.0024L44.0094 29.596C44.3509 29.256 44.8122 29.0657 45.2926 29.0666C45.5299 29.066 45.7649 29.1125 45.9843 29.2033C46.2037 29.2941 46.4031 29.4276 46.5711 29.596L47.3138 30.3474C47.3904 30.4211 47.4508 30.51 47.4913 30.6084C47.5318 30.7069 47.5513 30.8128 47.5488 30.9193C47.5494 31.0255 47.529 31.1308 47.4886 31.229C47.4482 31.3272 47.3888 31.4164 47.3138 31.4912L47.3091 31.4865Z" fill="#0ADCBF"/>
</g>
<defs>
<clipPath id="clip0_136_2252">
<rect width="60" height="48" fill="white"/>
</clipPath>
</defs>
</svg>
