<svg width="42" height="42" viewBox="0 0 42 42" fill="none" xmlns="http://www.w3.org/2000/svg">
<g clip-path="url(#clip0_136_2226)">
<path d="M40.2062 20.9961C40.2001 23.523 39.6984 26.0239 38.7298 28.356C37.7613 30.6882 36.3448 32.8059 34.5614 34.5883C32.7779 36.3707 30.6624 37.7828 28.3355 38.7441C26.0086 39.7054 23.516 40.1969 21 40.1907C18.4843 40.1969 15.9921 39.7053 13.6656 38.7439C11.3392 37.7826 9.22415 36.3703 7.44131 34.5878C5.65846 32.8054 4.24275 30.6876 3.27506 28.3555C2.30737 26.0233 1.80665 23.5226 1.80151 20.9961C1.80768 18.4702 2.30916 15.9704 3.27731 13.6392C4.24545 11.308 5.66131 9.19112 7.44405 7.40947C9.2268 5.62781 11.3415 4.21625 13.6674 3.25538C15.9934 2.29451 18.485 1.80318 21 1.80938C26.08 1.79685 30.957 3.811 34.5586 7.40899C38.1603 11.007 40.1917 15.8942 40.2062 20.9961Z" fill="#CDFFE4"/>
<path d="M21.0001 3.61083C16.3991 3.60455 11.9836 5.43143 8.72217 8.69069C5.46075 11.9499 3.61979 16.3754 3.6032 20.9961C3.61979 25.6168 5.46075 30.0423 8.72217 33.3015C11.9836 36.5608 16.3991 38.3877 21.0001 38.3814C25.6024 38.3898 30.0199 36.5638 33.283 33.3043C36.5461 30.0449 38.3882 25.6182 38.4048 20.9961C38.3882 16.374 36.5461 11.9474 33.283 8.6879C30.0199 5.42842 25.6024 3.60247 21.0001 3.61083ZM21.0001 42C15.4482 41.998 10.1234 39.7864 6.19182 35.8497C2.26021 31.9129 0.0422104 26.5718 0.0235596 20.9961C0.0422255 15.417 2.2637 10.0732 6.20062 6.137C10.1375 2.20082 15.4684 -0.00625774 21.0236 2.37115e-05C26.5801 -0.00834309 31.913 2.19781 35.8516 6.13422C39.7902 10.0706 42.0127 15.4156 42.0314 20.9961C42.0148 26.5827 39.7902 31.9342 35.8465 35.8742C31.9028 39.8142 26.5627 42.0204 21.0001 42.0079V42Z" fill="#0ADCBF"/>
<path d="M21.0079 33.213C20.5301 33.213 20.0718 33.0223 19.734 32.683C19.3961 32.3437 19.2063 31.8835 19.2063 31.4036C19.2063 31.1664 19.2529 30.9315 19.3436 30.7124C19.4342 30.4934 19.567 30.2944 19.7344 30.127C19.9018 29.9596 20.1005 29.8271 20.319 29.737C20.5376 29.647 20.7717 29.6011 21.0079 29.6022C23.3998 29.6043 25.695 28.6541 27.3908 26.9599C29.0865 25.2657 30.0445 22.9656 30.0549 20.5634C30.0541 19.2942 29.7848 18.0397 29.265 16.8829C28.7451 15.726 27.9864 14.6934 27.0392 13.8532C26.8623 13.6959 26.7181 13.5051 26.6149 13.2917C26.5117 13.0784 26.4514 12.8466 26.4376 12.6098C26.4238 12.373 26.4566 12.1357 26.5343 11.9117C26.612 11.6877 26.733 11.4813 26.8904 11.3043C27.0464 11.1262 27.236 10.9807 27.4481 10.8763C27.6603 10.772 27.8909 10.7107 28.1268 10.696C28.3626 10.6814 28.599 10.7138 28.8223 10.7912C29.0456 10.8686 29.2516 10.9895 29.4282 11.147C30.7579 12.3301 31.822 13.7836 32.5499 15.4111C33.2778 17.0386 33.6528 18.8029 33.6502 20.587C33.6398 23.9469 32.303 27.1654 29.933 29.5368C27.563 31.9081 24.3533 33.2386 21.0079 33.2365V33.213Z" fill="#0ADCBF"/>
<path d="M26.8434 34.9279C26.6735 34.9243 26.5049 34.8978 26.3421 34.8492L20.4988 33.15C20.2109 33.0635 19.9487 32.907 19.7355 32.6943C19.5224 32.4816 19.3648 32.2193 19.2768 31.9307C19.1817 31.6391 19.162 31.328 19.2195 31.0266C19.2771 30.7252 19.41 30.4435 19.6058 30.2079L23.5222 25.5823C23.6749 25.4016 23.8616 25.2531 24.0717 25.1452C24.2819 25.0374 24.5112 24.9725 24.7464 24.9542C24.9817 24.9359 25.2182 24.9647 25.4423 25.0387C25.6665 25.1128 25.8738 25.2307 26.0523 25.3857C26.2322 25.5389 26.3801 25.7265 26.4875 25.9375C26.5948 26.1486 26.6595 26.3788 26.6777 26.6151C26.6959 26.8514 26.6673 27.0889 26.5936 27.314C26.5198 27.5391 26.4024 27.7473 26.2481 27.9266L24.1175 30.4282L27.2507 31.3486C27.4781 31.4146 27.6903 31.525 27.8751 31.6734C28.06 31.8219 28.214 32.0054 28.3282 32.2137C28.4424 32.4219 28.5146 32.6507 28.5407 32.8869C28.5669 33.1232 28.5464 33.3622 28.4805 33.5906C28.3707 33.9666 28.1428 34.2969 27.8309 34.5322C27.5189 34.7675 27.1396 34.8953 26.7494 34.8964L26.8434 34.9279Z" fill="#0ADCBF"/>
<path d="M13.7702 31.3014C13.331 31.3015 12.9071 31.1391 12.5796 30.8451C11.2499 29.662 10.1858 28.2086 9.45794 26.5811C8.73006 24.9536 8.35503 23.1893 8.35768 21.4051C8.36805 18.046 9.70508 14.8283 12.0753 12.4582C14.4455 10.0881 17.6552 8.75926 21 8.76344C21.2362 8.76241 21.4703 8.80825 21.6888 8.89832C21.9073 8.98838 22.106 9.1209 22.2734 9.28829C22.4408 9.45567 22.5736 9.65465 22.6642 9.87372C22.7549 10.0928 22.8015 10.3277 22.8015 10.5649C22.8015 11.0448 22.6117 11.505 22.2739 11.8443C21.936 12.1836 21.4778 12.3743 21 12.3743C18.6088 12.3701 16.3135 13.3184 14.6175 15.0114C12.9216 16.7043 11.9633 19.0037 11.953 21.4051C11.9542 22.6747 12.2227 23.9295 12.7411 25.0874C13.2595 26.2453 14.016 27.2799 14.9608 28.1232C15.138 28.2793 15.2826 28.469 15.3865 28.6814C15.4903 28.8938 15.5513 29.1248 15.5658 29.3609C15.5804 29.5971 15.5483 29.8339 15.4713 30.0576C15.3944 30.2813 15.2741 30.4874 15.1175 30.6642C14.9502 30.858 14.7433 31.0132 14.5107 31.1191C14.2782 31.225 14.0255 31.2791 13.7702 31.2778V31.3014Z" fill="#0ADCBF"/>
<path d="M17.0522 17.0234C16.6219 17.0235 16.2055 16.8702 15.8773 16.5908C15.5163 16.2775 15.2938 15.8333 15.2585 15.3554C15.2233 14.8776 15.3782 14.4053 15.6893 14.042L17.8198 11.5483L14.6867 10.6279C14.4593 10.5618 14.2471 10.4514 14.0622 10.303C13.8774 10.1546 13.7234 9.971 13.6092 9.76279C13.495 9.55458 13.4228 9.32579 13.3966 9.08954C13.3705 8.85328 13.391 8.61419 13.4569 8.38589C13.5216 8.1571 13.6311 7.9435 13.7788 7.75757C13.9265 7.57165 14.1095 7.41713 14.3173 7.30293C14.525 7.18872 14.7533 7.11715 14.9888 7.09239C15.2244 7.06763 15.4625 7.09017 15.6893 7.15869L21.5326 8.85787C21.8229 8.94132 22.0877 9.09671 22.3026 9.30978C22.5175 9.52284 22.6756 9.78672 22.7624 10.0772C22.8477 10.3669 22.8594 10.6735 22.7965 10.9689C22.7336 11.2643 22.598 11.5392 22.4021 11.7685L18.4856 16.3941C18.3175 16.592 18.1085 16.7508 17.8731 16.8595C17.6378 16.9681 17.3817 17.0241 17.1227 17.0234H17.0522Z" fill="#0ADCBF"/>
</g>
<defs>
<clipPath id="clip0_136_2226">
<rect width="42" height="42" fill="white"/>
</clipPath>
</defs>
</svg>
