<svg width="50" height="52" viewBox="0 0 50 52" fill="none" xmlns="http://www.w3.org/2000/svg">
<g clip-path="url(#clip0_234_8158)">
<path d="M44.9997 51.0005H0.999451V17.9996H44.9997V51.0005Z" fill="white"/>
<path d="M1.99893 50.001H43.9973V18.9991H1.99893V50.001ZM44.9968 52H0.999483C0.86823 52 0.738232 51.9741 0.616971 51.9239C0.495709 51.8736 0.385552 51.8 0.292743 51.7072C0.199933 51.6144 0.126294 51.5042 0.0760659 51.383C0.0258377 51.2617 0 51.1317 0 51.0005V17.9996C0 17.8684 0.0258377 17.7384 0.0760659 17.6171C0.126294 17.4959 0.199933 17.3857 0.292743 17.2929C0.385552 17.2001 0.495709 17.1264 0.616971 17.0762C0.738232 17.026 0.86823 17.0001 0.999483 17.0001H44.9968C45.2621 17.0001 45.5167 17.1053 45.7046 17.2927C45.8925 17.48 45.9984 17.7343 45.9992 17.9996V51.0005C45.9984 51.2658 45.8925 51.52 45.7046 51.7074C45.5167 51.8947 45.2621 52 44.9968 52Z" fill="#1193FF"/>
<path d="M2.8988 13.0843C9.20891 10.2072 16.0631 8.71838 22.9981 8.71838C29.9332 8.71838 36.7874 10.2072 43.0975 13.0843C44.1498 13.6119 44.9909 14.9455 44.9968 16.0007V17.9997H0.999512V16.0007C0.999512 14.9455 1.84657 13.6119 2.8988 13.0843Z" fill="#B3FDFF"/>
<path d="M44.9968 18.9991H0.999487C0.868126 18.9995 0.737982 18.9739 0.616546 18.9238C0.495109 18.8737 0.384775 18.8001 0.291888 18.7072C0.199002 18.6144 0.125374 18.504 0.075283 18.3826C0.0251919 18.2611 -0.000382602 18.131 4.32566e-06 17.9996V16.0006C4.32566e-06 14.5351 1.08447 12.8761 2.45032 12.1903C4.3186 11.3361 6.2382 10.599 8.19801 9.98317C8.45104 9.90349 8.72535 9.92759 8.96061 10.0502C9.19586 10.1728 9.37281 10.3838 9.45249 10.6368C9.53217 10.8898 9.50806 11.1641 9.38548 11.3994C9.2629 11.6347 9.05191 11.8116 8.79888 11.8913C6.92979 12.4794 5.09838 13.1812 3.31495 13.9929C2.95588 14.2051 2.65047 14.4971 2.42227 14.8463C2.19407 15.1955 2.04921 15.5924 1.99893 16.0065V17.0001H43.9973V16.0006C43.9973 15.3793 43.4111 14.3563 42.649 13.9782C36.4861 11.1612 29.7875 9.70849 23.0113 9.71937C19.5072 9.72047 16.0138 10.1078 12.5945 10.8742C12.465 10.9074 12.3301 10.9144 12.1979 10.8945C12.0656 10.8747 11.9387 10.8285 11.8247 10.7587C11.7106 10.689 11.6117 10.597 11.5338 10.4883C11.4559 10.3797 11.4006 10.2564 11.3712 10.126C11.3417 9.99556 11.3388 9.86054 11.3625 9.72893C11.3862 9.59733 11.4361 9.47182 11.5091 9.35984C11.5822 9.24786 11.677 9.15168 11.7879 9.07699C11.8988 9.00231 12.0236 8.95065 12.1549 8.92506C15.7143 8.12437 19.3512 7.71938 22.9996 7.71746C30.0797 7.70715 37.0784 9.2269 43.5166 12.1727C44.9176 12.8791 45.9933 14.5498 46.0021 15.9831V17.9879C46.0021 18.1194 45.9762 18.2496 45.9257 18.3711C45.8753 18.4925 45.8014 18.6028 45.7083 18.6957C45.6152 18.7885 45.5047 18.8621 45.3831 18.9122C45.2615 18.9622 45.1312 18.9878 44.9997 18.9874L44.9968 18.9991Z" fill="#1193FF"/>
<path d="M44.9968 23.0001C44.9318 23.0004 44.8669 22.9936 44.8034 22.9796C44.7376 22.97 44.6734 22.9513 44.6128 22.9239C44.5531 22.8985 44.4962 22.867 44.4428 22.8301C44.336 22.7546 44.2428 22.6614 44.1673 22.5546C44.1304 22.5012 44.099 22.4443 44.0735 22.3846C44.0466 22.3239 44.0278 22.2598 44.0178 22.1941C44.0039 22.1305 43.997 22.0657 43.9973 22.0006C43.997 21.9346 44.0039 21.8688 44.0178 21.8042C44.0278 21.7404 44.0466 21.6783 44.0735 21.6196C44.0983 21.5577 44.1298 21.4988 44.1673 21.4437C44.2041 21.3888 44.2464 21.3378 44.2934 21.2913C44.4842 21.1118 44.7363 21.0118 44.9983 21.0118C45.2603 21.0118 45.5123 21.1118 45.7032 21.2913C45.7966 21.3842 45.8707 21.4947 45.921 21.6165C45.9713 21.7383 45.9969 21.8688 45.9963 22.0006C45.9932 22.2652 45.8865 22.5181 45.6991 22.705C45.5117 22.8919 45.2585 22.9978 44.9939 23.0001H44.9968Z" fill="#1193FF"/>
<path d="M6.28406 22.0006C6.28368 21.8692 6.30929 21.7391 6.35938 21.6177C6.40947 21.4962 6.48306 21.3859 6.57595 21.293C6.66883 21.2001 6.77917 21.1265 6.9006 21.0764C7.02204 21.0263 7.15218 21.0007 7.28354 21.0011C7.41491 21.0007 7.54505 21.0263 7.66649 21.0764C7.78792 21.1265 7.89826 21.2001 7.99114 21.293C8.08403 21.3859 8.15762 21.4962 8.20771 21.6177C8.2578 21.7391 8.28341 21.8692 8.28303 22.0006C8.28341 22.132 8.2578 22.2621 8.20771 22.3835C8.15762 22.505 8.08403 22.6153 7.99114 22.7082C7.89826 22.8011 7.78792 22.8747 7.66649 22.9248C7.54505 22.9749 7.41491 23.0005 7.28354 23.0001C7.01847 23.0001 6.76424 22.8948 6.5768 22.7074C6.38937 22.5199 6.28406 22.2657 6.28406 22.0006ZM12.5682 22.0006C12.5682 21.7355 12.6735 21.4813 12.8609 21.2939C13.0483 21.1064 13.3026 21.0011 13.5676 21.0011C13.6992 21.0003 13.8297 21.0256 13.9515 21.0756C14.0732 21.1255 14.1839 21.199 14.2771 21.292C14.3703 21.3849 14.4442 21.4953 14.4945 21.617C14.5447 21.7386 14.5704 21.869 14.57 22.0006C14.5704 22.1322 14.5447 22.2626 14.4945 22.3842C14.4442 22.5059 14.3703 22.6163 14.2771 22.7093C14.1839 22.8022 14.0732 22.8757 13.9515 22.9257C13.8297 22.9756 13.6992 23.0009 13.5676 23.0001C13.3026 23.0001 13.0483 22.8948 12.8609 22.7074C12.6735 22.5199 12.5682 22.2657 12.5682 22.0006ZM18.8522 22.0006C18.8522 21.8691 18.8782 21.7389 18.9286 21.6174C18.979 21.496 19.0529 21.3857 19.146 21.2928C19.2391 21.2 19.3497 21.1264 19.4713 21.0764C19.5929 21.0263 19.7231 21.0007 19.8546 21.0011C19.986 21.0007 20.1161 21.0263 20.2376 21.0764C20.359 21.1265 20.4693 21.2001 20.5622 21.293C20.6551 21.3859 20.7287 21.4962 20.7788 21.6177C20.8289 21.7391 20.8545 21.8692 20.8541 22.0006C20.8545 22.132 20.8289 22.2621 20.7788 22.3835C20.7287 22.505 20.6551 22.6153 20.5622 22.7082C20.4693 22.8011 20.359 22.8747 20.2376 22.9248C20.1161 22.9749 19.986 23.0005 19.8546 23.0001C19.5893 23.0001 19.3348 22.8949 19.1468 22.7075C18.9589 22.5202 18.853 22.266 18.8522 22.0006ZM25.1392 22.0006C25.1392 21.8689 25.1653 21.7384 25.2159 21.6168C25.2665 21.4951 25.3406 21.3847 25.434 21.2918C25.5274 21.1989 25.6383 21.1254 25.7603 21.0755C25.8822 21.0256 26.0128 21.0003 26.1445 21.0011C26.2755 21.0011 26.4052 21.027 26.5262 21.0773C26.6471 21.1276 26.7569 21.2013 26.8492 21.2942C26.9416 21.3871 27.0146 21.4973 27.0642 21.6186C27.1138 21.7398 27.1389 21.8696 27.1382 22.0006C27.1385 22.1315 27.1131 22.2611 27.0634 22.3822C27.0137 22.5033 26.9406 22.6133 26.8484 22.7061C26.7561 22.7989 26.6465 22.8727 26.5257 22.9231C26.4049 22.9736 26.2754 22.9997 26.1445 23.0001C26.0128 23.0009 25.8822 22.9756 25.7603 22.9257C25.6383 22.8758 25.5274 22.8023 25.434 22.7094C25.3406 22.6165 25.2665 22.5061 25.2159 22.3845C25.1653 22.2628 25.1392 22.1324 25.1392 22.0006ZM31.4292 22.0006C31.4284 21.8691 31.4537 21.7388 31.5037 21.6172C31.5536 21.4956 31.6272 21.3851 31.7201 21.2921C31.8131 21.1992 31.9236 21.1256 32.0452 21.0756C32.1668 21.0257 32.2972 21.0003 32.4286 21.0011C32.6937 21.0011 32.9479 21.1064 33.1354 21.2939C33.3228 21.4813 33.4281 21.7355 33.4281 22.0006C33.4281 22.2657 33.3228 22.5199 33.1354 22.7074C32.9479 22.8948 32.6937 23.0001 32.4286 23.0001C32.2973 23.0005 32.1671 22.9749 32.0457 22.9248C31.9243 22.8747 31.8139 22.8011 31.721 22.7082C31.6282 22.6153 31.5545 22.505 31.5044 22.3835C31.4543 22.2621 31.4288 22.132 31.4292 22.0006ZM37.7132 22.0006C37.7129 21.8692 37.7384 21.7391 37.7885 21.6177C37.8386 21.4962 37.9122 21.3859 38.0051 21.293C38.098 21.2001 38.2083 21.1265 38.3298 21.0764C38.4512 21.0263 38.5813 21.0007 38.7127 21.0011C38.8441 21.0007 38.9742 21.0263 39.0956 21.0764C39.2171 21.1265 39.3274 21.2001 39.4203 21.293C39.5132 21.3859 39.5868 21.4962 39.6369 21.6177C39.687 21.7391 39.7126 21.8692 39.7122 22.0006C39.7122 22.2657 39.6069 22.5199 39.4194 22.7074C39.232 22.8948 38.9778 23.0001 38.7127 23.0001C38.5813 23.0005 38.4512 22.9749 38.3298 22.9248C38.2083 22.8747 38.098 22.8011 38.0051 22.7082C37.9122 22.6153 37.8386 22.505 37.7885 22.3835C37.7384 22.2621 37.7129 22.132 37.7132 22.0006Z" fill="#1193FF"/>
<path d="M4.50206 26.0014C4.37045 26.0018 4.24007 25.9761 4.11844 25.9259C3.99681 25.8756 3.88635 25.8017 3.79343 25.7085C3.7005 25.6153 3.62695 25.5046 3.57704 25.3829C3.52712 25.2611 3.50181 25.1306 3.50258 24.999C3.50242 24.8682 3.52826 24.7386 3.57858 24.6179C3.62889 24.4971 3.70268 24.3876 3.79568 24.2956C3.91166 24.1795 4.05436 24.0937 4.21125 24.0456C4.36814 23.9976 4.53444 23.9888 4.69552 24.02C4.76059 24.0328 4.82436 24.0514 4.88604 24.0757C4.946 24.1006 5.003 24.1321 5.05603 24.1695C5.11201 24.2048 5.16324 24.2472 5.20845 24.2956C5.25652 24.3391 5.29797 24.3895 5.33152 24.445C5.36784 24.4988 5.39925 24.5557 5.42534 24.615C5.45194 24.6759 5.47064 24.7399 5.48101 24.8056C5.49498 24.8691 5.50188 24.934 5.50155 24.999C5.50131 25.2657 5.396 25.5216 5.20845 25.7113C5.16227 25.756 5.11113 25.7954 5.05603 25.8285C5.00382 25.868 4.94669 25.9005 4.88604 25.9252C4.82484 25.9509 4.76092 25.9696 4.69552 25.9809C4.63199 25.9949 4.56711 26.0018 4.50206 26.0014Z" fill="#1193FF"/>
<path d="M9.99766 24.999C9.93273 25.0003 9.86784 24.9944 9.80421 24.9814C9.73904 24.9691 9.67523 24.9504 9.61368 24.9257C9.55367 24.8998 9.49668 24.8673 9.4437 24.829C9.38892 24.7955 9.33867 24.7551 9.29422 24.7088C9.24724 24.6623 9.20504 24.6113 9.1682 24.5564C9.13076 24.5034 9.09928 24.4464 9.07439 24.3864C9.04741 24.3257 9.02869 24.2616 9.01872 24.1959C9.00479 24.1314 8.99789 24.0655 8.99818 23.9995C8.99753 23.8686 9.02315 23.7389 9.0735 23.6181C9.12384 23.4973 9.19788 23.3878 9.29128 23.2961C9.33481 23.2471 9.38515 23.2047 9.44077 23.17C9.4945 23.1337 9.55142 23.1023 9.61079 23.0762C9.67233 23.0515 9.73611 23.0329 9.80127 23.0205C9.99783 22.9798 10.2021 22.9992 10.3875 23.0762C10.449 23.1016 10.508 23.1331 10.5634 23.17C10.6179 23.2062 10.668 23.2485 10.7128 23.2961C10.8062 23.3878 10.8803 23.4973 10.9306 23.6181C10.981 23.7389 11.0066 23.8686 11.0059 23.9995C11.0062 24.0655 10.9993 24.1314 10.9854 24.1959C10.9719 24.2608 10.9533 24.3245 10.9297 24.3864C10.9014 24.4446 10.87 24.5014 10.8359 24.5564C10.7991 24.6113 10.7569 24.6623 10.7099 24.7088C10.6642 24.7538 10.6141 24.7941 10.5604 24.829C10.5058 24.868 10.4467 24.9005 10.3845 24.9257C10.325 24.9504 10.2631 24.9691 10.1999 24.9814C10.1353 24.9946 10.0694 25.0005 10.0035 24.999H9.99766Z" fill="#1193FF"/>
<path d="M13.9985 27.4993C13.8671 27.4997 13.737 27.4741 13.6156 27.424C13.4941 27.3739 13.3838 27.3003 13.2909 27.2074C13.198 27.1145 13.1244 27.0042 13.0743 26.8827C13.0242 26.7613 12.9986 26.6312 12.999 26.4998C12.9989 26.369 13.0247 26.2394 13.075 26.1187C13.1253 25.9979 13.1991 25.8883 13.2921 25.7963C13.4831 25.616 13.7358 25.5155 13.9985 25.5155C14.2612 25.5155 14.5139 25.616 14.7049 25.7963C14.7979 25.8883 14.8717 25.9979 14.922 26.1187C14.9723 26.2394 14.9982 26.369 14.998 26.4998C14.9984 26.6312 14.9728 26.7613 14.9227 26.8827C14.8726 27.0042 14.799 27.1145 14.7061 27.2074C14.6132 27.3003 14.5029 27.3739 14.3815 27.424C14.26 27.4741 14.1299 27.4997 13.9985 27.4993Z" fill="#1193FF"/>
<path d="M17.4981 25.5003C17.4331 25.5006 17.3682 25.4938 17.3047 25.4798C17.2388 25.4706 17.1746 25.4518 17.1142 25.4241C17.0534 25.401 16.9961 25.3694 16.9442 25.3303C16.8373 25.2548 16.7442 25.1616 16.6687 25.0548C16.6317 25.0014 16.6003 24.9445 16.5748 24.8848C16.5479 24.824 16.5291 24.76 16.5192 24.6943C16.5052 24.6307 16.4983 24.5659 16.4987 24.5008C16.4983 24.3687 16.524 24.2377 16.5743 24.1155C16.6246 23.9933 16.6985 23.8822 16.7918 23.7886C16.8363 23.7432 16.8865 23.7037 16.9412 23.6713C17.0478 23.5931 17.1713 23.5409 17.3018 23.5189C17.4306 23.4955 17.5627 23.4955 17.6916 23.5189C17.7552 23.5334 17.8179 23.552 17.8792 23.5746C17.9387 23.6016 17.9956 23.6339 18.0491 23.6713C18.1042 23.7045 18.1554 23.7438 18.2016 23.7886C18.295 23.8821 18.3689 23.9932 18.4192 24.1154C18.4695 24.2377 18.4952 24.3686 18.4947 24.5008C18.496 24.5657 18.4901 24.6306 18.4771 24.6943C18.4644 24.7593 18.4457 24.8231 18.4214 24.8848C18.3938 24.944 18.3615 25.0008 18.3247 25.0548C18.2911 25.1103 18.2496 25.1607 18.2016 25.2043C18.1564 25.2526 18.1051 25.295 18.0491 25.3303C17.9976 25.37 17.9403 25.4016 17.8792 25.4241C17.8193 25.4507 17.7562 25.4694 17.6916 25.4798C17.627 25.4937 17.5612 25.5006 17.4952 25.5003H17.4981Z" fill="#1193FF"/>
<path d="M28.9993 24.999C28.7342 24.9982 28.4802 24.8928 28.2924 24.7056C28.1047 24.5184 27.9985 24.2646 27.997 23.9995C27.9966 23.9344 28.0035 23.8696 28.0175 23.806C28.0288 23.7406 28.0475 23.6767 28.0732 23.6155C28.0986 23.5558 28.13 23.4989 28.1669 23.4455C28.2016 23.3899 28.244 23.3396 28.293 23.296C28.4088 23.1798 28.5515 23.0938 28.7084 23.0458C28.8654 22.9977 29.0317 22.989 29.1928 23.0205C29.2567 23.0301 29.3189 23.0489 29.3775 23.0762C29.4393 23.101 29.4983 23.1324 29.5533 23.17C29.6089 23.2046 29.6593 23.2471 29.7028 23.296C29.751 23.3403 29.7933 23.3906 29.8288 23.4455C29.8658 23.4989 29.8972 23.5558 29.9226 23.6155C29.9483 23.6767 29.967 23.7406 29.9783 23.806C29.9923 23.8696 29.9992 23.9344 29.9988 23.9995C29.9997 24.1309 29.9742 24.2611 29.9239 24.3824C29.8735 24.5037 29.7993 24.6137 29.7057 24.7059C29.6621 24.754 29.6118 24.7954 29.5562 24.829C29.5006 24.8664 29.4418 24.8988 29.3804 24.9257C29.3209 24.9504 29.259 24.9691 29.1957 24.9814C29.1321 24.9944 29.0672 25.0003 29.0023 24.999H28.9993Z" fill="#1193FF"/>
<path d="M41.9984 24.999C41.9325 25.0003 41.8666 24.9944 41.802 24.9814C41.7369 24.9687 41.6731 24.95 41.6115 24.9257C41.5515 24.8997 41.4945 24.8673 41.4415 24.829C41.3321 24.7587 41.2391 24.6658 41.1689 24.5564C41.1293 24.5021 41.0968 24.443 41.0722 24.3805C41.0479 24.3209 41.0292 24.259 41.0165 24.1959C41.0035 24.1312 40.9976 24.0654 40.9989 23.9995C40.9976 23.9346 41.0035 23.8697 41.0165 23.806C41.0292 23.741 41.0479 23.6772 41.0722 23.6155C41.0975 23.5552 41.13 23.4981 41.1689 23.4455C41.2024 23.3907 41.2428 23.3405 41.2891 23.296C41.3355 23.2491 41.3866 23.2068 41.4415 23.17C41.4952 23.1337 41.5521 23.1023 41.6115 23.0762C41.6722 23.0492 41.7363 23.0305 41.802 23.0205C41.9306 22.9941 42.0632 22.9941 42.1918 23.0205C42.2576 23.0301 42.3217 23.0488 42.3823 23.0762C42.442 23.1017 42.499 23.1331 42.5523 23.17C42.6591 23.2455 42.7523 23.3387 42.8278 23.4455C42.8648 23.4989 42.8962 23.5558 42.9216 23.6155C42.9459 23.6772 42.9646 23.741 42.9773 23.806C42.9913 23.8696 42.9982 23.9344 42.9978 23.9995C42.9981 24.0655 42.9913 24.1313 42.9773 24.1959C42.9646 24.259 42.9459 24.3209 42.9216 24.3805C42.8968 24.4424 42.8654 24.5013 42.8278 24.5564C42.7917 24.6109 42.7494 24.661 42.7018 24.7059C42.6582 24.754 42.6078 24.7954 42.5523 24.829C42.4997 24.8679 42.4427 24.9004 42.3823 24.9257C42.3208 24.9504 42.257 24.9691 42.1918 24.9814C42.1282 24.9944 42.0633 25.0003 41.9984 24.999Z" fill="#1193FF"/>
<path d="M35.4974 25.5002C35.2323 25.5002 34.9781 25.3949 34.7906 25.2075C34.6032 25.02 34.4979 24.7658 34.4979 24.5007C34.497 24.3694 34.5225 24.2392 34.5728 24.1178C34.6232 23.9965 34.6974 23.8865 34.791 23.7943C34.9068 23.6781 35.0495 23.5921 35.2065 23.544C35.3634 23.496 35.5297 23.4873 35.6908 23.5188C35.754 23.5316 35.8158 23.5502 35.8755 23.5745C35.9362 23.6008 35.9942 23.6332 36.0484 23.6712C36.105 23.7045 36.1563 23.746 36.2008 23.7943C36.2484 23.8384 36.2897 23.8887 36.3239 23.9438C36.36 23.9982 36.3924 24.055 36.4206 24.1138C36.445 24.1755 36.4636 24.2393 36.4763 24.3043C36.4895 24.3689 36.4954 24.4348 36.4939 24.5007C36.4942 24.6324 36.4684 24.7629 36.4181 24.8846C36.3678 25.0064 36.294 25.1169 36.2008 25.21C36.1539 25.2548 36.1029 25.2951 36.0484 25.3302C35.9962 25.3705 35.9378 25.4022 35.8755 25.424C35.8168 25.451 35.7546 25.4697 35.6908 25.4797C35.6263 25.4938 35.5605 25.5006 35.4944 25.5002H35.4974Z" fill="#1193FF"/>
<path d="M8.99818 29C8.73405 28.9969 8.48162 28.8906 8.29484 28.7038C8.10806 28.5171 8.00178 28.2646 7.99874 28.0005C7.9983 27.9344 8.00517 27.8686 8.01924 27.8041C8.03003 27.7386 8.04871 27.6746 8.07491 27.6136C8.09868 27.5531 8.13023 27.4959 8.16872 27.4436C8.20487 27.3891 8.24713 27.3389 8.29474 27.2941C8.33832 27.246 8.38868 27.2045 8.44422 27.171C8.49818 27.1342 8.55506 27.1019 8.61424 27.0743C8.67655 27.0518 8.74018 27.0332 8.80476 27.0186C8.96584 26.9871 9.13217 26.9957 9.2891 27.0438C9.44604 27.0918 9.58873 27.1778 9.70457 27.2941C9.75128 27.339 9.7926 27.3891 9.82768 27.4436C9.86384 27.4979 9.89614 27.5547 9.92439 27.6136C9.94793 27.6755 9.96654 27.7392 9.98006 27.8041C9.99327 27.8687 9.99919 27.9346 9.99767 28.0005C9.99849 28.1314 9.97296 28.2611 9.9226 28.382C9.87225 28.5028 9.7981 28.6123 9.70457 28.7039C9.61212 28.7972 9.50207 28.8711 9.3808 28.9214C9.25954 28.9717 9.12947 28.9974 8.99818 28.997V29Z" fill="#1193FF"/>
<path d="M31.1742 40.2493H44.9909V27.168H28.3311V37.4003C28.3307 37.7746 28.4041 38.1452 28.5472 38.491C28.6902 38.8369 28.9001 39.1511 29.1647 39.4157C29.4293 39.6803 29.7435 39.8902 30.0893 40.0332C30.4351 40.1763 30.8058 40.2497 31.18 40.2493H31.1742Z" fill="#EAC9A6"/>
<path d="M29.3305 28.1676V36.1107C29.3321 36.9449 29.6644 37.7444 30.2545 38.3339C30.8445 38.9235 31.6443 39.255 32.4784 39.2558H43.9973V28.1676H29.3305ZM44.9968 41.2489H32.4784C31.1152 41.2481 29.8078 40.7068 28.843 39.7437C27.8782 38.7805 27.3347 37.474 27.3316 36.1107V27.1681C27.3316 26.9027 27.4368 26.6482 27.6242 26.4603C27.8115 26.2724 28.0657 26.1664 28.3311 26.1656H44.9968C45.2626 26.1656 45.5176 26.2713 45.7056 26.4592C45.8935 26.6472 45.9992 26.9022 45.9992 27.1681V40.2494C45.9992 40.3809 45.9732 40.5111 45.9228 40.6326C45.8724 40.754 45.7985 40.8643 45.7054 40.9572C45.6123 41.05 45.5017 41.1236 45.3801 41.1737C45.2585 41.2237 45.1283 41.2493 44.9968 41.2489Z" fill="#9D7143"/>
<path d="M29.7907 32.7078H24.2922V36.7087H29.7907V32.7078Z" fill="#EAC9A6"/>
<path d="M29.7907 37.7081H24.2892C24.0241 37.7081 23.7699 37.6028 23.5825 37.4154C23.395 37.2279 23.2897 36.9737 23.2897 36.7086V32.7077C23.2897 32.5765 23.3156 32.4465 23.3658 32.3253C23.4161 32.204 23.4897 32.0938 23.5825 32.001C23.6753 31.9082 23.7855 31.8346 23.9067 31.7843C24.028 31.7341 24.158 31.7083 24.2892 31.7083H29.7907C30.0558 31.7083 30.31 31.8136 30.4975 32.001C30.6849 32.1884 30.7902 32.4427 30.7902 32.7077C30.7902 32.9728 30.6849 33.227 30.4975 33.4145C30.31 33.6019 30.0558 33.7072 29.7907 33.7072H25.2887V35.7092H29.7907C30.0558 35.7092 30.31 35.8145 30.4975 36.0019C30.6849 36.1893 30.7902 36.4436 30.7902 36.7086C30.7902 36.9737 30.6849 37.2279 30.4975 37.4154C30.31 37.6028 30.0558 37.7081 29.7907 37.7081Z" fill="#9D7143"/>
<path d="M44.9968 52C44.7317 52 44.4775 51.8947 44.2901 51.7072C44.1026 51.5198 43.9973 51.2656 43.9973 51.0005V17.9996C44.0112 17.7435 44.1227 17.5025 44.3089 17.3261C44.4951 17.1497 44.7418 17.0514 44.9983 17.0514C45.2547 17.0514 45.5015 17.1497 45.6877 17.3261C45.8738 17.5025 45.9853 17.7435 45.9992 17.9996V51.0005C45.9984 51.2658 45.8925 51.5201 45.7046 51.7074C45.5167 51.8948 45.2621 52 44.9968 52Z" fill="#1193FF"/>
<path d="M33.0002 51.0005V30.9989H48.9976V51.0005H33.0002Z" fill="white"/>
<path d="M33.9967 50.001H47.9981V32.0072H33.9967V50.0068V50.001ZM48.9976 52H32.9972C32.7322 52 32.4779 51.8947 32.2905 51.7072C32.1031 51.5198 31.9978 51.2655 31.9978 51.0005V30.9989C31.9978 30.7338 32.1031 30.4796 32.2905 30.2921C32.4779 30.1047 32.7322 29.9994 32.9972 29.9994H48.9976C49.2627 29.9994 49.5169 30.1047 49.7043 30.2921C49.8918 30.4796 49.9971 30.7338 49.9971 30.9989V51.0005C49.9971 51.2655 49.8918 51.5198 49.7043 51.7072C49.5169 51.8947 49.2627 52 48.9976 52Z" fill="#1193FF"/>
<path d="M36.7431 33.8743V6.9994C36.7431 6.73664 36.6913 6.47646 36.5906 6.23374C36.49 5.99102 36.3425 5.77053 36.1565 5.58487C35.9706 5.39921 35.7499 5.25203 35.5071 5.15174C35.2642 5.05146 35.004 5.00003 34.7412 5.00041H26.3673C25.8372 5.00041 25.3287 5.21103 24.9539 5.58591C24.579 5.96079 24.3684 6.46923 24.3684 6.9994V8.71993H20.3676V6.9994C20.3683 5.40837 21.0007 3.88273 22.1257 2.7577C23.2507 1.63267 24.7763 1.00029 26.3673 0.999512H34.7412C35.5291 0.999512 36.3093 1.15471 37.0372 1.45623C37.7651 1.75775 38.4266 2.1997 38.9837 2.75684C39.5408 3.31398 39.9827 3.9754 40.2843 4.70334C40.5858 5.43128 40.741 6.21148 40.741 6.9994V33.8743H36.7431Z" fill="white"/>
<path d="M40.7469 34.8738C40.6156 34.8738 40.4856 34.8479 40.3644 34.7977C40.2431 34.7475 40.1329 34.6739 40.0401 34.581C39.9473 34.4882 39.8737 34.3781 39.8234 34.2568C39.7732 34.1355 39.7474 34.0056 39.7474 33.8743V6.99938C39.7458 5.67394 39.2184 4.40328 38.2809 3.46633C37.3435 2.52937 36.0725 2.0027 34.7471 2.00192H26.3732C25.0478 2.0027 23.7768 2.52937 22.8394 3.46633C21.9019 4.40328 21.3745 5.67394 21.3729 6.99938V7.72043H23.3748V6.99938C23.3756 6.20437 23.6917 5.44215 24.2539 4.88C24.816 4.31784 25.5782 4.00168 26.3732 4.00091H34.7471C35.5426 4.00091 36.3055 4.31672 36.8683 4.87896C37.4311 5.4412 37.7477 6.20387 37.7484 6.99938V33.8743C37.7346 34.1304 37.6231 34.3715 37.4369 34.5478C37.2507 34.7242 37.004 34.8225 36.7475 34.8225C36.491 34.8225 36.2443 34.7242 36.0581 34.5478C35.8719 34.3715 35.7604 34.1304 35.7465 33.8743V6.99938C35.7465 6.86813 35.7207 6.73816 35.6705 6.6169C35.6203 6.49563 35.5466 6.38545 35.4538 6.29264C35.361 6.19982 35.2508 6.1262 35.1296 6.07597C35.0083 6.02574 34.8783 5.99989 34.7471 5.99989H26.3732C26.1081 5.99989 25.8539 6.10519 25.6665 6.29264C25.479 6.48008 25.3737 6.7343 25.3737 6.99938V8.71991C25.3737 8.985 25.2684 9.23923 25.081 9.42667C24.8935 9.61411 24.6393 9.71941 24.3743 9.71941H20.3734C20.1084 9.71941 19.8541 9.61411 19.6667 9.42667C19.4793 9.23923 19.374 8.985 19.374 8.71991V6.99938C19.3755 5.14351 20.1134 3.36409 21.4257 2.05179C22.738 0.739487 24.5174 0.00155238 26.3732 0H34.7471C36.6032 0.00155115 38.3829 0.739392 39.6956 2.05161C41.0083 3.36383 41.7469 5.14324 41.7492 6.99938V33.8743C41.7492 34.0058 41.7233 34.136 41.6729 34.2575C41.6225 34.3789 41.5486 34.4892 41.4555 34.5821C41.3624 34.6749 41.2518 34.7485 41.1302 34.7986C41.0086 34.8486 40.8784 34.8742 40.7469 34.8738Z" fill="#1193FF"/>
<path d="M24.3332 51.0005H20.3324V25.9985H24.3332V51.0005Z" fill="#EAC9A6"/>
<path d="M21.3319 50.001H23.3308V27.0009H21.3319V50.001ZM24.3303 52H20.3294C20.0644 52 19.8101 51.8947 19.6227 51.7072C19.4353 51.5198 19.33 51.2656 19.33 51.0005V26.0015C19.3296 25.8699 19.3551 25.7397 19.4052 25.6181C19.4553 25.4965 19.5288 25.3859 19.6217 25.2928C19.7145 25.1997 19.8248 25.1258 19.9463 25.0754C20.0677 25.025 20.1979 24.999 20.3294 24.999H24.3273C24.459 24.999 24.5893 25.025 24.7109 25.0753C24.8325 25.1257 24.9431 25.1995 25.0362 25.2926C25.1292 25.3857 25.2031 25.4962 25.2534 25.6178C25.3038 25.7395 25.3298 25.8698 25.3298 26.0015V51.0005C25.329 51.2658 25.223 51.5201 25.0351 51.7074C24.8472 51.8948 24.5927 52 24.3273 52H24.3303Z" fill="#9D7143"/>
<path d="M16.2495 42.2659H1.00824V29.167H13.9955C14.2928 29.1666 14.5872 29.2249 14.8619 29.3384C15.1366 29.452 15.3862 29.6187 15.5964 29.8289C15.8066 30.0391 15.9732 30.2887 16.0868 30.5634C16.2004 30.8381 16.2586 31.1325 16.2583 31.4298V42.2659H16.2495Z" fill="#EAC9A6"/>
<path d="M1.99892 41.2488H15.25V32.4556C15.2492 31.848 15.0075 31.2654 14.5778 30.8357C14.1482 30.4061 13.5656 30.1643 12.9579 30.1635H1.99892V41.2459V41.2488ZM16.2495 43.2507H1.00824C0.876983 43.2507 0.747021 43.2249 0.62576 43.1747C0.504498 43.1244 0.394341 43.0508 0.301532 42.958C0.208722 42.8652 0.135083 42.755 0.0848549 42.6337C0.0346267 42.5125 0.00878906 42.3825 0.00878906 42.2512V29.167C0.00878906 29.0357 0.0346267 28.9057 0.0848549 28.7845C0.135083 28.6632 0.208722 28.553 0.301532 28.4602C0.394341 28.3674 0.504498 28.2938 0.62576 28.2436C0.747021 28.1933 0.876983 28.1675 1.00824 28.1675H12.9667C14.1043 28.169 15.1948 28.6216 15.9992 29.426C16.8036 30.2304 17.2562 31.321 17.2577 32.4586V42.2659C17.2577 42.531 17.1524 42.7852 16.965 42.9726C16.7776 43.1601 16.5233 43.2654 16.2583 43.2654L16.2495 43.2507Z" fill="#9D7143"/>
<path d="M20.2913 36.7087H16.2905V32.7078H20.2913V36.7087Z" fill="#EAC9A6"/>
<path d="M17.29 35.7092H19.2889V33.7072H17.29V35.7092ZM20.2914 37.7081H16.2905C16.0254 37.7081 15.7712 37.6028 15.5838 37.4154C15.3963 37.2279 15.2911 36.9737 15.2911 36.7086V32.7077C15.2911 32.5765 15.3169 32.4465 15.3671 32.3253C15.4174 32.204 15.491 32.0938 15.5838 32.001C15.6766 31.9082 15.7868 31.8346 15.908 31.7843C16.0293 31.7341 16.1593 31.7083 16.2905 31.7083H20.2914C20.4226 31.7083 20.5526 31.7341 20.6738 31.7843C20.7951 31.8346 20.9053 31.9082 20.9981 32.001C21.0909 32.0938 21.1645 32.204 21.2147 32.3253C21.265 32.4465 21.2908 32.5765 21.2908 32.7077V36.6969C21.2908 36.962 21.1855 37.2162 20.9981 37.4037C20.8107 37.5911 20.5564 37.6964 20.2914 37.6964V37.7081Z" fill="#9D7143"/>
<path d="M0.999455 43.2507C0.917256 43.2514 0.835345 43.2406 0.756159 43.2185C0.628706 43.1866 0.508802 43.13 0.403272 43.0517C0.297742 42.9735 0.208668 42.8752 0.141156 42.7625C0.0736446 42.6498 0.0290088 42.5248 0.0098121 42.3949C-0.00938456 42.2649 -0.00277044 42.1324 0.0292758 42.005C0.169964 41.4423 3.61682 28.1675 12.9579 28.1675C13.223 28.1675 13.4772 28.2728 13.6647 28.4602C13.8521 28.6477 13.9574 28.9019 13.9574 29.167C13.9574 29.4321 13.8521 29.6863 13.6647 29.8737C13.4772 30.0612 13.223 30.1665 12.9579 30.1665C5.16146 30.1665 1.99891 42.3714 1.9696 42.4945C1.91535 42.7107 1.79042 42.9025 1.61464 43.0396C1.43886 43.1766 1.22233 43.2509 0.999455 43.2507Z" fill="#9D7143"/>
<path d="M28.3311 52H0.999482C0.86823 52 0.738232 51.9741 0.616971 51.9239C0.495709 51.8737 0.385552 51.8 0.292743 51.7072C0.199933 51.6144 0.126294 51.5042 0.0760659 51.383C0.0258377 51.2617 0 51.1317 0 51.0005V26.8133C0 26.5483 0.105305 26.294 0.292743 26.1066C0.48018 25.9192 0.734406 25.8138 0.999482 25.8138C1.26456 25.8138 1.51875 25.9192 1.70619 26.1066C1.89362 26.294 1.99893 26.5483 1.99893 26.8133V50.001H28.3311C28.5962 50.001 28.8504 50.1063 29.0378 50.2937C29.2252 50.4812 29.3305 50.7354 29.3305 51.0005C29.3305 51.2656 29.2252 51.5198 29.0378 51.7072C28.8504 51.8947 28.5962 52 28.3311 52Z" fill="#1193FF"/>
</g>
<defs>
<clipPath id="clip0_234_8158">
<rect width="50" height="52" fill="white"/>
</clipPath>
</defs>
</svg>
