<svg width="72" height="38" viewBox="0 0 72 38" fill="none" xmlns="http://www.w3.org/2000/svg">
<g clip-path="url(#clip0_120_1564)">
<path d="M54.2198 31.8268L54.2557 31.866L54.2198 31.8268Z" fill="#EC6411"/>
<path d="M50.1218 33.8434V33.8214C50.1222 33.5857 50.1512 33.3509 50.2083 33.1221C50.2445 32.9753 50.2926 32.8317 50.3521 32.6925C50.544 32.2386 50.8469 31.8385 51.2339 31.5279C51.6209 31.2173 52.0799 31.0058 52.5701 30.9122V30.9122H52.5876H52.6012H52.6099H52.6265H52.6439H52.6556H52.6663H52.6838L52.7178 30.9198L52.7362 30.9246L52.7906 30.939H52.8052C52.8548 30.9533 52.9024 30.9677 52.9519 30.9839H52.9646L52.9869 30.9916H52.9976L53.0219 31.0002L53.0394 31.0069H53.0491H53.0588L53.0743 31.0126L53.0879 31.0184L53.1326 31.0356L53.1453 31.0413L53.1618 31.048L53.1793 31.0557L53.1948 31.0624H53.2016L53.2123 31.0672L53.2269 31.0729H53.2376L53.2473 31.0777L53.2648 31.0853L53.2803 31.093L53.2939 31.0987L53.3075 31.1054L53.3201 31.1112L53.3308 31.1169H53.3396L53.3512 31.1227L53.3639 31.1293H53.3726H53.3804L53.393 31.136L53.4076 31.1437L53.4222 31.1514L53.4367 31.159L53.4571 31.1705L53.4688 31.1762L53.5193 31.2059L53.5319 31.2135L53.5417 31.2193L53.5543 31.2269L53.5669 31.2346L53.5766 31.2403C53.6563 31.2901 53.734 31.3427 53.8088 31.3982L53.8185 31.4058L53.8253 31.4116L53.838 31.4202L53.8516 31.4307L53.8603 31.4384L53.8691 31.445L53.8836 31.4565L53.9011 31.4709L53.9108 31.4785L53.9206 31.4862L53.9312 31.4948C53.935 31.4988 53.9392 31.5023 53.9439 31.5053V31.5053C53.9485 31.5083 53.9527 31.5118 53.9565 31.5158L53.9672 31.5244L53.9847 31.5398L53.9973 31.5512L54.0109 31.5627L54.0226 31.5742L54.0342 31.5857L54.0469 31.5972L54.0585 31.6086L54.0692 31.6192C54.073 31.6224 54.0766 31.6259 54.0799 31.6297V31.6297L54.0925 31.6412L54.1051 31.6536L54.1178 31.667L54.1294 31.6785H54.1343L54.143 31.6871L54.1557 31.7005L54.1702 31.7158L54.18 31.7263L54.1926 31.7397L54.2285 31.7789L54.2538 31.8076L54.2752 31.8334C54.2985 31.8602 54.3218 31.888 54.3441 31.9157L54.3548 31.9301L54.3645 31.9435C54.3743 31.9549 54.384 31.9674 54.3927 31.9798L54.4015 31.9913L54.4092 32.0028L54.417 32.0123C54.4238 32.0219 54.4306 32.0305 54.4364 32.0401L54.4432 32.0487L54.451 32.0602L54.4598 32.0726L54.4666 32.0831L54.4753 32.0956L54.4821 32.1061L54.4899 32.1176L54.4967 32.1281L54.5025 32.1377L54.5093 32.1482L54.5171 32.1597L54.5297 32.1798L54.5355 32.1903L54.5414 32.1979L54.5482 32.2104C54.5482 32.2151 54.555 32.2199 54.5579 32.2257L54.5666 32.241L54.5734 32.2534L54.5812 32.2658L54.589 32.2802L54.5977 32.2955L54.6065 32.3118C54.6093 32.3156 54.6116 32.3198 54.6133 32.3242V32.3309L54.6278 32.3586C54.6376 32.3759 54.6453 32.3921 54.6541 32.4093L54.6628 32.4256C54.6628 32.4371 54.6735 32.4476 54.6784 32.4591L54.6958 32.4964L54.7017 32.5088C54.7017 32.5194 54.7114 32.5299 54.7153 32.5404L54.7298 32.5739L54.7376 32.5911C54.7376 32.5997 54.7444 32.6093 54.7483 32.6179C54.7522 32.6265 54.7483 32.6265 54.7483 32.6303C54.7483 32.6342 54.759 32.6562 54.7638 32.6696L54.7687 32.6829V32.6954C54.7706 32.7013 54.7728 32.707 54.7755 32.7126L54.7813 32.7308C54.7817 32.7343 54.7817 32.7378 54.7813 32.7413L54.7872 32.7585L54.793 32.7738C54.7933 32.7789 54.7933 32.784 54.793 32.7891C54.7925 32.7923 54.7925 32.7955 54.793 32.7987C54.7926 32.8032 54.7926 32.8076 54.793 32.8121C54.7926 32.8156 54.7926 32.8191 54.793 32.8226C54.793 32.8312 54.793 32.8408 54.8008 32.8494V32.8609V32.8714V32.8838C54.8008 32.8934 54.8066 32.903 54.8085 32.9116V32.9212V32.9336C54.8082 32.938 54.8082 32.9425 54.8085 32.947L54.8144 32.9709C54.8144 32.9709 54.8144 32.9805 54.8144 32.9862C54.8144 32.9919 54.8144 32.9958 54.8144 33.0006C54.8148 33.0076 54.8148 33.0146 54.8144 33.0216C54.8144 33.0302 54.8192 33.0388 54.8212 33.0465V33.0608V33.0704V33.079V33.0905V33.0972C54.8216 33.1019 54.8216 33.1068 54.8212 33.1115V33.1278V33.1421V33.1479V33.1622V33.1766C54.8212 33.1766 54.8212 33.1766 54.8212 33.1833V33.1919V33.2072V33.2263V33.2464C54.8216 33.2547 54.8216 33.263 54.8212 33.2713V33.2895V33.3067V33.3143C54.8212 33.3143 54.8212 33.3239 54.8212 33.3287V33.3488V33.3708C54.8212 33.3784 54.8212 33.3851 54.8212 33.3928C54.8216 33.3992 54.8216 33.4055 54.8212 33.4119V33.4186C54.8207 33.4243 54.8207 33.4301 54.8212 33.4358V33.4358C54.8207 33.4425 54.8207 33.4492 54.8212 33.4559V33.4559C54.8212 33.4626 54.8212 33.4703 54.8212 33.477C54.8217 33.4846 54.8217 33.4923 54.8212 33.4999C54.8217 33.5069 54.8217 33.514 54.8212 33.521V33.521C54.8207 33.527 54.8207 33.5331 54.8212 33.5391V33.6779C54.8212 33.6836 54.8212 33.6893 54.8212 33.696C54.8212 33.7037 54.8212 33.7104 54.8212 33.718C54.8207 33.7247 54.8207 33.7314 54.8212 33.7381V33.7381C54.8212 33.7525 54.8212 33.7678 54.8212 33.7821V33.8041V33.8481C54.8174 34.6904 54.5889 35.5169 54.1587 36.2448C53.7286 36.9728 53.1117 37.5767 52.37 37.9962C51.6655 37.5514 51.0888 36.936 50.6952 36.2088C50.3015 35.4817 50.1041 34.6672 50.1218 33.8434V33.8434Z" fill="#EC6411"/>
<path d="M54.2198 31.8268L54.2557 31.866L54.2198 31.8268Z" fill="#EC6411"/>
<path d="M49.3495 31.513C49.3563 31.5292 49.3631 31.5464 49.3689 31.5627C49.3631 31.5464 49.3563 31.5292 49.3495 31.513Z" fill="#DD0979"/>
<path d="M44.789 31.9368L44.7978 31.9157C44.8851 31.6965 44.9983 31.4881 45.1349 31.2948C45.2227 31.1709 45.3201 31.0538 45.4264 30.9447C45.9823 30.3742 46.7455 30.0443 47.5482 30.0273C47.7492 30.0233 47.95 30.0393 48.1477 30.0751V30.0751L48.1632 30.0847L48.1749 30.0923L48.1826 30.0971L48.1962 30.1057L48.2108 30.1153L48.2205 30.122L48.2302 30.1277L48.2448 30.1383L48.274 30.1574L48.2895 30.1689L48.3352 30.2014L48.3468 30.21C48.3876 30.2406 48.4284 30.2722 48.4673 30.3057L48.478 30.3143L48.4955 30.3296L48.5042 30.3363L48.5236 30.3525L48.5373 30.365L48.545 30.3717L48.5528 30.3793C48.5574 30.3823 48.5617 30.3858 48.5654 30.3899L48.5761 30.3994L48.6111 30.4319L48.6218 30.4415L48.6354 30.453C48.6397 30.4577 48.6442 30.4622 48.649 30.4664L48.6606 30.4779V30.4826L48.6694 30.4913L48.6801 30.5018L48.6888 30.5104L48.6966 30.519L48.7092 30.5314L48.7209 30.5439L48.7316 30.5544L48.7413 30.5659L48.751 30.5754L48.7597 30.5841L48.7656 30.5908L48.7743 30.6003L48.784 30.6118L48.7908 30.6185L48.7967 30.6252L48.8064 30.6357L48.8171 30.6482C48.8201 30.6527 48.8237 30.6569 48.8277 30.6606L48.8375 30.673L48.853 30.6902L48.8608 30.7008L48.8977 30.7457L48.9064 30.7572L48.9142 30.7658L48.923 30.7783L48.9317 30.7897L48.9395 30.7993C48.9958 30.873 49.0483 30.9495 49.0969 31.0279C49.0985 31.0318 49.1008 31.0353 49.1037 31.0385L49.1085 31.0471L49.1163 31.0595L49.125 31.0739L49.1309 31.0844L49.1367 31.0939L49.1454 31.1093L49.1571 31.1293L49.1629 31.1399V31.1447L49.1688 31.1552L49.1756 31.1676C49.1776 31.1724 49.1802 31.1769 49.1833 31.181V31.181L49.1911 31.1954C49.1911 31.1954 49.1911 31.203 49.1979 31.2078L49.2086 31.2269C49.2106 31.2323 49.2132 31.2374 49.2164 31.2422C49.2185 31.2478 49.2211 31.2533 49.2241 31.2585L49.2309 31.2728L49.2377 31.2872L49.2455 31.3035C49.2474 31.3084 49.2496 31.3132 49.2523 31.3178V31.3178L49.2581 31.3322L49.264 31.3455C49.264 31.3455 49.2688 31.3551 49.2708 31.3609C49.2708 31.3609 49.2708 31.3714 49.2785 31.3771C49.2863 31.3829 49.2785 31.3876 49.2853 31.3934C49.2872 31.3983 49.2895 31.4031 49.2921 31.4077V31.4144L49.298 31.4259C49.2996 31.4316 49.3019 31.437 49.3048 31.4422L49.3125 31.4623L49.3184 31.4757L49.3242 31.4919C49.331 31.5082 49.3378 31.5254 49.3436 31.5417C49.3495 31.5579 49.3524 31.5656 49.3572 31.5771C49.3621 31.5885 49.364 31.5981 49.3679 31.6086C49.3796 31.6431 49.3903 31.6765 49.401 31.711C49.4014 31.7167 49.4014 31.7225 49.401 31.7282C49.4031 31.7331 49.4048 31.7383 49.4058 31.7435C49.4058 31.7579 49.4146 31.7732 49.4184 31.7875C49.4189 31.792 49.4189 31.7965 49.4184 31.8009C49.4184 31.8009 49.4184 31.8105 49.4184 31.8143V31.8267L49.4272 31.8593V31.8688V31.8832V31.8975V31.91C49.4272 31.91 49.4272 31.9195 49.4272 31.9253V31.9368V31.9511V31.9635V31.9741V31.9865C49.4272 31.9913 49.4272 31.9961 49.4272 31.9999C49.4272 32.0037 49.4272 32.0162 49.4272 32.0238C49.4272 32.0315 49.4272 32.0315 49.4272 32.0353C49.4272 32.0391 49.4272 32.042 49.4272 32.0449C49.4276 32.0493 49.4276 32.0538 49.4272 32.0583V32.0764V32.0936C49.4267 32.0984 49.4267 32.1032 49.4272 32.108V32.1472C49.4267 32.1523 49.4267 32.1574 49.4272 32.1625V32.1788V32.196C49.4267 32.2021 49.4267 32.2081 49.4272 32.2142C49.4272 32.2142 49.4272 32.2237 49.4272 32.2285V32.2429C49.4272 32.2534 49.4272 32.2639 49.4272 32.2745C49.4272 32.285 49.4272 32.3118 49.4272 32.3309C49.4277 32.3369 49.4277 32.343 49.4272 32.3491V32.3854V32.4266C49.4267 32.431 49.4267 32.4355 49.4272 32.44V32.44C49.4272 32.4514 49.4272 32.462 49.4272 32.4734C49.4272 32.4849 49.4272 32.4974 49.4272 32.5098V32.5299C49.4272 32.5394 49.4272 32.549 49.4272 32.5586V32.615C49.4277 32.6195 49.4277 32.624 49.4272 32.6284V32.6609C49.4277 32.667 49.4277 32.6731 49.4272 32.6791V32.6906C49.4277 32.6966 49.4277 32.7027 49.4272 32.7088V32.7212C49.4267 32.7263 49.4267 32.7314 49.4272 32.7365C49.4272 32.7365 49.4272 32.7432 49.4272 32.747C49.4277 32.7515 49.4277 32.756 49.4272 32.7604V32.7719C49.4267 32.7812 49.4267 32.7904 49.4272 32.7997V32.8169C49.4266 32.8204 49.4266 32.8239 49.4272 32.8274C49.4272 32.8274 49.4272 32.836 49.4272 32.8408V32.8695V32.8915C49.4272 32.8915 49.4272 32.9011 49.4272 32.9058V32.9298C49.4277 32.9348 49.4277 32.94 49.4272 32.9451C49.4272 32.9508 49.4272 32.9556 49.4272 32.9604V32.9824C49.4272 32.991 49.4272 32.9996 49.4272 33.0072C49.4272 33.0149 49.4272 33.0168 49.4272 33.0216V33.0312V33.0407C49.4272 33.0407 49.4272 33.0484 49.4272 33.0522V33.0589V33.0733C49.4272 33.078 49.4272 33.0838 49.4272 33.0895V33.1039V33.1039V33.1182C49.4266 33.1227 49.4266 33.1272 49.4272 33.1316C49.4272 33.1316 49.4272 33.1316 49.4272 33.1383V33.1469C49.4267 33.152 49.4267 33.1571 49.4272 33.1622V33.1622C49.4267 33.1686 49.4267 33.175 49.4272 33.1814V33.1814C49.4272 33.1881 49.4272 33.1948 49.4272 33.2014L49.4214 33.2254C49.4214 33.2321 49.4214 33.2378 49.4214 33.2435C49.4214 33.2493 49.4214 33.255 49.4214 33.2608V33.2684V33.2818V33.2866C49.4218 33.293 49.4218 33.2993 49.4214 33.3057V33.3057L49.4155 33.3268L49.4097 33.3478C49.4087 33.354 49.407 33.3601 49.4048 33.366V33.3736C49.4048 33.3736 49.4048 33.3842 49.4048 33.3899L49.399 33.409L49.3932 33.4301C49.3903 33.4369 49.3881 33.4439 49.3864 33.4511L49.3796 33.4712L49.3737 33.4884L49.3679 33.5066L49.3611 33.5267C49.3584 33.5329 49.3561 33.5393 49.3543 33.5458V33.5458C49.3543 33.5602 49.3436 33.5736 49.3388 33.5879L49.331 33.608L49.3223 33.6291L49.3145 33.6492C49.0017 34.433 48.4854 35.1223 47.8173 35.6481C47.1491 36.1739 46.3525 36.5178 45.507 36.6454C44.9827 35.9893 44.6409 35.2102 44.515 34.3847C44.3891 33.5591 44.4835 32.7155 44.789 31.9368V31.9368Z" fill="#DD0979"/>
<path d="M49.3427 33.6826L49.3485 33.6683L49.3427 33.6826Z" fill="#DD0979"/>
<path d="M49.3495 31.513C49.3563 31.5292 49.3631 31.5464 49.3689 31.5627C49.3631 31.5464 49.3563 31.5292 49.3495 31.513Z" fill="#DD0979"/>
<path d="M40.5162 28.2613L40.5308 28.2451C40.9335 27.8109 41.4583 27.5044 42.0383 27.3646C42.6183 27.2247 43.2275 27.2578 43.7884 27.4596C43.9778 27.5271 44.1598 27.6133 44.3315 27.717L44.3422 27.7313L44.3509 27.7419V27.7495L44.3606 27.7629L44.3703 27.7763L44.3762 27.7859L44.383 27.7945L44.3936 27.8098L44.4131 27.8375C44.4131 27.8433 44.4199 27.848 44.4228 27.8528C44.4257 27.8576 44.4442 27.8844 44.4539 27.9007C44.457 27.9044 44.4596 27.9086 44.4617 27.9131C44.4889 27.9552 44.5151 27.9992 44.5394 28.0432C44.542 28.0468 44.5443 28.0507 44.5462 28.0547L44.5578 28.0748L44.5627 28.0843L44.5744 28.1073L44.5831 28.1226C44.5849 28.1257 44.5865 28.1289 44.588 28.1322V28.1417L44.5957 28.1561L44.6016 28.1685C44.6093 28.1829 44.6161 28.1972 44.6229 28.2116L44.6288 28.224C44.6288 28.2297 44.6288 28.2345 44.6356 28.2403C44.6385 28.2455 44.6411 28.2509 44.6433 28.2565L44.6501 28.2718V28.2785L44.656 28.29L44.6618 28.3034C44.6616 28.3069 44.6616 28.3104 44.6618 28.3139C44.6618 28.3139 44.6618 28.3206 44.6618 28.3245L44.6696 28.3417L44.6754 28.357L44.6812 28.3704C44.6831 28.3747 44.6847 28.3792 44.6861 28.3838L44.6919 28.3972V28.4077V28.4173V28.4287C44.6923 28.4332 44.6923 28.4377 44.6919 28.4421V28.4507V28.4593V28.4727L44.6977 28.488L44.7036 28.5033C44.7036 28.5091 44.7036 28.5139 44.7084 28.5187C44.7133 28.5234 44.7084 28.533 44.7162 28.5407C44.724 28.5483 44.7162 28.5483 44.7162 28.5531L44.7337 28.6086C44.7337 28.6086 44.7337 28.6172 44.7385 28.622V28.6325C44.7385 28.6373 44.7385 28.6421 44.7385 28.6468C44.7385 28.6516 44.7385 28.6564 44.7434 28.6612V28.6727C44.7687 28.7616 44.7891 28.8516 44.8066 28.9425C44.8061 28.9463 44.8061 28.9501 44.8066 28.9539V28.9635C44.8061 28.9683 44.8061 28.9731 44.8066 28.9778V28.9951V29.0065V29.0171V29.0352V29.0573C44.8066 29.0573 44.8066 29.0659 44.8066 29.0697V29.0754C44.8066 29.0754 44.8066 29.0831 44.8066 29.0869C44.807 29.0914 44.807 29.0959 44.8066 29.1003C44.807 29.1057 44.807 29.1112 44.8066 29.1166V29.1166C44.8061 29.1217 44.8061 29.1268 44.8066 29.1319C44.8066 29.1367 44.8066 29.1414 44.8066 29.1462V29.1682C44.8066 29.174 44.8066 29.1797 44.8066 29.1854C44.807 29.1912 44.807 29.1969 44.8066 29.2027C44.8066 29.2084 44.8066 29.2141 44.8066 29.2189C44.8066 29.2189 44.8066 29.2294 44.8066 29.2342C44.8066 29.239 44.8066 29.2457 44.8066 29.2514C44.8066 29.2572 44.8066 29.262 44.8066 29.2677C44.8066 29.2725 44.8066 29.2773 44.8066 29.283C44.807 29.2881 44.807 29.2932 44.8066 29.2983V29.2983C44.807 29.3037 44.807 29.3092 44.8066 29.3146C44.8066 29.3213 44.8066 29.327 44.8066 29.3328C44.8066 29.3385 44.8066 29.3442 44.8066 29.35V29.4036C44.8066 29.4112 44.8066 29.4179 44.8066 29.4246V29.4571C44.8066 29.4753 44.8066 29.4925 44.8066 29.5107C44.8066 29.5289 44.8066 29.5356 44.8066 29.548C44.8066 29.5605 44.8066 29.571 44.8066 29.5815C44.8066 29.6169 44.8066 29.6532 44.8007 29.6886C44.8007 29.6944 44.8007 29.7001 44.8007 29.7059C44.8007 29.7116 44.8007 29.7164 44.8007 29.7221C44.8007 29.7279 44.8007 29.7527 44.8007 29.768C44.8007 29.7833 44.8007 29.7776 44.8007 29.7814C44.8007 29.7853 44.8007 29.791 44.8007 29.7958C44.8007 29.8006 44.8007 29.8044 44.8007 29.8082C44.8007 29.812 44.8007 29.8302 44.8007 29.8417V29.8513V29.8656C44.8003 29.8707 44.8003 29.8758 44.8007 29.8809V29.8934V29.9087C44.8012 29.9125 44.8012 29.9163 44.8007 29.9201V29.9345V29.9479V29.9632V29.9756V29.989C44.8007 29.9967 44.8007 30.0043 44.8007 30.0129V30.0235C44.8012 30.027 44.8012 30.0305 44.8007 30.034C44.8012 30.0381 44.8012 30.0423 44.8007 30.0464C44.8004 30.0525 44.8004 30.0585 44.8007 30.0646C44.8007 30.0703 44.8007 30.0761 44.8007 30.0818V30.0962V30.1105V30.1268C44.8007 30.1325 44.8007 30.1383 44.8007 30.144C44.8007 30.1497 44.8007 30.1564 44.8007 30.1622V30.1756V30.1842L44.792 30.2138C44.7871 30.232 44.7823 30.2502 44.7764 30.2684C44.7769 30.2744 44.7769 30.2805 44.7764 30.2865C44.7764 30.298 44.7696 30.3095 44.7658 30.3219C44.7619 30.3344 44.758 30.3478 44.7531 30.3602C44.7483 30.3726 44.7531 30.3698 44.7531 30.3736C44.7531 30.3841 44.7453 30.3956 44.7424 30.4061C44.7424 30.4176 44.7347 30.4291 44.7298 30.4415L44.724 30.4587C44.724 30.4673 44.7172 30.476 44.7143 30.4855C44.7139 30.4897 44.7139 30.4938 44.7143 30.498C44.7084 30.5114 44.7036 30.5247 44.6987 30.5372L44.6929 30.5506V30.5621C44.6909 30.5683 44.6883 30.5744 44.6851 30.5802L44.6783 30.5975C44.6765 30.6009 44.6749 30.6044 44.6735 30.608C44.6735 30.6137 44.6735 30.6185 44.6667 30.6242L44.6598 30.6395C44.6598 30.6395 44.6599 30.6491 44.6531 30.6549V30.6635L44.6472 30.6759L44.6424 30.6864L44.6307 30.7113L44.6249 30.7228L44.62 30.7323L44.6142 30.7438L44.6016 30.7697L44.5967 30.7792L44.5909 30.7897C44.589 30.7944 44.5867 30.7989 44.5841 30.8031L44.5734 30.8242L44.5656 30.8385L44.5588 30.851C44.5549 30.8575 44.5513 30.8642 44.5481 30.8711C44.5433 30.8781 44.5391 30.8854 44.5355 30.8931L44.5277 30.9055L44.5229 30.9141V30.9218L44.5161 30.9323V30.938L44.5083 30.9505L44.4995 30.9648L44.4918 30.9772V30.982L44.484 30.9954L44.4762 31.0079V31.0136V31.0203L44.4665 31.0346L44.4558 31.0509L44.4442 31.0681L44.4306 31.0882C44.4276 31.0937 44.424 31.0988 44.4199 31.1035V31.1035L44.4102 31.1179V31.1236C44.4082 31.1281 44.4055 31.1323 44.4024 31.136V31.136L44.3907 31.1523L44.3781 31.1695L44.3645 31.1877L44.3538 31.203L44.349 31.2088L44.3383 31.2221C44.3344 31.2275 44.3301 31.2326 44.3256 31.2375V31.2375L44.312 31.2547L44.2984 31.2719L44.2848 31.2882L44.2732 31.3025L44.2615 31.3169C44.2567 31.322 44.2522 31.3275 44.2479 31.3331L44.2343 31.3484L44.2052 31.3819L44.1896 31.3982L44.1741 31.4144L44.1595 31.4307C43.5798 32.0496 42.8452 32.5079 42.0292 32.7597C41.2133 33.0115 40.3445 33.0481 39.5097 32.8657C39.2625 32.0776 39.2252 31.2402 39.4015 30.4339C39.5778 29.6276 39.9616 28.8794 40.5162 28.2613Z" fill="#F59D08"/>
<path d="M44.1216 31.5091L44.1323 31.4977L44.1216 31.5091Z" fill="#F59D08"/>
<path d="M41.5354 26.0247C41.5295 26.0409 41.5227 26.0582 41.5159 26.0744C41.5266 26.0601 41.5354 26.0428 41.5354 26.0247Z" fill="#D28D0E"/>
<path d="M37.8795 23.3145L37.8999 23.3049C38.1143 23.2003 38.3407 23.1213 38.5741 23.0696C38.7237 23.0361 38.8757 23.0144 39.0288 23.0045C39.5266 22.9707 40.0252 23.0592 40.4796 23.2621C40.9341 23.465 41.3303 23.7759 41.6325 24.1669C41.6347 24.1728 41.6363 24.1788 41.6374 24.185C41.6378 24.1892 41.6378 24.1933 41.6374 24.1975V24.2061C41.6374 24.2118 41.6374 24.2176 41.6422 24.2223C41.6471 24.2271 41.6422 24.2329 41.6422 24.2386V24.2491V24.2597C41.6422 24.2654 41.6422 24.2721 41.6422 24.2778C41.6422 24.2836 41.6422 24.2998 41.65 24.3113C41.6578 24.3228 41.65 24.3228 41.65 24.3295L41.6617 24.384V24.3984C41.6714 24.4481 41.6792 24.494 41.686 24.5476C41.6865 24.5521 41.6865 24.5565 41.686 24.561V24.584V24.5945V24.6194C41.686 24.626 41.686 24.6318 41.686 24.6375C41.686 24.6433 41.686 24.6442 41.686 24.6481C41.686 24.6519 41.686 24.6547 41.686 24.6586C41.686 24.6624 41.686 24.6691 41.686 24.6739C41.686 24.6787 41.686 24.6844 41.686 24.6892C41.686 24.694 41.686 24.7208 41.686 24.7361C41.686 24.7514 41.686 24.7447 41.686 24.7495C41.6864 24.7555 41.6864 24.7616 41.686 24.7676C41.686 24.7734 41.686 24.7801 41.686 24.7858V24.8222C41.6864 24.8269 41.6864 24.8317 41.686 24.8365V24.849C41.6864 24.8524 41.6864 24.856 41.686 24.8595V24.8767C41.6864 24.8824 41.6864 24.8882 41.686 24.8939V25.0097C41.686 25.0145 41.686 25.0192 41.686 25.024V25.0451C41.6854 25.0505 41.6854 25.0559 41.686 25.0613C41.6864 25.0664 41.6864 25.0715 41.686 25.0766C41.6864 25.0843 41.6864 25.0919 41.686 25.0996V25.113C41.686 25.1321 41.686 25.1513 41.686 25.1704C41.686 25.1704 41.686 25.1799 41.686 25.1847C41.6864 25.1885 41.6864 25.1924 41.686 25.1962C41.6864 25.201 41.6864 25.2058 41.686 25.2106C41.686 25.2153 41.686 25.2201 41.686 25.2259C41.6855 25.2297 41.6855 25.2335 41.686 25.2373C41.6762 25.333 41.6626 25.421 41.6452 25.511C41.6452 25.511 41.6452 25.5196 41.6452 25.5234V25.532V25.5463C41.6452 25.5521 41.6452 25.5578 41.6452 25.5636V25.575V25.5856C41.6452 25.5913 41.6452 25.5971 41.6452 25.6028C41.6452 25.6085 41.6452 25.6181 41.6452 25.6248V25.6372V25.643C41.6456 25.6468 41.6456 25.6506 41.6452 25.6544C41.6446 25.6589 41.6446 25.6634 41.6452 25.6678C41.6452 25.6726 41.6452 25.6784 41.6452 25.6831V25.6985C41.6452 25.7032 41.6452 25.708 41.6452 25.7118L41.6325 25.7377C41.6325 25.7425 41.6325 25.7482 41.6325 25.7539C41.6314 25.7598 41.6297 25.7655 41.6277 25.7712C41.6281 25.7762 41.6281 25.7814 41.6277 25.7865C41.6277 25.7922 41.6277 25.797 41.6277 25.8018L41.6218 25.819C41.6218 25.8247 41.6218 25.8295 41.6218 25.8343C41.6218 25.8343 41.6218 25.8439 41.6218 25.8486C41.6214 25.8534 41.6214 25.8582 41.6218 25.863V25.863C41.6218 25.863 41.6218 25.8735 41.617 25.8783L41.6112 25.8955L41.6053 25.9118L41.5995 25.9271V25.9338L41.5946 25.9453L41.5888 25.9625C41.5866 25.9693 41.584 25.976 41.581 25.9826V25.996C41.5792 26.0016 41.5769 26.007 41.5742 26.0122C41.5684 26.0285 41.5616 26.0457 41.5548 26.062L41.5402 26.0974C41.5354 26.1069 41.5315 26.1175 41.5266 26.128C41.5121 26.1605 41.4975 26.193 41.4819 26.2237L41.4732 26.2399C41.4713 26.2449 41.4691 26.2497 41.4664 26.2543C41.4596 26.2686 41.4528 26.282 41.445 26.2954L41.4392 26.3078L41.4324 26.3203L41.4266 26.3318L41.41 26.3605L41.4052 26.37L41.3984 26.3825L41.3906 26.3959L41.3848 26.4064L41.377 26.4198C41.3753 26.4236 41.373 26.4272 41.3702 26.4303L41.3634 26.4427L41.3566 26.4542V26.4628L41.3498 26.4743L41.342 26.4858L41.3294 26.5059L41.3236 26.5154L41.3178 26.524L41.3109 26.5355L41.3003 26.5508L41.2905 26.5661L41.2818 26.5786V26.5834C41.2787 26.5871 41.276 26.5913 41.274 26.5958L41.2653 26.6101L41.2546 26.6245L41.2439 26.6398C41.241 26.6434 41.2384 26.6472 41.2361 26.6513V26.658L41.2177 26.6838L41.1827 26.7288L41.171 26.7431L41.1487 26.7728L41.1225 26.8043L41.1137 26.8149L41.0924 26.8407L41.0681 26.8694L41.0554 26.8828C41.0496 26.8904 41.0428 26.8971 41.036 26.9048L41.0273 26.9144L40.9981 26.9459L40.9884 26.9564L40.9797 26.966L40.9661 26.9794L40.9534 26.9928L40.9447 27.0014L40.932 27.0138L40.9204 27.0263L40.9087 27.0368L40.901 27.0445L40.8912 27.054L40.8835 27.0617L40.8631 27.0808L40.8534 27.0894L40.8456 27.0971L40.8359 27.1057L40.8145 27.1248L40.8067 27.1315L40.798 27.1401L40.7863 27.1497L40.7679 27.166L40.7562 27.1765L40.7445 27.186L40.7271 27.2004L40.7076 27.2167L40.696 27.2253L40.6882 27.232L40.6814 27.2377L40.6717 27.2454L40.66 27.254L40.6464 27.2645L40.6348 27.2731H40.6299L40.6182 27.2827L40.6076 27.2913H40.6017L40.5949 27.297L40.5813 27.3066C40.5758 27.3095 40.5706 27.3131 40.5658 27.3171C40.5599 27.3207 40.5543 27.3249 40.5493 27.3295L40.5279 27.3439L40.5123 27.3544L40.4978 27.364H40.491L40.4793 27.3726L40.4618 27.3841L40.4434 27.3955L40.4249 27.407L40.4084 27.4176H40.4026L40.388 27.4262L40.3705 27.4357L40.352 27.4472L40.3326 27.4587L40.3141 27.4692L40.2976 27.4778L40.2821 27.4874L40.2636 27.4979L40.2452 27.5075C40.2325 27.5151 40.2189 27.5218 40.2053 27.5285L40.1859 27.5381L40.1655 27.5477L40.1461 27.5572C39.3787 27.9294 38.5255 28.0965 37.6719 28.0418C36.8184 27.9871 35.9944 27.7124 35.2825 27.2454C35.3387 26.4264 35.6069 25.6352 36.0614 24.9471C36.516 24.259 37.1419 23.697 37.8795 23.3145V23.3145Z" fill="#D28D0E"/>
<path d="M40.0499 27.6251L40.0635 27.6184C40.0592 27.6212 40.0547 27.6235 40.0499 27.6251V27.6251Z" fill="#D28D0E"/>
<path d="M41.5354 26.0247C41.5295 26.0409 41.5227 26.0582 41.5159 26.0744C41.5266 26.0601 41.5354 26.0428 41.5354 26.0247Z" fill="#D28D0E"/>
<path d="M39.6535 21.5944C39.6418 21.6078 39.6292 21.6212 39.6166 21.6337C39.6292 21.6241 39.6418 21.6078 39.6535 21.5944Z" fill="#4A7634"/>
<path d="M37.2363 17.764H37.2587C37.8531 17.7122 38.4499 17.835 38.9736 18.1167C39.4973 18.3985 39.9246 18.8267 40.2015 19.3473C40.2951 19.5226 40.3703 19.7069 40.4259 19.8973C40.4259 19.904 40.4259 19.9098 40.4259 19.9155C40.4259 19.9213 40.4259 19.9251 40.4259 19.9289V19.9385C40.4263 19.9439 40.4263 19.9493 40.4259 19.9547C40.4264 19.9601 40.4264 19.9656 40.4259 19.971V19.971V19.9825C40.4259 19.9825 40.4259 19.9892 40.4259 19.993C40.4254 19.9991 40.4254 20.0051 40.4259 20.0112L40.4201 20.0447V20.0628L40.4113 20.1183V20.1327C40.4016 20.1824 40.3919 20.2283 40.3792 20.281V20.2934L40.3734 20.3163V20.3269C40.3734 20.3355 40.3686 20.3431 40.3666 20.3508C40.3647 20.3584 40.3666 20.3632 40.3618 20.369V20.3785V20.3891C40.3618 20.3891 40.3618 20.3996 40.3618 20.4044C40.3613 20.4091 40.3613 20.4139 40.3618 20.4187C40.3618 20.4331 40.352 20.4484 40.3482 20.4637L40.3433 20.4771L40.3375 20.4933C40.3375 20.5 40.3375 20.5058 40.3375 20.5115L40.3316 20.5268V20.5335C40.3311 20.5376 40.3311 20.5418 40.3316 20.5459C40.3294 20.5502 40.3278 20.5547 40.3268 20.5593C40.3264 20.5632 40.3264 20.567 40.3268 20.5708C40.3264 20.5743 40.3264 20.5778 40.3268 20.5813L40.32 20.5986L40.3142 20.6139C40.3137 20.6186 40.3137 20.6234 40.3142 20.6282L40.3083 20.6416L40.3035 20.655C40.3035 20.655 40.3035 20.6617 40.3035 20.6655V20.6751C40.3038 20.6789 40.3038 20.6828 40.3035 20.6866C40.3035 20.6866 40.3035 20.6952 40.2986 20.7V20.7086V20.7162L40.2928 20.7296C40.2928 20.7354 40.2879 20.7401 40.286 20.7449L40.2801 20.7602L40.2733 20.7746L40.2636 20.7956C40.2624 20.7996 40.2608 20.8035 40.2588 20.8071C40.25 20.8253 40.2423 20.8425 40.2335 20.8597L40.2277 20.8731C40.2257 20.8761 40.2241 20.8793 40.2228 20.8827C40.2228 20.8827 40.218 20.8923 40.216 20.8961L40.2092 20.9095C40.2072 20.9128 40.2056 20.9163 40.2044 20.92C40.1616 21.0023 40.116 21.0826 40.0654 21.1611L40.0596 21.1716L40.0538 21.1792C40.0518 21.1837 40.0492 21.1879 40.046 21.1917L40.0363 21.206L40.0295 21.2166L40.0237 21.2252C40.0237 21.2299 40.0169 21.2347 40.0139 21.2405L40.0013 21.2586L39.9935 21.2692C39.991 21.2722 39.9888 21.2754 39.9867 21.2787L39.979 21.2902C39.9754 21.2941 39.9722 21.2983 39.9693 21.3027L39.9595 21.316L39.9508 21.3275C39.9508 21.3333 39.9421 21.339 39.9382 21.3457C39.9344 21.35 39.9308 21.3544 39.9275 21.3591L39.9168 21.3734L39.9061 21.3859C39.9034 21.3904 39.9002 21.3946 39.8964 21.3983C39.8931 21.403 39.8895 21.4074 39.8857 21.4117V21.4117L39.876 21.4241L39.8663 21.4356L39.8566 21.4471L39.8459 21.4605L39.8342 21.4739L39.8226 21.4873L39.8119 21.4997L39.8031 21.5102L39.7915 21.5236L39.7769 21.5389L39.7672 21.5495C39.7635 21.5544 39.7592 21.5589 39.7545 21.5629C39.7429 21.5763 39.7303 21.5896 39.7176 21.6021L39.6914 21.6298L39.6681 21.6537L39.5904 21.7284L39.5768 21.7398L39.5651 21.7513L39.5301 21.7819L39.5194 21.7915L39.5087 21.8001L39.499 21.8087L39.4738 21.8307L39.466 21.8374L39.4543 21.847L39.4427 21.8566L39.433 21.8642L39.4203 21.8738L39.4106 21.8814L39.3999 21.89L39.3892 21.8977L39.3805 21.9034L39.3698 21.912L39.3582 21.9206L39.3387 21.935L39.33 21.9417L39.3222 21.9474L39.3106 21.9551L39.296 21.9666L39.2814 21.9761L39.2688 21.9847L39.2561 21.9934L39.2425 22.0029L39.227 22.0125C39.2222 22.0165 39.217 22.0201 39.2115 22.023L39.1998 22.0307H39.193L39.1668 22.0479L39.1172 22.0775L39.1017 22.0871L39.0696 22.1062L39.0337 22.1273L39.021 22.134L38.9919 22.1502L38.9589 22.1675L38.9423 22.1761L38.9171 22.1895L38.9044 22.1952L38.8666 22.2143L38.853 22.2201L38.8413 22.2258L38.8238 22.2344L38.8063 22.2421H38.7966L38.7791 22.2497L38.7636 22.2564L38.749 22.2622H38.7393L38.7267 22.267H38.716L38.6907 22.2775L38.679 22.2823H38.6684H38.6557L38.6285 22.2928H38.6198H38.6081L38.5936 22.2985L38.5712 22.3062L38.5557 22.3119L38.5421 22.3167L38.5207 22.3244L38.4954 22.332H38.4818H38.4731H38.4634H38.4517H38.4459H38.4313H38.4158L38.4012 22.3368H38.3954H38.3808H38.3672H38.3604H38.3526H38.3361L38.3176 22.3416H38.2972L38.2729 22.3473H38.2545H38.237H38.2302H38.2156H38.2108H38.1913L38.17 22.3521H38.1476H38.1292H38.1214H38.1049H38.0854H38.0641H38.0417H38.0203H38.0019H37.997H37.9786H37.9562H37.9368H37.8931H37.8707H37.8484H37.826C36.974 22.4256 36.1173 22.2776 35.3415 21.9229C34.5658 21.5682 33.8982 21.0191 33.4055 20.3307C33.7782 19.6239 34.3233 19.0193 34.992 18.5713C35.6606 18.1233 36.4318 17.8459 37.2363 17.764V17.764Z" fill="#4A7634"/>
<path d="M39.6535 21.5944C39.6418 21.6078 39.6292 21.6212 39.6166 21.6337C39.6292 21.6241 39.6418 21.6078 39.6535 21.5944Z" fill="#4A7634"/>
<path d="M39.5214 16.7911L39.4728 16.815L39.5214 16.7911Z" fill="#0076B8"/>
<path d="M38.6723 12.3589L38.6946 12.3647C38.9243 12.4302 39.1454 12.522 39.3533 12.6383C39.4864 12.7134 39.6137 12.7982 39.7341 12.8918C40.3612 13.3848 40.7644 14.1023 40.8553 14.8874C40.8788 15.0843 40.8814 15.2831 40.8631 15.4805L40.8553 15.5015L40.8495 15.514L40.8446 15.5216C40.8424 15.5266 40.8398 15.5314 40.8368 15.536L40.8291 15.5513L40.8232 15.5618C40.8227 15.565 40.8227 15.5682 40.8232 15.5714C40.8197 15.5763 40.8164 15.5814 40.8135 15.5867L40.797 15.6163L40.7873 15.6326L40.7582 15.6814L40.7504 15.6938C40.7232 15.7369 40.696 15.779 40.6668 15.8201C40.6645 15.8238 40.6619 15.8273 40.6591 15.8306C40.6542 15.8373 40.6503 15.844 40.6455 15.8498L40.6387 15.8593L40.6241 15.8794L40.6134 15.8938L40.6066 15.9024L40.6008 15.911C40.5978 15.9153 40.5945 15.9195 40.5911 15.9234L40.5823 15.9359L40.5522 15.9732L40.5444 15.9837L40.5328 15.9971L40.5211 16.0114L40.5104 16.0248V16.0296C40.5084 16.0332 40.5057 16.0364 40.5026 16.0392L40.4929 16.0507L40.4852 16.0602L40.4783 16.0688C40.4736 16.0728 40.4694 16.0773 40.4657 16.0822L40.455 16.0947L40.4453 16.1061C40.442 16.1099 40.4384 16.1134 40.4346 16.1167L40.4259 16.1272L40.4181 16.1358L40.4113 16.1425L40.4026 16.1521L40.3929 16.1626L40.3695 16.1712L40.3637 16.1779L40.353 16.1884L40.3423 16.1999L40.3307 16.2114L40.319 16.2228L40.3025 16.2391L40.2928 16.2477L40.251 16.2889C40.247 16.2915 40.2434 16.2947 40.2403 16.2984L40.2316 16.3061L40.2209 16.3156L40.2102 16.3262L40.2005 16.3338C40.1315 16.396 40.0586 16.4544 39.9838 16.5098L39.9741 16.5165L39.9663 16.5223L39.9537 16.5309L39.9401 16.5414L39.9304 16.5481L39.9207 16.5548L39.9061 16.5644L39.8877 16.5778L39.877 16.5845H39.8721L39.8624 16.5912L39.8507 16.5988L39.8371 16.6084L39.8235 16.617L39.8109 16.6246L39.7924 16.6361L39.7779 16.6457L39.7623 16.6553L39.7478 16.6639L39.7341 16.6725L39.7196 16.6811L39.706 16.6887L39.6924 16.6964L39.6788 16.704L39.6642 16.7117L39.6487 16.7203L39.6331 16.728L39.6185 16.7356H39.6127L39.601 16.7414L39.5855 16.75L39.5661 16.7595L39.5534 16.7662L39.5369 16.7739L39.4883 16.7978L39.4534 16.8131L39.4223 16.8274L39.3251 16.8695L39.3076 16.8762L39.2931 16.882L39.2493 16.8982L39.2357 16.903H39.2221H39.2105L39.1784 16.9136H39.1687H39.1551H39.1405H39.1289H39.1133H39.1017H39.0881H39.0754H39.0648H39.0521H39.0395L39.0152 16.9202H39.0045H38.9948H38.9812H38.9637H38.9462H38.9317H38.9171H38.9006L38.8831 16.925H38.8646H38.851H38.8423L38.8122 16.9308L38.7548 16.9422H38.7364L38.7004 16.9489L38.6587 16.9547H38.645H38.611H38.5741H38.5557H38.5265H38.5129H38.4702H38.4235H38.4041H38.0029H37.9863H37.9659H37.9504H37.9164H37.8999H37.8814H37.861H37.8358H37.8173H37.7998H37.7464H37.7318H37.7114H37.6891H37.6667H37.6482H37.6414H37.624H37.6045H37.5832H37.5618L37.5404 16.9499H37.5219L37.5035 16.9451L37.4821 16.9394L37.4627 16.9346L37.419 16.9231L37.3976 16.9174L37.3762 16.9107L37.3548 16.9049C36.5333 16.6707 35.7887 16.2281 35.1953 15.6216C34.602 15.015 34.1808 14.2657 33.9739 13.4486C34.5942 12.8819 35.3533 12.4836 36.1769 12.2926C37.0005 12.1015 37.8603 12.1244 38.6723 12.3589Z" fill="#0076B8"/>
<path d="M39.5214 16.7911L39.4728 16.815L39.5214 16.7911Z" fill="#0076B8"/>
<path d="M41.9949 7.83017L42.0124 7.84356C42.3264 8.07747 42.5906 8.37004 42.7896 8.70455C43.0422 9.12868 43.184 9.60782 43.2025 10.0991C43.221 10.5904 43.1155 11.0786 42.8955 11.52L42.8819 11.5324L42.8713 11.541L42.8645 11.5468L42.8518 11.5573L42.8392 11.5688L42.8305 11.5764L42.8227 11.5831L42.8081 11.5946C42.7995 11.6024 42.7904 11.6098 42.7809 11.6166L42.7663 11.6281L42.7216 11.6625L42.71 11.6721C42.6692 11.7027 42.6274 11.7314 42.5856 11.7601L42.574 11.7677L42.5545 11.7802L42.5458 11.7869L42.5244 11.8003L42.5089 11.8098L42.4992 11.8156L42.4904 11.8213L42.4768 11.8299L42.4642 11.8376L42.4234 11.8615L42.4098 11.8663L42.3942 11.8758L42.3787 11.8844L42.3631 11.8931H42.3573L42.3466 11.8998L42.333 11.9065L42.3223 11.9122L42.3126 11.9179L42.2961 11.9265L42.2815 11.9342L42.2679 11.9409L42.2543 11.9476L42.2427 11.9533L42.232 11.9591H42.2232L42.2116 11.9648L42.198 11.9705H42.1892H42.1815L42.1679 11.9763L42.1533 11.983L42.1377 11.9897L42.1241 11.9964L42.1018 12.005L42.0901 12.0107L42.0212 12.0576L42.0076 12.0633H41.9969L41.9833 12.0691L41.9687 12.0748H41.958C41.8706 12.1073 41.7812 12.137 41.6908 12.1619H41.6792H41.6695H41.6559H41.6384H41.6267H41.616H41.5985L41.5762 12.1676H41.5636H41.5519H41.5383H41.5218H41.5053H41.4917L41.4693 12.1724H41.4518H41.4343H41.4178H41.4023H41.3848H41.3692H41.3537H41.3391H41.3226H41.3051H41.2876H41.2711H41.2439H41.2313H41.2128H41.1915H41.1769H41.1594H41.105H41.0671H41.0331H40.9243H40.625H40.6114H40.5872H40.5638H40.5502H40.5328H40.5143H40.4997H40.4949H40.4793H40.4628H40.4453H40.4269H40.4123H40.4045L40.3734 12.1676L40.3161 12.158H40.2976L40.2617 12.1504L40.2209 12.1418H40.2073L40.1743 12.1332L40.1373 12.1246H40.1189L40.0917 12.1169H40.0781L40.0363 12.1054H40.0227H40.0101L39.9916 12.0997L39.9741 12.0949H39.9625L39.945 12.0892L39.9294 12.0844L39.9139 12.0786H39.9042L39.8906 12.0739H39.8799L39.8536 12.0653L39.842 12.0605H39.8313L39.8187 12.0557L39.7915 12.0461H39.7818L39.7711 12.0413L39.7575 12.0356L39.7341 12.027L39.7196 12.0203L39.706 12.0146L39.6846 12.0059L39.6613 11.9954L39.6477 11.9897H39.6389H39.6302L39.6195 11.9849H39.6127L39.6001 11.9792L39.5845 11.9715L39.5719 11.9658H39.5661L39.5525 11.9591L39.5398 11.9524H39.533H39.5262L39.5107 11.9457L39.4932 11.9371L39.4747 11.9265L39.4524 11.9151L39.4359 11.9065L39.4203 11.8978H39.4135L39.4009 11.8911L39.3824 11.8816L39.363 11.8711L39.3436 11.8596C39.3384 11.8559 39.3329 11.8527 39.3271 11.85H39.3212L39.3067 11.8404L39.2902 11.8299L39.2717 11.8184L39.2523 11.806L39.2338 11.7945C39.2283 11.7916 39.223 11.788 39.2183 11.784V11.784L39.2027 11.7735L39.1852 11.761L39.1687 11.7496L39.1318 11.7237L39.1143 11.7103L39.0968 11.6969L39.0784 11.6836C38.3896 11.1747 37.8497 10.4956 37.5134 9.71502C37.1771 8.93448 37.0564 8.08026 37.1634 7.23896C37.9509 6.91281 38.8115 6.79575 39.6593 6.8995C40.5071 7.00324 41.3125 7.32414 41.9949 7.83017V7.83017Z" fill="#3EA635"/>
<path d="M39.0424 11.6644L39.055 11.674L39.0424 11.6644Z" fill="#3EA635"/>
<path d="M44.3528 8.62705L44.3004 8.6127L44.3528 8.62705Z" fill="#004C84"/>
<path d="M46.7545 4.78707L46.7661 4.80524C46.8912 5.00622 46.9916 5.22104 47.0654 5.44524C47.1131 5.58857 47.1491 5.7354 47.1732 5.88434C47.3009 6.66495 47.1087 7.46354 46.6389 8.10472C46.5211 8.26537 46.387 8.41378 46.2386 8.54765V8.54765L46.2211 8.55435L46.2075 8.55913H46.1997L46.1832 8.56487L46.1677 8.57061H46.157H46.1463L46.1288 8.57635L46.0958 8.58688L46.0783 8.59262L46.0239 8.60888H46.0093C45.9598 8.62323 45.9122 8.63567 45.8607 8.64715H45.848L45.8247 8.65193H45.814L45.7888 8.65671H45.7713H45.7606H45.7499H45.7344H45.7198L45.6722 8.66532H45.6586H45.6401H45.6217H45.6052H45.5857H45.5711H45.5585H45.5478H45.5294H45.5129H45.4983H45.4827H45.4691H45.1689C45.0718 8.66532 44.9814 8.65958 44.8882 8.65097H44.8658H44.8512H44.8337H44.8221H44.8104H44.7929H44.7706H44.758H44.7415H44.7298H44.7152H44.6997H44.6841H44.6696H44.6472H44.6307H44.6122H44.5957H44.5802H44.5627H44.5471H44.5326H44.518H44.5015H44.484H44.4665H44.451H44.4442H44.4315H44.414L44.3927 8.64523H44.3791L44.3616 8.64045L44.3091 8.6261L44.2732 8.61462L44.2401 8.60409L44.1381 8.5687L44.1206 8.56296L44.1061 8.55722L44.0623 8.54H44.0497L44.0361 8.53426L44.0245 8.52948L43.9934 8.51704L43.9836 8.51226L43.97 8.50652L43.9555 8.50078L43.9448 8.49599L43.9302 8.4893L43.9186 8.48451L43.9059 8.47877L43.8943 8.47303H43.8894L43.8797 8.46825L43.868 8.46251L43.8554 8.45677L43.834 8.44625L43.8233 8.44051H43.8146L43.802 8.43381L43.7855 8.4252L43.7699 8.41755L43.7563 8.41085L43.7427 8.40416L43.7281 8.3965L43.7116 8.38789L43.6961 8.37833L43.6834 8.37163L43.6757 8.36685L43.6494 8.35154L43.5999 8.32189L43.5843 8.31232L43.5523 8.29223L43.5173 8.26927L43.4784 8.231L43.4493 8.21187L43.4192 8.19082L43.4036 8.1803L43.3803 8.16308L43.3687 8.15543L43.3347 8.1296L43.324 8.12099L43.3133 8.11333L43.2977 8.1009L43.2832 8.08942L43.2744 8.08272L43.2598 8.07124L43.2472 8.06072L43.2346 8.05019L43.2268 8.0435L43.2161 8.03489L43.2074 8.02724L43.186 8.00906L43.1763 8.00141L43.1685 7.99375L43.1578 7.98514L43.1365 7.96601L43.1287 7.95931L43.1199 7.9507L43.1093 7.94114L43.0918 7.92487L43.0801 7.91339C43.0763 7.91013 43.0727 7.90662 43.0694 7.90287L43.0529 7.88757L43.0345 7.86939L43.0238 7.85886L43.0179 7.85217L43.0111 7.84547L43.0024 7.83686H42.9975L42.9878 7.82634L42.9762 7.81486L42.9655 7.80434V7.79955L42.9558 7.78903L42.946 7.77851L42.9412 7.77277L42.9354 7.76703L42.9247 7.75459L42.912 7.74024L42.8975 7.72398L42.8819 7.7058L42.8693 7.69145L42.8576 7.67806L42.8528 7.67232L42.844 7.66084L42.8304 7.64458L42.8168 7.62736C42.8118 7.62171 42.8072 7.61562 42.8032 7.60918L42.7916 7.59483V7.58909L42.7809 7.5757L42.7692 7.55944L42.7566 7.54221L42.743 7.52404L42.7304 7.50682L42.7197 7.49151L42.709 7.47716L42.6964 7.45994L42.6857 7.44368L42.6604 7.40637L42.6488 7.38724L42.6361 7.36811L42.6245 7.34897C42.1778 6.63088 41.9305 5.80992 41.9071 4.96816C41.8837 4.12641 42.0852 3.29337 42.4914 2.55234C43.3377 2.5291 44.1756 2.72287 44.923 3.11464C45.6704 3.50641 46.3015 4.08273 46.7545 4.78707V4.78707Z" fill="#004C84"/>
<path d="M42.5944 7.31358L42.6031 7.32697L42.5944 7.31358Z" fill="#004C84"/>
<path d="M44.3528 8.62705L44.3004 8.6127L44.3528 8.62705Z" fill="#004C84"/>
<path d="M48.6568 6.36937C48.6422 6.35885 48.6276 6.34833 48.614 6.33685C48.6276 6.34833 48.6422 6.35885 48.6568 6.36937Z" fill="#1F3262"/>
<path d="M52.3078 3.64579V3.66684C52.3511 3.89864 52.3661 4.13468 52.3525 4.36998C52.3448 4.52089 52.3247 4.67093 52.2923 4.81864C52.1264 5.59206 51.6553 6.26892 50.9827 6.70037C50.814 6.80829 50.6347 6.899 50.4473 6.9711H50.3298H50.2958H50.2793L50.2229 6.96632H50.2083C50.1569 6.96154 50.1112 6.9558 50.0558 6.9491H50.0422H50.0189H50.0072H49.9829H49.9645H49.9538H49.9431H49.9276H49.913L49.8654 6.93953H49.8518H49.8343H49.8158H49.7993H49.7925H49.7809H49.7663H49.7537H49.743L49.7255 6.93475H49.709H49.6944H49.6798H49.6662H49.6546H49.6448H49.6332H49.6186H49.6099H49.6011H49.5875L49.572 6.92997L49.5564 6.92423L49.5419 6.91944L49.5195 6.91275L49.5069 6.90797L49.4515 6.88883L49.4379 6.88405L49.4272 6.87926L49.4127 6.87448L49.399 6.86874H49.3884C49.3 6.83526 49.2145 6.79699 49.1309 6.75586L49.1202 6.75012L49.1115 6.74533L49.0979 6.73864L49.0833 6.73098L49.0726 6.72524L49.0629 6.72046L49.0464 6.71185L49.0269 6.70133L49.0153 6.69463H49.0104L48.9997 6.68889L48.9881 6.68219L48.9735 6.67454L48.9599 6.66593L48.9473 6.65924L48.9279 6.64776L48.9133 6.63914L48.8977 6.62958L48.8832 6.62097L48.8696 6.61236L48.855 6.60279L48.8414 6.59418L48.8288 6.58557L48.8161 6.57792L48.8025 6.56835L48.787 6.55783L48.7724 6.54826L48.7598 6.5387H48.7539L48.7433 6.53105L48.7287 6.52052L48.7112 6.50808L48.6995 6.49947L48.685 6.48895C48.6704 6.47843 48.6558 6.46791 48.6422 6.45643L48.6121 6.43347L48.5859 6.41242C48.5577 6.38946 48.5295 6.3665 48.5023 6.34259L48.4897 6.33111L48.4771 6.31962L48.4421 6.28901L48.4324 6.27945L48.4217 6.26988L48.4129 6.26127L48.3886 6.23831L48.3809 6.23066L48.3702 6.22013L48.3595 6.20961L48.3508 6.201L48.3401 6.19048L48.3313 6.18091L48.3216 6.17134L48.3119 6.16178L48.3041 6.15413L48.2954 6.14456L48.2866 6.13403L48.2701 6.11681L48.2623 6.10821L48.2555 6.10055L48.2468 6.09003C48.2421 6.08604 48.2379 6.08155 48.2342 6.07664L48.2225 6.06324L48.2128 6.05272L48.2031 6.04124L48.1924 6.0288L48.1807 6.01445L48.1691 6.0001L48.1603 5.98958V5.98288L48.1399 5.95897L48.105 5.91305L48.0943 5.8987L48.0719 5.86904L48.0476 5.83556L48.0399 5.82408C48.0328 5.81522 48.0263 5.80595 48.0204 5.79634V5.79634L48 5.76573L47.9893 5.75042C47.9893 5.74181 47.9787 5.73416 47.9738 5.7265L47.966 5.71407L47.9437 5.67867L47.9359 5.66623L47.9291 5.65571C47.9264 5.64999 47.9232 5.64454 47.9194 5.63945L47.9106 5.62318L47.9048 5.61266C47.9012 5.60778 47.898 5.60267 47.8951 5.59736L47.8873 5.58301C47.8844 5.57843 47.8818 5.57363 47.8796 5.56866L47.8737 5.56004L47.8679 5.54761L47.8621 5.53804C47.8621 5.52943 47.8533 5.52178 47.8494 5.51317L47.8426 5.50265C47.843 5.49947 47.843 5.49626 47.8426 5.49308L47.8368 5.4816L47.8242 5.45577V5.44621L47.8183 5.43568L47.8125 5.42229C47.8125 5.41559 47.8057 5.40794 47.8018 5.40029L47.795 5.38594L47.7882 5.37254L47.7795 5.35245C47.7795 5.3448 47.7727 5.33715 47.7688 5.32854L47.763 5.3161V5.30749V5.29888C47.7634 5.29506 47.7634 5.29122 47.763 5.2874V5.28166L47.7571 5.26827C47.7553 5.263 47.753 5.25788 47.7503 5.25296C47.7492 5.24835 47.7475 5.24387 47.7455 5.23957V5.23383V5.21948C47.7455 5.21948 47.7455 5.21087 47.7455 5.20704V5.20035V5.19269L47.7397 5.17739C47.7397 5.17165 47.7397 5.16591 47.7328 5.15921C47.7328 5.15347 47.7328 5.14677 47.726 5.14008L47.7173 5.11712L47.7115 5.09894C47.7115 5.09416 47.7115 5.08842 47.7066 5.08268V5.07598C47.7066 5.07598 47.7066 5.06641 47.7066 5.06163L47.7008 5.0425L47.695 5.02145C47.6923 5.01458 47.69 5.00755 47.6882 5.00041L47.6823 4.98223V4.97553C47.6823 4.96979 47.6823 4.96501 47.6823 4.95927L47.5589 4.78707L47.5531 4.76698L47.5473 4.74498C47.5468 4.73829 47.5468 4.73158 47.5473 4.72489V4.72489C47.5473 4.71915 47.5473 4.71341 47.5424 4.70767C47.5424 4.70193 47.5424 4.69524 47.5424 4.6895C47.5424 4.6828 47.5424 4.6761 47.5424 4.66845C47.5424 4.6608 47.5424 4.65601 47.5424 4.64932C47.5424 4.63497 47.5356 4.62062 47.5327 4.60627C47.5298 4.59192 47.5327 4.59192 47.5327 4.58426C47.5327 4.57661 47.5327 4.56991 47.5327 4.56226V4.54121C47.3731 3.71274 47.4374 2.85753 47.7191 2.06121C48.0007 1.26488 48.4899 0.555409 49.1377 0.00382996C49.9435 0.284689 50.6604 0.768851 51.2167 1.40794C51.773 2.04704 52.1493 2.81869 52.3078 3.64579Z" fill="#1F3262"/>
<path d="M48.6568 6.36937C48.6422 6.35885 48.6276 6.34833 48.614 6.33685C48.6276 6.34833 48.6422 6.35885 48.6568 6.36937Z" fill="#1F3262"/>
<path d="M53.5018 5.79634L53.4736 5.75042L53.5018 5.79634Z" fill="#E2071F"/>
<path d="M57.9059 4.55556V4.57661C57.8608 4.80747 57.788 5.03226 57.6892 5.24626C57.6264 5.38561 57.5526 5.51995 57.4687 5.64806C57.0288 6.30936 56.3405 6.77178 55.5547 6.93379C55.3575 6.97431 55.1567 6.99515 54.9553 6.99597V6.99597L54.9378 6.98928L54.9252 6.9845H54.9164L54.9009 6.9778L54.8853 6.9711L54.8746 6.96632H54.864L54.8474 6.95867L54.8154 6.94431L54.7979 6.93666L54.7474 6.91275L54.7338 6.90605C54.6881 6.88405 54.6424 6.86013 54.5978 6.83622L54.5861 6.82952L54.5657 6.81804L54.556 6.8123L54.5336 6.79986L54.5181 6.7903L54.5093 6.78456H54.4996L54.486 6.77595L54.4734 6.76829L54.4326 6.74246L54.4209 6.73577L54.4064 6.7262L54.3908 6.71568L54.3762 6.70611H54.3704L54.3607 6.69941L54.3481 6.6908L54.3384 6.68411L54.3286 6.67741L54.3141 6.66689L54.3005 6.65732L54.2888 6.64871L54.2762 6.6401L54.2655 6.63245L54.2558 6.62575L54.248 6.62001L54.2383 6.61236L54.2266 6.60375L54.2189 6.59705L54.212 6.59227L54.2004 6.5827L54.1878 6.57314L54.1751 6.56261L54.1625 6.55305L54.145 6.5387L54.1343 6.53009L54.0896 6.49182L54.0789 6.48225C54.0759 6.48021 54.0733 6.47762 54.0712 6.4746L54.0595 6.46504L54.0488 6.45547L54.0401 6.44781C53.9711 6.38467 53.905 6.31867 53.8458 6.25074L53.838 6.24118L53.8312 6.23448L53.8215 6.223L53.8098 6.21057L53.8021 6.201L53.7943 6.19335L53.7826 6.17995L53.7681 6.16273L53.7603 6.15317V6.14839L53.7525 6.13978L53.7438 6.12829C53.7403 6.12433 53.7371 6.12018 53.7341 6.11586V6.11586C53.7306 6.1119 53.7273 6.10774 53.7243 6.10342L53.7156 6.0929L53.702 6.07472C53.6979 6.07068 53.6943 6.06619 53.6913 6.06133L53.6796 6.04698C53.6767 6.04261 53.6735 6.03845 53.6699 6.03454V6.03454L53.6602 6.02115L53.6505 6.00776C53.6467 6.00404 53.6435 5.99986 53.6408 5.99532V5.99532L53.632 5.98288L53.6233 5.9714L53.6146 5.95801L53.6048 5.94366L53.5951 5.92931L53.5854 5.91592V5.91018L53.5786 5.89966L53.5689 5.88435L53.5572 5.86713L53.5495 5.85469L53.5397 5.83939L53.5116 5.79347L53.4921 5.76094C53.4863 5.75137 53.4805 5.74181 53.4756 5.73224C53.4572 5.70163 53.4406 5.67006 53.4241 5.63658L53.4154 5.62031L53.4076 5.60596L53.3872 5.56483L53.3814 5.55239L53.3756 5.53996L53.3697 5.52848L53.3551 5.49786V5.4883L53.3493 5.4749L53.3425 5.46151L53.3377 5.45003L53.3318 5.43568C53.3314 5.43186 53.3314 5.42802 53.3318 5.4242L53.326 5.41176L53.3211 5.39933V5.38881V5.37733C53.3201 5.37298 53.3185 5.36879 53.3163 5.36489L53.3075 5.34193C53.3075 5.34193 53.3075 5.33523 53.3075 5.33141C53.3074 5.32822 53.3074 5.32503 53.3075 5.32184C53.3075 5.32184 53.3075 5.31419 53.3027 5.3094L53.2969 5.29218C53.2969 5.2874 53.292 5.28166 53.2901 5.27592V5.26157C53.2889 5.25665 53.2873 5.25185 53.2852 5.24722V5.24722C53.2856 5.24181 53.2856 5.23637 53.2852 5.23096V5.23096L53.2794 5.21374L53.2735 5.19652C53.2741 5.19207 53.2741 5.18757 53.2735 5.18313V5.17451L53.2648 5.14486C53.259 5.12764 53.2541 5.10851 53.2483 5.09033C53.2487 5.0846 53.2487 5.07884 53.2483 5.07311C53.2483 5.06067 53.2415 5.04919 53.2386 5.03771C53.2357 5.02623 53.2318 5.01093 53.2288 4.99754C53.2284 4.99308 53.2284 4.9886 53.2288 4.98414V4.98414C53.2288 4.97266 53.223 4.96214 53.2211 4.95066C53.2211 4.93918 53.2211 4.92674 53.2133 4.91431C53.2055 4.90187 53.2133 4.90283 53.2133 4.89613L53.2075 4.86839V4.85499C53.2075 4.8416 53.2075 4.82725 53.1997 4.81386C53.1992 4.80909 53.1992 4.80428 53.1997 4.79951V4.78707V4.76794V4.74976C53.1997 4.74976 53.1997 4.74211 53.1997 4.73828V4.72106C53.1997 4.71532 53.1997 4.70958 53.1997 4.70384C53.1992 4.69875 53.1992 4.69363 53.1997 4.68854C53.1997 4.68854 53.1997 4.68184 53.1997 4.67801C53.2001 4.67356 53.2001 4.66908 53.1997 4.66462C53.1997 4.66462 53.1997 4.65697 53.1997 4.65314V4.62636V4.61392C53.1997 4.61392 53.1997 4.60627 53.1997 4.6034C53.1997 4.60053 53.1997 4.59479 53.1997 4.59C53.1997 4.58522 53.1997 4.57087 53.1997 4.56131V4.5393C53.1997 4.5393 53.1997 4.52974 53.1997 4.52495C53.1997 4.52017 53.1997 4.50869 53.1997 4.50104C53.1997 4.49338 53.1997 4.48955 53.1997 4.48477C53.2002 4.48 53.2002 4.47519 53.1997 4.47042C53.2002 4.46278 53.2002 4.45511 53.1997 4.44746C53.1997 4.43885 53.1997 4.43024 53.1997 4.42163C53.1997 4.41302 53.1997 4.41207 53.1997 4.40728V4.38911C53.1992 4.38529 53.1992 4.38144 53.1997 4.37763V4.35562C53.1997 4.35084 53.1997 4.3451 53.1997 4.33936V4.25135C53.1992 4.24498 53.1992 4.23859 53.1997 4.23222V4.2083C53.1997 4.20065 53.1997 4.19204 53.1997 4.18439C53.1997 4.17673 53.1997 4.17195 53.1997 4.16525C53.1997 4.15951 53.1997 4.15377 53.1997 4.14803V4.14038C53.1997 4.13559 53.1997 4.13081 53.1997 4.12603V4.12125C53.1997 4.11455 53.1997 4.10785 53.1997 4.10115C53.1997 4.09446 53.1997 4.0868 53.1997 4.08011C53.1997 4.07245 53.1997 4.0648 53.1997 4.05811C53.1997 4.05141 53.1997 4.04567 53.1997 4.03897V4.03228C53.1997 4.02654 53.1997 4.0208 53.1997 4.01506C53.2002 4.00869 53.2002 4.00229 53.1997 3.99593V3.99593V3.97392V3.95192C53.1992 3.94491 53.1992 3.93788 53.1997 3.93087V3.93087C53.1992 3.92482 53.1992 3.91874 53.1997 3.91269C53.1997 3.906 53.1997 3.90026 53.1997 3.89452V3.87347V3.85338C53.1997 3.83903 53.1997 3.82373 53.2065 3.80938C53.2133 3.79503 53.2065 3.79503 53.2065 3.78833C53.207 3.78132 53.207 3.77429 53.2065 3.76729L53.2114 3.74528C53.3721 2.91795 53.7507 2.1467 54.3092 1.50872C54.8678 0.870742 55.5868 0.388415 56.3941 0.110016C57.0102 0.662569 57.4725 1.3611 57.7371 2.13921C58.0017 2.91731 58.0598 3.74912 57.9059 4.55556V4.55556Z" fill="#E2071F"/>
<path d="M53.5018 5.79634L53.4736 5.75042L53.5018 5.79634Z" fill="#E2071F"/>
<path d="M58.2304 6.98736C58.2304 6.97014 58.2236 6.95197 58.2206 6.93475C58.2236 6.95005 58.2265 6.96823 58.2304 6.98736Z" fill="#D6A102"/>
<path d="M62.7917 7.39489L62.7801 7.41307C62.5723 7.74238 62.3006 8.02812 61.9805 8.25396C61.5749 8.54093 61.1031 8.72405 60.6077 8.78684C60.1123 8.84963 59.6089 8.79012 59.1426 8.61366V8.61366L59.129 8.60123L59.1193 8.59166L59.1125 8.58592L59.0999 8.57444L59.0882 8.56296L59.0795 8.55531L59.0717 8.54765L59.0581 8.53426L59.0338 8.51035L59.0212 8.49695L58.9823 8.45677L58.9716 8.44529C58.9367 8.40798 58.9036 8.37067 58.8745 8.33145L58.8667 8.32189C58.8619 8.31519 58.856 8.30945 58.8512 8.30371L58.8444 8.2951L58.8288 8.27501L58.8172 8.26066L58.8104 8.25205L58.8045 8.2444L58.7948 8.23196L58.7851 8.21952L58.7569 8.18126C58.7538 8.17817 58.7512 8.17462 58.7492 8.17073L58.7385 8.15639L58.7278 8.14108L58.7181 8.12769V8.12194L58.7113 8.11142L58.7025 8.09899L58.6957 8.08942L58.6899 8.07985L58.6792 8.06455L58.6705 8.05115L58.6627 8.03872L58.6549 8.02628L58.6472 8.0148L58.6413 8.00524L58.6355 7.99662L58.6297 7.9861L58.6219 7.97366V7.96506L58.617 7.95836L58.6093 7.94497C58.6093 7.94497 58.6093 7.93636 58.6015 7.93157L58.5927 7.91722L58.585 7.90383L58.5733 7.88374L58.5675 7.87226L58.5393 7.8206C58.5374 7.81626 58.5352 7.8121 58.5325 7.80816C58.5329 7.80498 58.5329 7.80178 58.5325 7.7986L58.5257 7.7852C58.5257 7.78042 58.5257 7.7766 58.5189 7.77181V7.76129C58.4771 7.67806 58.4402 7.59388 58.4062 7.50778C58.4062 7.50778 58.4062 7.50012 58.4062 7.4963V7.48769V7.47334L58.4004 7.45708V7.44655V7.43603L58.3946 7.41881C58.3946 7.41211 58.3946 7.40446 58.3868 7.39776C58.379 7.39107 58.3868 7.39011 58.3868 7.38628V7.38054C58.3868 7.38054 58.3868 7.37289 58.3868 7.37002C58.3868 7.36715 58.3868 7.36045 58.3868 7.35663C58.3865 7.35153 58.3865 7.34642 58.3868 7.34132V7.34132C58.3864 7.33623 58.3864 7.33111 58.3868 7.32601L58.3819 7.31262L58.3761 7.29157C58.3742 7.28625 58.3725 7.28082 58.3712 7.27531L58.3654 7.25809C58.3654 7.25235 58.3654 7.24757 58.3654 7.24183V7.22652C58.3654 7.22078 58.3654 7.21504 58.3654 7.2093C58.3654 7.20356 58.3654 7.19878 58.3605 7.194C58.3605 7.18826 58.3605 7.18347 58.3605 7.17869C58.361 7.1736 58.361 7.16848 58.3605 7.16338V7.16338C58.3602 7.15797 58.3602 7.15254 58.3605 7.14712V7.14712C58.3602 7.14171 58.3602 7.13627 58.3605 7.13086C58.3605 7.12416 58.3606 7.11842 58.3557 7.11268V7.09737V7.09068V7.07824V7.06102C58.3557 7.05432 58.3557 7.04667 58.3508 7.03997V7.02563V7.00841C58.3508 6.99119 58.344 6.97301 58.3411 6.95579L58.3353 6.91848L58.3295 6.88596C58.3295 6.85056 58.3197 6.81516 58.3159 6.77977C58.3163 6.77372 58.3163 6.76764 58.3159 6.76159C58.3159 6.76159 58.3159 6.75107 58.3159 6.74533C58.3159 6.73959 58.3159 6.71471 58.311 6.69941C58.3114 6.69495 58.3114 6.69047 58.311 6.68602C58.3115 6.68157 58.3115 6.67707 58.311 6.67262C58.3115 6.66817 58.3115 6.66368 58.311 6.65923C58.311 6.64871 58.311 6.63723 58.311 6.6267V6.60183C58.311 6.59609 58.311 6.59131 58.311 6.58652V6.57409C58.3105 6.569 58.3105 6.56387 58.311 6.55878V6.42581C58.3105 6.42136 58.3105 6.41686 58.311 6.41241V6.37606C58.3115 6.37129 58.3115 6.36648 58.311 6.36171V6.36171C58.3105 6.35662 58.3105 6.3515 58.311 6.3464V6.32632C58.3115 6.32027 58.3115 6.31419 58.311 6.30814C58.3115 6.30209 58.3115 6.29601 58.311 6.28996C58.3114 6.28551 58.3114 6.28102 58.311 6.27657V6.26796C58.311 6.25744 58.311 6.24691 58.311 6.23639C58.311 6.22587 58.311 6.19908 58.3159 6.17995C58.3163 6.1739 58.3163 6.16782 58.3159 6.16177C58.3159 6.14934 58.3159 6.13786 58.3159 6.12542L58.3217 6.08428C58.3217 6.08428 58.3217 6.07568 58.3217 6.07089C58.3217 6.05941 58.3217 6.04793 58.3217 6.03741L58.3275 6.00106V5.98288C58.3271 5.97364 58.3271 5.96438 58.3275 5.95514C58.3275 5.95035 58.3275 5.94557 58.3275 5.94174C58.3275 5.93792 58.3333 5.914 58.3353 5.89965V5.88626V5.87382C58.3353 5.86712 58.3353 5.86139 58.3353 5.85469C58.3353 5.84799 58.3353 5.84225 58.3353 5.83651V5.82503C58.3348 5.8193 58.3348 5.81355 58.3353 5.80781C58.3348 5.8024 58.3348 5.79696 58.3353 5.79155C58.3347 5.78646 58.3347 5.78133 58.3353 5.77624C58.3348 5.77275 58.3348 5.76921 58.3353 5.76572V5.75328V5.7418C58.3353 5.73319 58.3353 5.72363 58.3431 5.71502V5.70258V5.69301V5.67962L58.3518 5.65188V5.64231V5.63083C58.3522 5.62606 58.3522 5.62126 58.3518 5.61648L58.3596 5.59352C58.3609 5.58833 58.3625 5.58322 58.3644 5.57822C58.3644 5.57822 58.3644 5.56961 58.3644 5.56482C58.3644 5.56004 58.3693 5.55047 58.3712 5.54378L58.38 5.5189L58.3848 5.50551V5.4969V5.48829C58.3853 5.48447 58.3853 5.48063 58.3848 5.47681V5.47012V5.45672L58.3907 5.44142C58.3907 5.43663 58.3907 5.43185 58.3907 5.42802V5.42228L58.3965 5.40793C58.3961 5.40348 58.3961 5.399 58.3965 5.39454C58.3971 5.39234 58.3971 5.39004 58.3965 5.38784V5.38019L58.4023 5.36584C58.4023 5.3601 58.4072 5.35436 58.4101 5.34766L58.4179 5.32757C58.4217 5.3205 58.4249 5.31315 58.4276 5.30557L58.4354 5.28835C58.4354 5.28261 58.4402 5.27783 58.4422 5.27209V5.26539L58.449 5.25296V5.24817C58.449 5.24243 58.449 5.23574 58.4567 5.23L58.4655 5.21086C58.4691 5.20436 58.4724 5.19765 58.4752 5.19077L58.4839 5.17356V5.16686C58.4869 5.16228 58.4895 5.15748 58.4917 5.15251V5.15251C58.4953 5.14698 58.4986 5.14123 58.5014 5.13529V5.13529L58.5111 5.11616L58.5218 5.09607L58.5315 5.07789L58.5403 5.06163L58.549 5.04536L58.5597 5.02719L58.5694 5.00997L58.5918 4.97266L58.6034 4.95352L58.6151 4.93439L58.6268 4.91622C59.0804 4.20241 59.7164 3.61838 60.4712 3.22252C61.226 2.82666 62.0731 2.63284 62.9278 2.66044C63.3222 3.39398 63.517 4.21562 63.4932 5.04531C63.4693 5.875 63.2277 6.68448 62.7917 7.39489V7.39489Z" fill="#D6A102"/>
<path d="M58.6423 4.85403L58.6335 4.86743L58.6423 4.85403Z" fill="#D6A102"/>
<path d="M58.2304 6.98736C58.2304 6.97014 58.2236 6.95197 58.2206 6.93475C58.2236 6.95005 58.2265 6.96823 58.2304 6.98736Z" fill="#D6A102"/>
<path d="M62.2029 9.776C62.2029 9.75878 62.2097 9.74156 62.2136 9.72338C62.2097 9.74156 62.2059 9.76165 62.2029 9.776Z" fill="#289438"/>
<path d="M66.3097 11.7802L66.2912 11.7936C65.9767 12.0261 65.6189 12.1958 65.2381 12.2929C64.7547 12.4164 64.2477 12.4198 63.7626 12.3029C63.2775 12.186 62.8294 11.9525 62.4585 11.6233V11.6233C62.4555 11.6181 62.4529 11.6126 62.4507 11.607L62.4439 11.5946V11.5869C62.4421 11.5817 62.4398 11.5765 62.4371 11.5716L62.4303 11.5563V11.5458L62.4255 11.5362L62.4177 11.519L62.4041 11.4874L62.3963 11.4702C62.3895 11.453 62.3827 11.4358 62.3749 11.4186C62.3672 11.4013 62.3749 11.4099 62.3749 11.4052C62.3555 11.3583 62.339 11.3095 62.3225 11.2626C62.3225 11.2626 62.3225 11.255 62.3225 11.2502C62.3225 11.2454 62.3225 11.2358 62.3147 11.2282V11.2177C62.3117 11.2098 62.3091 11.2019 62.3069 11.1937L62.3011 11.1765V11.166V11.1564C62.3011 11.1517 62.3011 11.1459 62.3011 11.1411C62.3011 11.1364 62.3011 11.1316 62.3011 11.1268C62.3011 11.122 62.2933 11.0962 62.2885 11.0809V11.0684C62.2885 11.0627 62.2885 11.0569 62.2885 11.0512C62.2885 11.0455 62.2885 11.0388 62.2885 11.033C62.2885 11.0273 62.2885 11.0225 62.2885 11.0168V11.0101C62.288 11.0059 62.288 11.0018 62.2885 10.9976C62.288 10.9929 62.288 10.9881 62.2885 10.9833V10.9718C62.2885 10.9718 62.2885 10.9642 62.2885 10.9613C62.2881 10.9552 62.2881 10.9492 62.2885 10.9431C62.2885 10.9374 62.2885 10.9326 62.2885 10.9268V10.9125V10.8972V10.8838C62.2885 10.8838 62.2885 10.8761 62.2885 10.8723V10.8627C62.2885 10.8627 62.2885 10.8551 62.2885 10.8503V10.836V10.8274V10.8187C62.288 10.814 62.288 10.8092 62.2885 10.8044V10.7881C62.2885 10.7824 62.2885 10.7766 62.2885 10.7719V10.7566V10.7336C62.2885 10.7336 62.2885 10.725 62.2885 10.7202C62.2885 10.7154 62.2836 10.6819 62.2817 10.6628C62.2797 10.6437 62.2817 10.6532 62.2817 10.6485C62.2821 10.6446 62.2821 10.6408 62.2817 10.637C62.2817 10.637 62.2817 10.6274 62.2817 10.6226C62.2817 10.6178 62.2817 10.6131 62.2817 10.6083C62.2821 10.6045 62.2821 10.6006 62.2817 10.5968C62.2739 10.5011 62.27 10.4122 62.27 10.3194V10.2983C62.2705 10.2932 62.2705 10.2881 62.27 10.283V10.2256C62.2705 10.218 62.2705 10.2103 62.27 10.2027C62.27 10.2027 62.27 10.195 62.27 10.1902V10.1854C62.27 10.1807 62.27 10.1768 62.27 10.173C62.2696 10.1685 62.2696 10.1641 62.27 10.1596C62.2695 10.1542 62.2695 10.1488 62.27 10.1433V10.1433C62.27 10.1386 62.27 10.1328 62.27 10.128C62.27 10.1233 62.27 10.1185 62.27 10.1137C62.27 10.1089 62.27 10.0984 62.27 10.0917C62.2695 10.086 62.2695 10.0802 62.27 10.0745C62.27 10.0687 62.27 10.063 62.27 10.0563C62.27 10.0496 62.27 10.0458 62.27 10.04C62.27 10.04 62.27 10.0295 62.27 10.0238C62.27 10.018 62.27 10.0123 62.27 10.0075C62.27 10.0018 62.27 9.99698 62.27 9.99124C62.2705 9.98615 62.2705 9.98102 62.27 9.97593V9.97593C62.2695 9.97084 62.2695 9.96572 62.27 9.96063C62.27 9.95584 62.27 9.95011 62.27 9.94437V9.92715V9.90897C62.2695 9.90388 62.2695 9.89875 62.27 9.89366V9.85731C62.2704 9.85317 62.2704 9.84901 62.27 9.84487V9.8267C62.27 9.82 62.27 9.8133 62.27 9.80565V9.79226V9.77408C62.27 9.75686 62.2768 9.73964 62.2807 9.72146C62.2846 9.70329 62.2807 9.69755 62.2885 9.68511C62.2962 9.67268 62.2933 9.66311 62.2953 9.65259L62.3215 9.54831C62.3219 9.54258 62.3219 9.53682 62.3215 9.53109C62.3215 9.52631 62.3215 9.52057 62.3264 9.51579L62.339 9.47178C62.339 9.467 62.339 9.46317 62.339 9.45839C62.3394 9.45393 62.3394 9.44945 62.339 9.44499C62.3395 9.44087 62.3395 9.43669 62.339 9.43256C62.339 9.42203 62.3458 9.41151 62.3497 9.40099V9.39142V9.37707C62.3497 9.37707 62.3497 9.36846 62.3545 9.36368V9.35124C62.3566 9.34661 62.3582 9.34181 62.3594 9.33689V9.32541V9.31202L62.3643 9.29958V9.29002L62.3691 9.27758C62.3689 9.27344 62.3689 9.26929 62.3691 9.26514L62.3779 9.24314C62.3779 9.24314 62.3779 9.23549 62.3779 9.23262V9.22305C62.3797 9.21901 62.3814 9.21486 62.3827 9.21061L62.3905 9.1934C62.3905 9.18861 62.3905 9.18287 62.3973 9.17713L62.4031 9.16374L62.4089 9.15035L62.4157 9.13504L62.4225 9.11782C62.4257 9.11268 62.4283 9.10723 62.4303 9.10156L62.4361 9.08912V9.08147L62.4498 9.05277L62.475 9.00207L62.4838 8.9858L62.5003 8.95328L62.5207 8.90066L62.5265 8.88822L62.543 8.85857C62.5488 8.84805 62.5547 8.83752 62.5615 8.827C62.5642 8.82128 62.5674 8.81583 62.5712 8.81074L62.5858 8.78586L62.5926 8.77438L62.6149 8.73899L62.6227 8.72655L62.6305 8.71603L62.6402 8.69976L62.6509 8.68446C62.6529 8.68111 62.6552 8.67792 62.6577 8.67489L62.6674 8.65959L62.6771 8.64619C62.6798 8.64136 62.683 8.63686 62.6868 8.6328L62.6926 8.62419C62.6947 8.62031 62.6973 8.61676 62.7004 8.61367C62.7021 8.61012 62.7044 8.60688 62.7072 8.6041L62.7228 8.58114L62.7305 8.57157L62.7373 8.56296C62.7393 8.55908 62.742 8.55553 62.7451 8.55244L62.7626 8.52948L62.7684 8.52087L62.7762 8.5113L62.7849 8.49983C62.7906 8.49388 62.7958 8.48748 62.8005 8.48069C62.8039 8.47673 62.8072 8.47258 62.8102 8.46826L62.8199 8.45677L62.8345 8.43956C62.8395 8.43275 62.845 8.42635 62.851 8.42042L62.8607 8.40894L62.8665 8.40225L62.8724 8.39459L62.8801 8.38598V8.38024L62.8899 8.36972L62.9005 8.35729L62.9103 8.34676V8.34198L62.9209 8.3305L62.9307 8.31997C62.9307 8.31997 62.9307 8.31998 62.9307 8.31519L62.9365 8.30945C62.9395 8.30489 62.9431 8.30071 62.9472 8.29702V8.29702C62.9515 8.29232 62.956 8.28784 62.9608 8.28362L62.9754 8.26927L62.9928 8.2511L63.0064 8.2377C63.0104 8.23332 63.0146 8.22917 63.0191 8.22527L63.0249 8.21953L63.0346 8.20996L63.0492 8.19561L63.0657 8.18126L63.0822 8.16596L63.0958 8.15256L63.1017 8.14778L63.1143 8.1363L63.1289 8.12291L63.1444 8.10856L63.1619 8.09421L63.1784 8.08081L63.193 8.06838L63.2076 8.0569L63.2241 8.0435L63.2406 8.03107L63.2765 8.00332L63.294 7.98993L63.3115 7.9775L63.329 7.9641C64.014 7.45969 64.8215 7.14119 65.6707 7.04047C66.52 6.93974 67.3812 7.0603 68.1682 7.39011C68.2715 8.21772 68.1544 9.05754 67.8286 9.82717C67.5028 10.5968 66.9793 11.2698 66.3097 11.7802V11.7802Z" fill="#289438"/>
<path d="M63.3688 7.9354L63.3561 7.94497L63.3688 7.9354Z" fill="#289438"/>
<path d="M63.356 7.94391H63.3513L63.356 7.93923V7.94391Z" fill="#289438"/>
<path d="M62.2029 9.776C62.2029 9.75878 62.2097 9.74156 62.2136 9.72338C62.2097 9.74156 62.2059 9.76165 62.2029 9.776Z" fill="#289438"/>
<path d="M64.8834 13.792L64.9126 13.7461L64.8834 13.792Z" fill="#C11728"/>
<path d="M67.9749 17.1202L67.9535 17.1259C67.7229 17.1896 67.4855 17.2262 67.2462 17.235C67.0931 17.2405 66.9398 17.2344 66.7877 17.2168C65.9905 17.124 65.2634 16.7235 64.7659 16.1033C64.6412 15.9477 64.5328 15.78 64.4424 15.6029V15.6029C64.4424 15.5972 64.4424 15.5915 64.4424 15.5848C64.4424 15.5781 64.4424 15.5762 64.4424 15.5714V15.5628C64.4429 15.557 64.4429 15.5513 64.4424 15.5455C64.4424 15.5408 64.4424 15.535 64.4424 15.5293V15.5015C64.4419 15.4955 64.4419 15.4894 64.4424 15.4834C64.4424 15.4719 64.4424 15.4604 64.4424 15.4489C64.4419 15.4429 64.4419 15.4368 64.4424 15.4307C64.4424 15.4116 64.4424 15.3934 64.4424 15.3753V15.36C64.4424 15.3093 64.4424 15.2643 64.4424 15.2088C64.4424 15.2088 64.4424 15.2002 64.4424 15.1954C64.4424 15.1906 64.4424 15.1801 64.4424 15.1725V15.1619C64.4424 15.1533 64.4424 15.1447 64.4424 15.1361C64.4424 15.1275 64.4424 15.1246 64.4424 15.1189C64.4428 15.1154 64.4428 15.1119 64.4424 15.1084C64.4424 15.1084 64.4424 15.1007 64.4424 15.0978C64.4424 15.095 64.4424 15.0873 64.4424 15.0816C64.4419 15.0768 64.4419 15.072 64.4424 15.0672C64.4424 15.051 64.4424 15.0357 64.4472 15.0203C64.4521 15.005 64.4472 15.0108 64.4472 15.006C64.4472 15.0003 64.4472 14.9945 64.4472 14.9888V14.9706C64.4467 14.9652 64.4467 14.9597 64.4472 14.9543V14.9467C64.4468 14.9425 64.4468 14.9384 64.4472 14.9342C64.4468 14.9295 64.4468 14.9247 64.4472 14.9199C64.4468 14.9161 64.4468 14.9122 64.4472 14.9084C64.4472 14.9084 64.4472 14.9008 64.4472 14.8969V14.8788V14.8625V14.8481C64.4468 14.8434 64.4468 14.8386 64.4472 14.8338V14.8194V14.808V14.7984V14.7869V14.7726V14.763V14.7544V14.74V14.7247V14.72C64.4477 14.7149 64.4477 14.7097 64.4472 14.7047C64.4467 14.6996 64.4467 14.6944 64.4472 14.6893C64.4468 14.6817 64.4468 14.674 64.4472 14.6664V14.6539L64.4618 14.5975C64.4622 14.5931 64.4622 14.5886 64.4618 14.5841V14.5736C64.4618 14.5736 64.4618 14.564 64.4667 14.5592C64.4662 14.5545 64.4662 14.5497 64.4667 14.5449V14.5334C64.4929 14.4444 64.523 14.3574 64.558 14.2713C64.558 14.2713 64.558 14.2636 64.558 14.2598V14.2512L64.5638 14.2378L64.5697 14.2215L64.5745 14.211V14.2005C64.5745 14.1957 64.5745 14.19 64.5813 14.1842L64.59 14.1641L64.5959 14.1527V14.1469C64.596 14.1434 64.596 14.1399 64.5959 14.1364L64.6017 14.124L64.6085 14.1096C64.6104 14.1047 64.6126 14.0999 64.6153 14.0953L64.6211 14.0828L64.6309 14.0627L64.6386 14.0474L64.6464 14.0312L64.6542 14.0168L64.661 14.0025C64.664 13.9976 64.6665 13.9925 64.6687 13.9872V13.9872C64.6687 13.9872 64.6687 13.9786 64.6765 13.9738C64.6785 13.969 64.6811 13.9645 64.6843 13.9604C64.6843 13.9556 64.6891 13.9508 64.6921 13.947C64.6943 13.942 64.6969 13.9372 64.6998 13.9326L64.7086 13.9173L64.7173 13.902L64.7261 13.8877V13.8819L64.7329 13.8705L64.7416 13.8551L64.7533 13.837L64.7601 13.8245L64.7698 13.8102L64.7989 13.7643C64.8057 13.7537 64.8125 13.7432 64.8203 13.7327L64.9495 13.6839C64.9699 13.6542 64.9903 13.6255 65.0117 13.5969L65.0224 13.5825L65.0321 13.5691C65.0418 13.5567 65.0515 13.5452 65.0603 13.5328L65.069 13.5222L65.0778 13.5108L65.0865 13.5012L65.1069 13.4754L65.1137 13.4667L65.1234 13.4553L65.1331 13.4438L65.1409 13.4352L65.1516 13.4227L65.1594 13.4132L65.1681 13.4027L65.1769 13.3931L65.1837 13.3854L65.1924 13.3749L65.2021 13.3644L65.2186 13.3472L65.2264 13.3386L65.2332 13.3309L65.2429 13.3213L65.2556 13.3079L65.2672 13.2955L65.2779 13.285L65.2876 13.2745L65.2993 13.262L65.3129 13.2496L65.3255 13.2371L65.3362 13.2266L65.342 13.2209L65.3653 13.1998L65.4071 13.1616L65.4217 13.1491L65.4489 13.1243L65.481 13.0975L65.4916 13.0889L65.5179 13.0669L65.547 13.0439L65.5616 13.0324L65.5849 13.0152L65.5956 13.0066L65.6296 12.9808L65.6413 12.9722L65.6519 12.9645L65.6675 12.954L65.683 12.9425L65.6928 12.9368L65.7073 12.9262L65.7219 12.9167L65.7345 12.9071L65.7433 12.9014L65.7549 12.8947L65.7646 12.888L65.788 12.8727L65.7986 12.866L65.8074 12.8602L65.8191 12.8535L65.8443 12.8382L65.8531 12.8325L65.8628 12.8267L65.8754 12.8191L65.8968 12.8067L65.9114 12.798L65.924 12.7914L65.9434 12.7799L65.9667 12.7674L65.9794 12.7607H65.9871H65.9959L66.0066 12.755H66.0124L66.025 12.7483L66.0406 12.7407L66.0532 12.734H66.059L66.0726 12.7273L66.0853 12.7206H66.0911H66.0989L66.1134 12.7139L66.1309 12.7062L66.1503 12.6976L66.1727 12.688L66.1902 12.6804L66.2057 12.6727H66.2125L66.2261 12.667L66.2446 12.6593L66.265 12.6507L66.2854 12.6421L66.3039 12.6354H66.3107L66.3262 12.6287L66.3447 12.622L66.3651 12.6144L66.3864 12.6067L66.4068 12.6L66.4243 12.5943L66.4418 12.5885L66.4622 12.5818L66.4816 12.5761L66.5244 12.5627L66.5458 12.557L66.5681 12.5512L66.5895 12.5455C67.4131 12.3187 68.2827 12.3089 69.1114 12.5171C69.94 12.7252 70.6986 13.1441 71.3112 13.7317C71.0976 14.5312 70.6784 15.263 70.094 15.8565C69.5096 16.45 68.7798 16.8852 67.9749 17.1202V17.1202Z" fill="#C11728"/>
<path d="M64.8834 13.792L64.9126 13.7461L64.8834 13.792Z" fill="#C11728"/>
<path d="M65.9104 18.4892L65.9541 18.4576L65.9104 18.4892Z" fill="#E6331D"/>
<path d="M67.5727 22.6927H67.5503C66.9553 22.637 66.3905 22.4087 65.9275 22.0365C65.4644 21.6644 65.1241 21.1653 64.9495 20.6024C64.8897 20.4131 64.8499 20.2181 64.831 20.0207V20.0207L64.8368 20.0035C64.8364 19.9991 64.8364 19.9946 64.8368 19.9901V19.9815C64.8365 19.9761 64.8365 19.9707 64.8368 19.9653C64.8364 19.9602 64.8364 19.9551 64.8368 19.95V19.9394V19.9289L64.8427 19.9117L64.8543 19.8792L64.8601 19.8619L64.8805 19.8093C64.8816 19.8047 64.8832 19.8002 64.8854 19.7959C64.9039 19.7481 64.9233 19.7003 64.9437 19.6563L64.9495 19.6438L64.9592 19.6228V19.6123L64.9699 19.5903C64.9699 19.5845 64.9748 19.5788 64.9777 19.574V19.5644L64.9826 19.5549L64.9893 19.5405C64.9893 19.5357 64.9942 19.5319 64.9962 19.5271C64.9981 19.5223 65.0107 19.4994 65.0185 19.485L65.0243 19.4735C65.0273 19.4683 65.0299 19.4629 65.0321 19.4573L65.0418 19.441C65.044 19.436 65.0466 19.4312 65.0496 19.4267V19.4209L65.0554 19.4094L65.0622 19.397L65.069 19.3865C65.069 19.3865 65.069 19.3798 65.0739 19.3769L65.0836 19.3607L65.0923 19.3463L65.1438 19.3281L65.1516 19.3157L65.1594 19.3042L65.1652 19.2947V19.286L65.172 19.2755L65.1807 19.2631L65.1856 19.2554V19.2478L65.1934 19.2363L65.2021 19.2229L65.2109 19.2095L65.2196 19.1961C65.2245 19.19 65.229 19.1836 65.2332 19.177L65.241 19.1665L65.275 19.1186L65.2837 19.1071L65.2905 19.0985L65.2993 19.0871L65.308 19.0746L65.3158 19.066C65.3721 18.9924 65.4333 18.9216 65.4965 18.8536L65.5043 18.845L65.5111 18.8374C65.5149 18.8341 65.5184 18.8306 65.5218 18.8269L65.5334 18.8144L65.5422 18.8058L65.5499 18.7982C65.5536 18.7935 65.5579 18.7894 65.5626 18.7857L65.5781 18.7694L65.5869 18.7608L65.5946 18.7532L65.6053 18.7436L65.617 18.7321L65.6296 18.7207L65.6393 18.7111L65.6558 18.6958L65.6685 18.6843L65.6821 18.6719L65.6947 18.6614L65.7073 18.6508L65.72 18.6393L65.7316 18.6288L65.7433 18.6193C65.7473 18.6166 65.7509 18.6134 65.754 18.6097V18.6097L65.7666 18.5992L65.7812 18.5877L65.7948 18.5762L65.8074 18.5666L65.8132 18.5619L65.8229 18.5542L65.8375 18.5427L65.854 18.5303L65.8657 18.5207L65.8803 18.5102L65.924 18.4786L65.9551 18.4566L65.9823 18.4375L66.0726 18.3782L66.0882 18.3686L66.1018 18.36L66.1416 18.3361L66.1533 18.3284L66.1659 18.3217L66.1775 18.315L66.2067 18.2988L66.2154 18.293L66.2281 18.2863L66.2417 18.2787L66.2524 18.2729L66.2669 18.2653L66.2776 18.2596L66.2902 18.2529L66.3019 18.2471H66.3116L66.3233 18.2414L66.3359 18.2356L66.3573 18.2251L66.368 18.2194H66.3767L66.3893 18.2136L66.4059 18.206L66.4224 18.1983L66.436 18.1926L66.4496 18.1859L66.4651 18.1792L66.4816 18.1715L66.4991 18.1639H66.5118H66.5195L66.5487 18.1524L66.6031 18.1314L66.6206 18.1247L66.6555 18.1122L66.6944 18.0988H66.708L66.7401 18.0883L66.776 18.0768L66.7935 18.0711L66.8207 18.0634L66.8343 18.0587L66.8761 18.0472H66.8897H66.9023L66.9208 18.0424H66.9392H66.9509H66.9684H66.9849H67.0004H67.0111H67.0238H67.0354L67.0626 18.0367H67.0753H67.0859H67.0995H67.1277H67.1384H67.1501H67.1646H67.1889H67.2045H67.219H67.2414H67.2676H67.2822H67.3201H67.3347H67.3512H67.3657H67.3716H67.3871H67.4017H67.458H67.4794H67.8622H67.9079H67.9292H67.9506H67.973C68.8243 18.1181 69.639 18.4183 70.3355 18.9072C71.032 19.3961 71.5858 20.0565 71.9417 20.8224C71.4363 21.4756 70.7694 21.9904 70.0045 22.3178C69.2397 22.6452 68.4025 22.7742 67.5727 22.6927V22.6927Z" fill="#E6331D"/>
<path d="M65.9104 18.4892L65.9541 18.4576L65.9104 18.4892Z" fill="#E6331D"/>
<path d="M65.1439 23.2351L65.1963 23.2207L65.1439 23.2351Z" fill="#00A7D7"/>
<path d="M65.1516 27.7466L65.1312 27.7361C64.5983 27.4725 64.1568 27.0591 63.8628 26.5481C63.5687 26.0372 63.4354 25.4518 63.4796 24.8662C63.4933 24.6684 63.5278 24.4725 63.5826 24.2817V24.2817L63.5942 24.2673L63.603 24.2568V24.2501C63.6069 24.2459 63.6104 24.2414 63.6137 24.2367L63.6244 24.2243L63.6321 24.2157L63.6389 24.207L63.6506 24.1927L63.6729 24.1669L63.6856 24.1525L63.7235 24.1104L63.7332 24.0999C63.7672 24.0626 63.8031 24.0262 63.8391 23.9908C63.8418 23.9872 63.8451 23.984 63.8488 23.9813L63.8653 23.965L63.8731 23.9574L63.8915 23.9401L63.9051 23.9277L63.9129 23.92L63.9207 23.9133L63.9323 23.9028L63.944 23.8923L63.98 23.8607L63.9897 23.8521L64.0033 23.8406L64.0178 23.8292L64.0305 23.8177H64.0363L64.046 23.8091L64.0577 23.8005C64.0605 23.7974 64.0637 23.7948 64.0674 23.7928L64.0761 23.7852L64.0907 23.7737L64.1033 23.7641L64.115 23.7555L64.1267 23.7459L64.1373 23.7373L64.1471 23.7306L64.1548 23.7249L64.1645 23.7172L64.1772 23.7086L64.1849 23.7029L64.1917 23.6981L64.2034 23.6895L64.217 23.6799L64.2306 23.6713L64.2432 23.6617L64.2627 23.6493L64.2734 23.6417L64.3229 23.6101L64.3355 23.6024L64.3453 23.5967L64.3579 23.5881L64.3705 23.5804L64.3802 23.5747C64.4609 23.5259 64.5425 23.479 64.627 23.4408L64.6377 23.436H64.6464L64.66 23.4302L64.6756 23.4226L64.6863 23.4178H64.6969L64.7135 23.4102L64.7339 23.4015L64.7455 23.3958H64.7514H64.762L64.7747 23.3901L64.7902 23.3843L64.8048 23.3786L64.8184 23.3728L64.8398 23.3652L64.8553 23.3585L64.8728 23.3518L64.8883 23.3461L64.9029 23.3403L64.9194 23.3346H64.935L64.9495 23.3298H64.9641L64.9797 23.3241L64.9972 23.3183L65.0137 23.3126H65.0292H65.036H65.0486H65.0661L65.0865 23.3059H65.1001H65.1176L65.1701 23.2915L65.207 23.282L65.24 23.2743C65.275 23.2657 65.311 23.258 65.3459 23.2513H65.3634H65.3799L65.4256 23.2427H65.4392H65.4538H65.4664H65.4994H65.5101H65.5247H65.5402H65.5519H65.5674H65.5801H65.6296H65.6432H65.6588H65.6714H65.687H65.7122H66.1387H66.1756H66.1941H66.2232H66.2368H66.2796H66.2942H66.3068H66.3262H66.3457H66.3563H66.3748H66.3913H66.4078H66.4185H66.4312H66.4428H66.471H66.4836H66.4933H66.5069L66.5361 23.2485H66.5458H66.5584H66.573H66.5963H66.6128H66.6264H66.6488L66.674 23.2542H66.6886H66.6974H66.7071H66.7187H66.7255H66.7391H66.7556H66.7702H66.776H66.7906H66.8042H66.811H66.8198L66.8353 23.259L66.8538 23.2647L66.8742 23.2714L66.8975 23.2781L66.9159 23.2848L66.9325 23.2906H66.9393H66.9529L66.9723 23.2973L66.9927 23.3049L67.0141 23.3126L67.0316 23.3193H67.0384L67.0549 23.325L67.0733 23.3327L67.0937 23.3413L67.1151 23.3499L67.1345 23.3575L67.152 23.3642L67.1686 23.3719L67.188 23.3805L67.2064 23.3881L67.2472 23.4073L67.2676 23.4168L67.2871 23.4264L67.3075 23.4369C68.0713 23.8158 68.7208 24.3856 69.1908 25.0892C69.6609 25.7928 69.9351 26.6056 69.986 27.4463C69.2762 27.9056 68.457 28.1749 67.6093 28.2276C66.7615 28.2803 65.9145 28.1145 65.1516 27.7466V27.7466Z" fill="#00A7D7"/>
<path d="M67.3376 23.4417L67.323 23.4341L67.3376 23.4417Z" fill="#00A7D7"/>
<path d="M65.1439 23.2351L65.1963 23.2207L65.1439 23.2351Z" fill="#00A7D7"/>
<path d="M61.04 31.5962L61.0255 31.5799C60.5562 31.0688 60.2816 30.4131 60.2487 29.7248C60.2157 29.0365 60.4264 28.3583 60.8448 27.806V27.806L60.8603 27.7973L60.872 27.7897H60.8797L60.8943 27.7811L60.9099 27.7725L60.9196 27.7667L60.9293 27.761L60.9458 27.7524L60.9759 27.7361L60.9924 27.7275L61.043 27.7017L61.0566 27.695C61.1022 27.672 61.1489 27.651 61.1955 27.6309L61.2081 27.6251L61.2295 27.6156H61.2402L61.2635 27.606L61.28 27.5993H61.2907H61.3004L61.315 27.5926L61.3286 27.5878L61.3743 27.5716H61.3869L61.4044 27.5658L61.4219 27.5601L61.4374 27.5544H61.4442H61.4568L61.4704 27.5496H61.4821H61.4928L61.5112 27.5438H61.5268H61.5414H61.5559H61.5695H61.5812H61.5899H61.6026H61.6171H61.6259H61.6346H61.6492H61.6648H61.6813H61.6968L61.7192 27.5381H61.7318L61.7901 27.5257H61.8037H61.8153H61.8299H61.8445H61.8561C61.9533 27.5094 62.0417 27.497 62.135 27.4883H62.1573H62.1719H62.2292H62.2467H62.6353H62.6567H62.6713H62.6897H62.7432L62.782 27.4931H62.8151L62.9229 27.5094H62.9404H62.9559L63.0026 27.518H63.0162H63.0298H63.0424L63.0754 27.5247H63.0861H63.1007H63.1153H63.1269H63.1425H63.1551H63.1687H63.1813H63.192H63.2046H63.2182L63.2416 27.5314H63.2523H63.262H63.2756L63.2931 27.5371H63.3105L63.3241 27.5419H63.3387L63.3552 27.5477L63.3727 27.5534L63.3902 27.5591H63.4038H63.4116L63.4407 27.5697L63.4951 27.5897L63.5126 27.5964L63.5476 27.6108L63.5855 27.6261L63.5981 27.6318L63.6302 27.6452L63.6642 27.6605L63.6817 27.6682L63.7069 27.6806L63.7196 27.6864L63.7584 27.7055L63.7711 27.7122L63.7827 27.7179L63.8002 27.7265L63.8167 27.7352L63.8264 27.7409L63.8429 27.7495L63.8575 27.7572L63.8721 27.7658H63.8808L63.8925 27.7725L63.9032 27.7782L63.9275 27.7916L63.9382 27.7983L63.9469 27.804L63.9586 27.8107L63.9838 27.826L63.9926 27.8308L64.0033 27.8375L64.0149 27.8452L64.0363 27.8586L64.0499 27.8672L64.0615 27.8748L64.081 27.8873L64.1024 27.9026L64.114 27.9102L64.1218 27.916H64.1296L64.1393 27.9236H64.1451L64.1568 27.9313L64.1704 27.9418L64.183 27.9504L64.1946 27.96L64.2053 27.9686L64.2112 27.9734H64.218L64.2316 27.9829L64.2461 27.9944L64.2627 28.0078L64.2821 28.0231L64.2967 28.0346L64.3103 28.0451H64.3161C64.3192 28.0488 64.3228 28.052 64.3268 28.0547V28.0547L64.3423 28.0681L64.3588 28.0824L64.3754 28.0977L64.3899 28.1102H64.3948L64.4074 28.1216L64.422 28.1341L64.4375 28.1484L64.4541 28.1637L64.4696 28.179L64.4832 28.1924L64.4968 28.2049L64.5123 28.2202L64.5259 28.2345L64.557 28.2671C64.5627 28.272 64.5679 28.2774 64.5726 28.2833V28.2833L64.5872 28.2996L64.6027 28.3158C65.1751 28.9406 65.571 29.7023 65.751 30.5248C65.9311 31.3473 65.8889 32.202 65.6286 33.0034C64.8055 33.1781 63.9504 33.1403 63.1465 32.8938C62.3425 32.6472 61.6169 32.2002 61.04 31.5962V31.5962Z" fill="#FBB800"/>
<path d="M64.6581 28.3608L64.6474 28.3493L64.6581 28.3608Z" fill="#FBB800"/>
<path d="M58.8754 30.386L58.924 30.4109L58.8754 30.386Z" fill="#931831"/>
<path d="M55.7947 33.7247L55.7869 33.7037C55.701 33.4837 55.6419 33.2544 55.611 33.0206C55.5918 32.8709 55.5837 32.72 55.5867 32.5691C55.6077 31.7788 55.9458 31.0289 56.5272 30.4836C56.673 30.3471 56.8325 30.2257 57.0033 30.121V30.121H57.0217H57.0353H57.0441H57.0615H57.0781H57.0897H57.1004H57.1189H57.1538H57.1723L57.2287 30.1143H57.2432C57.2947 30.1096 57.3452 30.1057 57.3967 30.1038H57.7154H57.7348H57.7708H57.7853H57.8232H57.8359H57.8679H57.8835H57.899H57.9039H57.9204H57.9359H57.9593H57.9719L58.0302 30.1134H58.0447H58.0564H58.071H58.0856H58.0972C58.1895 30.1306 58.2808 30.1526 58.3702 30.1784H58.3828H58.3916H58.4062L58.4227 30.1832H58.4343H58.445L58.4615 30.189L58.4839 30.1957H58.4955H58.5014H58.5121L58.5257 30.2004H58.5412L58.5568 30.2052H58.5704L58.5917 30.2138L58.6073 30.2196L58.6248 30.2263L58.6403 30.232L58.6549 30.2377L58.6714 30.2444L58.686 30.2502L58.7005 30.2559L58.7141 30.2617L58.7297 30.2684L58.7462 30.2751L58.7627 30.2827L58.7773 30.2894H58.7841H58.7957L58.8123 30.2971L58.8317 30.3066L58.8443 30.3124L58.8608 30.32L58.9094 30.3449L58.9434 30.3621L58.9726 30.3784L59.0697 30.431L59.0853 30.4406L59.0998 30.4492L59.1387 30.4731L59.1504 30.4807L59.163 30.4884L59.1737 30.4951L59.2019 30.5133L59.2106 30.519L59.2223 30.5276L59.2349 30.5362L59.2456 30.5429L59.2582 30.5515L59.2689 30.5592L59.2806 30.5668L59.2912 30.5745H59.2961L59.3039 30.5802L59.3146 30.5879L59.3252 30.5955L59.3456 30.6099L59.3544 30.6175L59.3622 30.6233L59.3728 30.6319L59.3874 30.6424L59.402 30.6539L59.4137 30.6635L59.4253 30.673L59.4389 30.6835L59.4525 30.695L59.4671 30.7065L59.4778 30.7151L59.4846 30.7209L59.5079 30.7419L59.5506 30.7792L59.5652 30.7917L59.5924 30.8175L59.6216 30.8462L59.6322 30.8557C59.641 30.8634 59.6488 30.872 59.6565 30.8797L59.6828 30.9065L59.6964 30.9198L59.7158 30.9399L59.7255 30.9505L59.7537 30.982C59.7574 30.9851 59.7607 30.9886 59.7634 30.9925L59.7722 31.0021L59.7848 31.0165L59.7974 31.0299L59.8052 31.0394L59.8168 31.0528L59.8275 31.0653L59.8382 31.0777L59.845 31.0863L59.8538 31.0959C59.8558 31.0992 59.8581 31.1024 59.8606 31.1054L59.878 31.1265L59.8858 31.137L59.8926 31.1447L59.9004 31.1552L59.9188 31.1781L59.9247 31.1867L59.9325 31.1963L59.9412 31.2078C59.9412 31.2145 59.9499 31.2212 59.9548 31.2279C59.9583 31.2318 59.9616 31.2359 59.9645 31.2403L59.9733 31.2528C59.9733 31.2585 59.982 31.2642 59.9859 31.2709L60.0014 31.292C60.0037 31.296 60.0063 31.2999 60.0092 31.3035L60.0141 31.3111L60.0199 31.3197L60.0267 31.3293V31.335L60.0345 31.3465L60.0432 31.3609C60.0464 31.3646 60.049 31.3688 60.051 31.3733V31.3733C60.053 31.3778 60.0556 31.3819 60.0588 31.3857V31.3857L60.0665 31.3982V31.4039V31.4106L60.0753 31.425C60.078 31.4307 60.0812 31.4361 60.085 31.4412V31.4412L60.0957 31.4594C60.1002 31.4662 60.1045 31.4732 60.1083 31.4804L60.118 31.4967L60.1268 31.512V31.5187L60.1345 31.5311C60.1345 31.5369 60.1413 31.5426 60.1442 31.5493C60.1442 31.556 60.1511 31.5627 60.1549 31.5684C60.1549 31.5742 60.1617 31.5809 60.1647 31.5876L60.1734 31.6048V31.6105C60.1754 31.6159 60.178 31.621 60.1812 31.6258V31.6258L60.1899 31.6431C60.1928 31.6496 60.196 31.656 60.1996 31.6622L60.2084 31.6823C60.2084 31.689 60.2152 31.6957 60.2181 31.7014L60.2259 31.7186C60.228 31.7242 60.2306 31.7297 60.2336 31.7349V31.7349L60.2424 31.754C60.2444 31.7603 60.247 31.7664 60.2501 31.7722V31.7722L60.2676 31.8124C60.2706 31.8193 60.2732 31.8263 60.2754 31.8334V31.8334L60.2832 31.8535L60.291 31.8746C60.6293 32.6725 60.7428 33.5455 60.6195 34.4016C60.4963 35.2577 60.1408 36.0653 59.5905 36.7391C58.745 36.6082 57.9493 36.2608 57.2832 35.7318C56.617 35.2028 56.1037 34.5106 55.7947 33.7247Z" fill="#931831"/>
<path d="M60.3541 31.9951L60.3492 31.9798C60.3492 31.9798 60.3522 31.9903 60.3541 31.9951Z" fill="#931831"/>
<path d="M58.8754 30.386L58.924 30.4109L58.8754 30.386Z" fill="#931831"/>
<path d="M21.3797 36.0819V8.39938C21.0496 8.56394 20.7049 8.69843 20.3499 8.80117C19.8635 8.95614 19.3269 9.11112 18.7401 9.2661C18.1533 9.42108 17.6166 9.57605 17.1302 9.73103C16.6438 9.88601 16.2876 10.0056 16.0615 10.0898V5.60979C16.4618 5.46884 16.9625 5.27177 17.5635 5.01858C18.1646 4.76539 18.7941 4.46978 19.4522 4.13176C20.101 3.79834 20.7314 3.43143 21.3409 3.03258C21.865 2.70228 22.3414 2.30392 22.7574 1.84824H27.4791V36.0819H21.3797Z" fill="#4F91CD"/>
<path d="M5.15792 26.238V20.4761H0V17.2608H5.15792V11.6089H8.64478V17.2608H13.9115V20.4761H8.64478V26.2342L5.15792 26.238Z" fill="#4F91CD"/>
</g>
<defs>
<clipPath id="clip0_120_1564">
<rect width="72" height="38" fill="white"/>
</clipPath>
</defs>
</svg>
